<svg xmlns="http://www.w3.org/2000/svg" viewBox="0 0 131.84 216"><defs><style>.cls-1{fill:#262424;}.cls-2{fill:#fff;}.cls-3{fill:#e6dfd7;}.cls-4{fill:#7ca8c7;}</style></defs><title>char-3</title><g id="Слой_2" data-name="Слой 2"><g id="Character_Art" data-name="Character Art"><path class="cls-1" d="M101.07,213.85a32.38,32.38,0,0,0-3.27-.09.4.4,0,0,1-.15,0c.12-.28.4-.53.38-.85-.41-.26-1-.05-1.42,0l-.7.12-.79.16a.24.24,0,0,1-.14,0c.21-.29.76-.71,0-.91a2.79,2.79,0,0,0-1.11.06l-.11,0c-.27,0-.73.14-.79.16a3.13,3.13,0,0,1-.76.19s-.1,0-.14,0c.19-.26.57-.47.67-.82a1.85,1.85,0,0,0-1,0,12.51,12.51,0,0,0-2.23.77.22.22,0,0,1-.09,0c.14-.25.49-.53.35-.84-.27-.15-.85,0-1,.07a19.63,19.63,0,0,1-2.38.47.24.24,0,0,1-.12,0c.12-.28.41-.54.39-.86a2.68,2.68,0,0,0-1.46,0c-.24,0-.64.11-.7.12l-.78.17a.31.31,0,0,1-.11,0c.22-.34.87-.77-.06-.92a7.74,7.74,0,0,0-2.75.48l-.08,0c.22-.27.59-.48.68-.84a1.84,1.84,0,0,0-.92,0c-.36.08-.71.19-1.06.3l-.1,0-.69.26c-.05,0-.38.15-.57.23.26-.24.66-1.08,0-.91-.24,0-.66.1-.72.11-.82.12-4.14.57-4.65,1.06,0,0-.16.1-.12.21.21.29.85.33,1,.34.66,0,2.25-.18,2.71-.07,0,0,.09,0,.14,0-.09.21-.3.46-.23.71a1.91,1.91,0,0,0,.89,0,2.73,2.73,0,0,1,.68-.18.84.84,0,0,1,.18,0c-.11.18-.39.4-.36.68a.36.36,0,0,0,.2.38.37.37,0,0,0,.25,0c.23-.05.62-.18.68-.19.41-.13.82-.28,1.22-.42l.21-.06c.22-.09.62-.22.68-.24l.81-.29a.65.65,0,0,1,.17,0c-.36.3-1.33,1.19-.43,1.54a4.27,4.27,0,0,0,1.76-.34l.1,0c.23-.07.63-.22.68-.24.23-.08.45-.17.68-.24l.2-.06c-.22.24-.9.89-.2,1s2.3-.56,3.11-.67h.07c-.14.35-.45.7-.4,1.09a2,2,0,0,0,.91-.2l.68-.29.1-.05.19-.08c-.18.15-.76,1,0,1.07a23,23,0,0,0,3.68-1.19.37.37,0,0,1,.18,0c-.26.26-1.27,1.17-.51,1.5.61.27,2.68-.62,3.35-.83a.53.53,0,0,1,.17,0c-.17.18-.46.52-.5.57a4.4,4.4,0,0,0-.53.83s0,.06,0,.07a1.76,1.76,0,0,0,.88,0c1.23-.18,4.8-.91,5.71-1.6,0,0,.23-.1.21-.23A1.67,1.67,0,0,0,101.07,213.85Z"/><path class="cls-2" d="M71.7,146.32a6.68,6.68,0,0,1,.33.74c-.2,0-.58.36-.68.13a1.11,1.11,0,0,0,0-.17v-.1c0-.33-.07-.66-.1-1a7,7,0,0,1-.06-.73.34.34,0,0,1,0,.1C71.36,145.65,71.54,146,71.7,146.32Z"/><path class="cls-2" d="M52.71,146.86c-.27-.15.28-.83.34-1.12,0,.35-.08.7-.1,1,0,.09-.07.15-.15.1Z"/><path class="cls-2" d="M62.4,125.11c-.19-.68-.36-1.36-.54-2a7.43,7.43,0,0,1-.19-.74,5.85,5.85,0,0,1,.66,0l.77,0s.22,0,.23,0a12.34,12.34,0,0,1-.55,1.88l-.21.68v0a1.24,1.24,0,0,1-.12.32h0A.54.54,0,0,1,62.4,125.11Z"/><path class="cls-2" d="M61.23,120.73c-.07-.29-.16-.57-.23-.86,0-.06-.14-.49-.2-.74.07,0,.23,0,.27,0a15.64,15.64,0,0,0,2.56,0c.06,0,.46-.09.69-.12A8.7,8.7,0,0,1,64,120.1l-.05.13c0,.07-.06.19-.06.2-.24.8-.24.69-1.05.76,0,0-1.32.16-1.57-.18l0-.19A.81.81,0,0,1,61.23,120.73Z"/><path class="cls-2" d="M74.93,144.37a3.79,3.79,0,0,1-1.31,1.86,4.77,4.77,0,0,1-.67.38l-.09-.1c-.48-.69-1-1.37-1.45-2.08,0-.06-.28-.45-.4-.69s-.06-.6-.07-.65,0-.48-.06-.72l.12,0,1.12.52.65.3h0l.09,0,1.3.6c.07,0,.5.23.73.36A.31.31,0,0,1,74.93,144.37Z"/><path class="cls-2" d="M70.66,140.17h.13c1.29.06,2.58.25,3.86.36.07,0,.5,0,.74.08a.13.13,0,0,1,0,.07,6.51,6.51,0,0,1,0,1.87,3.22,3.22,0,0,1-.15.8l-.13-.05c-.46-.17-.91-.36-1.36-.54l-.7-.26-.14-.06-.79-.3c-.09,0-1.48-.33-1.39-.92a.47.47,0,0,0,0-.17C70.73,140.75,70.66,140.46,70.66,140.17Z"/><path class="cls-2" d="M73.7,137.68c.07,0,.53,0,.79,0,.5-.08.54.73.61,1.09a3.32,3.32,0,0,1,.12.81.27.27,0,0,1-.12,0,29.6,29.6,0,0,1-3.53-.15c-.49,0-.9.12-1-.34a6,6,0,0,0-.08-.73v-.15c0-.13-.06-.26,0-.37a.31.31,0,0,1,.16,0A20.74,20.74,0,0,1,73.7,137.68Z"/><path class="cls-2" d="M74.51,136.57s.06.19,0,.21-3,.19-3.36.21l-.82,0a.18.18,0,0,0-.05-.07,7.18,7.18,0,0,1-.08-.87c0-.06,0-.49-.08-.74l0-.15s0-.06,0-.06a17.74,17.74,0,0,1,2.88-.25c.06,0,.5,0,.75-.07s.47.93.48.95.15.49.22.73Z"/><path class="cls-2" d="M51.68,146.25c-.36,0-1.38-1.39-1.54-1.72,0-.05-.17-.46-.26-.69,0,0,.09-.05.1-.06.87-.37,1.79-.67,2.68-1l.71-.24h0v0c0,.19,0,.52-.06.57s-.05.45-.07.68a1,1,0,0,0,0,.17l0,.13a1.09,1.09,0,0,1-.08.14l-1,1.36a7.15,7.15,0,0,1-.47.65S51.7,146.25,51.68,146.25Z"/><path class="cls-2" d="M50.48,142.79c-.08,0-.54.16-.8.21,0,0,0-.1,0-.1a6.82,6.82,0,0,1-.14-2,1.88,1.88,0,0,1,.17-.78h0a.29.29,0,0,1,.17,0l2.91.21a7.61,7.61,0,0,1,.86.09,2.83,2.83,0,0,1,0,.41V141c0,.26-.07.53-.09.8l0,.08c0,.07-.11.08-.14.09C52.4,142.28,51.42,142.51,50.48,142.79Z"/><path class="cls-2" d="M53.52,139.5a22.24,22.24,0,0,1-2.91-.22c-.06,0-.5,0-.75-.07,0,0,0-.09,0-.11.06-.34.13-.68.21-1,0-.07.12-.52.19-.77h.08l2.73.39a6.09,6.09,0,0,1,.81.15.82.82,0,0,1,0,.27l0,.15c0,.15,0,.4,0,.43a4,4,0,0,1-.12.8A.82.82,0,0,1,53.52,139.5Z"/><path class="cls-2" d="M53.75,136.94a19.12,19.12,0,0,1-2.45-.4,7.69,7.69,0,0,1-.81-.14.71.71,0,0,1,0-.16l.24-1c0-.06.12-.5.2-.74a1.76,1.76,0,0,1,.4.07h.06l.1,0,1.79.38.79.16h.06a.13.13,0,0,1,0,.09s0,.08,0,.08c0,.28-.07.55-.11.82a4.33,4.33,0,0,1-.14.8C53.87,137,53.76,136.94,53.75,136.94Z"/><path class="cls-2" d="M55.73,177.94a.84.84,0,0,1,.19,0c.64,0,1.29.07,1.93.11l.77,0h.09l1.15.06a7.5,7.5,0,0,1,.76.06.7.7,0,0,1,0,.34c0,.07,0,.55,0,.81a.39.39,0,0,0,0,.19v.73c0,.07,0,.54,0,.79a4.14,4.14,0,0,1-.77,0l-.78,0L59,181c-.6-.05-1.2-.07-1.8-.1l-.78,0a.49.49,0,0,0-.17,0c-.31,0-.61,0-.91-.06a1.44,1.44,0,0,1,0-.41c0-.06,0-.52,0-.78a.47.47,0,0,0,0-.17c0-.25,0-.69,0-.75a5,5,0,0,1,.05-.77h.11A.47.47,0,0,0,55.73,177.94Z"/><path class="cls-2" d="M59.59,185.74c-.07,0-.51,0-.77,0l-.18,0c-.64-.05-1.28-.08-1.93-.12l-.78,0c-.28,0-.56,0-.84-.06a3.15,3.15,0,0,1,0-.62c0-.06,0-.53,0-.79a.55.55,0,0,0,0-.18c0-.34.06-.68.1-1,.3,0,.6,0,.91,0a.47.47,0,0,0,.17,0,.82.82,0,0,1,.18,0l1.67.1.78,0a.5.5,0,0,0,.17,0l.79,0c.06,0,.52,0,.77.05.07.1,0,.26,0,.39a.5.5,0,0,0,0,.17v.18c0,.37,0,.73,0,1.09a3.51,3.51,0,0,1,0,.79h-.09Z"/><path class="cls-2" d="M55,188.29a6.28,6.28,0,0,1,0-.77c.26,0,.51,0,.76,0a.5.5,0,0,0,.17,0l.16,0c.59,0,1.19.08,1.79.12l.77,0H59l1,.06c.06,0,.51,0,.76.06a.2.2,0,0,1,0,.07c0,.67,0,1.35,0,2,0,.07,0,.54,0,.81h-.12l-.9-.05c-.06,0-.51,0-.76,0h-.1c-.68,0-1.36-.09-2.05-.13l-.78,0a3.51,3.51,0,0,0-.37,0c-.07,0-.52,0-.77,0a1.64,1.64,0,0,1,0-.59c0-.07,0-.53,0-.8a.5.5,0,0,0,0-.17C54.94,188.67,55,188.34,55,188.29Z"/><path class="cls-2" d="M60.77,193c.06.07,0,1.79,0,2a3,3,0,0,1,0,.76h-.25c-.63,0-1.27-.09-1.91-.13l-.77,0a.55.55,0,0,0-.18,0h-.1c-.68,0-1.37-.08-2.05-.12-.06,0-.51,0-.76-.06a.33.33,0,0,0,0-.1,7.32,7.32,0,0,1,0-.9c0-.07,0-.53,0-.8a.91.91,0,0,0,0-.17,7,7,0,0,1,0-.92l1.06.06a.47.47,0,0,0,.17,0,.92.92,0,0,1,.19,0c.59.06,1.2.08,1.79.12l.77,0a.55.55,0,0,0,.18,0l.14,0,.9.05a5.17,5.17,0,0,1,.74.07S60.77,192.94,60.77,193Z"/><path class="cls-2" d="M60.35,200c-1.41-.11-2.82-.19-4.23-.26l-.78,0h-.17l-.61,0c-.06,0,0-.13,0-.14a37.62,37.62,0,0,1,.1-2.07h.17c.63,0,1.27.09,1.9.13l.78,0a.47.47,0,0,0,.17,0,.49.49,0,0,1,.13,0c.63,0,1.27.08,1.91.12l.78,0a.52.52,0,0,0,.17,0c.22.05.13.55.13.74,0,0,.12,1.26-.13,1.48a.47.47,0,0,0-.17,0A.38.38,0,0,1,60.35,200Z"/><path class="cls-2" d="M55.05,202.54c-.6-.14-.74-.23-.58-.87.18,0,.35,0,.53,0a.47.47,0,0,0,.17,0,.84.84,0,0,1,.19,0c1.4.12,2.81.18,4.22.27l.77,0a.5.5,0,0,0,.17,0c.42-.09.27.72.27,1.13,0,.07,0,.55,0,.81-.16,0-.33,0-.5,0a7.33,7.33,0,0,0-.54,0,.32.32,0,0,0-.12,0,5,5,0,0,1-2.26-.33c-.06,0-.46-.28-.7-.39a1.14,1.14,0,0,0-.19-.1l-.19-.09-.32-.14a6.24,6.24,0,0,0-.69-.27Z"/><path class="cls-2" d="M70.16,204.19h1.09a3.86,3.86,0,0,1,.91.05h0v0h0c0,.12.09.27,0,.37l-.21.05a11.36,11.36,0,0,0-1.9.7,6.2,6.2,0,0,0-.68.38.34.34,0,0,1-.17,0c-.93,0-1.86-.13-2.79-.19l-.76-.06h-.11c-.71-.09-1.44-.1-2.15-.16-.07,0-.51,0-.76,0h0a2.81,2.81,0,0,1,0-.39c0-.06,0-.52,0-.78h.08c1.21,0,2.42,0,3.64,0,.06,0,.54,0,.81,0a.49.49,0,0,0,.17,0h2.82Z"/><path class="cls-2" d="M62.59,200.53a4.93,4.93,0,0,1,0-.78,2.17,2.17,0,0,1,.36,0,.55.55,0,0,0,.18,0h3.18c.62,0,1.25,0,1.88,0h2.43a5.87,5.87,0,0,1,.8,0s0,0,0,.06a7.65,7.65,0,0,1,.24,1.52,4.73,4.73,0,0,1,.12.81c-.25,0-.72,0-.79,0h-.81a.5.5,0,0,0-.17,0H68.16c-.07,0-.54,0-.82,0h-.1l-3.79,0h-.81c-.07,0,0-.16,0-.17A6.05,6.05,0,0,1,62.59,200.53Z"/><path class="cls-2" d="M62.54,195.85c0-.06,0-.54,0-.8h.08a.5.5,0,0,0,.17,0h2.79a.47.47,0,0,0,.17,0h4.13l.79,0a.85.85,0,0,1,0,.15c.1.59.18,1.17.28,1.76a4.77,4.77,0,0,1,.11.82.73.73,0,0,1-.18,0l-.94,0h-.81a.52.52,0,0,0-.17,0H66.1c-.76,0-1.53,0-2.3,0h-.67c-.19,0-.41,0-.57,0a.41.41,0,0,1,0-.16A11.35,11.35,0,0,1,62.54,195.85Z"/><path class="cls-2" d="M69.33,193.18H68.19l-1.61,0c-.07,0-.55,0-.82,0h-3c-.09,0-.22,0-.29,0s0-.1,0-.11a3.21,3.21,0,0,1,0-.82v-.68a.52.52,0,0,0,0-.17c0-.32,0-.65,0-1h.16c.9,0,1.8,0,2.7,0h.88l2.84,0h.81a.15.15,0,0,1,0,.11c.11.62.2,1.24.3,1.87,0,.07.1.54.12.81h-.09C70,193.2,69.65,193.18,69.33,193.18Z"/><path class="cls-2" d="M69.45,188.4c-.76,0-1.53,0-2.29,0h-.82a.47.47,0,0,0-.17,0H63.25a3.79,3.79,0,0,1-.79,0c0-.23,0-.63,0-.69s0-.53,0-.8,0-.7,0-.76a4.93,4.93,0,0,1,0-.78h2.1a.47.47,0,0,0,.17,0h4.38a.29.29,0,0,1,.05.15c.13.7.23,1.4.35,2.1,0,.08.1.55.11.82A.37.37,0,0,1,69.45,188.4Z"/><path class="cls-2" d="M68.61,182.42c0,.07.1.54.12.81a.28.28,0,0,1-.11,0c-1.08,0-2.17,0-3.25,0H63.16c-.07,0-.54,0-.8,0a.49.49,0,0,1,0-.11c0-.66,0-1.33-.05-2v-.78a.74.74,0,0,1,.15,0c.81,0,1.62,0,2.43,0h3.36s0,.09,0,.1C68.42,181.09,68.5,181.77,68.61,182.42Z"/><path class="cls-3" d="M62.06,168.7h.45a.36.36,0,0,1,.16,0c.84,0,1.7,0,2.55,0,.63,0,1.08-.25,1.2.43.49,2.76.92,5.53,1.37,8.29,0,.07.1.54.12.81a.37.37,0,0,1-.14,0h-2a.49.49,0,0,0-.17,0H63a5.5,5.5,0,0,1-.78,0,.31.31,0,0,1,0-.16,2.13,2.13,0,0,1,0-.67c0-.06,0-.53,0-.8a.52.52,0,0,0,0-.17v-.17q0-3.39-.14-6.8A4.89,4.89,0,0,1,62.06,168.7Z"/><path class="cls-3" d="M56.05,168.61c1.12,0,2.24,0,3.35,0,.6,0,1-.22,1.08.42.25,2,.09,4.19.14,6.25,0,.07,0,.55,0,.82,0,0-.13,0-.15,0-.29,0-.59,0-.89-.06l-.78,0a.47.47,0,0,0-.17,0,1,1,0,0,1-.19,0c-.6,0-1.2-.07-1.8-.1l-.78,0a.47.47,0,0,0-.17,0c-.24.06-.14-.19-.15-.36-.05-2,.16-4.16.26-6.14a6.8,6.8,0,0,1,.05-.76h.21Z"/><path class="cls-3" d="M53.4,126.09c0-.06.13-.5.22-.73l.07,0a.61.61,0,0,0,.15.13c.19.18.55.47.59.51a2.57,2.57,0,0,1,.69.68v.15a.93.93,0,0,0,0,.14c-.14,1.45-.31,2.9-.47,4.35,0,0,0,.45-.07.68s0,.2,0,.3l0,.16s0,.09,0,.1l-.09.81a3.69,3.69,0,0,1-.12.79H54.2l-1.77-.41-.78-.18h0a2.25,2.25,0,0,1-.35-.09,1.29,1.29,0,0,1,.08-.38C51.88,130.76,52.72,128.43,53.4,126.09Z"/><path class="cls-3" d="M73.49,133.19a5.22,5.22,0,0,1,.22.71s-.15,0-.16,0a18.67,18.67,0,0,1-2.59.22,3.6,3.6,0,0,1-.91,0,.36.36,0,0,1,0-.14,3.57,3.57,0,0,1-.08-.74c0-.06,0-.49-.08-.74a2,2,0,0,0,0-.35v0l0-.15a.62.62,0,0,0,0-.15c-.17-1.85-.37-3.71-.55-5.56,0-.06,0-.49-.08-.74s.53-.54.61-.61l.59-.5.06,0a.23.23,0,0,1,0,.09c.54,1.39,1,2.84,1.46,4.25,0,.06.17.47.25.71l0,.1c.24.63.45,1.27.67,1.91,0,.06.17.47.25.71l0,.06C73.27,132.58,73.38,132.88,73.49,133.19Z"/><path class="cls-3" d="M65.43,112s0,.07,0,.09a7.46,7.46,0,0,1,0,1.23c0,.06,0,.45,0,.68s0,.64,0,.7,0,.45,0,.68-.07.57-.11.87v.12a.58.58,0,0,0,0,.1,3.88,3.88,0,0,1-.33,1.08c-.4.57-2.72.56-3.43.51a3.2,3.2,0,0,1-.91-.19s0-.11,0-.12a15.82,15.82,0,0,1-.49-2.37c0-.06-.06-.48-.09-.72s0-.34-.05-.51l0-.15v-.1c0-.42-.08-.84-.11-1.26a4.83,4.83,0,0,1,0-.75h.13c.47,0,.94.07,1.41.09l.8,0a.67.67,0,0,0,.2,0h.09c.58,0,1.17,0,1.75,0,.07,0,.53,0,.8,0a.66.66,0,0,0,.2,0A2,2,0,0,1,65.43,112Z"/><path class="cls-3" d="M13,76.13c0,.05,0,.45,0,.68V77c0,1.08,0,2.17,0,3.26v4.4c0,.73,0,1.45,0,2.18V89c0,.06,0,.54,0,.81a.14.14,0,0,1-.09,0,6.14,6.14,0,0,1-2.94-.25c-.06,0-.49-.14-.72-.23l-.13,0a12.67,12.67,0,0,1-1.5-.67l-.69-.41-.09,0-.07,0a13.78,13.78,0,0,1-1.22-1l-.56-.53-.08-.09-.08-.09a9.58,9.58,0,0,1-1.08-1.37s-.29-.43-.42-.67l0-.08a.36.36,0,0,0-.06-.11A15.66,15.66,0,0,1,2,81.6c0-.06-.14-.5-.21-.75l0-.07a.91.91,0,0,0,0-.16c-.74-3.47-.18-7.23,2.51-9.74l.58-.51.08-.06.06,0a7.86,7.86,0,0,1,2.92-1.42c.07,0,.49-.07.74-.09h.18a8.29,8.29,0,0,1,1.92.25l.71.24.1,0a.2.2,0,0,0,.08,0A5.12,5.12,0,0,1,12.9,70c.24.22.12,2.52.11,3,0,.06,0,.46,0,.68v.16C13,74.58,13,75.36,13,76.13ZM4.19,78c.69-1.7,1.95-3.65,4.05-3.41l.1,0,.07,0a4,4,0,0,1,.8.29,5.38,5.38,0,0,1,2.31,3.4.08.08,0,0,1,0,.05,3.25,3.25,0,0,0-.71-.37c-2.53-.79-4.7,3.15-3.37,4.92,0,0,.13.24.26.23a1.78,1.78,0,0,0,.12-.8c.12-1.52,1.46-4.46,3.3-2.9a.83.83,0,0,0,.11.13,3.66,3.66,0,0,1,.38.71c.14.37.36,2.87,1,1.31a4.88,4.88,0,0,0,0-2.46.62.62,0,0,0,0-.12c0-.24-.1-.65-.11-.71-.39-2-1.6-4.2-3.67-4.9l-.11,0-.08,0a6.42,6.42,0,0,0-.71-.1,4.3,4.3,0,0,0-.46,0,4.24,4.24,0,0,0-.79.16c-2.14.73-3.87,3.73-3.06,5.54C4,78.85,4.13,78.16,4.19,78Z"/><path class="cls-3" d="M119.71,80.64a4.21,4.21,0,0,0-2-.3c-.07,0-.53.15-.79.23l0-.09c1-1.75,2.93-3.37,5-3.24.06,0,.48.06.7.12l.08,0,.12,0a4.39,4.39,0,0,1,1.38.66s.37.35.55.54c0,0,0,0,0,0,.25.56.72,1.08,1,1.75,0,0,.17.47.24.71l0,.06c.05.22.14.6.16.66.28,1.27.77,1,.9-.11a7.67,7.67,0,0,0,0-.77.71.71,0,0,0,0-.16,6.2,6.2,0,0,0-.81-2.31,5.54,5.54,0,0,0-.43-.67l-.07-.09,0-.06a5.2,5.2,0,0,0-2-1.46,7.17,7.17,0,0,0-.73-.22l-.07,0-.17,0c-3-.49-5.86,1.59-7.16,4.26,0,.05-.21.45-.3.68s-.17.49-.28.67c0-.12,0-.34,0-.37-.1-2.45-.09-4.91-.12-7.36,0-.76-.28-1.19.45-1.56.06,0,.47-.25.72-.36l.11,0a12.3,12.3,0,0,1,3.08-.87l.73-.08a2.42,2.42,0,0,0,.38,0h.18a11.7,11.7,0,0,1,1.67.1c.05,0,.46.07.69.12l.07,0,.07,0,.08,0a6.4,6.4,0,0,1,1.47.57l.69.39.09,0a.44.44,0,0,0,.09.07,11.29,11.29,0,0,1,1.45,1.13l.54.55a.57.57,0,0,0,.11.11.68.68,0,0,1,.06.09,10.12,10.12,0,0,1,1.4,2.14c0,.06.19.45.27.68l0,.09,0,.11a9.92,9.92,0,0,1,.34,1.43,7.52,7.52,0,0,1,.06.75.47.47,0,0,0,0,.17v.14a10.1,10.1,0,0,1-.17,1.9c0,.06-.11.46-.16.68v0h0v0c0,.06-.05.17-.06.19a14.35,14.35,0,0,1-7.33,8.59s-.45.22-.68.31a1.43,1.43,0,0,1-.2.09,16.22,16.22,0,0,1-3.26,1l-.69.11-.74.09c-.06,0-.46,0-.69.05h-.18a3.87,3.87,0,0,1-.59,0v-.41c0-2.38.06-4.76,0-7.14,0-.07,0-.54,0-.8l.13,0c.59-.37.62-1.2,1.07-1.79a5.38,5.38,0,0,1,.52-.56l.11-.07a2.05,2.05,0,0,1,1.38-.33,6.25,6.25,0,0,1,.74.21l.09.06.08,0a3,3,0,0,1,.94,1,7.86,7.86,0,0,1,.33.77v.07s0,.14,0,.15a5.45,5.45,0,0,1,0,1.56,2,2,0,0,0-.07.9c.91-.14,1.2-2,1.21-2.15a5.5,5.5,0,0,0,0-.75l0-.09s0-.07,0-.08a3.7,3.7,0,0,0-1.25-2.14,4.6,4.6,0,0,0-.7-.4Z"/><path class="cls-3" d="M72.68,81.36c.49.46,1,.92,1.5,1.35l.58.51a.69.69,0,0,0,.13.11s.06,0,.06.06c.52.47,1.11.9,1.67,1.32l.63.45.06,0,.07.05c.5.36,1,.71,1.54,1l.68.41.08.05,0,0c1.62.92,3.61,1.92,5.52,1.47A4.35,4.35,0,0,0,86,88l.11-.07.08,0a5,5,0,0,0,1.93-2.29,7,7,0,0,0,.23-.72l0-.07a5.25,5.25,0,0,0,.1-.65,6.19,6.19,0,0,1,.08-.81l.09.06c.65.51,1.36,1,2,1.55.38.33.21,1.82.21,2.38v14.89a.2.2,0,0,1-.08.11,19,19,0,0,1-3.13,1.72l-.68.34-.22.1-.1,0c-1,.47-2,.89-3,1.29l-.68.26-.16.06-1.08.38-.68.23-.29.1h0l-.22.07c-.12.05-.26.08-.39.13h0l-.14,0a54.42,54.42,0,0,1-7.34,1.65l-.68.1-.12,0-.26,0-.61.07-.68.08a.52.52,0,0,0-.17,0,.5.5,0,0,0-.17,0h-.13c-1.41.14-2.81.23-4.22.27H64.6c-.54,0-1.09,0-1.63,0-.07,0-.53,0-.8,0,0,0-.07,0-.08,0a43,43,0,0,1-6.59-.61l-.7-.11-.1,0-.58-.1a1.6,1.6,0,0,0-.29-.05l-.07,0h-.09c-1.44-.3-2.87-.61-4.29-1l-.74-.21-.17,0-.17-.06-.1,0c-.78-.25-1.57-.5-2.34-.78l-.7-.26-.08,0-.14,0-.73-.29-.08,0-.09,0-.12,0c-.64-.27-1.27-.54-1.89-.83l-.66-.29-.07,0a3.13,3.13,0,0,0-.32-.15l-.06,0c-1.37-.69-2.73-1.41-4.05-2.21l-.67-.41-.19-.12-.14-.08,0,0c-.58-.38-1.15-.76-1.71-1.15l-.63-.45-.1-.07c-.56-.4-1.1-.81-1.63-1.23-.05,0-.4-.33-.61-.48l-.08-.08,0,0c-.39-.45-.89-.43-.92-1.12-.12-3.21-.09-6.42-.17-9.62,0-.07,0-.53,0-.8a.81.81,0,0,0,0-.22c0-.36,0-.72,0-1.07a1.83,1.83,0,0,0,0-.33v-.1c0-.51-.13-.57.37-.72a33.28,33.28,0,0,0,7.34-3.4,5.56,5.56,0,0,1,.68-.4c-.4,1.68-.6,4.55,1.5,5.14a4.56,4.56,0,0,0,.83.12.62.62,0,0,0,.19,0h.1c2.68-.11,5.12-1.55,7.2-3.14l.61-.47c.11.08.07.32.25.32.51-.15.37-.81.35-1.21v-.19a14.43,14.43,0,0,1,.34-3.59l.21-.75a.58.58,0,0,0,.05-.14,1.69,1.69,0,0,0,.1-.27.34.34,0,0,0,.05-.14s0-.1,0-.11a7.05,7.05,0,0,1,2.65-3.19c.05,0,.46-.27.69-.39L53.7,72l.27-.12.16-.06.68-.22c.18,0,.36-.07.53-.12a1.86,1.86,0,0,0,.34-.07l.65-.08.13,0h.22a.56.56,0,0,0,.22,0,2,2,0,0,0,.42,0h.47l.8,0,.91.08.41.07.1,0,.19,0,.1,0h.1l.12,0,.2,0,.77.19.15,0a16.63,16.63,0,0,1,2.24.9s.47.24.7.38l.09.05.07,0a14,14,0,0,1,3,2.33c.05,0,.34.4.52.58,0,0,0,.07,0,.08a17.47,17.47,0,0,1,1.65,2.29c0,.06.25.48.39.71l.05.09c.48,1,.89,1.93,1.28,2.94,0,.06.19.45.29.67h0v0h0c.12.2.16.51.39.59.24-.12.26-.43.31-.66a6.88,6.88,0,0,0-.09-1.59l0,0ZM71.16,92.12a.44.44,0,0,0,.53-.68,3.53,3.53,0,0,0-.47-.61A7.2,7.2,0,0,0,67.85,89l-.08,0c-.26-.07-.72-.16-.78-.17a12.94,12.94,0,0,0-1.64-.13.8.8,0,0,0-.19,0c-.26,0-.71,0-.77,0-1.32.12-5.27,1.11-5.38,2.79-.07,1.15,2.66-.84,3.21-1.06a8.83,8.83,0,0,1,5.06-.32l.14,0,.07,0c.24.07.66.2.72.23A19.73,19.73,0,0,1,70.88,92l.12,0A.29.29,0,0,0,71.16,92.12Z"/><path class="cls-1" d="M70.88,92a19.73,19.73,0,0,0-2.67-1.55c-.06,0-.48-.16-.72-.23l-.07,0-.14,0a8.83,8.83,0,0,0-5.06.32c-.55.22-3.28,2.21-3.21,1.06.11-1.68,4.06-2.67,5.38-2.79.06,0,.51,0,.77,0a.8.8,0,0,1,.19,0,12.94,12.94,0,0,1,1.64.13c.06,0,.52.1.78.17l.08,0a7.2,7.2,0,0,1,3.37,1.81,3.53,3.53,0,0,1,.47.61.44.44,0,0,1-.53.68.29.29,0,0,1-.16-.07Z"/><path class="cls-1" d="M115.78,92.69H116c.23,0,.63-.05.69-.05l.74-.09.69-.11a16.22,16.22,0,0,0,3.26-1,1.43,1.43,0,0,0,.2-.09c.23-.09.63-.29.68-.31a14.35,14.35,0,0,0,7.33-8.59s0-.13.06-.19v0h0v0c0-.22.15-.62.16-.68a10.1,10.1,0,0,0,.17-1.9v-.14a.47.47,0,0,1,0-.17,7.52,7.52,0,0,0-.06-.75,9.92,9.92,0,0,0-.34-1.43l0-.11,0-.09c-.08-.23-.25-.62-.27-.68a10.12,10.12,0,0,0-1.4-2.14.68.68,0,0,0-.06-.09.57.57,0,0,1-.11-.11l-.54-.55a11.29,11.29,0,0,0-1.45-1.13.44.44,0,0,1-.09-.07l-.09,0-.69-.39a6.4,6.4,0,0,0-1.47-.57l-.08,0-.07,0-.07,0c-.23-.05-.64-.11-.69-.12a11.7,11.7,0,0,0-1.67-.1h-.18a2.42,2.42,0,0,1-.38,0l-.73.08a12.3,12.3,0,0,0-3.08.87l-.11,0c-.25.11-.66.34-.72.36-.73.37-.46.8-.45,1.56,0,2.45,0,4.91.12,7.36,0,0,0,.25,0,.37.11-.18.18-.46.28-.67s.27-.63.3-.68c1.3-2.67,4.11-4.75,7.16-4.26l.17,0,.07,0a7.17,7.17,0,0,1,.73.22,5.2,5.2,0,0,1,2,1.46l0,.06.07.09a5.54,5.54,0,0,1,.43.67,6.2,6.2,0,0,1,.81,2.31.71.71,0,0,1,0,.16,7.67,7.67,0,0,1,0,.77c-.13,1.06-.62,1.38-.9.11,0-.06-.11-.44-.16-.66l0-.06c-.07-.24-.22-.66-.24-.71-.26-.67-.73-1.19-1-1.75,0,0,0,0,0,0-.18-.19-.5-.49-.55-.54a4.39,4.39,0,0,0-1.38-.66l-.12,0-.08,0c-.22-.06-.64-.11-.7-.12-2.12-.13-4.06,1.49-5,3.24l0,.09c.26-.08.72-.22.79-.23a4.21,4.21,0,0,1,2,.3l.09,0a4.6,4.6,0,0,1,.7.4,3.7,3.7,0,0,1,1.25,2.14s0,0,0,.08l0,.09a5.5,5.5,0,0,1,0,.75c0,.15-.3,2-1.21,2.15a2,2,0,0,1,.07-.9,5.45,5.45,0,0,0,0-1.56s0-.1,0-.15v-.07a7.86,7.86,0,0,0-.33-.77,3,3,0,0,0-.94-1l-.08,0-.09-.06a6.25,6.25,0,0,0-.74-.21,2.05,2.05,0,0,0-1.38.33l-.11.07a5.38,5.38,0,0,0-.52.56c-.45.59-.48,1.42-1.07,1.79l-.13,0c0,.26,0,.73,0,.8.06,2.38,0,4.76,0,7.14v.41A3.87,3.87,0,0,0,115.78,92.69ZM72,147.06a6.68,6.68,0,0,0-.33-.74c-.16-.34-.34-.67-.49-1a.34.34,0,0,0,0-.1,7,7,0,0,0,.06.73c0,.32.08.65.1,1v.1a1.11,1.11,0,0,1,0,.17C71.45,147.42,71.83,147.1,72,147.06ZM72,128.79c-.49-1.41-.92-2.86-1.46-4.25a.23.23,0,0,0,0-.09l-.06,0-.59.5c-.08.07-.53.36-.61.61s.07.68.08.74c.18,1.85.38,3.71.55,5.56a.62.62,0,0,1,0,.15l0,.15v0a2,2,0,0,1,0,.35c0,.25.08.68.08.74a3.57,3.57,0,0,0,.08.74.36.36,0,0,0,0,.14,3.6,3.6,0,0,0,.91,0,18.67,18.67,0,0,0,2.59-.22s.13,0,.16,0a5.22,5.22,0,0,0-.22-.71c-.11-.31-.22-.61-.32-.91l0-.06c-.08-.24-.23-.65-.25-.71-.22-.64-.43-1.28-.67-1.91l0-.1C72.12,129.26,72,128.85,72,128.79Zm-9.46,62.52a.52.52,0,0,1,0,.17v.68a3.21,3.21,0,0,0,0,.82s0,.08,0,.11.2,0,.29,0h3c.27,0,.75,0,.82,0l1.61,0h1.14c.32,0,.62,0,.94,0h.09c0-.27-.11-.74-.12-.81-.1-.63-.19-1.25-.3-1.87a.15.15,0,0,0,0-.11h-.81l-2.84,0h-.88c-.9,0-1.8,0-2.7,0h-.16C62.47,190.66,62.5,191,62.49,191.31Zm-.16-69a5.85,5.85,0,0,0-.66,0,7.43,7.43,0,0,0,.19.74c.18.68.35,1.36.54,2a.54.54,0,0,0,0,.12h0a1.24,1.24,0,0,0,.12-.32v0l.21-.68a12.34,12.34,0,0,0,.55-1.88s-.2,0-.23,0Zm-.1,55.07a2.13,2.13,0,0,0,0,.67.31.31,0,0,0,0,.16,5.5,5.5,0,0,0,.78,0h2.52a.49.49,0,0,1,.17,0h2a.37.37,0,0,0,.14,0c0-.27-.11-.74-.12-.81-.45-2.76-.88-5.53-1.37-8.29-.12-.68-.57-.41-1.2-.43-.85,0-1.71,0-2.55,0a.36.36,0,0,0-.16,0h-.45a4.89,4.89,0,0,0,0,.78q.13,3.41.14,6.8v.17a.52.52,0,0,1,0,.17C62.2,176.89,62.23,177.36,62.23,177.42ZM61.3,121c.25.34,1.54.18,1.57.18.81-.07.81,0,1.05-.76,0,0,0-.13.06-.2l.05-.13a8.7,8.7,0,0,0,.29-1.11c-.23,0-.63.11-.69.12a15.64,15.64,0,0,1-2.56,0s-.2,0-.27,0c.06.25.18.68.2.74.07.29.16.57.23.86a.81.81,0,0,0,0,.09Zm-.85-3.15a3.2,3.2,0,0,0,.91.19c.71,0,3,.06,3.43-.51a3.88,3.88,0,0,0,.33-1.08.58.58,0,0,1,0-.1v-.12c0-.3.07-.58.11-.87s0-.62,0-.68,0-.47,0-.7,0-.62,0-.68a7.46,7.46,0,0,0,0-1.23s0-.09,0-.09a2,2,0,0,0-.42,0,.66.66,0,0,1-.2,0c-.27,0-.73,0-.8,0-.58,0-1.17,0-1.75,0h-.09a.67.67,0,0,1-.2,0l-.8,0c-.47,0-.94-.07-1.41-.09h-.13a4.83,4.83,0,0,0,0,.75c0,.42.09.84.11,1.26v.1l0,.15c0,.17,0,.34.05.51s.08.66.09.72a15.82,15.82,0,0,0,.49,2.37S60.44,117.82,60.45,117.86ZM60.35,202l-.77,0c-1.41-.09-2.82-.15-4.22-.27a.84.84,0,0,0-.19,0,.47.47,0,0,1-.17,0c-.18,0-.35,0-.53,0-.16.64,0,.73.58.87l.21.08a6.24,6.24,0,0,1,.69.27l.32.14.19.09a1.14,1.14,0,0,1,.19.1c.24.11.64.36.7.39a5,5,0,0,0,2.26.33.32.32,0,0,1,.12,0,7.33,7.33,0,0,1,.54,0c.17,0,.34,0,.5,0,0-.26,0-.74,0-.81,0-.41.15-1.22-.27-1.13A.5.5,0,0,1,60.35,202Zm-1.24-21,.78,0a4.14,4.14,0,0,0,.77,0c0-.25,0-.72,0-.79v-.73a.39.39,0,0,1,0-.19c0-.26,0-.74,0-.81a.7.7,0,0,0,0-.34,7.5,7.5,0,0,0-.76-.06l-1.15-.06h-.09l-.77,0c-.64,0-1.29-.06-1.93-.11a.84.84,0,0,0-.19,0,.47.47,0,0,1-.17,0h-.11a5,5,0,0,0-.05.77c0,.06,0,.5,0,.75a.47.47,0,0,1,0,.17c0,.26,0,.72,0,.78a1.44,1.44,0,0,0,0,.41c.3,0,.6,0,.91.06a.49.49,0,0,1,.17,0l.78,0c.6,0,1.2.05,1.8.1Zm-7.46-47.43.78.18,1.77.41h.07a3.69,3.69,0,0,0,.12-.79l.09-.81s0-.07,0-.1l0-.16c0-.1,0-.2,0-.3s.06-.63.07-.68c.16-1.45.33-2.9.47-4.35a.93.93,0,0,1,0-.14v-.15a2.57,2.57,0,0,0-.69-.68s-.4-.33-.59-.51a.61.61,0,0,1-.15-.13l-.07,0c-.09.23-.2.67-.22.73-.68,2.34-1.52,4.67-2.07,7a1.29,1.29,0,0,0-.08.38,2.25,2.25,0,0,0,.35.09h0Zm1.4,12.13c-.06.29-.61,1-.34,1.12l.09,0c.08.05.15,0,.15-.1C53,146.44,53,146.09,53.05,145.74ZM53.32,135l-1.79-.38-.1,0h-.06a1.76,1.76,0,0,0-.4-.07c-.08.24-.19.68-.2.74l-.24,1a.71.71,0,0,0,0,.16,7.69,7.69,0,0,0,.81.14,19.12,19.12,0,0,0,2.45.4s.12.05.17,0a4.33,4.33,0,0,0,.14-.8c0-.27.07-.54.11-.82,0,0,0-.05,0-.08a.13.13,0,0,0,0-.09h-.06Zm-3.46,4.22c.25,0,.69.06.75.07a22.24,22.24,0,0,0,2.91.22.82.82,0,0,0,.18,0,4,4,0,0,0,.12-.8s0-.28,0-.43l0-.15a.82.82,0,0,0,0-.27,6.09,6.09,0,0,0-.81-.15l-2.73-.39h-.08c-.07.25-.18.7-.19.77-.08.33-.15.67-.21,1C49.87,139.12,49.86,139.18,49.86,139.21ZM49.68,143c.26-.05.72-.2.8-.21.94-.28,1.92-.51,2.85-.83,0,0,.12,0,.14-.09l0-.08c0-.27,0-.54.09-.8v-.15a2.83,2.83,0,0,0,0-.41,7.61,7.61,0,0,0-.86-.09l-2.91-.21a.29.29,0,0,0-.17,0h0a1.88,1.88,0,0,0-.17.78,6.82,6.82,0,0,0,.14,2S49.64,143,49.68,143Zm3-.21c-.89.32-1.81.62-2.68,1,0,0-.08,0-.1.06.09.23.23.64.26.69.16.33,1.18,1.75,1.54,1.72,0,0,0,0,0,0a7.15,7.15,0,0,0,.47-.65l1-1.36a1.09,1.09,0,0,0,.08-.14l0-.13a1,1,0,0,1,0-.17c0-.23.06-.63.07-.68s0-.38.06-.57v0h0ZM28.33,78.52c-.53.86-1.14,2.08-.74,3.09l.06.1.05.06A1.33,1.33,0,0,0,28,82a2.12,2.12,0,0,0,.83.1c2.74-.22,7.1-2.83,9.52-4.21l.14-.08.68-.38c.27-.15,2.36-1.44,2.45-1.43s.08-.08.14-.07l-.08.21c-.09.22-.21.48-.23.53a22,22,0,0,0-.9,2.63.85.85,0,0,1,0,.15c-.06.22-.13.62-.14.68,0,.23-.49,2.58.83,3a4.45,4.45,0,0,0,.69.13c2,.15,4.32-1.76,5.71-3l.11-.08c.63-.33.25-1.27.21-1.66a2.44,2.44,0,0,0-.06-.44c-.31.23-.59.49-.9.72s-.57.43-.62.47a12.42,12.42,0,0,1-2.11,1.29l-.06,0a.52.52,0,0,1-.13.06,7.52,7.52,0,0,1-.72.23c-1.59.31-1.18-.6-1.22-1.58a7.84,7.84,0,0,1,.07-.81c.09-.74.24-1.46.38-2.18l0-.08s0,0,0,0l0-.08v0h0v0c.06-.23.15-.62.16-.68.08-.32.18-.63.26-.95a1,1,0,0,0,0-.12c0-.09,0-.23-.12-.23h0l-.1,0-.07,0c-.45.23-.87.54-1.31.8l-.13.08c-.22.15-.62.39-.67.42-.42.26-.83.55-1.27.78l-.06,0-.08,0-.68.42-1.21.69-.14.07a.41.41,0,0,1-.11.07l-.19.1c-.23.13-.65.34-.71.37-.82.43-1.66.82-2.51,1.17l-.09,0a2.19,2.19,0,0,1-.33.12c-.24.08-.65.23-.71.24-1.6.5-3.6.76-3.72-1.45a.66.66,0,0,0,0-.19h0A5.48,5.48,0,0,0,28.33,78.52ZM27.52,78c.16-.13.21-.17.23-.33a.92.92,0,0,0-.18,0l-.28.08-.2.08-.66.29a24.21,24.21,0,0,1-4.05,1.39l-.14,0h-.07c-.22.06-.64.11-.69.12-2.62.36-2.65-.43-1.89-2.68a.54.54,0,0,1,0-.12l0-.12c0-.05.05-.11,0-.16h0a7.1,7.1,0,0,0-.5.57,11.58,11.58,0,0,0-1.06,1.53l-.06.13c-.09.22-.28.59-.3.65a2.07,2.07,0,0,0,0,1.47.69.69,0,0,0,.06.13,1.67,1.67,0,0,0,.95.55,4.85,4.85,0,0,0,1.73-.16l.08,0h0l.23-.06.09,0,.68-.21c.46-.16.91-.36,1.36-.54l.08,0,.68-.32A18.33,18.33,0,0,0,27.52,78Zm.32,22.62c0,.26,0,.72,0,.79,0,.69,0,1.39-.08,2.08a.64.64,0,0,0,0,.07,1.09,1.09,0,0,1,0,.36c0,.26,0,.72,0,.78-.06,1.17-.06,2.35-.16,3.52a.35.35,0,0,0,0,.07,2.23,2.23,0,0,1,0,.37c0,.27,0,.72,0,.78-.05,1.17,0,2.36-.15,3.52a.89.89,0,0,1,0,.11,2.3,2.3,0,0,1,0,.37,1.45,1.45,0,0,1,0,.36c0,.26,0,.71,0,.78,0,.31,0,.61,0,.92a1.05,1.05,0,0,1,0,.13,2.42,2.42,0,0,1,0,.38,1.74,1.74,0,0,1,0,.32c0,.26,0,.72,0,.78-.07,1-.17,2-.27,3,0,0,0,.1,0,.15l0,.15c0,.24-.11.64-.11.7A8,8,0,0,1,25.55,124l-.06.07a4.17,4.17,0,0,1-.6.63,1.71,1.71,0,0,1-1.22.15l-.11,0a1.24,1.24,0,0,1-.33-.09,5,5,0,0,1-.71-.38A14.16,14.16,0,0,1,20.65,123l-.06-.06-.09-.07c-.38-.28-.72-.62-1.12-.86h0c-.06,0,0,.1,0,.15l0,.12a5.81,5.81,0,0,0,.41.67c.32.45.63.9,1,1.33a.28.28,0,0,1,.06.08l.09.1.52.57a7.35,7.35,0,0,0,1.66,1.33l.08,0a4.41,4.41,0,0,0,.7.25,2.92,2.92,0,0,0,1.55-.07l.19-.08a5.22,5.22,0,0,0,.68-.47,4.4,4.4,0,0,0,.86-1.23,1.16,1.16,0,0,0,.09-.19h0v-.06c.1-.22.23-.62.25-.68a20.07,20.07,0,0,0,.87-4.48.82.82,0,0,1,0-.14c0-.37.07-.75.11-1.12s0-.47.05-.7a.66.66,0,0,1,0-.2c0-.23,0-.62,0-.68.08-1.27.11-2.54.15-3.81v-.16a5,5,0,0,1,0-.54v-.81c.05-1.77,0-3.54,0-5.31v-.2a7.49,7.49,0,0,1,0-.8c0-.77,0-1.53,0-2.3v-.11a1.62,1.62,0,0,1,0-.31c0-.27,0-.74,0-.81,0-.71,0-1.42,0-2.13V99.1c0-.27,0-.73,0-.8-.09-3.37-.1-6.74-.23-10.11,0,0,0-.12,0-.17h0c0,.26,0,.72,0,.78s0,.53-.05.8a2.17,2.17,0,0,1,0,.36c0,.26,0,.71,0,.78,0,.74-.06,1.47-.1,2.21a.5.5,0,0,1,0,.15,1.28,1.28,0,0,1,0,.34c0,.26,0,.72,0,.78-.05,1.13-.06,2.26-.15,3.39a.45.45,0,0,1,0,.14c0,.26,0,.71,0,.78,0,.52,0,1-.07,1.56a.8.8,0,0,1,0,.19A1.53,1.53,0,0,1,27.84,100.66Zm-12.7-57v.15a.47.47,0,0,1,0,.17c0,.26,0,.72,0,.79,0,.57,0,1.14-.06,1.71v.14c0,.26,0,.73,0,.8,0,.85,0,1.7,0,2.55V50a.47.47,0,0,1,0,.17c0,.27,0,.75,0,.82,0,.67,0,1.33,0,2v.21a.5.5,0,0,1,0,.17c0,.27,0,.74,0,.81,0,.63,0,1.25,0,1.87v.85c0,.81,0,1.62,0,2.43v.15a.55.55,0,0,1,0,.18v2.8a.47.47,0,0,1,0,.17V73.49a.5.5,0,0,1,0,.17v3a.55.55,0,0,1,0,.18v.68c0,1.08,0,2.16,0,3.25v.17a.47.47,0,0,1,0,.17v.68c0,.8,0,1.62,0,2.43v.15a.47.47,0,0,1,0,.17v.68c0,.68,0,1.35,0,2v.14a.47.47,0,0,1,0,.17v.68c0,.71,0,1.43,0,2.14v.12c0,.27,0,.75,0,.82q0,1.14,0,2.28a1.1,1.1,0,0,0,0,.16.62.62,0,0,1,0,.19c0,.28,0,.75,0,.82,0,.67,0,1.34,0,2v.12a1.23,1.23,0,0,1,0,.19c0,.27,0,.75,0,.81q0,.87,0,1.74v.09a1.1,1.1,0,0,1,0,.18c0,.27,0,.73,0,.8,0,.71,0,1.43,0,2.14a1.64,1.64,0,0,0,0,.2.62.62,0,0,1,0,.19c0,.27,0,.73,0,.8,0,.58,0,1.16,0,1.74v.15a.59.59,0,0,1,0,.19c0,.27,0,.73,0,.8,0,.69.06,1.39.08,2.09v.15a.62.62,0,0,1,0,.19c0,.26,0,.73,0,.8a4.5,4.5,0,0,0,0,.53h0c0-.23.06-.62.07-.68,0-.45,0-.9.07-1.36a1.39,1.39,0,0,0,0-.15,1.63,1.63,0,0,1,0-.44c0-.23,0-.62,0-.68,0-1.27.07-2.54.14-3.81a1.58,1.58,0,0,1,0-.19,3.31,3.31,0,0,1,0-.44c0-.23,0-.62,0-.68,0-.72,0-1.45.09-2.17,0,0,0-.06,0-.09,0-.23,0-.62,0-.68,0-.58,0-1.19.07-1.77,0,0,0-.06,0-.1a3.54,3.54,0,0,1,0-.46c0-.22,0-.62,0-.68,0-.95.05-1.9.1-2.85a1,1,0,0,0,0-.19,3.54,3.54,0,0,1,0-.46c0-.23,0-.62,0-.68,0-.81.09-1.64.08-2.45a.33.33,0,0,0,0-.1c0-.23,0-.62,0-.68,0-.55.05-1.09.05-1.63v-.12c0-.23,0-.62,0-.68a19.14,19.14,0,0,0,0-3.86s0-.05-.06-.08l-.13-.16a4.5,4.5,0,0,1-.37-.72,4.92,4.92,0,0,1,.46-3.38s0,0,0-.08v0h0v0a1.59,1.59,0,0,0,.22-.82c0-.86,0-1.72,0-2.58V74.5a1.11,1.11,0,0,1,0-.26c0-.27,0-.75,0-.82,0-2.08.06-4.17.06-6.25V67c0-.2,0-.4,0-.6v-.68c0-1.63,0-3.27,0-4.89,0,0,0-.08,0-.12V60c0-2,0-4,.07-6v-.17c0-.27,0-.75,0-.81.05-1.32,0-2.63.07-4v-.17c0-.3,0-.61,0-.92v-1.2c0-1,0-1.91.08-2.86a.87.87,0,0,0,0-.1,1.45,1.45,0,0,1,0-.36c0-.23,0-.62,0-.68,0-.41,0-.82.07-1.22,0,0,0-.08,0-.12a1.32,1.32,0,0,1,0-.28l0-.23c0-.23,0-.63,0-.68a29.7,29.7,0,0,1,.32-3,1.46,1.46,0,0,0,0-.17l0-.09v0h0v0l.06-.24c0-.23.17-.62.18-.68.37-1.28.8-2.55,1.25-3.81,0,0,0-.08,0-.12l0-.1c0-.09.07-.18.11-.27l.05-.12c.1-.23.29-.62.32-.68.32-.69.68-1.37,1-2,0,0,.07-.14.11-.2l.39-.7.39-.68.35-.58.05-.08.25-.41.12-.19c.15-.22.4-.62.43-.68.27-.41.55-.82.83-1.22l.15-.21,0-.06.05-.06.38-.54c.38-.51.76-1,1.15-1.49l.13-.16.07-.08a4.16,4.16,0,0,1,.32-.39c.15-.19.42-.5.46-.55.73-.85,1.49-1.66,2.28-2.45l.09-.08c.22-.24.46-.47.7-.69s.5-.47.54-.51l.82-.74.14-.11.25-.23.22-.18.11-.09.54-.45c.27-.22.54-.44.82-.65l.12-.09h0l0,0h0l.55-.41c1-.76,2-1.47,3.13-2.13l.08,0,.1-.07.31-.19.09-.05L38,11l.59-.34.07,0,.2-.11c.22-.13.62-.34.68-.37.36-.2.72-.38,1.09-.56l.12-.06.1-.05c.17-.09.34-.18.51-.25l.25-.12.68-.32c.45-.21.91-.4,1.37-.59l.11-.05h0L44.17,8l.68-.27.54-.2h0c.32-.13.65-.25,1-.36h0l.22-.08.68-.24c.54-.18,1.08-.35,1.63-.51l.12,0,.17,0,.49-.14L50,6l.68-.19c1.12-.31,2.26-.59,3.4-.8l.08,0,.09,0h.08L55,4.86c1.35-.25,2.72-.46,4.09-.6h.11l.29,0h.16a4.57,4.57,0,0,1,.52,0,.52.52,0,0,1,.17,0h0c.22,0,.62-.06.68-.06C61.52,4,62,4,62.51,4h.21a2.29,2.29,0,0,1,.37,0,4.15,4.15,0,0,1,.61,0c.27,0,.75,0,.82,0h1.85c1.13,0,2.26.06,3.39.15h.13a3.13,3.13,0,0,1,.43,0,.52.52,0,0,1,.17,0c.19,0,.38,0,.58,0h.17c.25,0,.68.07.74.07,1.44.15,2.87.36,4.29.61l.17,0,.1,0a1.09,1.09,0,0,1,.26,0l.79.16.33.07H78c.27,0,.72.15.78.17l.77.17c.23,0,.47.1.69.17L81,5.9c1.37.35,2.75.75,4.08,1.23l.1,0,.29.1.19.07.18.07.68.25.69.26c1,.4,2,.83,3,1.31l.11,0,.18.08c.16.06.3.15.45.22l.64.31a29.72,29.72,0,0,1,2.85,1.5l.07,0a1,1,0,0,1,.18.1,1.36,1.36,0,0,1,.24.13l.21.12.69.4c1.07.63,2.11,1.32,3.11,2.05l.11.09.16.12.07.05.07,0,.53.39.29.22c.4.29.78.61,1.17.92l.08.07.11.08.6.49c.39.33.8.65,1.17,1l.1.09a1,1,0,0,1,.15.14.66.66,0,0,1,.15.14,1.86,1.86,0,0,1,.26.23l.56.53c.62.6,1.26,1.2,1.82,1.85l.06.08a1.62,1.62,0,0,1,.17.19,4053485242892.51,4053485242892.51,0,0,1,.3.34.49.49,0,0,1,.12.13c.18.19.47.54.51.58q.87,1,1.68,2.13l.09.11,0,.07.32.45c.16.21.42.58.45.63l.56.81s0,.07.07.1l0,.05c.15.21.4.6.44.65.18.28.35.56.52.84l.06.11c.24.38.47.76.68,1.16l.09.15a3.68,3.68,0,0,1,.23.44l.38.71a16.37,16.37,0,0,1,.84,1.74.34.34,0,0,1,0,.08.88.88,0,0,1,.1.22l.19.42c.1.23.27.61.29.67.21.48.4,1,.59,1.45a.45.45,0,0,1,0,.08l.09.22.26.69c.11.35.2.71.29,1.07a.75.75,0,0,1,0,.11l0,.22a1,1,0,0,1,.05.22c.07.26.16.72.17.79a9.34,9.34,0,0,1,.19,1.58v.21a2.14,2.14,0,0,1,0,.44c0,.26,0,.71,0,.78,0,.7.06,1.39.08,2.09v.12c0,.26,0,.71,0,.78l0,.79v.12a2.61,2.61,0,0,1,0,.4c0,.26,0,.72,0,.78.09,2.5.19,5,.27,7.48v.12a2.57,2.57,0,0,1,0,.48c0,.26,0,.71,0,.78.06,1.45.11,2.89.16,4.34v.13a2.57,2.57,0,0,1,0,.48,2,2,0,0,1,0,.49c0,.26,0,.72,0,.78,0,1.32.09,2.64.13,3.95v.08c0,.26,0,.72,0,.79,0,1,.08,2.09.11,3.14v.14a3.84,3.84,0,0,0,.91-.21l.82-.18a.3.3,0,0,0,.11,0,6.1,6.1,0,0,0,0-.78c0-1.79-.14-3.59-.19-5.38V62.9c0-.26,0-.71,0-.78L119,60a.28.28,0,0,0,0-.08,1,1,0,0,1,0-.17c0-.27,0-.74,0-.8,0-.74-.06-1.49-.08-2.23a1.64,1.64,0,0,0,0-.2,1,1,0,0,1,0-.17c0-.27,0-.74,0-.8,0-.74,0-1.49-.08-2.23v-.08c0-.27,0-.72,0-.79,0-.61,0-1.22-.06-1.84v-.2c0-.26,0-.71,0-.78,0-1-.08-1.93-.1-2.89v-.19a1.11,1.11,0,0,1,0-.19c0-.26,0-.71,0-.78,0-.61,0-1.22-.07-1.83v-.14a.58.58,0,0,1,0-.19c0-.26,0-.71,0-.78,0-.61,0-1.22-.07-1.83V40.7a.62.62,0,0,1,0-.19c0-.26,0-.72,0-.79a16.15,16.15,0,0,0-.39-2.74,1,1,0,0,0,0-.12l0-.07c-.06-.25-.18-.68-.21-.75-.24-.74-.53-1.45-.8-2.18l0-.09,0-.09-.27-.67c-.24-.58-.48-1.15-.74-1.71a1.18,1.18,0,0,0-.06-.13c-.11-.21-.28-.59-.3-.65-.44-.91-.94-1.78-1.4-2.68a.29.29,0,0,1,0-.08l-.07-.12-.4-.68c-.58-1-1.21-1.87-1.84-2.79,0,0,0,0,0-.07l-.46-.62c-.46-.63-1-1.22-1.44-1.83l-.05-.06-.09-.11-.5-.58c-.39-.46-.79-.93-1.21-1.37l-.06-.06a.69.69,0,0,1-.11-.13l-.54-.55c-.49-.51-1-1-1.5-1.5l0-.05-.12-.11-.57-.53c-.9-.81-1.82-1.63-2.79-2.37l-.09-.06-.61-.48a57.28,57.28,0,0,0-4.78-3.24l-.07,0-.08-.05-.69-.4c-.52-.31-1-.59-1.57-.88a.2.2,0,0,1-.08,0L94,9c-.24-.11-.66-.34-.72-.37-1.39-.72-2.83-1.37-4.27-2l-.15-.06-.08,0-.68-.28-1.88-.7-.11,0-.71-.25c-1.2-.41-2.42-.77-3.64-1.11l-.12,0-.07,0-.75-.19c-.63-.16-1.25-.3-1.88-.44h-.07l-.07,0L78,3.28l-2.43-.43-.14,0-.12,0-.71-.11c-.76-.1-1.52-.21-2.29-.29l-.18,0H72l-.74-.08c-.59,0-1.18-.07-1.77-.13l-.12,0a.55.55,0,0,1-.18,0l-.77,0c-.89,0-1.77-.06-2.66-.06H64.3l-.79,0-.69,0-.77,0-1.78.13-.17,0h-.17l-.74.08C48.43,3.55,38.29,7.44,30.05,14.57l-.09.07a.53.53,0,0,1-.12.1l-.58.51c-.43.39-.86.78-1.28,1.18l-.08.08c-.17.19-.49.51-.54.55-.4.42-.8.83-1.19,1.26l-.05.05a.69.69,0,0,1-.11.13c-.18.18-.48.51-.53.56-.39.43-.76.87-1.16,1.28l-.05.06-.11.12c-.16.2-.47.53-.51.58-3.84,4.54-7.3,11-8.12,16.91a.47.47,0,0,1,0,.15.91.91,0,0,1,0,.17c0,.26-.06.7-.07.76,0,.55,0,1.11-.11,1.66a.35.35,0,0,0,0,.12.37.37,0,0,1,0,.18c0,.26,0,.71,0,.78C15.21,42.42,15.16,43,15.14,43.62Zm-5.23,46a6.14,6.14,0,0,0,2.94.25.14.14,0,0,0,.09,0c0-.27,0-.75,0-.81V86.84c0-.73,0-1.45,0-2.18v-4.4c0-1.09,0-2.18,0-3.26v-.19c0-.23,0-.63,0-.68,0-.77,0-1.55,0-2.31v-.16c0-.22,0-.62,0-.68,0-.48.13-2.78-.11-3a5.12,5.12,0,0,0-1.25-.65.2.2,0,0,1-.08,0l-.1,0L10.76,69a8.29,8.29,0,0,0-1.92-.25H8.66c-.25,0-.67.08-.74.09A7.86,7.86,0,0,0,5,70.27l-.06,0-.08.06-.58.51C1.59,73.39,1,77.15,1.77,80.62a.91.91,0,0,1,0,.16l0,.07c.07.25.19.69.21.75a15.66,15.66,0,0,0,1.12,2.68.36.36,0,0,1,.06.11l0,.08c.13.24.38.62.42.67a9.58,9.58,0,0,0,1.08,1.37l.08.09.08.09.56.53a13.78,13.78,0,0,0,1.22,1l.07,0,.09,0,.69.41a12.67,12.67,0,0,0,1.5.67l.13,0C9.42,89.48,9.85,89.6,9.91,89.62Zm82.6-2.54v1a.47.47,0,0,1,0,.17c0,.27,0,.75,0,.82v1.75a.47.47,0,0,1,0,.17v5.79a.55.55,0,0,1,0,.18c0,.27,0,.74,0,.81v4.52a.55.55,0,0,1,0,.18v10.37a2.72,2.72,0,0,1,0,.49v3a4,4,0,0,1,0,.49v.68c0,1.4,0,2.79,0,4.19v.1c0,.27,0,.73,0,.8a11.87,11.87,0,0,0,.22,2.23s0,.09,0,.13v.07c.06.24.22.65.24.71a6.48,6.48,0,0,0,.68,1.37.79.79,0,0,1,.08.11l0,.05a7.11,7.11,0,0,0,.5.59,5.48,5.48,0,0,0,1.24.94l.06,0,.08,0a3.88,3.88,0,0,0,.75.21,4.4,4.4,0,0,0,1.45-.08l.14,0a5,5,0,0,0,.68-.25A4.44,4.44,0,0,0,100.3,127l0-.1c.13-.22.32-.62.35-.68a5.8,5.8,0,0,1,.34-.82s.07,0,.07,0a9.62,9.62,0,0,1,.57,1.56l0,.09c.09.25.31.67.34.74,2.33,4.15,6.5,1.62,7.76-2,.08-.23.44-1.69.52-1.77s0-.12.06-.14c.09.23.19.67.21.73a6.42,6.42,0,0,0,1.73,3s.06.07.09,0h0a4.48,4.48,0,0,1-.28-.47.84.84,0,0,1-.11-.21,1.55,1.55,0,0,1-.14-.29l-.27-.68a13.86,13.86,0,0,1-.51-1.81V124l0-.06a.9.9,0,0,1,0-.16c-.06-.26-.16-.72-.17-.78s-.07-.35-.11-.53l0-.15a2.64,2.64,0,0,0-.29-.83.12.12,0,0,0-.08,0h0a.18.18,0,0,0-.07.08l0,.09c-.08.24-.18.69-.2.75q-.3,1.23-.69,2.43s0,.06,0,.08,0,.13-.07.19c-.09.22-.26.61-.29.67a4.84,4.84,0,0,1-3.2,2.91l-.18,0a3,3,0,0,1-.84,0,2.6,2.6,0,0,1-1.14-.62l-.06-.08a1,1,0,0,1-.17-.18,5.87,5.87,0,0,1-.46-.62,11,11,0,0,1-.92-2.34s0-.09,0-.13c-.08-.24-.18-.69-.2-.75a11.83,11.83,0,0,0-.34-1.16.88.88,0,0,0,0-.1l-.08-.05a.27.27,0,0,0-.17.06,5.4,5.4,0,0,0-.46.63,19.77,19.77,0,0,1-1.1,1.75l-.08.1a.39.39,0,0,1-.08.1,5.87,5.87,0,0,1-.55.53c-1.66,1.34-3.31.55-4-1.25a.46.46,0,0,1,0-.09,1,1,0,0,1-.06-.16c-.09-.25-.19-.69-.21-.75s0-.2-.07-.3l0-.14,0-.1c-.05-.23-.1-.65-.11-.7a18.2,18.2,0,0,1-.14-2.45v-.13a2.42,2.42,0,0,1,0-.38c0-.27,0-.74,0-.8-.06-1.56-.07-3.13-.07-4.69v-.15a3.75,3.75,0,0,1,0-.58v-.33a5.85,5.85,0,0,1,0-.8c0-.75-.05-1.5-.05-2.25v-.26c0-.21,0-.43,0-.64s0-.74,0-.8c0-2-.14-4.09-.14-6.13v-.1c0-.26,0-.72,0-.78,0-.84-.05-1.69-.05-2.53V98.5a3.62,3.62,0,0,1,0-.57c0-.26,0-.72,0-.79s0-.34,0-.51,0-.71,0-.78c0-.53,0-1.07,0-1.6v-.12a3.7,3.7,0,0,1,0-.47c0-.26,0-.72,0-.79,0-1-.06-2-.09-3v-.09c0-.25,0-.71,0-.78a10.27,10.27,0,0,0-.12-2.19s-.1,0-.12-.08l-.12-.06c-.18-.09-.35-.22-.53-.31C92.53,86.57,92.52,87,92.51,87.08Zm-8.85-4.37a1.16,1.16,0,0,1-1.39.65H82.2l-.07,0c-.24-.07-.64-.23-.7-.25A19.91,19.91,0,0,1,78.1,81L78,80.9l-.1-.07c-.22-.15-.57-.42-.63-.46-1.4-1.08-2.82-2.16-4.14-3.34L73.07,77l-.12-.1-.12-.1c-.2-.17-.54-.46-.58-.51-1.14-1-2.22-2.06-3.4-3l-.07-.06h0c-.52.34.61,1.19.79,1.59l.09.1c.16.21.47.54.51.58.67.74,1.33,1.47,2,2.18l0,0a.69.69,0,0,1,.11.13l.55.54c.34.34.68.68,1,1l.06.06a.69.69,0,0,1,.13.11c.18.19.52.48.57.53.49.46,1,.89,1.51,1.33a.73.73,0,0,1,.1.09l.6.5c.53.42,1.06.84,1.6,1.24l.09.07.06,0c.21.16.58.42.64.45.49.34,1,.67,1.49,1l.08,0,.09.06c.23.13.66.33.72.36a3.62,3.62,0,0,0,2.91.44l.17-.08a3.28,3.28,0,0,0,.55-.4,3.84,3.84,0,0,0,.56-.82s0-.13.07-.19l0-.1a5.12,5.12,0,0,0,.2-.68A9.83,9.83,0,0,0,86.31,81v-.2c0-.25-.07-.68-.07-.74A5.77,5.77,0,0,1,86.08,79a.42.42,0,0,1,0-.18,7.78,7.78,0,0,1,.66.54l.82.68a.35.35,0,0,1,.11.09l.08.06c.21.15.56.43.61.47.37.27.72.55,1.08.82l.06,0,0,0,.09.06.63.46c1.26.87,2.52,1.74,3.83,2.56a.48.48,0,0,0,.12.08l.11.06.68.41a31.36,31.36,0,0,0,2.9,1.45l.1,0,.08,0,.71.25a5.8,5.8,0,0,0,1.38.26.42.42,0,0,1,.15,0l.32,0,.25-.08c.8-.31.93-1.27.85-2a.47.47,0,0,1,0-.17c0-.26-.15-.72-.16-.78a14.69,14.69,0,0,0-1-2.65l-.06-.1c-.23-.44-.44-.89-.71-1.31l0-.09a.35.35,0,0,1-.07-.12,2.13,2.13,0,0,0-.31-.43h0a3.49,3.49,0,0,0,.24.88c.08.24.21.66.23.72a9.83,9.83,0,0,1,.47,2.39v.09a.55.55,0,0,1,0,.22,1.29,1.29,0,0,1-2,1.15,7.81,7.81,0,0,1-.75-.34c-.59-.3-1.16-.64-1.74-1l-.09-.06-.14-.08L94.82,83c-1.77-1.13-3.5-2.31-5.26-3.45l-.07,0,0,0,0,0L88.74,79c-.77-.5-1.6-.93-2.34-1.47l-.05,0-.12-.07-.09-.05-.51-.25-.14,0A2.46,2.46,0,0,0,85,77H85a.74.74,0,0,0-.21.07c-.23.21-.21.56-.26.84s0,.69-.06.76a12.54,12.54,0,0,1-.74,4ZM72.57,81.26a6.88,6.88,0,0,1,.09,1.59c0,.23-.07.54-.31.66-.23-.08-.27-.39-.39-.59h0v0h0c-.1-.22-.26-.61-.29-.67-.39-1-.8-2-1.28-2.94l-.05-.09c-.14-.23-.35-.65-.39-.71a17.47,17.47,0,0,0-1.65-2.29s0-.05,0-.08c-.18-.18-.47-.53-.52-.58a14,14,0,0,0-3-2.33l-.07,0-.09-.05c-.23-.14-.65-.35-.7-.38a16.63,16.63,0,0,0-2.24-.9l-.15,0-.77-.19-.2,0-.12,0h-.1l-.1,0-.19,0-.1,0-.41-.07-.91-.08-.8,0h-.47a2,2,0,0,1-.42,0,.56.56,0,0,1-.22,0h-.22l-.13,0-.65.08a1.86,1.86,0,0,1-.34.07c-.17.05-.35.08-.53.12l-.68.22-.16.06L53.7,72l-.28.12c-.23.12-.64.35-.69.39a7.05,7.05,0,0,0-2.65,3.19s0,.08,0,.11a.34.34,0,0,1-.05.14,1.69,1.69,0,0,1-.1.27.58.58,0,0,1-.05.14l-.21.75a14.43,14.43,0,0,0-.34,3.59v.19c0,.4.16,1.06-.35,1.21-.18,0-.14-.24-.25-.32l-.61.47c-2.08,1.59-4.52,3-7.2,3.14h-.1a.62.62,0,0,1-.19,0,4.56,4.56,0,0,1-.83-.12c-2.1-.59-1.9-3.46-1.5-5.14a5.56,5.56,0,0,0-.68.4,33.28,33.28,0,0,1-7.34,3.4c-.5.15-.37.21-.37.72v.1a1.83,1.83,0,0,1,0,.33c0,.35,0,.71,0,1.07a.81.81,0,0,1,0,.22c0,.27,0,.73,0,.8.08,3.2.05,6.41.17,9.62,0,.69.53.67.92,1.12l0,0,.08.08c.21.15.56.43.61.48.53.42,1.07.83,1.63,1.23l.1.07.63.45c.56.39,1.13.77,1.71,1.15l0,0,.14.08.19.12.67.41c1.32.8,2.68,1.52,4.05,2.21l.06,0a3.13,3.13,0,0,1,.32.15l.07,0,.66.29c.62.29,1.25.56,1.89.83l.12,0,.09,0,.08,0,.73.29.14,0,.08,0,.7.26c.77.28,1.56.53,2.34.78l.1,0,.17.06.17,0,.74.21c1.42.41,2.85.72,4.29,1h.09l.07,0a1.6,1.6,0,0,1,.29.05l.58.1.1,0,.7.11a43,43,0,0,0,6.59.61s.06,0,.08,0c.27,0,.73,0,.8,0,.54,0,1.09,0,1.63,0h.89c1.41,0,2.81-.13,4.22-.27h.13a.5.5,0,0,1,.17,0,.52.52,0,0,1,.17,0l.68-.08.61-.07.26,0,.12,0,.68-.1a54.42,54.42,0,0,0,7.34-1.65l.14,0h0c.13,0,.27-.08.39-.13l.22-.07h0l.29-.1.68-.23,1.08-.38.16-.06.68-.26c1-.4,2-.82,3-1.29l.1,0,.22-.1.68-.34a19,19,0,0,0,3.13-1.72.2.2,0,0,0,.08-.11V87.35c0-.56.17-2-.21-2.38-.62-.55-1.33-1-2-1.55l-.09-.06a6.19,6.19,0,0,0-.08.81,5.25,5.25,0,0,1-.1.65l0,.07a7,7,0,0,1-.23.72,5,5,0,0,1-1.93,2.29l-.08,0L86,88a4.35,4.35,0,0,1-.7.26c-1.91.45-3.9-.55-5.52-1.47l0,0-.08-.05-.68-.41c-.52-.33-1-.68-1.54-1l-.07-.05-.06,0-.63-.45c-.56-.42-1.15-.85-1.67-1.32,0,0,0,0-.06-.06a.69.69,0,0,1-.13-.11l-.58-.51c-.51-.43-1-.89-1.5-1.35l-.07-.07Zm.29,65.25.09.1a4.77,4.77,0,0,0,.67-.38,3.79,3.79,0,0,0,1.31-1.86.31.31,0,0,0,0-.11c-.23-.13-.66-.33-.73-.36l-1.3-.6-.09,0h0l-.65-.3L71,142.42l-.12,0c0,.24.06.66.06.72s0,.44.07.65.37.63.4.69C71.86,145.14,72.38,145.82,72.86,146.51Zm.61,22.33c-.31,0-.62,0-.93,0a.52.52,0,0,1-.17,0h-.08c-1.17,0-2.34,0-3.5,0-.07,0-.53,0-.8,0-.09,0,0,.14,0,.19.43,3.13,1.14,6.24,1.67,9.35l.12.7a1.3,1.3,0,0,0,0,.15c.25,1.38.49,2.77.73,4.16,0,0,.09.46.12.69l0,.08c.25,1.43.48,2.86.75,4.29l.12.69a.34.34,0,0,1,0,.09c.24,1.32.46,2.63.68,3.94,0,.06.09.47.12.7a.51.51,0,0,1,0,.09c.23,1.31.45,2.63.68,3.94l.12.7a.74.74,0,0,1,0,.12c.24,1.46.5,2.93.76,4.4,0,.06.09.46.12.69l0,.09c.05.16,0,.38.12.51h.17a20.78,20.78,0,0,1,2.23.22l.7.11.1,0c.83.15,1.65.33,2.45.54l.75.21a1.41,1.41,0,0,1,.22.06l.66.21.2.06.2.07.13.05c.66.23,1.32.47,2,.76l.64.3.09,0a11.67,11.67,0,0,1,3.12,2s.36.37.55.54a1.37,1.37,0,0,1,.16.18l.07.09c1.15,1.52,1.5,2.7-.64,3.63-.06,0-.45.19-.68.25l-.5.16s-.45.11-.67.18l-.09,0-.08,0h-.09c-.63.14-1.27.23-1.91.33-.05,0-.45.07-.68.08l-.15,0H83a19.6,19.6,0,0,1-3.25.14c-.07,0-.52,0-.78,0h-.2c-.68,0-1.35-.1-2-.15-.06,0-.5,0-.74-.07l-.16,0a.39.39,0,0,1-.17,0l-1.61-.16-.72-.09c-.21,0-.43,0-.64-.09h-.14l-.1,0L72,214c-.06,0-.47-.08-.71-.1a2.3,2.3,0,0,1-.37,0,1.15,1.15,0,0,1-.26,0h-.15c-.4,0-.81-.1-1.21-.14l-.73-.09-.13,0-.11,0-.16,0c-.83-.13-1.67-.26-2.5-.35l-.74-.09h-.12c-.21,0-.43-.05-.64-.09L64,213h-.1l-.16,0c-.78-.12-1.56-.24-2.32-.41l-.78-.17h-.07c-.29-.06-.57-.11-.86-.19l-.06,0-.12,0-.38-.09-.75-.22-.11,0-.12,0a.53.53,0,0,1-.11,0,21.94,21.94,0,0,0-3.34.11c-.06,0-.45,0-.68,0a.82.82,0,0,1-.22,0l-.21,0L52,212c-.05,0-.45,0-.68,0a1.79,1.79,0,0,1-.4,0H49.17a5.87,5.87,0,0,1-.8,0h-.15a15.39,15.39,0,0,1-1.8-.11c-.06,0-.48,0-.72-.09h-.14l-.1,0-.34-.06-.7-.11-.1,0-.12,0L43,211.26c-.06,0-.52-.1-.77-.18l-.07,0L42,211c-.25-.06-.48-.12-.72-.2l-.18-.06-.09,0a7.89,7.89,0,0,1-2.48-1.19,3.08,3.08,0,0,1-.59-.63.66.66,0,0,1-.09-.19.86.86,0,0,1-.09-.5v-.08a5.33,5.33,0,0,1,2-2.85,6.58,6.58,0,0,1,.64-.45,8.63,8.63,0,0,1,1.15-.64c.07-.05.15-.08.21-.12L42,204l.12-.06c.29-.11.58-.25.86-.35l.71-.25.08,0a25.53,25.53,0,0,1,3.23-.84c.07,0,.54-.12.81-.15h.1l.07,0c.6-.1,1.2-.17,1.81-.23l.76-.06a1.67,1.67,0,0,1,.32,0l.12,0h.8c.08,0,.54,0,.77,0a1,1,0,0,0,0-.27,35.58,35.58,0,0,0,.21-4.42c0-.07,0-.52,0-.78a.59.59,0,0,1,0-.19.92.92,0,0,0,0-.17c0-.65.07-1.29.11-1.94,0-.07,0-.52,0-.78v-.2c0-1.17.11-2.34.17-3.51,0-.06,0-.52,0-.78a.47.47,0,0,1,0-.17v-.08c.07-1.35.14-2.7.17-4.05,0-.07,0-.5,0-.75v-.12c0-1.16.11-2.33.18-3.49,0-.06,0-.52,0-.77a.55.55,0,0,1,0-.18v-.15c.1-3.22.33-6.45.53-9.67a5.59,5.59,0,0,0,0-.87l-.11,0c-.89-.05-1.79,0-2.68,0a3.69,3.69,0,0,1-.78,0s0-.1,0-.11A25,25,0,0,1,51,165c0-.06,0-.49.08-.73,0,0,0-.12,0-.13.17-2,.44-4,.66-6,0-.06.05-.49.08-.73l0-.15a.92.92,0,0,1,0-.16,1.11,1.11,0,0,1,0-.17s0-.08,0-.09c0-.78.16-1.56.24-2.34,0-.06.06-.49.09-.73,0,0,0-.11,0-.13,0-.61.13-1.23.19-1.84,0-.06.06-.49.09-.73s.06-.66.07-.71c0-.54.46-1.83-.25-1.83l-.1,0-.08,0a6.51,6.51,0,0,1-3.38-3.56,5.86,5.86,0,0,1-.24-.72l0-.06,0-.07a.87.87,0,0,0,0-.1,10.68,10.68,0,0,1-.18-3.74c0-.06,0-.48.09-.72a.38.38,0,0,1,0-.12c.11-.7.23-1.39.37-2.08,0-.07.11-.52.18-.78a1.13,1.13,0,0,1,0-.14c.87-3.62,2.17-7.11,3.2-10.68.16-.55.51-1.14.12-1.56,0,0-.39-.34-.56-.53a3,3,0,0,1-.26-.24.44.44,0,0,0-.08-.07c-.31-.27-.6-.58-.89-.87,0,0-.36-.37-.55-.54h0a5.22,5.22,0,0,1-1,.53l-.29.14-.1,0a6.85,6.85,0,0,1-2.31.51,6.42,6.42,0,0,1-.78,0A1.47,1.47,0,0,1,45,123a3.64,3.64,0,0,1-.73-.15h-.07c-.1,0-.2-.06-.3-.09l-.15,0a7.17,7.17,0,0,1-2.38-1.3l-.56-.52h-.05c-.08.09-.13.2-.21.31l-.09.15c0,.05-.07.11-.11.17l-.08.13-.1.14-.11.15a7,7,0,0,1-1.21,1.34,5.81,5.81,0,0,1-.54.4,2.42,2.42,0,0,1-.4.25l-.37.19-.12,0a7.81,7.81,0,0,1-.81.29c-.06,0-.46.12-.68.16l-.39.07a3.51,3.51,0,0,1-.72.07,4.51,4.51,0,0,1-.9,0h-.17l-.12,0h-.09a7.23,7.23,0,0,1-2.74-1.07,6.08,6.08,0,0,1-.66-.44L30,123l-.09-.09s-.15-.12-.16-.12-.48,1.55-.58,1.81c0,.06-.2.46-.31.68l-.1.21a5.77,5.77,0,0,1-1.68,2.11,5.84,5.84,0,0,1-.68.39h-.06l-.09,0a4.2,4.2,0,0,1-3.06.15l-.67-.27-.18-.1-.14-.06a7,7,0,0,1-2.15-1.8l-.46-.63c-.22-.45-.54.56-.91,1a2.74,2.74,0,0,1-.49.5l-.08.07a2.05,2.05,0,0,1-1.17.32,2.93,2.93,0,0,1-.78-.31l-.05,0-.08-.06a6.19,6.19,0,0,1-1.54-2.26c0-.06-.17-.47-.24-.71l-.05-.16s0-.12,0-.13a17.32,17.32,0,0,1-.47-2.11c0-.06-.08-.48-.11-.72l0-.12a.91.91,0,0,1,0-.17,1.23,1.23,0,0,0,0-.13c-.08-.89-.16-1.77-.2-2.66,0-.06,0-.52,0-.78a1.79,1.79,0,0,1,0-.4,3,3,0,0,1,0-.42,3.62,3.62,0,0,1,0-.47s0-.06,0-.07c0-.44,0-.88,0-1.32,0-.08,0-.53,0-.8a.88.88,0,0,1,0-.28V113c0-1-.06-2-.07-2.92,0-.07,0-.53,0-.8v-.16c0-.75,0-1.51,0-2.27,0-.07,0-.53,0-.8v-.17c0-.68,0-1.35,0-2v-.78c0-.81,0-1.62,0-2.43,0-.06,0-.53,0-.8v-3c0-.76,0-1.52,0-2.29V91.91c0-.07,0-.54,0-.81a.11.11,0,0,0-.07,0,13.56,13.56,0,0,1-3.24-.27c-.06,0-.51-.11-.76-.18l-.08,0-.15,0a9,9,0,0,1-1.74-.7l-.7-.39-.08,0-.09,0a14,14,0,0,1-1.64-1.22s-.37-.35-.55-.54c0,0-.06,0-.06-.06a17.6,17.6,0,0,1-1.32-1.67s-.29-.44-.42-.67L2,85.12A.44.44,0,0,1,1.94,85,15.25,15.25,0,0,1,.63,82c0-.06-.15-.49-.2-.75l0-.07a.56.56,0,0,1,0-.15A12.54,12.54,0,0,1,3.11,69.56,5.7,5.7,0,0,1,3.66,69l.11-.09.07-.07a8.06,8.06,0,0,1,7.68-1.32c.05,0,.45.18.66.28s.57.32.85.45a7,7,0,0,0,0-.74v-.68a.55.55,0,0,1,0-.18v-.11c0-1.14,0-2.26,0-3.39v-.83c0-.67,0-1.35,0-2,0-.06,0-.53,0-.8v-.15c0-.81,0-1.62,0-2.43v-.68a.47.47,0,0,1,0-.17V56c0-.68,0-1.35,0-2v-.68a.47.47,0,0,1,0-.17V53c0-.72,0-1.44,0-2.16,0-.07,0-.53,0-.8v-.19c0-.76,0-1.53,0-2.29,0-.07,0-.54,0-.8a.52.52,0,0,1,0-.17c0-.06,0-.17,0-.19,0-.6-.07-1.21-.08-1.82,0-.07,0-.53,0-.8V43.6c0-.66,0-1.32.06-2,0-.06,0-.5.06-.75a.4.4,0,0,1,0-.19V40.5c.06-.61.13-1.22.22-1.83,0-.05.07-.47.11-.7a1,1,0,0,1,0-.12A39.89,39.89,0,0,1,22,19.64c0-.05.32-.4.5-.59a.63.63,0,0,1,.11-.12l0-.05a11,11,0,0,1,1.16-1.3l.53-.55.11-.13.08-.07c.43-.44.85-.87,1.3-1.29L26.4,15l.12-.11.07-.06c.45-.42.91-.81,1.38-1.21l.59-.5,0,0A60.55,60.55,0,0,1,59,.51c.06,0,.49-.07.73-.08l.14,0a.66.66,0,0,1,.17,0L61.89.21l.76-.06h.17l.1,0c.56,0,1.13,0,1.7-.07.06,0,.52,0,.78,0a.5.5,0,0,1,.17,0H66c.06,0,.53,0,.8,0H67l1.58.05a6.42,6.42,0,0,1,.78,0h.14c.63,0,1.27.07,1.9.13l.74.09a.49.49,0,0,1,.17,0h.1c.85.06,1.69.2,2.54.32.06,0,.47.06.71.11h.09l.13,0c.88.15,1.75.32,2.63.5l.77.18h.07c.66.17,1.32.31,2,.48.06,0,.5.13.75.21,0,0,.08,0,.08,0,1.31.3,2.6.74,3.87,1.16l.72.23.09,0,.13.05q1,.33,1.89.69l.69.26.08,0,.09,0c1.58.58,3.11,1.32,4.62,2l.73.37,0,0c.57.28,1.13.59,1.69.89.06,0,.47.25.7.39l.11.07.11,0c1.73,1,3.41,2.08,5,3.26l.63.46.08.07.12.09c1,.79,2,1.59,3,2.45,0,0,.38.33.56.52a.69.69,0,0,1,.13.11l.06.06c.51.49,1,.94,1.54,1.45,0,0,.35.38.53.56l.11.12,0,0c.51.5,1,1,1.46,1.54,0,0,.34.39.5.59l.09.1.08.09c.52.61,1,1.24,1.51,1.89l.46.62,0,.06.06.09c.68,1,1.34,1.94,2,3l.4.69s0,.05,0,.05a18,18,0,0,1,1.51,3c0,.06.21.44.3.67l.05.12,0,.08a.62.62,0,0,1,.06.14c.25.59.46,1.18.68,1.77,0,.06.17.47.25.71l0,.11,0,.09c.24.8.51,1.61.69,2.43,0,.06.13.51.19.77v.07s0,.14,0,.15a27.56,27.56,0,0,1,.56,3.12c0,.07,0,.5.07.74l0,.14s0,.08,0,.09a15,15,0,0,1,.14,1.9c0,.07,0,.52,0,.78a.61.61,0,0,1,0,.19v.2c0,.68,0,1.37,0,2,0,.06,0,.46,0,.68v.09c0,1-.24,2-.2,3,0,.07,0,.53,0,.8a.47.47,0,0,1,0,.17v.1c0,.58,0,1.16,0,1.74,0,.07,0,.54,0,.81a.55.55,0,0,1,0,.18v.13c0,.67,0,1.34,0,2,0,.06,0,.54,0,.81a.5.5,0,0,1,0,.17v.16c0,.75,0,1.51,0,2.27v.82a.47.47,0,0,1,0,.17v.1c0,.68,0,1.35,0,2,0,.07,0,.55,0,.82a.91.91,0,0,1,0,.17v.15c0,1.76,0,3.53,0,5.29,0,.07,0,.53,0,.79a.38.38,0,0,0,.12,0,10.79,10.79,0,0,1,1.89.14,5.26,5.26,0,0,1,.69.12l.1,0a12.78,12.78,0,0,1,2.14.71,4.3,4.3,0,0,1,.64.31l.11,0A10.73,10.73,0,0,1,128.71,72s.36.37.53.56a.27.27,0,0,1,.08.1l.05,0A11,11,0,0,1,131,75.58c0,.06.19.46.26.69l0,.1s0,.09,0,.1a12.56,12.56,0,0,1,.45,2c0,.07,0,.51,0,.77a.47.47,0,0,1,0,.17v.18a12.06,12.06,0,0,1-.29,2.46s-.09.45-.16.68c0,.06,0,.17,0,.18a15.8,15.8,0,0,1-8.52,9.6l-.68.29h-.07l-.24.08c-1.4.5-1.21.15-1.24,1.65,0,.06,0,.54,0,.81a2.64,2.64,0,0,1,0,.29c0,.2,0,.39,0,.58v.15c0,.91,0,1.82,0,2.72v.68a1.22,1.22,0,0,1,0,.33v5.47a2.36,2.36,0,0,1,0,.46v10.22a1.76,1.76,0,0,1,0,.46v4.84a24.36,24.36,0,0,1-.38,4.9c0,.06-.1.46-.16.68l0,.17-.09.27,0,.12,0,.1,0,.09-.06.13a5.27,5.27,0,0,1-.74,1.36,4.16,4.16,0,0,1-.5.54,3,3,0,0,1-.68.48,2.54,2.54,0,0,1-.75.29c-.25.07-.68.15-.75.16s-.54,0-.81,0a1.08,1.08,0,0,1-.31,0H115a4.81,4.81,0,0,1-4.54-3.2,2.84,2.84,0,0,0-.26-.7,2.22,2.22,0,0,0-.39.68c-1.88,3.89-6.15,5.73-8.45,1.23a6.72,6.72,0,0,0-.36-.73c-.1,0-.18.22-.2.24a6,6,0,0,1-1.63,1.63l-.68.33-.1,0-.08,0a5.78,5.78,0,0,1-2.74.11l-.71-.25-.07,0a6.4,6.4,0,0,1-2-1.52l-.47-.61-.06-.09-.06-.09a7.68,7.68,0,0,1-.89-1.82c0-.06-.15-.49-.23-.73l0-.09a1.26,1.26,0,0,1,0-.16c-.14-.63-.11-1.3-.25-1.92a3.2,3.2,0,0,0-.45-.64l-.12-.13c-.15-.14-.25-.39-.44-.47l0,0v0h0v0l-.14.15-.07.08a10.56,10.56,0,0,1-1.35,1.24s-.36.26-.55.37l-.1.07a2,2,0,0,1-.32.17c-.14.07-.28.15-.43.21l-.08,0a6.54,6.54,0,0,1-3.49.55c-.07,0-.54-.08-.8-.15l-.07,0h-.07l-.3-.09-.22-.07a1.55,1.55,0,0,1-.23-.08l-.14,0a10.14,10.14,0,0,1-1.1-.53c-.06,0-.45-.27-.66-.44l-.06,0a4,4,0,0,1-.78-.71.45.45,0,0,1-.11-.13s-.08-.07-.08-.08a7.16,7.16,0,0,1-.48-.61c0-.06-.3-.42-.43-.65l-.09-.14a.61.61,0,0,0-.07-.1h0a9.62,9.62,0,0,1-.88.92l-.17.17A9.84,9.84,0,0,1,73.6,124c-.06,0-.45.19-.68.26a1.76,1.76,0,0,1-.5.13l-.08,0a4.76,4.76,0,0,0-.57.13,1.15,1.15,0,0,0,.07.25,34.94,34.94,0,0,0,1.25,3.51s.17.46.25.7l0,.07a.58.58,0,0,1,0,.13c.22.6.44,1.2.64,1.81,0,.06.17.47.25.71l0,.07.06.15c.39,1.17.77,2.35,1.09,3.54,0,.06.14.5.2.75l0,.12c.25.92.44,1.85.62,2.78,0,.07.09.47.11.71,0,0,0,.13,0,.14a11.27,11.27,0,0,1,0,3.43c0,.06-.09.45-.16.68,0,0,0,.14,0,.15a6.42,6.42,0,0,1-2.4,3.42s-.44.29-.68.42l-.18.09c-.17.08-1.33.45-1.37.5a5.37,5.37,0,0,0,.08,1.57c0,.06.06.5.07.75a.47.47,0,0,1,0,.17s0,.11,0,.12c0,.58.11,1.16.16,1.73,0,.07.06.5.07.75a.47.47,0,0,1,0,.17.51.51,0,0,1,0,.09c.09.74.14,1.48.22,2.22,0,.07,0,.5.07.75a.91.91,0,0,1,0,.17.47.47,0,0,1,0,.17,2,2,0,0,1,0,.34.47.47,0,0,1,0,.17.84.84,0,0,1,0,.1c.14,1.28.26,2.56.39,3.83,0,.06,0,.49.07.74l0,.16v.15a.66.66,0,0,1,0,.17c.12,1.37.25,2.73.41,4.08,0,.07,0,.5.06.75A5.63,5.63,0,0,1,73.47,168.84ZM71.19,137c.4,0,3.24-.1,3.36-.21s0-.17,0-.21l0-.08c-.07-.24-.21-.67-.22-.73s-.2-.88-.48-.95-.69.06-.75.07a17.74,17.74,0,0,0-2.88.25s0,0,0,.06l0,.15c0,.25.07.68.08.74a7.18,7.18,0,0,0,.08.87.18.18,0,0,1,.05.07Zm3.3.66c-.26,0-.72,0-.79,0a20.74,20.74,0,0,0-3.11.16.31.31,0,0,0-.16,0c0,.11,0,.24,0,.37v.15a6,6,0,0,1,.08.73c.13.46.54.32,1,.34a29.6,29.6,0,0,0,3.53.15.27.27,0,0,0,.12,0,3.32,3.32,0,0,0-.12-.81C75,138.38,75,137.57,74.49,137.65Zm-1.42,4.84.7.26c.45.18.9.37,1.36.54l.13.05a3.22,3.22,0,0,0,.15-.8,6.51,6.51,0,0,0,0-1.87.13.13,0,0,0,0-.07c-.24,0-.67-.07-.74-.08-1.28-.11-2.57-.3-3.86-.36h-.13c0,.29.07.58.07.87a.47.47,0,0,1,0,.17c-.09.59,1.3.89,1.39.92l.79.3Zm40.58-48.24c.18-3.48.15-7,.15-10.44v-.15a.47.47,0,0,1,0-.17c0-.27,0-.73,0-.8-.1-4.16-.16-8.33-.28-12.5V70c0-.25,0-.7-.06-.76a2.08,2.08,0,0,0-.24-.85l-.09-.1-.07,0a.33.33,0,0,0-.14,0h0a.76.76,0,0,0-.2.2,3.13,3.13,0,0,0-.22.72,2.36,2.36,0,0,1,0,.35,1.51,1.51,0,0,1,0,.3v.68c0,2.45.08,4.89.11,7.33v.19a2.33,2.33,0,0,1,0,.46c0,.25,0,.71,0,.78,0,1.63.13,3.26.13,4.89v.11c0,.26,0,.73,0,.79.1,2.91,0,5.85,0,8.76V94a3,3,0,0,1,0,.52c0,.26,0,.72,0,.78s0,.29,0,.44,0,.7,0,.77,0,.41.05.61.07.67.08.73c0,.4.1.8.16,1.2,0,0,0,.07,0,.11v.06l0,.07h0a.33.33,0,0,0,0-.16c0-.23.07-.63.08-.68.07-.77.09-1.55.19-2.31,0,0,0-.06,0-.09a1.21,1.21,0,0,1,0-.19c0-.22,0-.45,0-.68a2.45,2.45,0,0,1,0-.27C113.61,94.7,113.64,94.31,113.65,94.25ZM72.19,204.66c.08-.1,0-.25,0-.37h0v0h0a3.86,3.86,0,0,0-.91-.05H67.34a.49.49,0,0,1-.17,0c-.27,0-.75,0-.81,0-1.22,0-2.43-.06-3.64,0h-.08c0,.26,0,.72,0,.78a2.81,2.81,0,0,0,0,.39h0c.25,0,.69,0,.76,0,.71.06,1.44.07,2.15.16h.11l.76.06c.93.06,1.86.17,2.79.19a.34.34,0,0,0,.17,0,6.2,6.2,0,0,1,.68-.38,11.36,11.36,0,0,1,1.9-.7Zm-.37-2.44a4.73,4.73,0,0,0-.12-.81,7.65,7.65,0,0,0-.24-1.52s0-.06,0-.06a5.87,5.87,0,0,0-.8,0H68.19c-.63,0-1.26,0-1.88,0H63.13a.55.55,0,0,1-.18,0,2.17,2.17,0,0,0-.36,0,4.93,4.93,0,0,0,0,.78,6.05,6.05,0,0,0,0,1.48s0,.14,0,.17h.81l3.79,0h.1c.28,0,.75,0,.82,0h1.89a.5.5,0,0,1,.17,0H71C71.1,202.24,71.57,202.25,71.82,202.22Zm-.71-4.35a4.77,4.77,0,0,0-.11-.82c-.1-.59-.18-1.17-.28-1.76a.85.85,0,0,0,0-.15l-.79,0H65.76a.47.47,0,0,1-.17,0H62.8a.5.5,0,0,1-.17,0h-.08c0,.26,0,.74,0,.8a11.35,11.35,0,0,0,0,1.76.41.41,0,0,0,0,.16c.16.07.38,0,.57,0h.67c.77,0,1.54,0,2.3,0H69a.52.52,0,0,1,.17,0H70l.94,0A.73.73,0,0,0,71.11,197.87Zm-1.53-9.49c0-.27-.1-.74-.11-.82-.12-.7-.22-1.4-.35-2.1a.29.29,0,0,0-.05-.15H64.69a.47.47,0,0,1-.17,0h-2.1a4.93,4.93,0,0,0,0,.78c0,.06,0,.51,0,.76s0,.74,0,.8,0,.46,0,.69a3.79,3.79,0,0,0,.79,0h2.92a.47.47,0,0,1,.17,0h.82c.76,0,1.53,0,2.29,0A.37.37,0,0,0,69.58,188.38Zm-1-5.13a.28.28,0,0,0,.11,0c0-.27-.11-.74-.12-.81-.11-.65-.19-1.33-.33-2,0,0,0-.08,0-.1H64.88c-.81,0-1.62,0-2.43,0a.74.74,0,0,0-.15,0v.78c0,.66,0,1.33.05,2a.49.49,0,0,0,0,.11c.26,0,.73,0,.8,0h2.21C66.45,183.23,67.54,183.29,68.62,183.25ZM60.77,195c0-.23.06-1.95,0-2s0-.06,0-.08a5.17,5.17,0,0,0-.74-.07l-.9-.05-.14,0a.55.55,0,0,1-.18,0l-.77,0c-.59,0-1.2-.06-1.79-.12a.92.92,0,0,0-.19,0,.47.47,0,0,1-.17,0l-1.06-.06a7,7,0,0,0,0,.92.91.91,0,0,1,0,.17c0,.27,0,.73,0,.8a7.32,7.32,0,0,0,0,.9.33.33,0,0,1,0,.1c.25,0,.7,0,.76.06.68,0,1.37.1,2.05.12h.1a.55.55,0,0,1,.18,0l.77,0c.64,0,1.28.11,1.91.13h.25A3,3,0,0,0,60.77,195Zm0-4.19c0-.27,0-.74,0-.81,0-.67,0-1.35,0-2a.2.2,0,0,0,0-.07c-.25,0-.7,0-.76-.06l-1-.06h-.3l-.77,0c-.6,0-1.2-.07-1.79-.12l-.16,0a.5.5,0,0,1-.17,0c-.25,0-.5-.05-.76,0a6.28,6.28,0,0,0,0,.77c0,.05,0,.38,0,.58a.5.5,0,0,1,0,.17c0,.27,0,.73,0,.8a1.64,1.64,0,0,0,0,.59c.25,0,.7,0,.77,0a3.51,3.51,0,0,1,.37,0l.78,0c.69,0,1.37.1,2.05.13H59c.25,0,.7,0,.76,0l.9.05Zm0,7.75c0-.19.09-.69-.13-.74a.52.52,0,0,1-.17,0l-.78,0c-.64,0-1.28-.07-1.91-.12a.49.49,0,0,0-.13,0,.47.47,0,0,1-.17,0l-.78,0c-.63,0-1.27-.1-1.9-.13h-.17a37.62,37.62,0,0,0-.1,2.07s0,.12,0,.14l.61,0h.17l.78,0c1.41.07,2.82.15,4.23.26a.38.38,0,0,0,.12,0,.47.47,0,0,1,.17,0C60.89,199.79,60.77,198.54,60.77,198.53Zm-.06-12.72a3.51,3.51,0,0,0,0-.79c0-.36,0-.72,0-1.09v-.18a.5.5,0,0,1,0-.17c0-.13,0-.29,0-.39-.25,0-.71,0-.77-.05l-.79,0a.5.5,0,0,1-.17,0l-.78,0-1.67-.1a.82.82,0,0,0-.18,0,.47.47,0,0,1-.17,0c-.31,0-.61,0-.91,0,0,.34-.07.68-.1,1a.55.55,0,0,1,0,.18c0,.26,0,.73,0,.79a3.15,3.15,0,0,0,0,.62c.28,0,.56,0,.84.06l.78,0c.65,0,1.29.07,1.93.12l.18,0c.26,0,.7,0,.77,0l1,.07Zm-.1-9.66c0-.27,0-.75,0-.82,0-2.06.11-4.2-.14-6.25-.08-.64-.48-.42-1.08-.42-1.11,0-2.23,0-3.35,0h-.21a6.8,6.8,0,0,0-.05.76c-.1,2-.31,4.17-.26,6.14,0,.17-.09.42.15.36a.47.47,0,0,1,.17,0l.78,0c.6,0,1.2.05,1.8.1a1,1,0,0,0,.19,0,.47.47,0,0,1,.17,0l.78,0c.3,0,.6.06.89.06C60.48,176.17,60.57,176.19,60.61,176.15Z"/><path class="cls-1" d="M8.24,74.59c-2.1-.24-3.36,1.71-4,3.41-.06.16-.2.85-.54,1-.81-1.81.92-4.81,3.06-5.54a4.24,4.24,0,0,1,.79-.16,4.3,4.3,0,0,1,.46,0,6.42,6.42,0,0,1,.71.1l.08,0,.11,0c2.07.7,3.28,2.85,3.67,4.9,0,.06.08.47.11.71a.62.62,0,0,1,0,.12,4.88,4.88,0,0,1,0,2.46c-.65,1.56-.87-.94-1-1.31a3.66,3.66,0,0,0-.38-.71.83.83,0,0,1-.11-.13c-1.84-1.56-3.18,1.38-3.3,2.9a1.78,1.78,0,0,1-.12.8c-.13,0-.23-.18-.26-.23-1.33-1.77.84-5.71,3.37-4.92a3.25,3.25,0,0,1,.71.37.08.08,0,0,0,0-.05,5.38,5.38,0,0,0-2.31-3.4,4,4,0,0,0-.8-.29l-.07,0Z"/><path class="cls-4" d="M20.65,123a14.16,14.16,0,0,0,1.87,1.39,5,5,0,0,0,.71.38,1.24,1.24,0,0,0,.33.09l.11,0a1.71,1.71,0,0,0,1.22-.15,4.17,4.17,0,0,0,.6-.63l.06-.07a8,8,0,0,0,1.11-2.85c0-.06.08-.46.11-.7l0-.15s0-.14,0-.15c.1-1,.2-2,.27-3,0-.06,0-.52,0-.78a1.74,1.74,0,0,0,0-.32,2.42,2.42,0,0,0,0-.38,1.05,1.05,0,0,0,0-.13c0-.31,0-.61,0-.92,0-.07,0-.52,0-.78a1.45,1.45,0,0,0,0-.36,2.3,2.3,0,0,0,0-.37.89.89,0,0,0,0-.11c.11-1.16.1-2.35.15-3.52,0-.06,0-.51,0-.78a2.23,2.23,0,0,0,0-.37.35.35,0,0,1,0-.07c.1-1.17.1-2.35.16-3.52,0-.06,0-.52,0-.78a1.09,1.09,0,0,0,0-.36.64.64,0,0,1,0-.07c.06-.69.06-1.39.08-2.08,0-.07,0-.53,0-.79a1.53,1.53,0,0,0,0-.37.8.8,0,0,0,0-.19c0-.52,0-1,.07-1.56,0-.07,0-.52,0-.78a.45.45,0,0,0,0-.14c.09-1.13.1-2.26.15-3.39,0-.06,0-.52,0-.78a1.28,1.28,0,0,0,0-.34.5.5,0,0,0,0-.15c0-.74.07-1.47.1-2.21,0-.07,0-.52,0-.78a2.17,2.17,0,0,0,0-.36c0-.27,0-.73.05-.8s0-.52,0-.78h0s0,.16,0,.17c.13,3.37.14,6.74.23,10.11,0,.07,0,.53,0,.8v.12c0,.71,0,1.42,0,2.13,0,.07,0,.54,0,.81a1.62,1.62,0,0,0,0,.31v.11c0,.77,0,1.53,0,2.3a7.49,7.49,0,0,0,0,.8v.2c0,1.77,0,3.54,0,5.31V112a5,5,0,0,0,0,.54v.16c0,1.27-.07,2.54-.15,3.81,0,.06,0,.45,0,.68a.66.66,0,0,0,0,.2c0,.23,0,.47-.05.7s-.07.75-.11,1.12a.82.82,0,0,0,0,.14,20.07,20.07,0,0,1-.87,4.48c0,.06-.15.46-.25.68v.06h0a1.16,1.16,0,0,1-.09.19A4.4,4.4,0,0,1,26.3,126a5.22,5.22,0,0,1-.68.47l-.19.08a2.92,2.92,0,0,1-1.55.07,4.41,4.41,0,0,1-.7-.25l-.08,0A7.35,7.35,0,0,1,21.44,125l-.52-.57-.09-.1a.28.28,0,0,0-.06-.08c-.35-.43-.66-.88-1-1.33a5.81,5.81,0,0,1-.41-.67l0-.12s0-.13,0-.15h0c.4.24.74.58,1.12.86l.09.07Z"/><path class="cls-4" d="M93.48,89.83c0,1,0,2,.09,3,0,.07,0,.53,0,.79a3.7,3.7,0,0,0,0,.47v.12c0,.53,0,1.07,0,1.6,0,.07,0,.52,0,.78s0,.47,0,.51,0,.53,0,.79a3.62,3.62,0,0,0,0,.57v.09c0,.84,0,1.69.05,2.53,0,.06,0,.52,0,.78v.1c0,2,.09,4.09.14,6.13,0,.06,0,.53,0,.8s0,.43,0,.64v.26c0,.75,0,1.5.05,2.25a5.85,5.85,0,0,0,0,.8v.33a3.75,3.75,0,0,0,0,.58v.15c0,1.56,0,3.13.07,4.69,0,.06,0,.53,0,.8a2.42,2.42,0,0,0,0,.38v.13a18.2,18.2,0,0,0,.14,2.45s.06.47.11.7l0,.1,0,.14c0,.1.07.27.07.3s.12.5.21.75a1,1,0,0,0,.06.16.46.46,0,0,0,0,.09c.71,1.8,2.36,2.59,4,1.25a5.87,5.87,0,0,0,.55-.53.39.39,0,0,0,.08-.1l.08-.1a19.77,19.77,0,0,0,1.1-1.75,5.4,5.4,0,0,1,.46-.63.27.27,0,0,1,.17-.06l.08.05a.88.88,0,0,1,0,.1,11.83,11.83,0,0,1,.34,1.16c0,.06.12.51.2.75,0,0,0,.12,0,.13a11,11,0,0,0,.92,2.34,5.87,5.87,0,0,0,.46.62,1,1,0,0,0,.17.18l.06.08a2.6,2.6,0,0,0,1.14.62,3,3,0,0,0,.84,0l.18,0a4.84,4.84,0,0,0,3.2-2.91c0-.06.2-.45.29-.67,0-.06,0-.13.07-.19s0-.07,0-.08q.39-1.2.69-2.43c0-.06.12-.51.2-.75l0-.09a.18.18,0,0,1,.07-.08h0a.12.12,0,0,1,.08,0,2.64,2.64,0,0,1,.29.83l0,.15c0,.18.1.48.11.53s.11.52.17.78a.9.9,0,0,0,0,.16l0,.06v.07a13.86,13.86,0,0,0,.51,1.81l.27.68a1.55,1.55,0,0,0,.14.29.84.84,0,0,0,.11.21,4.48,4.48,0,0,0,.28.47h0s-.07,0-.09,0a6.42,6.42,0,0,1-1.73-3c0-.06-.12-.5-.21-.73-.05,0-.06.14-.06.14s-.44,1.54-.52,1.77c-1.26,3.63-5.43,6.16-7.76,2,0-.07-.25-.49-.34-.74l0-.09a9.62,9.62,0,0,0-.57-1.56s0,0-.07,0a5.8,5.8,0,0,0-.34.82c0,.06-.22.46-.35.68l0,.1a4.44,4.44,0,0,1-1.71,1.65,5,5,0,0,1-.68.25l-.14,0a4.4,4.4,0,0,1-1.45.08,3.88,3.88,0,0,1-.75-.21l-.08,0-.06,0a5.48,5.48,0,0,1-1.24-.94,7.11,7.11,0,0,1-.5-.59l0-.05a.79.79,0,0,0-.08-.11,6.48,6.48,0,0,1-.68-1.37c0-.06-.18-.47-.24-.71v-.07s0-.12,0-.13a11.87,11.87,0,0,1-.22-2.23c0-.07,0-.53,0-.8v-.1c0-1.4,0-2.79,0-4.19v-.68a4,4,0,0,0,0-.49v-3a2.72,2.72,0,0,0,0-.49V102.42a.55.55,0,0,0,0-.18V97.72c0-.07,0-.54,0-.81a.55.55,0,0,0,0-.18V90.94a.47.47,0,0,0,0-.17V89c0-.07,0-.55,0-.82a.47.47,0,0,0,0-.17v-1c0-.06,0-.51,0-.76.18.09.35.22.53.31l.12.06s.12.07.12.08A10.27,10.27,0,0,1,93.45,89c0,.07,0,.53,0,.78Z"/><path class="cls-4" d="M112.78,95.32c0-.06,0-.52,0-.78a3,3,0,0,0,0-.52v-.16c0-2.91,0-5.85,0-8.76,0-.06,0-.53,0-.79V84.2c0-1.63-.09-3.26-.13-4.89,0-.07,0-.53,0-.78a2.33,2.33,0,0,0,0-.46v-.19c0-2.44-.11-4.88-.11-7.33v-.68a1.51,1.51,0,0,0,0-.3,2.36,2.36,0,0,0,0-.35,3.13,3.13,0,0,1,.22-.72.76.76,0,0,1,.2-.2h0a.33.33,0,0,1,.14,0l.07,0,.09.1a2.08,2.08,0,0,1,.24.85c0,.06,0,.51.06.76v.15c.12,4.17.18,8.34.28,12.5,0,.07,0,.53,0,.8a.47.47,0,0,0,0,.17v.15c0,3.49,0,7-.15,10.44,0,.06,0,.45,0,.68a2.45,2.45,0,0,0,0,.27c0,.23,0,.46,0,.68a1.21,1.21,0,0,0,0,.19s0,.08,0,.09c-.1.76-.12,1.54-.19,2.31,0,0-.06.45-.08.68a.33.33,0,0,1,0,.16h0l0-.07v-.06s0-.09,0-.11c-.06-.4-.11-.8-.16-1.2,0-.06-.06-.48-.08-.73s-.05-.56-.05-.61,0-.51,0-.77S112.78,95.36,112.78,95.32Z"/><path class="cls-4" d="M73.07,77l.06.06c1.32,1.18,2.74,2.26,4.14,3.34.06,0,.41.31.63.46l.1.07.1.07a19.91,19.91,0,0,0,3.33,2.11c.06,0,.46.18.7.25l.07,0h.07a1.16,1.16,0,0,0,1.39-.65l0,0a12.54,12.54,0,0,0,.74-4c0-.07,0-.51.06-.76s0-.63.26-.84A.74.74,0,0,1,85,77H85a2.46,2.46,0,0,1,.45.11l.14,0,.51.25.09.05.12.07.05,0c.74.54,1.57,1,2.34,1.47l.65.44,0,0,0,0,.07,0c1.76,1.14,3.49,2.32,5.26,3.45l.67.42.14.08.09.06c.58.34,1.15.68,1.74,1a7.81,7.81,0,0,0,.75.34,1.29,1.29,0,0,0,2-1.15.55.55,0,0,0,0-.22v-.09A9.83,9.83,0,0,0,99.78,81c0-.06-.15-.48-.23-.72a3.49,3.49,0,0,1-.24-.88h0a2.13,2.13,0,0,1,.31.43.35.35,0,0,0,.07.12l0,.09c.27.42.48.87.71,1.31l.06.1a14.69,14.69,0,0,1,1,2.65c0,.06.11.52.16.78a.47.47,0,0,0,0,.17c.08.74,0,1.7-.85,2l-.25.08-.32,0a.42.42,0,0,0-.15,0,5.8,5.8,0,0,1-1.38-.26l-.71-.25-.08,0-.1,0A31.36,31.36,0,0,1,95,85.16l-.68-.41-.11-.06a.48.48,0,0,1-.12-.08c-1.31-.82-2.57-1.69-3.83-2.56l-.63-.46-.09-.06,0,0-.06,0c-.36-.27-.71-.55-1.08-.82,0,0-.4-.32-.61-.47l-.08-.06a.35.35,0,0,0-.11-.09l-.82-.68a7.78,7.78,0,0,0-.66-.54.42.42,0,0,0,0,.18A5.77,5.77,0,0,0,86.24,80c0,.06.05.49.07.74V81a9.83,9.83,0,0,1-.16,2.42,5.12,5.12,0,0,1-.2.68l0,.1c0,.06-.07.17-.07.19a3.84,3.84,0,0,1-.56.82,3.28,3.28,0,0,1-.55.4l-.17.08a3.62,3.62,0,0,1-2.91-.44c-.06,0-.49-.23-.72-.36l-.09-.06-.08,0c-.51-.29-1-.62-1.49-1-.06,0-.43-.29-.64-.45l-.06,0-.09-.07c-.54-.4-1.07-.82-1.6-1.24l-.6-.5a.73.73,0,0,0-.1-.09c-.51-.44-1-.87-1.51-1.33,0,0-.39-.34-.57-.53a.69.69,0,0,0-.13-.11l-.06-.06c-.35-.32-.69-.66-1-1l-.55-.54a.69.69,0,0,0-.11-.13l0,0c-.71-.71-1.37-1.44-2-2.18,0,0-.35-.37-.51-.58l-.09-.1c-.18-.4-1.31-1.25-.79-1.59h0l.07.06c1.18.93,2.26,2,3.4,3,0,0,.38.34.58.51l.12.1Z"/><path class="cls-4" d="M42.55,76.33c-.14.72-.29,1.44-.38,2.18a7.84,7.84,0,0,0-.07.81c0,1-.37,1.89,1.22,1.58a7.52,7.52,0,0,0,.72-.23.52.52,0,0,0,.13-.06l.06,0a12.42,12.42,0,0,0,2.11-1.29s.42-.3.62-.47.59-.49.9-.72a2.44,2.44,0,0,1,.06.44c0,.39.42,1.33-.21,1.66l-.11.08c-1.39,1.2-3.75,3.11-5.71,3a4.45,4.45,0,0,1-.69-.13c-1.32-.4-.87-2.75-.83-3,0-.06.08-.46.14-.68a.85.85,0,0,0,0-.15,22,22,0,0,1,.9-2.63s.14-.31.23-.53l.89.11Z"/><path class="cls-4" d="M28.33,78.52a5.48,5.48,0,0,1,.45-.62h0a.66.66,0,0,1,0,.19c.12,2.21,2.12,2,3.72,1.45.06,0,.47-.16.71-.24a2.19,2.19,0,0,0,.33-.12l.09,0c.85-.35,1.69-.74,2.51-1.17.06,0,.48-.24.71-.37l.19-.1a.41.41,0,0,0,.11-.07l.14-.07,1.21-.69.68-.42.08,0,.06,0c.44-.23.85-.52,1.27-.78,0,0,.45-.27.67-.42l.13-.08c.44-.26.86-.57,1.31-.8l.07,0,.1,0h0c.11,0,.14.14.12.23a1,1,0,0,1,0,.12c-.08.32-.18.63-.26.95,0,.06-.1.45-.16.68v0h0v0l0,.08s0,0,0,0l-.89-.11.08-.21c-.06,0-.14.07-.14.07s-2.18,1.28-2.45,1.43l-.68.38-.14.08c-2.42,1.38-6.78,4-9.52,4.21A2.12,2.12,0,0,1,28,82a1.33,1.33,0,0,1-.3-.23l-.05-.06-.06-.1C27.19,80.6,27.8,79.38,28.33,78.52Z"/><path class="cls-4" d="M19.66,76.79l0,.12a.54.54,0,0,0,0,.12c-.76,2.25-.73,3,1.89,2.68.05,0,.47-.06.69-.12h.07l.14,0a24.21,24.21,0,0,0,4.05-1.39l.66-.29.2-.08.28-.08a.92.92,0,0,1,.18,0c0,.16-.07.2-.23.33a18.33,18.33,0,0,1-3.81,2.22l-.68.32-.08,0c-.45.18-.9.38-1.36.54l-.68.21-.09,0-.23.06h0l-.08,0a4.85,4.85,0,0,1-1.73.16,1.67,1.67,0,0,1-.95-.55.69.69,0,0,1-.06-.13,2.07,2.07,0,0,1,0-1.47c0-.06.21-.43.3-.65l.06-.13a11.58,11.58,0,0,1,1.06-1.53,7.1,7.1,0,0,1,.5-.57h0C19.71,76.68,19.67,76.74,19.66,76.79Z"/><path class="cls-4" d="M15.09,96.73c0-.66,0-1.33,0-2,0-.07,0-.54,0-.82a.62.62,0,0,0,0-.19,1.1,1.1,0,0,1,0-.16q0-1.14,0-2.28c0-.07,0-.55,0-.82v-.12c0-.71,0-1.43,0-2.14v-.68a.47.47,0,0,0,0-.17v-.14c0-.67,0-1.34,0-2v-.68a.47.47,0,0,0,0-.17v-.15c0-.81,0-1.63,0-2.43v-.68a.47.47,0,0,0,0-.17v-.17c0-1.09,0-2.17,0-3.25v-.68a.55.55,0,0,0,0-.18v-3a.5.5,0,0,0,0-.17V62.66a.47.47,0,0,0,0-.17v-2.8a.55.55,0,0,0,0-.18v-.15c0-.81,0-1.62,0-2.43v-.85c0-.62,0-1.24,0-1.87,0-.07,0-.54,0-.81a.5.5,0,0,0,0-.17V53c0-.67,0-1.33,0-2,0-.07,0-.55,0-.82A.47.47,0,0,0,15,50v-.1c0-.85,0-1.7,0-2.55,0-.07,0-.54,0-.8v-.14c0-.57,0-1.14.06-1.71,0-.07,0-.53,0-.79a.47.47,0,0,0,0-.17v-.15c0-.6.07-1.2.1-1.79,0-.07,0-.52,0-.78a.37.37,0,0,0,0-.18.35.35,0,0,1,0-.12c.06-.55.07-1.11.11-1.66,0-.06.06-.5.07-.76a.91.91,0,0,0,0-.17.47.47,0,0,0,0-.15c.82-5.94,4.28-12.37,8.12-16.91,0-.05.35-.38.51-.58l.11-.12.05-.06c.4-.41.77-.85,1.16-1.28.05,0,.35-.38.53-.56a.69.69,0,0,0,.11-.13l.05-.05c.39-.43.79-.84,1.19-1.26.05,0,.37-.36.54-.55l.08-.08c.42-.4.85-.79,1.28-1.18l.58-.51a.53.53,0,0,0,.12-.1l.09-.07c8.24-7.13,18.38-11,29.14-12.21l.74-.08h.17l.17,0,1.78-.13.77,0,.69,0,.79,0h1.44c.89,0,1.77,0,2.66.06l.77,0a.55.55,0,0,0,.18,0l.12,0c.59.06,1.18.08,1.77.13l.74.08h.14l.18,0c.77.08,1.53.19,2.29.29l.71.11.12,0,.14,0L78,3.28l.79.16.07,0h.07c.63.14,1.25.28,1.88.44l.75.19.07,0,.12,0c1.22.34,2.44.7,3.64,1.11l.71.25.11,0,1.88.7.68.28.08,0,.15.06c1.44.61,2.88,1.26,4.27,2,.06,0,.48.26.72.37l.11.06a.2.2,0,0,0,.08,0c.53.29,1,.57,1.57.88l.69.4.08.05.07,0a57.28,57.28,0,0,1,4.78,3.24l.61.48.09.06c1,.74,1.89,1.56,2.79,2.37l.57.53.12.11,0,.05c.5.5,1,1,1.5,1.5l.54.55a.69.69,0,0,0,.11.13l.06.06c.42.44.82.91,1.21,1.37l.5.58.09.11.05.06c.48.61,1,1.2,1.44,1.83l.46.62s0,.06,0,.07c.63.92,1.26,1.83,1.84,2.79l.4.68.07.12a.29.29,0,0,0,0,.08c.46.9,1,1.77,1.4,2.68,0,.06.19.44.3.65a1.18,1.18,0,0,1,.06.13c.26.56.5,1.13.74,1.71l.27.67,0,.09,0,.09c.27.73.56,1.44.8,2.18,0,.07.15.5.21.75l0,.07a1,1,0,0,1,0,.12,16.15,16.15,0,0,1,.39,2.74c0,.07,0,.53,0,.79a.62.62,0,0,0,0,.19v.12c0,.61,0,1.22.07,1.83,0,.07,0,.52,0,.78a.58.58,0,0,0,0,.19v.14c0,.61,0,1.22.07,1.83,0,.07,0,.52,0,.78a1.11,1.11,0,0,0,0,.19v.19c0,1,.06,1.93.1,2.89,0,.07,0,.52,0,.78v.2c0,.62,0,1.23.06,1.84,0,.07,0,.52,0,.79v.08c0,.74.06,1.49.08,2.23,0,.06,0,.53,0,.8a1,1,0,0,0,0,.17,1.64,1.64,0,0,1,0,.2c0,.74,0,1.49.08,2.23,0,.06,0,.53,0,.8a1,1,0,0,0,0,.17.28.28,0,0,1,0,.08l.06,2.11c0,.07,0,.52,0,.78v.19c0,1.79.14,3.59.19,5.38a6.1,6.1,0,0,1,0,.78.3.3,0,0,1-.11,0l-.82.18a3.84,3.84,0,0,1-.91.21v-.14c0-1-.07-2.09-.11-3.14,0-.07,0-.53,0-.79v-.08c0-1.31-.09-2.63-.13-3.95,0-.06,0-.52,0-.78a2,2,0,0,0,0-.49,2.57,2.57,0,0,0,0-.48v-.13c0-1.45-.1-2.89-.16-4.34,0-.07,0-.52,0-.78a2.57,2.57,0,0,0,0-.48V54c-.08-2.49-.18-5-.27-7.48,0-.06,0-.52,0-.78a2.61,2.61,0,0,0,0-.4v-.12l0-.79c0-.07,0-.52,0-.78V43.5c0-.7-.06-1.39-.08-2.09,0-.07,0-.52,0-.78a2.14,2.14,0,0,0,0-.44V40a9.34,9.34,0,0,0-.19-1.58c0-.07-.1-.53-.17-.79a1,1,0,0,0-.05-.22l0-.22a.75.75,0,0,0,0-.11c-.09-.36-.18-.72-.29-1.07l-.26-.69-.09-.22a.45.45,0,0,0,0-.08c-.19-.49-.38-1-.59-1.45,0-.06-.19-.44-.29-.67l-.19-.42a.88.88,0,0,0-.1-.22.34.34,0,0,0,0-.08,16.37,16.37,0,0,0-.84-1.74l-.38-.71a3.68,3.68,0,0,0-.23-.44l-.09-.15c-.21-.4-.44-.78-.68-1.16l-.06-.11c-.17-.28-.34-.56-.52-.84,0-.05-.29-.44-.44-.65l0-.05s-.06-.1-.07-.1l-.56-.81s-.29-.42-.45-.63l-.32-.45,0-.07-.09-.11Q108.41,23,107.54,22s-.33-.39-.51-.58a.49.49,0,0,0-.12-.13,4053485242892.51,4053485242892.51,0,0,0-.3-.34,1.62,1.62,0,0,0-.17-.19l-.06-.08c-.56-.65-1.2-1.25-1.82-1.85l-.56-.53a1.86,1.86,0,0,0-.26-.23.66.66,0,0,0-.15-.14,1,1,0,0,0-.15-.14l-.1-.09c-.37-.35-.78-.67-1.17-1l-.6-.49-.11-.08-.08-.07c-.39-.31-.77-.63-1.17-.92l-.29-.22-.53-.39-.07,0-.07-.05-.16-.12L99,14.23c-1-.73-2-1.42-3.11-2.05l-.69-.4L95,11.66a1.36,1.36,0,0,0-.24-.13,1,1,0,0,0-.18-.1l-.07,0a29.72,29.72,0,0,0-2.85-1.5L91,9.58c-.15-.07-.29-.16-.45-.22l-.18-.08-.11,0c-1-.48-2-.91-3-1.31l-.69-.26-.68-.25-.18-.07-.19-.07-.29-.1-.1,0C83.74,6.65,82.36,6.25,81,5.9l-.76-.19c-.22-.07-.46-.12-.69-.17l-.77-.17c-.06,0-.51-.13-.78-.17h-.07l-.33-.07L76.8,5a1.09,1.09,0,0,0-.26,0l-.1,0-.17,0c-1.42-.25-2.85-.46-4.29-.61-.06,0-.49-.06-.74-.07h-.17c-.2,0-.39,0-.58,0a.52.52,0,0,0-.17,0,3.13,3.13,0,0,0-.43,0h-.13C68.63,4,67.5,3.92,66.37,3.9H64.52c-.07,0-.55,0-.82,0a4.15,4.15,0,0,0-.61,0,2.29,2.29,0,0,0-.37,0h-.21c-.5,0-1,.06-1.49.11-.06,0-.46,0-.68.06h0a.52.52,0,0,0-.17,0,4.57,4.57,0,0,0-.52,0h-.16l-.29,0h-.11c-1.37.14-2.74.35-4.09.6L54.28,5H54.2l-.09,0-.08,0c-1.14.21-2.28.49-3.4.8L50,6l-.19,0-.49.14-.17,0-.12,0c-.55.16-1.09.33-1.63.51l-.68.24-.22.08h0c-.33.11-.66.23-1,.36h0l-.54.2L44.17,8l-.34.14h0l-.11.05c-.46.19-.92.38-1.37.59l-.68.32-.25.12c-.17.07-.34.16-.51.25l-.1.05-.12.06c-.37.18-.73.36-1.09.56-.06,0-.46.24-.68.37l-.2.11-.07,0L38,11l-.68.4-.09.05-.31.19-.1.07-.08,0c-1.08.66-2.12,1.37-3.13,2.13l-.55.41h0l0,0h0l-.12.09c-.28.21-.55.43-.82.65l-.54.45-.11.09-.22.18-.25.23-.14.11-.82.74s-.37.33-.54.51-.48.45-.7.69l-.09.08c-.79.79-1.55,1.6-2.28,2.45,0,.05-.31.36-.46.55a4.16,4.16,0,0,0-.32.39l-.07.08-.13.16c-.39.49-.77,1-1.15,1.49l-.38.54-.05.06,0,.06-.15.21c-.28.4-.56.81-.83,1.22,0,.06-.28.46-.43.68l-.12.19-.25.41-.05.08-.35.58-.39.68-.39.7c0,.06-.1.18-.11.2-.37.67-.73,1.35-1,2,0,.06-.22.45-.32.68l-.05.12c0,.09-.08.18-.11.27l0,.1s0,.11,0,.12c-.45,1.26-.88,2.53-1.25,3.81,0,.06-.13.45-.18.68l-.06.24v0h0v0l0,.09a1.46,1.46,0,0,1,0,.17,29.7,29.7,0,0,0-.32,3c0,.05,0,.45,0,.68l0,.23a1.32,1.32,0,0,0,0,.28s0,.11,0,.12c0,.4-.05.81-.07,1.22,0,.06,0,.45,0,.68a1.45,1.45,0,0,0,0,.36.87.87,0,0,1,0,.1c-.08.95,0,1.91-.08,2.86V48c0,.31,0,.62,0,.92v.17c0,1.32,0,2.63-.07,4,0,.06,0,.54,0,.81V54c-.06,2-.07,4-.07,6v.68s0,.11,0,.12c-.08,1.62,0,3.26,0,4.89v.68c0,.2,0,.4,0,.6v.17c0,2.08-.06,4.17-.06,6.25,0,.07,0,.55,0,.82a1.11,1.11,0,0,0,0,.26v.15c0,.86,0,1.72,0,2.58a1.59,1.59,0,0,1-.22.82v0h0v0s0,.07,0,.08a4.92,4.92,0,0,0-.46,3.38,4.5,4.5,0,0,0,.37.72l.13.16s.06.06.06.08a19.14,19.14,0,0,1,0,3.86c0,.06,0,.45,0,.68v.12c0,.54,0,1.08-.05,1.63,0,.06,0,.45,0,.68a.33.33,0,0,1,0,.1c0,.81-.05,1.64-.08,2.45,0,.06,0,.45,0,.68a3.54,3.54,0,0,0,0,.46,1,1,0,0,1,0,.19c-.05,1-.07,1.9-.1,2.85,0,.06,0,.46,0,.68a3.54,3.54,0,0,0,0,.46s0,.09,0,.1c-.06.58-.05,1.19-.07,1.77,0,.06,0,.45,0,.68,0,0,0,.08,0,.09,0,.72-.06,1.45-.09,2.17,0,.06,0,.45,0,.68a3.31,3.31,0,0,0,0,.44,1.58,1.58,0,0,0,0,.19c-.07,1.27-.09,2.54-.14,3.81,0,.06,0,.45,0,.68a1.63,1.63,0,0,0,0,.44,1.39,1.39,0,0,1,0,.15c0,.46,0,.91-.07,1.36,0,.06,0,.45-.07.68h0a4.5,4.5,0,0,1,0-.53c0-.07,0-.54,0-.8a.62.62,0,0,0,0-.19V109c0-.7-.05-1.4-.08-2.09,0-.07,0-.53,0-.8a.59.59,0,0,0,0-.19v-.15c0-.58,0-1.16,0-1.74,0-.07,0-.53,0-.8a.62.62,0,0,0,0-.19,1.64,1.64,0,0,1,0-.2c0-.71,0-1.43,0-2.14,0-.07,0-.53,0-.8a1.1,1.1,0,0,0,0-.18v-.09q0-.87,0-1.74c0-.06,0-.54,0-.81a1.23,1.23,0,0,0,0-.19Z"/></g></g></svg>