<svg xmlns="http://www.w3.org/2000/svg" viewBox="0 0 129.12 216"><defs><style>.cls-1{fill:#262424;}.cls-2{fill:#57647c;}.cls-3{fill:#7b8cb7;}.cls-4{fill:#98b6c2;}.cls-5{fill:#738a91;}.cls-6{fill:#9f8066;}.cls-7{fill:#c1dae3;}.cls-8{fill:#ede064;}.cls-9{fill:#fff;}.cls-10{fill:#c06d5a;}.cls-11{fill:#eccda1;}</style></defs><title>event-desktop-left</title><g id="Слой_2" data-name="Слой 2"><g id="Character_Art" data-name="Character Art"><path class="cls-1" d="M87,212.51a3.61,3.61,0,0,1-1.39,0s0,0-.06-.05c.2-.22.61-.23.72-.54-.38-.59-1.29-.38-1.9-.32-.21,0-.59.09-.64.1a18.68,18.68,0,0,1-3.94.58s-.08,0-.11,0c.11-.8-.87-.72-1.39-.63l-.11,0-.67.08c-.57.09-1.13.19-1.69.31h-.07l-.72.15a17.45,17.45,0,0,1-4.57.68s-.11,0-.12-.07a2.36,2.36,0,0,1,.71-.41c.1-.05.56-.24.67-.49-.21-.24-.83-.27-1-.28a8,8,0,0,0-1.55,0h-.11a1.23,1.23,0,0,0-.19,0,6,6,0,0,0-.68.06c-.81.1-1.61.23-2.41.34l-.1,0-.66.09a3.43,3.43,0,0,1-1.39,0,.07.07,0,0,1,0,0c.26-.38,1.53-.62.45-1.05a3.21,3.21,0,0,0-1.27-.09.47.47,0,0,1-.12,0,.47.47,0,0,0-.17,0c-.23,0-.63.06-.69.06a48.57,48.57,0,0,0-5.07.93,1.3,1.3,0,0,1-.25.06c.26-.24.81-.38.82-.79a1.47,1.47,0,0,0-.76-.24,7.82,7.82,0,0,0-1.53-.1l-.12,0c-.24,0-.65,0-.71,0a12.6,12.6,0,0,0-2.18.45l-.14,0-.66.21a10.54,10.54,0,0,1-1.36.51.37.37,0,0,1-.14.06c.15-.25.58-.5.49-.83a1.7,1.7,0,0,0-.83,0l-1,.17-.16,0-.08,0-.65.11c-.6.11-1.2.2-1.8.32l-.1,0-.07,0-.73.14c-2.17.44-5.5,1.05-7.44,2.07,0,0-.29.13-.31.28a1.83,1.83,0,0,0,.9.07c2.22-.19,4.35-1,6.51-1.25a1.13,1.13,0,0,1,.2,0c-.2.15-.59.4-.65.44s-1,.68-1,.9c0,0,0,.09,0,.13.25.22.84,0,1,0,.63-.13,1.26-.34,1.88-.53l.17-.05.63-.19,1.75-.53.08,0,.07,0,.63-.17c.91-.26,1.82-.49,2.75-.67h.08l.09,0,.76-.07c.13,0,.64,0,.8.2a2.13,2.13,0,0,1-.77.36c-1.08.33-3.82.91-4.51,1.75,0,0-.15.17-.13.28.25.22.85.05,1,0,1.82-.37,3.58-1,5.38-1.49l.12,0,.08,0,.63-.17a18.35,18.35,0,0,1,4.63-.85h.16a6.46,6.46,0,0,1-.78.19c-.74.17-1.46.37-2.18.57l-.07,0-.65.23c-.32.11-2.58,1-1.89,1.5a24,24,0,0,0,2.75-.52l.08,0h.06l.63-.14a41.42,41.42,0,0,1,5.75-.9,1.5,1.5,0,0,1,.37,0,7.86,7.86,0,0,1-.94.41l-.08,0-.61.26a9,9,0,0,0-1.77,1l-.05,0-.07.1a.31.31,0,0,0,.1.48l.12.07a2,2,0,0,0,.77.1,10.82,10.82,0,0,0,1.88-.39l.16,0,.07,0,.63-.17,1.38-.36.18,0h.08l.63-.14c2.51-.55,5.08-1.1,7.63-1.42a.37.37,0,0,1,.15,0c-.22.12-.64.26-.7.29l-1.08.41-.08,0-.08,0a5.46,5.46,0,0,0-.61.26c-.21.09-1.22.53-1.25.76,0,0,0,.09,0,.13.23.28.86.22,1,.21a10.6,10.6,0,0,0,1.13-.16l.09,0h.07l.62-.14c.8-.18,1.59-.4,2.38-.6l.12,0,.63-.17c.54-.14,1.08-.29,1.63-.42l.08,0,.09,0,.62-.15a11.64,11.64,0,0,1,2.26-.4h.13a5.94,5.94,0,0,1-.7.29c-1.42.65-1.51,1.58.38,1.17.47-.1.92-.24,1.38-.38l.15-.06.08,0,.63-.22c.37-.14.75-.28,1.12-.44l.08,0,.63-.25a11.94,11.94,0,0,0,2-.89s.13,0,.14-.09A4.13,4.13,0,0,0,87,212.51Z"/><path class="cls-2" d="M25.93,78.15c-.05,0-.16,0-.18,0A22.55,22.55,0,0,1,22.31,78c-.07,0-.48,0-.72,0a.69.69,0,0,0-.18,0l-3.69-.18c-.06,0-.46,0-.68-.06.2-.27.44-.51.66-.76h0a.76.76,0,0,1,.17,0c1.18.09,2.36.13,3.55.21a25.47,25.47,0,0,1,3.66.21,2.68,2.68,0,0,1,.48.41C25.66,77.9,25.84,78,25.93,78.15Z"/><path class="cls-2" d="M17,75.88c0,.06.12.47.17.71a4.69,4.69,0,0,1-.63.7,2.83,2.83,0,0,1-.08-.29c-.38-1.21-.6-2.5-.89-3.73,0-.06-.11-.47-.17-.71l0-.07a2.74,2.74,0,0,1,0-.28c.21-.08.47-.12.71-.2,0,0,0,.08.06.1.14.5.24,1,.36,1.52,0,.05.12.47.17.7h0v0h0a.51.51,0,0,1,0,.09C16.74,74.94,16.86,75.41,17,75.88Z"/><path class="cls-2" d="M13.1,59.84a5.73,5.73,0,0,1,.16.71c-.24.05-.48.14-.71.18a.2.2,0,0,1,0-.12,3.19,3.19,0,0,1-.19-.81c0-.06-.12-.47-.17-.71h0v0c0-.1-.06-.28-.07-.3-.14-.59-.81-2.64-.56-3.05,0,0,.34-.33.48-.5a.3.3,0,0,1,0,.11C12.38,56.81,12.73,58.33,13.1,59.84Z"/><path class="cls-3" d="M24.84,76.94a2.46,2.46,0,0,1-.41,0q-2.91-.14-5.82-.31a2.79,2.79,0,0,1-.78-.09l0-.06c-.14-.54-.26-1.08-.39-1.61,0-.06-.11-.47-.18-.7,0,0,0-.06,0-.06-.1-.43-.22-.87-.33-1.3-.24-1-.47-.8.32-1.42.05,0,.34-.32.49-.49a1.39,1.39,0,0,1,.06.19s0,.12,0,.12a24.28,24.28,0,0,0,.85,3.41c.14.29,1.44.16,1.83.16a7.11,7.11,0,0,0,.74,0h1.21c.18,0,.87-.11,1.08.17l0,.08,0,0a10.54,10.54,0,0,0,.8,1.21S24.71,76.73,24.84,76.94Z"/><path class="cls-3" d="M23.1,74.29s-.1,0-.11,0a3.17,3.17,0,0,1-.87,0h-.75s0-.08,0-.09c-.15-.82-.29-1.63-.44-2.45,0-.06-.1-.48-.12-.72.29-.05.59,0,.89,0,.14-.05.14.07.18.15.35.8.55,1.66.93,2.46C22.8,73.67,23,74.06,23.1,74.29Z"/><path class="cls-3" d="M20.85,73.65a5.74,5.74,0,0,1,.13.72.36.36,0,0,1-.14,0,10.25,10.25,0,0,1-1.59,0c-.34-.15-.65-2-.76-2.49,0-.06-.12-.47-.16-.7a.28.28,0,0,1,.11,0l.85,0c.06,0,.48,0,.72,0,0,0,.16,0,.17,0A9.69,9.69,0,0,1,20.85,73.65Z"/><path class="cls-3" d="M20,70c0,.06.11.49.13.73a.29.29,0,0,0-.09,0s-1,0-1.12,0a4.71,4.71,0,0,1-.74,0s0,0,0,0c-.19-.65.23-1.29.08-2a4.3,4.3,0,0,0-.24-.64c.18,0,.5,0,.55,0s.49,0,.73,0c.06,0,.29,0,.3,0A8.14,8.14,0,0,1,20,70Z"/><path class="cls-3" d="M21.65,70.44s.05.12,0,.13-.78.26-1,.12a7.13,7.13,0,0,1-.44-1.93c0-.06-.1-.5-.13-.75a6,6,0,0,1,.75-.05c.1,0,.23,0,.32,0s0,.13,0,.15c.07.5.14,1,.25,1.5,0,.06.09.48.16.72Z"/><path class="cls-3" d="M21.1,66.76c0,.06,0,.47,0,.7a.06.06,0,0,1,0,0,4.86,4.86,0,0,1-1,0,10.71,10.71,0,0,1-.36-1.64c0-.06-.09-.49-.13-.73v0c.25,0,.67,0,.73,0a4.9,4.9,0,0,1,.73,0c.05,0,0,.1,0,.11A12.1,12.1,0,0,1,21.1,66.76Z"/><path class="cls-3" d="M19.55,67.5c0,.06-.12,0-.12,0a7,7,0,0,1-1.13,0,5.47,5.47,0,0,1-.62,0s-.05,0-.05,0a1.61,1.61,0,0,1-.51-1.44,2.85,2.85,0,0,0,0-.68c0-.1-.05-.19,0-.28a.27.27,0,0,1,.12,0c.42,0,.84,0,1.25,0a4.86,4.86,0,0,1,.73,0s0,.12,0,.13c.07.51.15,1,.25,1.51C19.44,66.83,19.53,67.26,19.55,67.5Z"/><path class="cls-3" d="M21.29,63.65a.46.46,0,0,1,0,.14,2.38,2.38,0,0,1-.1.75c-.17.24-.82.13-1.15.13h-.81a7.39,7.39,0,0,1-2.39-.11c-.2-.17-.89-.92-.64-1h.1c1.43,0,2.87,0,4.3.09A3.74,3.74,0,0,1,21.29,63.65Z"/><path class="cls-3" d="M23.1,55.41a16.53,16.53,0,0,1,.56,2.51c0,.07-.33.41-.44.6a.41.41,0,0,1,0-.12c-.18-.7-.07-1.44-.89-1.49-2.35-.13-4.7-.2-7-.34l-.72,0a.23.23,0,0,0-.26.34s0,.07,0,.08c.24,1.12.51,2.23.79,3.34a5.66,5.66,0,0,1,.16.69c-.21-.12-.6-.31-.66-.33a3.6,3.6,0,0,0-.74-.14.3.3,0,0,1,0-.11c-.45-1.58-.81-3.2-1.21-4.8,0,0-.11-.46-.17-.69h.12l7.17.34c.06,0,.48,0,.72,0a.59.59,0,0,0,.17,0C20.91,55.3,23,55.34,23.1,55.41Z"/><path class="cls-3" d="M22.71,59.19a.41.41,0,0,0,0,.1c-.13.65-.78,1.74-1,2.49,0,.06-.12.42-.17.63h0v0h0c-.1.14-.11.54-.14.57a17.86,17.86,0,0,1-3.38,0c-.86,0-2,.22-1.82-.55a.33.33,0,0,0,0-.12c-.47-1.56-.86-3.15-1.26-4.74,0-.06-.13-.47-.17-.7h.11l2.76.13A35.51,35.51,0,0,1,22,57.3c.37.08.4.77.49,1.14,0,.06.11.47.17.7h0v0h0Z"/><path class="cls-4" d="M20.81,199.64a4.14,4.14,0,0,1,0,.79.75.75,0,0,1-.09-.19c-.17-.31-.33-.61-.47-.93-.46-.94-.87-1.93-1.39-2.85,0-.05-.24-.42-.37-.63l0-.05,0-.07c-.33-.58-.69-1.15-1-1.72l-.39-.61s0-.07,0-.07l-1-1.54-.39-.61,0-.06c-.31-.49-.6-1-.9-1.48,0-.05-.25-.42-.38-.62l-.06-.1c-.66-1-1.35-2.07-2.07-3.06-2.2-3-5-6.68-7.85-9.05-.05,0-.37-.29-.54-.44h0l.09,0c.3.15.6.32.88.49l.62.39.07.05.13.08c3.32,2.29,5.94,5.92,8.48,9l.45.55s.05.06.05.07c.81,1,1.6,2,2.32,3.07l.4.6,0,.07a.37.37,0,0,1,.07.1c.32.48.6,1,.88,1.5l.35.65.05.08.06.11c.35.74.72,1.47,1,2.24,0,.06.15.43.23.64a.43.43,0,0,0,0,.11c.14.45.27.9.39,1.36,0,.06.11.47.16.71l0,.07s0,.08,0,.09C20.69,198.84,20.76,199.24,20.81,199.64Z"/><path class="cls-4" d="M124.88,148.35c1,4,1.53,9.68.3,13.65-.05.17-.22.78-.56.91l-.13,0a5.42,5.42,0,0,1-1.76-1.74l-.42-.59-.06-.1c-.35-.54-.7-1.07-1-1.62l-.34-.66,0-.06c-.23-.62-.54-1.23-.77-1.86l-.24-.64,0-.07a.79.79,0,0,1,0-.13c-.19-.53-.38-1.05-.56-1.57,0-.05-.16-.43-.22-.64,0,0,.1-.05.11-.06,2.17-1,2.06-4.59,1.75-6.53,0-.06-.09-.49-.15-.73a.3.3,0,0,0,0-.12,16.47,16.47,0,0,0-.52-1.73c0-.06-.16-.42-.26-.62a.29.29,0,0,0,0-.08,16.2,16.2,0,0,0-.85-1.66c0-.06-.25-.42-.38-.62l-.06-.09a13.31,13.31,0,0,0-2.72-3s-.38-.29-.58-.42a.14.14,0,0,0,0,0,5.2,5.2,0,0,0-1.45-.68,2.72,2.72,0,0,0-.81,0c-.19-.88-.64-2.43.55-2.76h.12a3.53,3.53,0,0,1,1.2.3c.06,0,.45.21.67.33l0,0,.08,0a20,20,0,0,1,5.58,5.68c0,.06.27.4.4.6l0,.08.07.12c.33.55.65,1.1,1,1.67a6.52,6.52,0,0,1,.33.66l.06.11c.25.51.47,1,.69,1.55,0,.05.18.42.25.63l0,.07,0,.09c.17.5.35,1,.5,1.5,0,0,.14.45.21.67v.06A1.23,1.23,0,0,0,124.88,148.35Z"/><path class="cls-5" d="M20.44,201.51c.22.81-.38,1.21-1.07,1.32a3.12,3.12,0,0,1-.61,0l-.63-.12h-.05l-.12,0a6.3,6.3,0,0,1-1.37-.63l-.64-.37-.07-.05c-.44-.3-.88-.61-1.31-.94l-.56-.45-.08-.07-.08-.06c-.75-.62-1.46-1.29-2.15-2,0,0-.34-.33-.5-.5l-.07-.09-.09-.09c-.37-.38-.73-.78-1.08-1.17l-.47-.54-.07-.09,0,0c-.89-1.16-1.83-2.28-2.62-3.52,0-.05-.26-.41-.39-.61l0,0a.56.56,0,0,0,0-.08c-.28-.48-.57-.94-.83-1.42l-.36-.65-.05-.09,0-.07c-.31-.62-.62-1.24-.9-1.86,0-.05-.19-.4-.27-.61l0-.09a.46.46,0,0,0,0-.09c-.24-.56-.46-1.14-.66-1.71l-.23-.66,0-.13c-.22-.64-.4-1.29-.57-1.95,0-.05-.12-.46-.17-.69a.75.75,0,0,0,0-.11,18.3,18.3,0,0,1-.61-4.4,3.56,3.56,0,0,1,.11-.77c.32.17.61.4.91.59l.11.07c4.16,3.09,7.8,7.69,10.64,12l.39.6,0,.06,0,0c.33.46.6,1,.9,1.47l.37.63,0,0,.05.09.92,1.47.39.61,0,.06,0,0,1.06,1.69c0,.06.25.42.38.63,0,0,.05.09.06.09a36.7,36.7,0,0,1,1.74,3.28q.26.56.48,1.14s.14.43.22.65l0,.09Z"/><path class="cls-6" d="M76.52,142.41c0,.05.19.4.27.6-.15.11-.38.09-.57.15h0l-.13,0c-.93.21-1.84.48-2.75.75l-.63.18-.14,0c-1.87.53-3.72,1.19-5.63,1.56a3.12,3.12,0,0,1-.73.07c-.06,0-.08-.09-.09-.11a11.06,11.06,0,0,1-.75-1.77l-.09-.26L65,143a.69.69,0,0,0,0-.08c-.2-.64-.39-1.28-.59-1.92,0-.05-.13-.44-.21-.66l-.13-.43c-.1-.3-.7-2.24-1.09-2s.06,1.59.19,2c0,.05.14.44.21.66v0h0c.08.22.2.61.22.66.15.48.42.72-.05,1a19.11,19.11,0,0,0-4.25,3s-.32.32-.49.46a1.24,1.24,0,0,1-.21-.25c-2-2.21-3.83-4.73-5.73-7,0,0-.3-.36-.44-.55l0-.05,1.25-1c.05,0,.38-.28.56-.44s.46-.08.57-.06A27.94,27.94,0,0,0,71.42,134c.06,0,.44-.23.66-.33.27.36.46.79.7,1.18l0,.06s0,.07,0,.07c.26.49.53,1,.79,1.47,0,0,.23.43.34.65l0,.06,0,0,0,.07c.3.61.61,1.22.91,1.84,0,.05.22.44.32.67l0,.07,0,.07c.25.54.51,1.07.76,1.61,0,.05.18.4.28.6A2.42,2.42,0,0,0,76.52,142.41Z"/><path class="cls-6" d="M59.19,147.52a2.43,2.43,0,0,1-.44.62c-.36.4-2.41,2.45-2.82,2.36,0,0-1.85-1.87-2.06-2.06l-.52-.48-.09-.09c-.51-.49-1.06-1-1.59-1.41l-.54-.47a.48.48,0,0,0-.11-.09.63.63,0,0,0-.12-.11.65.65,0,0,0-.1-.09c-.61-.52-1.21-1-1.83-1.55l-.54-.46-.1-.07,0-.05c-.37-.35-.78-.65-1.16-1l-.55-.46-.09-.07L46.4,142c-.3-.23-.59-.49-.89-.73,0,0-.37-.29-.54-.45,0,0,.08-.07.09-.08A23.36,23.36,0,0,0,49,136.67a6.9,6.9,0,0,1,.45-.54h0l.06.05c.45.46.89.94,1.32,1.43,0,0,.32.35.47.53l0,.06c2.49,2.89,4.85,5.91,7.36,8.78C58.77,147,59.05,147.33,59.19,147.52Z"/><path class="cls-7" d="M71.44,132.48c.1.19-.11.25-.24.33-4.28,2.65-11.52,3.21-16.38,2.37l-.74-.14a.81.81,0,0,1,0-.21,300.25,300.25,0,0,0-1.15-30.89,6.15,6.15,0,0,0-.06-.69c0-.32,0-.65-.09-1-.07,0-.19,0-.21,0a6.53,6.53,0,0,1-1.82.09,6.18,6.18,0,0,1-.65-.22l-.12-.07a2.34,2.34,0,0,1-.93-1c-.6-1.29.25-3,1.56-3.76a6.73,6.73,0,0,1,.68-.32c.37,0,.36-.27.29-.55,0-.06,0-.16,0-.18a41.66,41.66,0,0,0-.6-4.16c0-.06-.08-.43-.11-.64l0-.06c-.13-.72-.27-1.45-.33-2.17a1.75,1.75,0,0,1,.07-.78.9.9,0,0,0,0-.09,2,2,0,0,1,.93-.56c.05,0,.44-.14.65-.22.06.07.06.26.07.29a29,29,0,0,0,.82,4.31,6.44,6.44,0,0,0,.28.59h0a1.43,1.43,0,0,0,1.64.65c2.48-.77,2.21-4,2-6-.11-1.28-.38-1.88,1-2.23l.73-.13h0a.74.74,0,0,1-.09.12,2.44,2.44,0,0,0-.49,1.25c-.26,2.22.79,7,2.1,8.88.7,1,.83.64,1.8.94.22.07.5,1.43.59,1.77,0,0,.12.46.19.69h0v0h0S63,99,63,99c.14.53.28,1.06.43,1.58,0,.06.12.46.18.69h0v0h0a.78.78,0,0,0,0,.14l.42,1.58s.12.46.19.69h0v0a.62.62,0,0,0,0,.1c.13.53.28,1,.41,1.58,0,.06.13.46.19.69h0v0h0s0,.11,0,.12l.42,1.58c0,.06.12.46.18.69v0h0a.54.54,0,0,1,0,.12l.41,1.6s.12.46.18.69h0v0h0a.87.87,0,0,0,0,.1c.13.53.28,1.06.41,1.59,0,.06.12.46.18.7h0v0h0l0,.11c.14.53.27,1.06.41,1.6,0,0,.12.46.18.7h0s0,.13,0,.14c.13.54.27,1.07.4,1.6,0,.06.12.47.18.7h0v0h0a.51.51,0,0,1,0,.09c.14.53.27,1.07.4,1.6,0,.06.12.47.18.7V121a1,1,0,0,1,0,.11c.24.94.46,1.87.69,2.81,0,.06.11.47.17.71l0,.06a.87.87,0,0,0,0,.1l.39,1.62s.11.47.17.7v.06s0,.1,0,.11c.14.57.27,1.15.4,1.72,0,.06.11.47.17.71v.06l0,.11c.15.62.29,1.23.42,1.84,0,.06.11.47.16.71ZM60.82,101.27s.17-.06.16-.15a2.48,2.48,0,0,0-.91.08A8.2,8.2,0,0,1,56.8,101l-.06,0a7,7,0,0,1-.7-.31,3.43,3.43,0,0,1-.94-.92.33.33,0,0,1,0-.06l0-.06a2.81,2.81,0,0,1-.19-.69c-.28-2,1.67-3.35,3-4.47.21-.18.18-.07.19-.24,0,0-.17,0-.19,0a3.32,3.32,0,0,0-.7.3c-1.51.82-4.08,3.12-2.92,5.5a2.84,2.84,0,0,0,.41.6,3.82,3.82,0,0,0,1.83,1l.11,0h.05c.21,0,.59.1.64.11C58.09,102,60.16,101.89,60.82,101.27Z"/><path class="cls-8" d="M75,76.69c.19.3.07.37-.08.51a3.36,3.36,0,0,0-1.08,3.57,4.34,4.34,0,0,0,.33.67.6.6,0,0,1-.14,0c-3.94,1.13-7.94,2.07-11.88,3.18-.23.06-.7.23-1.14.35s-.75.18-.86.09-.19-.42-.44-.44a.48.48,0,0,0-.18-.06l-.14,0a3.33,3.33,0,0,0-.63,0,7.53,7.53,0,0,0-.85.2l-.62.17a2.35,2.35,0,0,1-.09-.53c0-.18-.07-.5-.07-.55-.08-.66-.36-.94.3-1.2C61.9,81,64.92,78.33,68,74.79l.47-.52h.06l0,0a6.08,6.08,0,0,0,2.27,1.74,5.22,5.22,0,0,0,.67.19h0l.1,0a7.39,7.39,0,0,0,1.88.08c.36,0,1.15-.33,1.36,0a.36.36,0,0,1,0,.19h0Z"/><path class="cls-9" d="M79,79.11a1.84,1.84,0,0,1,0,1,16.52,16.52,0,0,1-2.83.84,2,2,0,0,1-.94.16s-.06-.08-.06-.09a2.18,2.18,0,0,1,1.08-3.31,3.48,3.48,0,0,1,.73-.14,1.78,1.78,0,0,1,.57.07h.07l.14,0a2.25,2.25,0,0,1,.88.62,4.82,4.82,0,0,1,.35.65V79A.68.68,0,0,0,79,79.11Z"/><path class="cls-10" d="M61,68.28c.22,0,.11.1.06.28a10.46,10.46,0,0,1-8.53,7.13,2.74,2.74,0,0,1-.83,0,1.16,1.16,0,0,1,0-.18l0-.12a.25.25,0,0,0,0-.07A10.68,10.68,0,0,1,53,72.88l.41-.58.08-.1a11.46,11.46,0,0,1,2.79-2.59c.05,0,.41-.26.63-.38l.13-.07.08,0a10.51,10.51,0,0,1,1.53-.59l.72-.17h.06c.27,0,.54-.06.8-.08h.62A.49.49,0,0,0,61,68.28Z"/><path class="cls-9" d="M61.82,60.15c.21,1.49.24,1.36-.88,2.49a3.9,3.9,0,0,1-.48.43c-.05,0-.06-.16-.06-.17a14,14,0,0,1-.57-2.06c0-.06-.13-.46-.18-.69l0,0a9.64,9.64,0,0,1,1.3-.84l.6-.4h0a.26.26,0,0,1,0,.1C61.71,59.36,61.76,59.75,61.82,60.15Z"/><path class="cls-9" d="M59.69,62.09c.06.24.63,1.48,0,1.71v0h0l-.08.06c-.33.26-.66.49-1,.73L58,65l-.11.06c-.45.27-.91.54-1.38.77-.05,0-.41.2-.62.28,0,0,0-.12,0-.13s-.63-2.32-.72-2.66c0-.06-.13-.46-.18-.69l.14-.07c1.19-.53,2.36-1.12,3.49-1.76l.63-.36s0,.09.05.1C59.43,61,59.55,61.57,59.69,62.09Z"/><path class="cls-9" d="M55.24,65.52a2.65,2.65,0,0,1,.16.79l-.18.08a30.43,30.43,0,0,1-4,1.34l-.63.15h-.06l-.08,0c-.1,0-1,.2-1,.18a26.23,26.23,0,0,1-.77-2.61c0-.06-.13-.46-.18-.69l.07,0c1.78-.59,3.52-1,5.29-1.72.06,0,.42-.17.62-.25h0s0,0,0,0C54.84,63.7,55,64.63,55.24,65.52Z"/><path class="cls-9" d="M48.75,67.49a5.35,5.35,0,0,1,.18.67,3.79,3.79,0,0,1-.45.07l-.15,0-.14,0a19,19,0,0,1-2,.08l-.73,0h-.1c-.49-.07-1-.09-1.47-.16L43.25,68s-.18,0-.19,0a6.39,6.39,0,0,1-.45-1.55,3.86,3.86,0,0,1-.17-.68h.06c1.61-.21,3.21-.38,4.8-.71L48,64.9h0a.79.79,0,0,1,0,.13C48.31,65.85,48.51,66.68,48.75,67.49Z"/><path class="cls-9" d="M42.48,67.85h-.07l-1-.27-.67-.21-.08,0c-.27-.15-.37-.66-.41-.77s-.14-.44-.19-.67c0,0,.07,0,.09,0s.85,0,1,0l.71,0h.08a.16.16,0,0,1,0,.08c.13.42.22.86.34,1.29C42.32,67.24,42.45,67.63,42.48,67.85Z"/><path class="cls-9" d="M57.74,49.54v.75c0,.05,0,.14,0,.15-.41,5.87-4.23,10.71-10.52,10.09l-.66-.09h-.08l-.12,0a11.47,11.47,0,0,1-1.64-.49c-.06,0-.41-.17-.61-.27l-.06,0a8.08,8.08,0,0,1-3.55-3.46l-.26-.62a.43.43,0,0,0,0-.11,10.24,10.24,0,0,1,1-7.91c0-.06.23-.43.36-.64,0,0,.06-.1.07-.1A9.85,9.85,0,0,1,48.46,42l.69-.06c.41,0,.6.74.72,1,0,0,.24.42.37.63l0,.07h0l.08.11A5.47,5.47,0,0,0,52,45.37a4,4,0,0,0,.69.31l.06,0h.07a2.24,2.24,0,0,0,2.27-1c0-.06.25-.41.37-.61.07,0,.18.15.2.16C57,45.25,57.7,48,57.74,49.54Zm-14.06,3.7a.47.47,0,0,0,0-.17,6.09,6.09,0,0,0,0-.72,4.19,4.19,0,0,0-.59-1.91l0-.06a.34.34,0,0,0-.12-.12.55.55,0,0,0-.54-.16.72.72,0,0,0-.27.15.4.4,0,0,0-.13.13,2.88,2.88,0,0,0-.37.63,5.71,5.71,0,0,0-.34,1.92.64.64,0,0,1,0,.14c0,.24,0,.65,0,.72a3.64,3.64,0,0,0,.64,1.86l.08.09.12.1a.58.58,0,0,0,.74-.08,2.32,2.32,0,0,0,.43-.62,5,5,0,0,0,.38-1.75Z"/><path class="cls-9" d="M40.88,46.67a1,1,0,0,1-.09.57,15,15,0,0,0-1.64,5.25c-.09,1.18.25,1.49-.43,2.57,0,.06-.27.42-.43.61a1,1,0,0,1-.31-.22c-2.71-2.05-4.41,0-4.13,2.94a5.31,5.31,0,0,1,.07.66l-.12,0a6.31,6.31,0,0,1-2.8.17c-.06,0-.47-.1-.71-.17l-.09,0a6.45,6.45,0,0,1-1.61-.77c-.05,0-.39-.27-.58-.42l-.08-.07a.35.35,0,0,0-.1-.09,7.19,7.19,0,0,1-1.23-1.52c0-.06-.23-.44-.34-.67l0-.06,0-.08a9.41,9.41,0,0,1,0-6.09s.14-.44.21-.66l0-.1C27.53,45.41,29.58,42,32.9,41l.69-.19h0s0,.08,0,.09a2.39,2.39,0,0,0,1.07,1.69,4.15,4.15,0,0,0,.72.28h.05l.14,0a4.29,4.29,0,0,0,2.59-.58l.63-.35s.07,0,.08,0A5.6,5.6,0,0,1,40,43.42c0,.06.22.45.31.69h0a.59.59,0,0,0,0,.13A9.17,9.17,0,0,1,40.81,46C40.81,46.06,40.86,46.45,40.88,46.67Zm-3.28,6.5c.58-1,1-2.83-.06-3.24-.37.07-.72.56-.81.7a4.14,4.14,0,0,0-.6,2.7.51.51,0,0,0,0,.09l0,.06a.54.54,0,0,0,.95.31A3.06,3.06,0,0,0,37.6,53.17Z"/><path class="cls-8" d="M46.93,93.25h0a.4.4,0,0,1-.08.15c-.73,1.09-2,3-3.44,2.93a2.42,2.42,0,0,1-.69-.19,2.37,2.37,0,0,1-.89-.94,1.19,1.19,0,0,1,.29-.12c1.38-.57,2.79-1,4.18-1.58Z"/><path class="cls-8" d="M52.9,85.55a2.66,2.66,0,0,1,.06.76l-.12,0a13.18,13.18,0,0,0-2.38.84l-.63.41-.12,0c-2.75.73-5.43,1.75-8.14,2.62,0,0-.4.14-.61.19,0,0,0-.08,0-.09A26.37,26.37,0,0,1,41,87.69c0-.06,0-.47,0-.71a2.78,2.78,0,0,0,0-.91,5.93,5.93,0,0,0-.82.44l-.07,0c-.53.31-1.07.61-1.63.87-3.39,1.57-8.93,4-12.67,3.46l-.64-.12h-.06l-.12,0a6.58,6.58,0,0,1-1.36-.52,6.77,6.77,0,0,1-.6-.39L23,89.74,23,89.68a3,3,0,0,1-.78-1.22,5.31,5.31,0,0,1-.11-.77v-.11a6.59,6.59,0,0,1,1.36-3.27l.44-.56,0,0c.22-.24.43-.49.66-.73.07-.08.5-.39.55-.67,0,0-.09-.07-.1-.08-.32-.16-.92.2-1.22.31-.05,0-.42.16-.62.24l-.16.06-1.75.63a3.93,3.93,0,0,1-.61.2s0-.08,0-.1a41,41,0,0,1,1.17-4.21s.14-.44.21-.66a.37.37,0,0,1,.07-.14h.12c.87,0,1.74.09,2.62.13s1.48-.12,2.15.47c.05,0,.36.31.55.45l.06.05a29.12,29.12,0,0,0,2.56,1.7l.66.34.07,0,.07,0c.74.36,1.49.7,2.25,1l.64.24.06,0c.57.18,1.12.39,1.7.55l.68.19.08,0,.13,0A36.37,36.37,0,0,0,52,84.47a7.07,7.07,0,0,1,.79-.15.49.49,0,0,1,0,.11C52.8,84.81,52.86,85.18,52.9,85.55Z"/><path class="cls-8" d="M14.91,74.14a8.75,8.75,0,0,1,.71,3A72,72,0,0,0,14,84.75a3.78,3.78,0,0,1-.11.73.37.37,0,0,1-.13,0,14.84,14.84,0,0,1-3.33.13c-.05,0-.45,0-.67-.08l-.08,0-.13,0A7.6,7.6,0,0,1,7.9,85l-.58-.31-.08,0-.08-.06A5.5,5.5,0,0,1,6,83.52a5.59,5.59,0,0,1-.4-.59.88.88,0,0,1,0-.1C2.77,77.32,7.36,73.2,10.82,69.5a5.27,5.27,0,0,1,.49-.5s0,0,0,0a.34.34,0,0,1,0,.15,4.35,4.35,0,0,0,.13,2.5,6.31,6.31,0,0,0,.33.68l0,0,0,.06A4.3,4.3,0,0,0,13,73.54,16.86,16.86,0,0,0,14.91,74.14Z"/><path class="cls-11" d="M49.61,148.87c-.09.07-.2-.09-.25-.14-1-.75-1.91-1.7-2.84-2.53-.11-.1-.62-.47-.71-.72l.12-.09c.17.12.31.29.47.42l.06.06c.68.61,1.34,1.24,2,1.85.05,0,.34.33.53.48S49.6,148.61,49.61,148.87Z"/><path class="cls-11" d="M49.15,149.35s0,0,0,.06-.06,0-.08,0c-1.08-.83-2.2-2-3.23-2.91a5.59,5.59,0,0,1-.51-.47h0s.06,0,.06,0c1.1.84,2.1,1.83,3.16,2.72A3.09,3.09,0,0,1,49.15,149.35Z"/><path class="cls-11" d="M48.9,149.62c-.09.17-.14.09-.26,0a41.28,41.28,0,0,1-3.22-2.78,7,7,0,0,1-.52-.47,1.37,1.37,0,0,1,.2-.22h0a.1.1,0,0,1,.07.05c1.08.92,2.1,1.9,3.15,2.85A4.54,4.54,0,0,1,48.9,149.62Z"/><path class="cls-11" d="M78.74,147.64s.1.09.08.12-.08.1-.24.17c-1.07.5-2.26.82-3.38,1.22,0,0-1.22.58-1.34.3s.09-.21.28-.28c1.29-.49,2.64-.86,4-1.31Z"/><path class="cls-11" d="M78.58,147.29c.18.13,0,.12-.14.21-1.15.54-2.77.92-4,1.34a3.29,3.29,0,0,1-.72.22s.06-.05.08-.06a37.47,37.47,0,0,1,4.14-1.49C78,147.49,78.37,147.35,78.58,147.29Z"/><path class="cls-11" d="M78.27,146.62c.19.1.08.1-.11.2a31.27,31.27,0,0,1-3.5,1.19c-.08,0-1,.47-1.25.28-.07-.1,0-.09.1-.13a23,23,0,0,1,3-1l.66-.22.42-.13Z"/><path class="cls-11" d="M56.39,84.27s0,0,0,.07a.12.12,0,0,1-.08,0c-.6.2-1.26.31-1.87.45a3.34,3.34,0,0,1-.84.15c0-.09.14-.06.2-.1l.14,0,1.72-.41C55.74,84.43,56.16,84.34,56.39,84.27Z"/><path class="cls-11" d="M56.47,84.72c0,.07,0,.09-.08.11a11.76,11.76,0,0,1-1.75.43,3.09,3.09,0,0,1-1,.18c0-.08.11-.07.14-.08a10.25,10.25,0,0,1,1.91-.47l.7-.18h0Z"/><path class="cls-11" d="M56.44,85c.07,0,.1,0,0,.08a11,11,0,0,1-1.88.49,2.67,2.67,0,0,1-.83.17s0,0,0,0a12.21,12.21,0,0,1,2-.51Z"/><path class="cls-11" d="M120.12,146.13a11.2,11.2,0,0,1,.15,4.2c0,.15-.44,2.26-1.46,2.3a.78.78,0,0,1,0-.12c-.2-.52-.38-1-.58-1.55a6.58,6.58,0,0,0-.28-.71,1.45,1.45,0,0,0-.24.2c-2.07,1.69-4,3.47-6.13,5.12A64.87,64.87,0,0,1,90,166.51l-.62.17-.18,0a16.83,16.83,0,0,1-1.87.41l-.63.08h-.16a11.6,11.6,0,0,1-2.12.18s-.43-.07-.64-.12c0,0-.06,0-.06,0a3.53,3.53,0,0,1-1.66-1.34s-.25-.42-.38-.62l0-.05c-.27-.6-.7-1.16-1-1.73,0-.05-.24-.42-.37-.63l0-.08s0-.07,0-.08c-.88-1.45-1.65-3-2.41-4.48,0-.05-.22-.44-.33-.66l0-.07-.06-.11c-.25-.51-.49-1-.72-1.54,0-.05-.18-.4-.28-.6l0-.06,0-.07c-.27-.5-.47-1-.7-1.56,0-.05-.17-.41-.27-.61l0-.07,0-.06c-.22-.56-.48-1.11-.7-1.68,0,0-.17-.41-.26-.61l0-.07a5.12,5.12,0,0,1-.21-.58,1.92,1.92,0,0,1,.28-.11c1.2-.54,2.54-.88,3.79-1.33a2.35,2.35,0,0,1,.89-.25l0,.06c1,2,1.9,4.07,2.94,6.07l.34.66,0,.08,0,0c.27.51.55,1,.85,1.53,0,.05.23.42.37.62l0,.08,0,.06a6.87,6.87,0,0,0,1.35,1.77,5,5,0,0,0,.63.37l.11.05h.06c2.24.64,6-1.65,7.76-3a85.07,85.07,0,0,0,10.64-9.14,36.91,36.91,0,0,1,8.68-6.95l.64-.37c.1-.08.27-.09.35-.18s-.1-.31-.14-.46l0-.08c-.14-.45-.28-.9-.41-1.34a6.61,6.61,0,0,1-.18-.68.32.32,0,0,1,.09,0h.14a2.87,2.87,0,0,1,.86.27c.06,0,.43.23.64.36h0l.1.07a11.72,11.72,0,0,1,2.63,2.63l.41.59h0l.06.09c.29.47.56.94.81,1.44,0,0,.22.45.32.68h0a.79.79,0,0,1,0,.13c.19.49.38,1,.53,1.48,0,.06.12.46.18.7h0v0A.64.64,0,0,0,120.12,146.13ZM87.8,162.87c.06,0,.28,0,.34-.15,0-.34-.53-.33-.8-.32a6,6,0,0,0-.68.06c-.53.09-3.08.69-2.94,1.42.08.43,1.62-.41,2-.52A15.64,15.64,0,0,1,87.8,162.87Z"/><path class="cls-11" d="M48.53,150a4.34,4.34,0,0,1-.29.33Q44.83,154,41.69,158c-.78,1-2.95,3.43-3.23,4.5-.09.34-.17.68-.26,1a85.52,85.52,0,0,1-5,14.5l-.3.63h0v0l-.22.45a52.63,52.63,0,0,1-11.34,15.38,5.71,5.71,0,0,1-.49.48s-.06-.09-.07-.11c-.26-.56-.52-1.13-.82-1.68,0,0-.23-.43-.36-.64a.43.43,0,0,0-.05-.1c-.3-.54-.61-1.06-.93-1.58,0,0-.25-.41-.39-.61l0-.07,0,0c-.16-.21-.32-.43-.47-.65-.46-.67-.89-1.37-1.35-2a6.7,6.7,0,0,1-.44-.66.32.32,0,0,1,0-.07c.94-1.85,2-3.64,2.88-5.51a92.16,92.16,0,0,1,5.33-9.94,115.87,115.87,0,0,1,6.69-9.7c.62-.79,1.68-1.69,2.17-2.45,3.08-4.79,7.17-8.07,11.13-12,0,0,.33-.33.51-.49,0,0,.06,0,.07,0,1.09,1,2.18,1.92,3.27,2.86A6.67,6.67,0,0,1,48.53,150Zm-14,14.82c.41-.35,2.07-1.74,1.38-2.25a.82.82,0,0,0-.14,0c-.27.09-.48.53-.53.59a12.1,12.1,0,0,1-2.43,2.2s-.29.17-.27.32C33.15,166.15,34.53,164.84,34.55,164.82Z"/><path class="cls-11" d="M56.5,85.21c.09.12,0,.35,0,.4-.4,2.18.82,4.72-.75,6.64-.87,1.09-1.38.84-1.81.28l0-.09a11.72,11.72,0,0,1-1-4.12c0-.06-.05-.45-.05-.67a4.71,4.71,0,0,1,.54-.12,3.06,3.06,0,0,0,.56-.13,3.81,3.81,0,0,0-.07-.59v-.07c0-.09-.12-.76-.1-.78a10.06,10.06,0,0,1,2.05-.57Z"/><path class="cls-11" d="M127.65,88a2.45,2.45,0,0,1-1.23,2.77,1.83,1.83,0,0,1-.62.27.34.34,0,0,1,0-.1,12.7,12.7,0,0,0-.55-1.45c0-.06-.22-.44-.35-.66l0-.08,0-.07A43.69,43.69,0,0,0,122,85l-.43-.56,0-.06c-.31-.48-.67-.92-1-1.41,0-.05-.25-.41-.39-.61,0,0,0-.08,0-.09-.3-.49-.61-1-.92-1.46l-.38-.63s0,0,0,0a16.52,16.52,0,0,1-1.4-3c-.06-.17-.17-.85-.52-1-.09,0-.06.18-.07.21A14.91,14.91,0,0,0,118,79.83l.28.6h0l0,.07c.27.52.52,1,.81,1.56l.36.64,0,.06,0,.08c.29.47.56.94.85,1.41,0,0,.25.41.39.61l0,.06a.53.53,0,0,0,.07.1c.86,1.21,1.82,2.38,2.62,3.64,0,0,.24.43.35.65l0,.08,0,.09a7.53,7.53,0,0,1,.51,1.37,6.56,6.56,0,0,1,.12.75v.18c0,1.31-.93,1.84-2.18,1.68-.06,0-.48-.09-.71-.16l-.08,0-.14,0a4.35,4.35,0,0,1-1.09-.66,5,5,0,0,1-.47-.53s0-.08,0-.08a4.18,4.18,0,0,0,.53-2.1c0-.06,0-.45-.08-.67v-.09a.31.31,0,0,1,0-.08,9.94,9.94,0,0,0-.62-1.76s-.22-.44-.34-.66l0-.07c-.28-.54-.61-1.06-.93-1.58,0,0-.25-.42-.38-.62,0,0,0-.08,0-.09A45.74,45.74,0,0,1,115.69,80l-.28-.6s0,0,0,0c-.14-.42-.36-.82-.51-1.23,0-.12-.19-.67-.42-.83,0,0-.07.09-.08.11-.16.29.09,1.21.17,1.55,0,0,.11.46.18.69h0s0,.06,0,.06a23.82,23.82,0,0,0,2.11,4.52l.37.63,0,.06.06.1.82,1.42c0,.06.25.43.35.65l0,.07s0,.08,0,.09a14.4,14.4,0,0,1,.58,1.41c0,.06.14.46.19.69h0v0h0c.16.72.23,1.71-.53,2.12l-.13,0a2,2,0,0,1-1.15,0,7.19,7.19,0,0,1-.69-.31l-.06,0a9,9,0,0,1-1.62-1.76l-.41-.59a.3.3,0,0,1-.06-.11,25,25,0,0,1-1.22-2.28c0-.06-.18-.41-.27-.61l0-.07,0-.09c-.23-.53-.43-1.07-.64-1.61a5.09,5.09,0,0,1-.23-.64s0-.12,0-.13c-.17-.5-.34-1-.49-1.51,0-.06-.13-.46-.19-.69h0v0h0a.62.62,0,0,0,0-.1c-.11-.45-.21-.9-.29-1.36,0-.17-.06-.34-.08-.51s-.06-.45-.09-.67,0-.51-.07-.76a5.84,5.84,0,0,0-.8.14l-.11,0-1.5.32-.62.14h0l-.13,0-1.75.38-.62.13-.11,0c-10.33,2.29-20.71,4.35-31,6.61-3.28.73-6.77,1.24-10,2.09-1,.26-2.13.46-3.17.72-.38.09-.75.2-1.08.31-1,.34-.11.55.2.63s.3.43.4.82c0,.06.13.46.19.69h0v0h0a.62.62,0,0,0,0,.1c.15.56.29,1.12.44,1.68,0,.06.13.46.19.69h0v0h0a.63.63,0,0,1,0,.14c.12.49.27,1,.39,1.48a3,3,0,0,1,.13.72.62.62,0,0,1-.46,0c-1.28-.43-2.11-4.44-2.34-5.67-.15-.83-.74-3.62.24-3.91l1.68-.49c4.3-1.2,8.73-2.19,13-3.3.06,0,.47-.11.7-.18l.1,0c10.21-2.57,20.39-5.23,30.59-7.84l.69-.18.08,0c1.51-.41,3-.79,4.57-1.18.06,0,.47-.11.7-.18a.37.37,0,0,0,.37-.25l0-.07a7.5,7.5,0,0,1,5.76-3l.7,0h.14a15.43,15.43,0,0,1,3.38.38l.68.18.08,0,.12,0a9.76,9.76,0,0,1,1.36.52s.45.21.66.33l.08,0,.12.07a7.4,7.4,0,0,1,1.14.86s.32.35.47.53.06.1.06.11a3.47,3.47,0,0,1,.48,1,3.53,3.53,0,0,1,.07.79v.09a.46.46,0,0,1,0,.09,1.48,1.48,0,0,1-.59.84,4.25,4.25,0,0,1-.63.25h-.17a4.16,4.16,0,0,1-1.27-.08,6.07,6.07,0,0,1-.64-.23l-.08,0-.06,0c-.45-.21-.89-.42-1.33-.67l-.63-.36-.08,0-.08,0c-.5-.29-1-.58-1.52-.85-.06,0-.45-.23-.68-.32l-.59-.24c-3.41-1.2-1.2,2.42-.46,3.63,0,0,.25.42.39.61l0,.08L119,77a24.52,24.52,0,0,0,2.71,3.3l.49.51a.14.14,0,0,1,0,0c.74.87,1.64,1.62,2.41,2.47a7.08,7.08,0,0,0,.48.53s.06.06.06.07c.37.38.7.8,1,1.22,0,0,.29.37.43.56l0,0,0,0a5.73,5.73,0,0,1,.69,1.32c0,.07.14.46.18.7l0,.06A.9.9,0,0,0,127.65,88ZM114.41,76.12c1.18-.52,1.2-2.54.71-3.61l0-.07c-.21-.38-.51-.83-1-.89,0,.41.3.76.43,1.14h0a5.15,5.15,0,0,1,.15.72c.1,1-.41,1.69-.38,2.44C114.37,75.92,114.36,76.05,114.41,76.12Z"/><path class="cls-11" d="M15.57,62.67a1.37,1.37,0,0,1,0,.8c-1.43-.87-3.72,0-4.44,1,0,0-.24.41-.35.61-.73-1.36,0-2.88,2-3.6a4.5,4.5,0,0,1,.72-.16h.16a2.4,2.4,0,0,1,1.5.64,2.35,2.35,0,0,1,.43.68v0h0Z"/><path class="cls-11" d="M16.33,65.56c0,.44.38,1.18-.36,1.08a4.09,4.09,0,0,0-3.8,1.18l-.45.5a.28.28,0,0,1-.08-.06,2.19,2.19,0,0,1-.49-1.81c0-.06.11-.46.19-.69a.49.49,0,0,0,0-.09,2.85,2.85,0,0,1,1.93-1.58c.07,0,.51-.09.77-.1h.12a2.38,2.38,0,0,1,1.74.76,2.56,2.56,0,0,1,.38.75h0Z"/><path class="cls-11" d="M17.23,68.37c.89,1.63-.59,2.91-2.07,3.38-.15,0-.77.09-.91.36.19.17.4.25.4.56v0h0a3.15,3.15,0,0,1,.12.58s-.1,0-.11,0A3.23,3.23,0,0,1,13,72.46a4,4,0,0,1-.48-.53s0,0,0,0a3,3,0,0,1-.43-2.18,3.23,3.23,0,0,1,.23-.65.93.93,0,0,0,.05-.1,3.19,3.19,0,0,1,1.87-1.38c.06,0,.48-.11.73-.14h.18a2.77,2.77,0,0,1,1.44.32,2.66,2.66,0,0,1,.6.52Z"/><path class="cls-11" d="M49.75,90.69a4.9,4.9,0,0,1,.08.66l-.09,0c-.61.26-1.25.48-1.88.72l-.62.23-.08,0-2.25.86c-6.44,2.4-15.59,5.9-22.48,4.55l-.7-.17-.11,0A11.93,11.93,0,0,1,20.08,97a4.34,4.34,0,0,1-.67-.33l-.1-.07a9.32,9.32,0,0,1-2-1.71,5.51,5.51,0,0,1-.44-.56l0-.07A12,12,0,0,1,16,92.91a5.78,5.78,0,0,1-.3-.71l0-.06s0,0,0-.06a13.64,13.64,0,0,1-.73-5.26c0-.06,0-.48,0-.71a.74.74,0,0,1,0-.18,36.16,36.16,0,0,1,1.27-7s.12-.46.2-.68h.11c1.23,0,2.47.12,3.7.18a5.67,5.67,0,0,1,.68.06s-.05.14-.05.15a41.3,41.3,0,0,0-1.29,4.76s-.09.41-.14.62,0,.18,0,.19a13.54,13.54,0,0,0,.1,6.78s.17.41.27.61a.15.15,0,0,1,0,.06A5,5,0,0,0,23,94.06c.06,0,.46.13.7.18h.11c5.3.79,11.3-1,16.35-2.61l.66-.21.11,0c2.68-.86,5.33-1.82,8-2.61a3.86,3.86,0,0,1,.68-.17v.1A16.18,16.18,0,0,0,49.75,90.69Z"/><path class="cls-11" d="M60.8,50.15s-.1,0-.11,0a8.88,8.88,0,0,1-1.36,0,7,7,0,0,1-.74,0c0-.3,0-.64,0-.92h.07a2.61,2.61,0,0,1,.69-.06c.06,0,.46,0,.69,0h.1C60.38,49.44,60.6,49.8,60.8,50.15Z"/><path class="cls-11" d="M59.41,47.76c0,.05.24.43.35.65a3.44,3.44,0,0,1-.51.11,3.92,3.92,0,0,1-.72.12,2.3,2.3,0,0,1,0-.28,10.83,10.83,0,0,0-1.13-3.25c-.43-.73-1.07-1.16-1.49-1.76-.17-.25.16-1,.22-1.33,0-.06.09-.49.13-.74l0,0c.2.44.36.89.55,1.33l.27.61s0,.11,0,.12c.38.81.81,1.6,1.23,2.39,0,.06.24.44.35.66l.05.07.06.12C59,47,59.2,47.38,59.41,47.76Z"/><path class="cls-8" d="M105.4,72.34c0,.07,0,.48,0,.71a1,1,0,0,1-.25.08L80.9,79.65c-.07,0-.5.14-.74.18,0-.12,0-.36,0-.4s0-.45-.09-.66l0-.06a.89.89,0,0,1,0-.11,3.19,3.19,0,0,0-1.4-1.73,7.5,7.5,0,0,0-.7-.3l-.08,0h-.07a4,4,0,0,0-1.29,0l-.74.2c-.06-.08-.08-.19-.13-.27v0h0c0-.1-.09-.2-.12-.3s.31-.1.35-.12c4.63-1.52,9.72-6.54,9.33-11.75,0-.06-.06-.44-.09-.66a.49.49,0,0,0,0-.15A6.25,6.25,0,0,0,83,59.86s-.38-.29-.59-.42l-.06,0a5.54,5.54,0,0,0-2.51-.74c-.06,0-.49,0-.74,0a.28.28,0,0,1,0-.08,13.92,13.92,0,0,0-.73-4.75c0-.06-.17-.48-.27-.71l-.91-.31c2.14-1.08,2.74-5.09,2.54-7.1,0-.07-.07-.5-.11-.74,0,0,0,.12,0,.12s-.09.59-.11.75c-.26,1.63-1.09,6.15-2.94,6.57a2.7,2.7,0,0,1-.72,0l-.12,0a7.48,7.48,0,0,1-2.83-1.8l-.5-.51,0,0c-.57-.82-1.34-1.57-1.94-2.44,0-.05-.27-.4-.39-.61,0,0,0,0,0,0a12.08,12.08,0,0,1-1-1.68c0-.06-.22-.44-.33-.67l0-.07,0-.09c-.27-.56-.46-1.13-.68-1.71,0,0-.14-.42-.23-.63,0,0,0-.07,0-.08-.56-1.43-1.12-2.86-1.76-4.25a1.78,1.78,0,0,0-.45-.67c-.07,0,0,.17,0,.2a22.76,22.76,0,0,0,1.3,4.33c0,.06.15.44.22.66h0v0h0l0,.09c.18.58.38,1.15.52,1.74,0,.06.09.48.15.72a1.3,1.3,0,0,0,0,.15,22,22,0,0,1,.47,5.37C68,52,67.71,54.4,65.89,54l-.08,0a7.47,7.47,0,0,1-2.59-2.41A5.69,5.69,0,0,1,62.8,51a.22.22,0,0,1,.11,0,3.46,3.46,0,0,0,1.57-.06c1.3-.63-1.3-.73-1.51-.74s-.49,0-.73,0a8.17,8.17,0,0,1-.8-1.21s.09,0,.09,0c.4-.22,3.18-.15,3.23-.78.07-.86-2.53-.17-3-.09a3.45,3.45,0,0,1-.84.09s0-.06,0-.06c-.3-.5-.58-1-.86-1.52L59.67,46l-.06-.11q-.63-1.12-1.23-2.28c0-.05-.22-.44-.34-.66l0-.06L58,42.71c-.29-.63-.57-1.28-.83-1.92,0,0-.17-.41-.26-.62l0-.07-.09-.22c-.64-1.64-.57-3.44-1-5.17,0-.05-.12-.45-.16-.69l.09.06A4.62,4.62,0,0,1,57,35.44c0,.05.24.42.35.64l0,.08a12.29,12.29,0,0,1,.55,1.58s.13.44.21.66h0c.12.27.18.64.44.8a1.92,1.92,0,0,0,.12-.93V38.2a7.41,7.41,0,0,0-.33-1.8l-.23-.65,0-.06a.89.89,0,0,0-.05-.1,5.39,5.39,0,0,0-2.6-2.78c-.56-.28-.75-1.22-1.13-1.75a2.83,2.83,0,0,0-.51-.59,1,1,0,0,0,.07.19c.11.39.31.78.44,1.18,0,.06.15.44.2.66-.08,0-.24,0-.27,0a6.8,6.8,0,0,0-2.23.35c-.5.2-1.69,1.26-.48,1,1-.21,1.33-.6,2.46-.46a2.09,2.09,0,0,1,.85.28h0v0h0s0,.12,0,.13a20.93,20.93,0,0,1,.55,5.79c0,.06,0,.42,0,.63v.12c-.22,1.41-.52,4.41-2.41,4.35l-.14,0a3.33,3.33,0,0,1-1.32-1.06c0-.05-.28-.39-.41-.59l0-.07a14.2,14.2,0,0,1-.74-1.39s-.17-.41-.25-.62l0-.06s0-.1,0-.11c-.2-.51-.38-1-.55-1.57l-.21-.67a.55.55,0,0,0,0-.12,44.87,44.87,0,0,1-1.29-7.09c0-.06,0-.46-.07-.68a.58.58,0,0,0,0-.15,6.69,6.69,0,0,1,.6-2.33,2.09,2.09,0,0,0,.14-.91c-.09,0-.17.11-.2.13a9.5,9.5,0,0,0-1.27,2.38l-.32.63a1.29,1.29,0,0,0-.06.12c-2,3.69-4.06,7.66-7.54,10.15l-.5.34-.09.06a5.91,5.91,0,0,1-2.25,1,3.5,3.5,0,0,1-.7,0l-.07,0h-.06c-.46-.25-.77-.39-1-.92a6.56,6.56,0,0,1-.12-.75v-.15a10.28,10.28,0,0,1,.87-3.39l.26-.62a.45.45,0,0,0,.05-.1,29.82,29.82,0,0,1,2.86-4.64c.08-.12.46-.57.45-.87,0,0-.11,0-.12,0-.35.07-.73.65-.94.9-.8.94-1.82,2.91-2.67,3.55l-.5.37-.19.14-1.12.8c-2.41,1.66-7,4.77-9.89,4.92a2,2,0,0,1-.69,0c-.5-.13-.59-.71-.52-1.12.63-3.52,5.35-6.69,8-8.8.1-.07.58-.4.67-.67-.11-.06-.31.07-.36.09-2.92,1.13-6.82,4.76-8.36,7.45-1.12,2-1.33,3.25.25,3.91l.12,0,.14,0a4.1,4.1,0,0,0,1.26,0A3.94,3.94,0,0,1,24.7,42c.08.25.13.5.19.75l0,.06a.31.31,0,0,0,0,.13c.19.79.42,1.57.65,2.35,0,.06.12.46.19.68l0,.07a6.49,6.49,0,0,1,.19.76s-.1-.06-.1-.06-2-1.58-2.25-1.75l-.57-.44c-.34-.19.1-.74-.22-.95-.13,0-.18.2-.21.24-.43.65-.3,0-.79.32-.64.36,0,.69.22,1-.3.43-.54,1.9-1.23,1.56a2.15,2.15,0,0,0-.86,0c-.63.36.37.71.65.76h.05l.06,0a5.4,5.4,0,0,1-1.83,2,1.4,1.4,0,0,1-.85.21l-.13-.06c-.93-.94-.37-4.15-.06-5.67,0-.12.05-.23.07-.33s.1-.48.15-.72a.58.58,0,0,0,0-.13,6.18,6.18,0,0,1,.4-1.49,33,33,0,0,0,2.24-5.26,1.81,1.81,0,0,0,.1-.92c-.21.07-.38.45-.42.54-1.07,2.08-1.88,4.11-3.13,6.13,0,0-.25.42-.38.63l-.08.12c-1.39,2.21-4.59,6.94-7.34,7.21a2.64,2.64,0,0,1-.7,0H8.76a3.13,3.13,0,0,1-1.54-1.09s-.28-.39-.41-.59a.2.2,0,0,0,0-.06c-1.35-3.27-1-8.2-.42-11.66C8.42,23.78,16.39,9.87,26.15,1.7a1.54,1.54,0,0,1,.73-.41l.18,0a1,1,0,0,1,.34.18c2.31,1.6,4.46,3.36,6.83,4.92l.6.4.08.05.05,0,1.46.92.62.39.08,0,.1.07,1.41.85.63.37.07,0,.12.07c.78.44,1.54.89,2.32,1.32l.65.35.08,0,.1.05,1.54.84.65.34.08.05.1,0c.54.3,1.09.58,1.64.86l.67.33.08,0,.12.06q2.73,1.32,5.5,2.52l.6.27.07,0c.59.24,1.17.5,1.77.73l.62.26.07,0c.56.24,1.14.45,1.71.67,0,0,.41.17.63.24l.06,0,.07,0c.55.2,1.1.42,1.64.61l.66.23,0,0c.58.22,1.18.42,1.77.61l.67.21.06,0,.06,0,1.62.5.67.2h.06l.08,0,1.66.47.69.18h0l.1,0,1.69.44.7.18h0l.07,0,1.63.37.72.16h0l.14,0a73.34,73.34,0,0,0,19.16,1.42l.29,0a2.52,2.52,0,0,1,.39,0,.1.1,0,0,1,0,.06c.56,3.88,1,7.8,1.89,11.63,0,.05.11.47.17.71V37l0,.11c.16.63.32,1.26.49,1.89,0,.06.13.46.19.69l0,.07a.62.62,0,0,0,0,.14l.48,1.64s.14.44.21.67l0,.07a.34.34,0,0,0,0,.08c.2.6.4,1.19.59,1.79,0,0,.14.43.22.65l0,.08,0,.14c.3.87.58,1.75.89,2.62,0,0,.14.43.22.65,0,0,0,.12,0,.12.2.59.41,1.18.62,1.77,0,0,.15.43.22.64l0,.07,0,.14c.24.72.5,1.42.74,2.13,0,.06.15.44.23.65a.2.2,0,0,0,0,.07c.29.81.55,1.62.83,2.44,0,0,.14.43.22.65h0v0h0l0,.14.54,1.71c0,.05.14.44.21.67h0a.23.23,0,0,1,0,.09l.12.42.36,1.23s.13.44.2.67a.45.45,0,0,0,0,.08c.14.53.27,1.06.41,1.59,0,.06.12.46.18.69h0v0h0a.62.62,0,0,0,0,.14c.12.51.23,1,.34,1.53,0,.06.1.48.16.72v.07s0,.09,0,.11A43.77,43.77,0,0,1,105.4,72.34Zm-64.08-42a.22.22,0,0,0,.06-.24A2.24,2.24,0,0,0,41,29.3a4,4,0,0,0-1.55-1.2l-.11,0a2.19,2.19,0,0,0-.72-.14,3.44,3.44,0,0,0-.78.08c-1.62.4-3.53,3-3.6,4.65,0,0-.06.21,0,.29.26-.1.51-.56.58-.66,1-1.57,1.88-3.53,4.12-3.38l.12,0h.05a3.17,3.17,0,0,1,.72.29,4.84,4.84,0,0,1,1.12,1s0,0,0,0h0A.29.29,0,0,0,41.32,30.3Z"/><path class="cls-8" d="M105.09,80.26a.38.38,0,0,1,0,.12c-.1.71-.22,1.43-.37,2.13,0,0-.08.42-.13.62v0h0v0s0,.16,0,.17A37.14,37.14,0,0,1,100,95c-2.55,4-7.92,9.43-12.72,10.49l-.62.13-.17,0a12.1,12.1,0,0,1-3.06.12c-.06,0-.43-.09-.65-.11a.12.12,0,0,0-.07,0,3.41,3.41,0,0,1-1.65-.86,3.5,3.5,0,0,1-.41-.59l0-.06c-.52-1.68.32-3.62,1.18-5.16.1-.18.19-.34.29-.5s.26-.41.38-.62a.45.45,0,0,0,.05-.08c.47-.69,1-1.34,1.43-2.07.06-.12.36-.59.29-.88,0,0-.1,0-.11,0a19.44,19.44,0,0,0-2.25,1.66l-.5.37-.11.08a32.18,32.18,0,0,1-8.76,4.69l-.62.2-.18.05a5.92,5.92,0,0,1-2,.34,6.11,6.11,0,0,1-.64-.11l-.08,0-.07,0a2.77,2.77,0,0,1-1.08-.67s-.28-.39-.4-.6c0,0,0,0,0-.05-.8-2,.07-4.2,1-5.95l.1-.17.27-.47,0-.06c.25-.37.48-.77.73-1.14a1.84,1.84,0,0,0,.43-.78.15.15,0,0,0-.11,0c-.31-.07-1.11.52-1.38.69l-.62.37-.18.1a35.62,35.62,0,0,1-4,2.13,3.06,3.06,0,0,1-.73.27v-.06a.56.56,0,0,1,0-.15c-.16-.59-.33-1.17-.49-1.76,0-.06-.12-.46-.19-.69V93l-.48-1.77c0-.06-.13-.46-.19-.69a.93.93,0,0,1,0-.1c-.07-.23-.13-.45-.19-.68,0-.07-.13-.46-.17-.69l.07,0,.21-.05a41.46,41.46,0,0,1,4.11-.77Q85,84.43,104.36,80.4l.72-.14Z"/><path class="cls-11" d="M84.13,64c.63,4.71-4,9.47-8.13,10.89-.78.27-.86.51-1.21-.25,0,0-.19-.4-.29-.6a.29.29,0,0,0,0-.08c-.27-.52-.52-1.06-.81-1.57-.07-.12-.33-.64-.62-.75,0,0-.07.09-.08.09a7.72,7.72,0,0,0,.67,2s.17.41.26.61h0v0h0c.14.31.31.63.42,1,0,0-.13,0-.13,0a5.42,5.42,0,0,1-1.72.07s-.44-.05-.66-.1h0l-.09,0a4.32,4.32,0,0,1-1.91-1.1s-.33-.33-.49-.51l-.07-.11a5.54,5.54,0,0,1-1-2.87c0-.13,0-.73-.19-.94-.08,0-.14.09-.16.11a3.14,3.14,0,0,0-.33,2.07c.09.52.5,1.18.19,1.61A26,26,0,0,1,54,82.94l-.62.17-.19,0a33.75,33.75,0,0,1-15.83-.26l-.7-.17-.06,0-.08,0c-.54-.18-1.09-.31-1.62-.5L34.29,82l-.06,0-.11,0c-.69-.26-1.36-.54-2-.86l-.66-.34-.06,0a19.57,19.57,0,0,1-2.46-1.55l-.57-.43-.08-.07-.06,0c-.4-.36-.8-.7-1.18-1.08,0,0-.33-.33-.49-.51l-.07-.08,0,0c-.45-.6-.94-1.15-1.36-1.78,0,0-.27-.4-.38-.62l-.05-.07s-.06-.1-.06-.11a14.87,14.87,0,0,1-1.43-3.45c0-.06-.12-.47-.19-.7V70a.86.86,0,0,0,0-.13c-.11-.53-.21-1.06-.28-1.59,0-.06-.05-.45-.08-.67v-.08a15.54,15.54,0,0,1,.12-4c0-.06.1-.48.16-.72l0-.06,0-.08a13.69,13.69,0,0,1,2.55-4.83,4.31,4.31,0,0,1,.47-.52s.06.08.06.08a7.81,7.81,0,0,1,.72.91,5.7,5.7,0,0,0,.52.48.11.11,0,0,0,.06.06,6.5,6.5,0,0,0,2,1.13,5.79,5.79,0,0,0,.69.19l.06,0,.14,0a7.49,7.49,0,0,0,3.33-.14l.66-.21a.2.2,0,0,1,0,.08c.16.51.3,1,.49,1.51.05.12.19.67.43.82.08,0,.07-.09.07-.14,0-.32-.43-1.65-.5-2.13,0-.06,0-.45-.07-.68a.26.26,0,0,1,0-.07,10.44,10.44,0,0,1,0-1.77c.64-4.25,4.16-.13,5.42,1.23.09.09.42.56.7.63,0,0,0-.1,0-.13a8.94,8.94,0,0,0-1.44-2.44c-.46-.55-.74-.47-.35-1.1,0-.06.24-.42.37-.61.07.22.12.46.2.68h0v0h0s0,.1,0,.11A8.51,8.51,0,0,0,43,60s.41.26.63.37l.06,0,.11.06a10.17,10.17,0,0,0,1.78.71c.06,0,.46.13.7.18h0l.12,0c6.67,1.3,11.39-3.81,12.06-10.08,0-.05,0-.46.07-.68a.33.33,0,0,1,.14,0l1.61.14c.06,0,1-.07,1.21.42l0,.07a11.25,11.25,0,0,0,3.26,3.5,3.82,3.82,0,0,0,.68.31l.08,0,.12,0c3.75.66,3.67-5.14,3.35-7.46A7.11,7.11,0,0,1,69,47c.1.14.19.29.28.43l0,.06a.53.53,0,0,0,.07.1,19.62,19.62,0,0,0,1.29,1.71c.12.15.66.61.62,1l0,.09a33.75,33.75,0,0,0-2,7.39c-.36,2.17-1,7.51.57,9.26a2.14,2.14,0,0,0,.64.48l.07,0h.05l.1,0c1.2,0,2-1.15,2.47-2.13,0-.06.21-.45.33-.66a.29.29,0,0,1,0,.09,5,5,0,0,1,.15.73c0,.34-1.35,2-1.61,2.59,0,0-.19.41-.27.62-.1.44-.46,1-.26,1.37.47,0,.88-.35,1.3-.55.89-.57,2.52-.73,3,.38v0h0a1.13,1.13,0,0,0,0,.14,7.85,7.85,0,0,1,0,1c0,.34-.39,1.78-.1,1.81.78.08,1.1-2,1.11-2.5a3.6,3.6,0,0,0,0-.67v0h0a2.63,2.63,0,0,0-3.34-1.48l-.61.24s0-.09,0-.1a7.05,7.05,0,0,1,.7-1.18,6.61,6.61,0,0,1,.45-.55,2.21,2.21,0,0,0,1,.69h0c1.52.42,2.58-2.11,2.72-2.44a7.52,7.52,0,0,1,.28-.71h.12a7.44,7.44,0,0,1,1.41.34c.06,0,.41.17.62.26h0a.27.27,0,0,0,.4-.29c0-.81-1.47-1.18-1.51-1.2l-.78-.09a.15.15,0,0,1,0-.07c.17-.94.45-1.85.6-2.79a4.9,4.9,0,0,1,.09-.66h.06a5.19,5.19,0,0,1,2.07.27c.06,0,.46.2.67.33h0l.07,0,0,0a5.48,5.48,0,0,1,2,2.69c0,.06.13.46.18.7h0C84.12,63.86,84.13,63.94,84.13,64Zm-21.56.8a20.23,20.23,0,0,0-.42-6.25.63.63,0,0,0,0-.14.54.54,0,0,0-.24-.37.47.47,0,0,0-.42.12l-.59.41c-.54.38-1.1.75-1.66,1.09l-.09,0-.63.38a35.75,35.75,0,0,1-3.91,2,.45.45,0,0,0-.13.06l-.62.25a42.09,42.09,0,0,1-5.57,1.81l-.16,0-.71.16c-1.7.38-3.41.52-5.13.75h-.08c-.24,0-.65,0-.71,0-.77.06-1.55,0-2.33,0H39l-.72,0c-1.39-.07-.7.73-.29,1.45l.06.1a.39.39,0,0,0,.06.11c.12.22.33.59.37.64q.42.71.87,1.38s0,0,.06.08l.07.09c.13.2.38.53.41.58.43.57.87,1.14,1.35,1.66l.08.07a.73.73,0,0,0,.14.16c.15.18.45.47.49.51a13.94,13.94,0,0,0,1.52,1.36.49.49,0,0,0,.1.08l.07.06.08.06a6.21,6.21,0,0,0,.58.43,16,16,0,0,0,3,1.64l.06,0a.35.35,0,0,0,.13,0c.23.1.48.16.72.25a.33.33,0,0,0,.14,0l.06,0c.23.07.64.16.7.18a11.79,11.79,0,0,0,1.19.19h.07a.41.41,0,0,0,.16,0c.23,0,.64,0,.7,0,5.5.14,9.57-3.78,10.92-8.9a.62.62,0,0,0,0-.1c.06-.2.13-.57.14-.62a11.2,11.2,0,0,0,.21-1.13s0-.13,0-.19l0-.11C62.53,65.17,62.56,64.81,62.57,64.75Z"/><path class="cls-8" d="M78.06,53.31c0,1.73.36,3.4.27,5.21,0,0,0,.41,0,.62a1.05,1.05,0,0,0,0,.13,17.47,17.47,0,0,1-.75,3.5s-.14.42-.21.63a.54.54,0,0,0,0,.12A7.72,7.72,0,0,1,76,65.9a1.49,1.49,0,0,1-.87.49l-.16,0a2.3,2.3,0,0,1-1-1.58c0-.07-.1-.49-.15-.74,0,0,0-.06,0-.07a20.24,20.24,0,0,0,1.15-7,1.75,1.75,0,0,0-.09-.78c-.11.08-.12.35-.13.4A46.21,46.21,0,0,1,73,63.32s-.17.42-.26.62-.07.17-.08.19a6.35,6.35,0,0,1-1.25,2,1.59,1.59,0,0,1-.75.42c-.51,0-.73-1-.76-1.18-.78-4.19.67-9.81,2.08-13.81,0,0,.15-.43.24-.64,0,0,.08.06.1.07a9.74,9.74,0,0,0,2.66,1.84,6.73,6.73,0,0,0,.66.21h.15a2.59,2.59,0,0,0,1.4-.27l.91.31A.52.52,0,0,0,78.06,53.31Z"/><path class="cls-11" d="M48.88,40.58c0,.06.15.43.24.64s-.15.07-.21.08a10.34,10.34,0,0,0-7.16,4.42,7.26,7.26,0,0,1-.43.6v-.08a9.89,9.89,0,0,0-.26-1.63s-.12-.45-.19-.68c0,0,0-.1,0-.11a6.91,6.91,0,0,0-.89-1.73,6.61,6.61,0,0,0-.45-.55.29.29,0,0,1,.11-.08c3.32-2.4,5.37-6.08,7.28-9.61l.35-.64a.62.62,0,0,1,0,.12,33.39,33.39,0,0,0,.89,6.74c0,.06.13.46.19.69v0h0l0,.06Q48.6,39.74,48.88,40.58Z"/><path class="cls-11" d="M34.69,36.39s0,.11,0,.12a13.92,13.92,0,0,0-.93,2.75c0,.05,0,.41-.1.62a.26.26,0,0,1-.1,0A10.38,10.38,0,0,0,27.25,45a4.74,4.74,0,0,1-.43.68l0-.12c-.24-.77-.45-1.56-.65-2.35,0-.06-.12-.47-.18-.7a.51.51,0,0,1,0-.09c-.11-.49-.35-.68.13-.9a52.34,52.34,0,0,0,8-4.72Z"/><path class="cls-8" d="M24.53,46.79c.74.47,1.76.78,1.21,1.33l-.1,0-1.44-.44-.67-.2c-.54,0-.71-.68-.78-1.05a4.51,4.51,0,0,1,0-.79l.06,0C23.38,46,23.94,46.42,24.53,46.79Z"/><path class="cls-8" d="M25.56,48.64a.56.56,0,0,1,0,.18A11.78,11.78,0,0,0,25,55.2c0,.06.12.45.2.68s-.16.45-.28.57a2.56,2.56,0,0,1-.47.46s0-.1,0-.11a5.62,5.62,0,0,1-.32-1.3c-.23-1-1.42-.69-2.27-.73a3.38,3.38,0,0,1-.69-.06s0-.05,0-.05a39.84,39.84,0,0,0,1.74-5.89c0-.06.1-.48.17-.7a2.93,2.93,0,0,1,.29,0h0l.13,0,1.32.3C24.91,48.48,25.33,48.57,25.56,48.64Z"/><path class="cls-6" d="M78,138.37c.47,1.8,1,5.33.71,5.63a73.25,73.25,0,0,1-11.8,4.17,3.27,3.27,0,0,1-1.1.08c-.31-.07-1.72-3.23-1.52-3.48a70,70,0,0,0,6.43-2.89c3.41-1.94,6.56-4.62,6.85-4.56C77.72,137.35,77.87,137.76,78,138.37Z"/><path class="cls-1" d="M129,87.64A3.67,3.67,0,0,1,126.49,92s-.42.07-.62.12c-.22,1.85-1.67,3-4,2.57a5.12,5.12,0,0,1-.68-.2l-.08,0-.07,0a5.57,5.57,0,0,1-1.65-1.11s-.3-.36-.47-.53l-.14,0a3.32,3.32,0,0,1-1.84-.21s-.44-.23-.64-.36l-.08,0,0,0s0,0,0,0a10,10,0,0,1-2-2.06s-.27-.39-.4-.6l0-.07s0-.08,0-.08a26.33,26.33,0,0,1-1.27-2.48c0-.05-.18-.41-.26-.62l0-.06s0-.1,0-.1c-.21-.55-.42-1.09-.61-1.65,0,0-.14-.44-.21-.66l0-.08a.93.93,0,0,1,0-.1c-.17-.52-.31-1-.44-1.57,0-.06-.12-.47-.17-.71h0s0-.11,0-.12q-.15-.61-.27-1.23a.74.74,0,0,0,0-.15l1-.19c.08.46.18.91.29,1.36a.62.62,0,0,1,0,.1h0v0h0c.06.23.17.63.19.69.15.51.32,1,.49,1.51,0,0,0,.09,0,.13a5.09,5.09,0,0,0,.23.64c.21.54.41,1.08.64,1.61l0,.09,0,.07c.09.2.25.55.27.61a25,25,0,0,0,1.22,2.28.3.3,0,0,0,.06.11l.41.59a9,9,0,0,0,1.62,1.76l.06,0a7.19,7.19,0,0,0,.69.31,2,2,0,0,0,1.15,0l.13,0c.76-.41.69-1.4.53-2.12h0v0h0c-.05-.23-.17-.63-.19-.69a14.4,14.4,0,0,0-.58-1.41s0-.06,0-.09l0-.07c-.1-.22-.32-.59-.35-.65L117.34,85l-.06-.1,0-.06-.37-.63a23.82,23.82,0,0,1-2.11-4.52s0,0,0-.06h0c-.07-.23-.17-.64-.18-.69-.08-.34-.33-1.26-.17-1.55,0,0,0-.09.08-.11.23.16.38.71.42.83.15.41.37.81.51,1.23,0,0,0,0,0,0l.28.6A45.74,45.74,0,0,0,118,84.26s0,.06,0,.09c.13.2.35.57.38.62.32.52.65,1,.93,1.58l0,.07c.12.22.32.61.34.66a9.94,9.94,0,0,1,.62,1.76.31.31,0,0,0,0,.08v.09c0,.22.07.61.08.67a4.18,4.18,0,0,1-.53,2.1s0,0,0,.08a5,5,0,0,0,.47.53,4.35,4.35,0,0,0,1.09.66l.14,0,.08,0c.23.07.65.15.71.16,1.25.16,2.15-.37,2.18-1.68v-.18a6.56,6.56,0,0,0-.12-.75,7.53,7.53,0,0,0-.51-1.37l0-.09,0-.08c-.11-.22-.32-.6-.35-.65-.8-1.26-1.76-2.43-2.62-3.64a.53.53,0,0,1-.07-.1l0-.06c-.14-.2-.37-.56-.39-.61-.29-.47-.56-.94-.85-1.41l0-.08,0-.06-.36-.64c-.29-.51-.54-1-.81-1.56l0-.07h0l-.28-.6a14.91,14.91,0,0,1-1.15-3.48s0-.17.07-.21c.35.12.46.8.52,1a16.52,16.52,0,0,0,1.4,3s0,0,0,0l.38.63c.31.49.62,1,.92,1.46,0,0,0,.06,0,.09.14.2.35.56.39.61.3.49.66.93,1,1.41l0,.06L122,85a43.69,43.69,0,0,1,2.76,3.76l0,.07,0,.08c.13.22.32.6.35.66a12.7,12.7,0,0,1,.55,1.45.34.34,0,0,0,0,.1,1.83,1.83,0,0,0,.62-.27A2.45,2.45,0,0,0,127.65,88a.9.9,0,0,1,0-.13l0-.06c0-.24-.16-.63-.18-.7a5.73,5.73,0,0,0-.69-1.32l0,0,0,0c-.14-.19-.4-.51-.43-.56-.34-.42-.67-.84-1-1.22,0,0,0,0-.06-.07a7.08,7.08,0,0,1-.48-.53c-.77-.85-1.67-1.6-2.41-2.47a.14.14,0,0,0,0,0l-.49-.51A24.52,24.52,0,0,1,119,77l-.07-.11,0-.08c-.14-.19-.36-.56-.39-.61-.74-1.21-3-4.83.46-3.63l.59.24c.23.09.62.29.68.32.51.27,1,.56,1.52.85l.08,0,.08,0,.63.36c.44.25.88.46,1.33.67l.06,0,.08,0a6.07,6.07,0,0,0,.64.23,4.16,4.16,0,0,0,1.27.08h.17a4.25,4.25,0,0,0,.63-.25,1.48,1.48,0,0,0,.59-.84.46.46,0,0,0,0-.09v-.09a3.53,3.53,0,0,0-.07-.79,3.47,3.47,0,0,0-.48-1s0-.07-.06-.11-.42-.49-.47-.53a7.4,7.4,0,0,0-1.14-.86l-.12-.07-.08,0c-.21-.12-.61-.31-.66-.33a9.76,9.76,0,0,0-1.36-.52l-.12,0-.08,0-.68-.18a15.43,15.43,0,0,0-3.38-.38h-.14l-.7,0a7.5,7.5,0,0,0-5.76,3l0,.07a.37.37,0,0,1-.37.25c-.23.07-.64.17-.7.18-1.52.39-3.06.77-4.57,1.18l-.08,0-.69.18C95.4,76.85,85.22,79.51,75,82.08l-.1,0c-.23.07-.64.16-.7.18-4.31,1.11-8.74,2.1-13,3.3L61,85c.44-.12.91-.29,1.14-.35,3.94-1.11,7.94-2,11.88-3.18a.6.6,0,0,0,.14,0,4.34,4.34,0,0,1-.33-.67,3.36,3.36,0,0,1,1.08-3.57c.15-.14.27-.21.08-.51h0a.36.36,0,0,0,0-.19l.68-.06h0v0c0,.08.07.19.13.27l.74-.2a4,4,0,0,1,1.29,0h.07l.08,0a7.5,7.5,0,0,1,.7.3A3.19,3.19,0,0,1,80,78.6a.89.89,0,0,0,0,.11l0,.06c.05.21.08.6.09.66s0,.28,0,.4c.24,0,.67-.17.74-.18l24.28-6.52a1,1,0,0,0,.25-.08c0-.23,0-.64,0-.71a43.77,43.77,0,0,0-.78-5.34s0-.08,0-.11v-.07c-.06-.24-.15-.66-.16-.72-.11-.51-.22-1-.34-1.53a.62.62,0,0,1,0-.14h0v0h0c-.06-.23-.17-.63-.18-.69-.14-.53-.27-1.06-.41-1.59a.45.45,0,0,1,0-.08c-.07-.23-.18-.62-.2-.67l-.36-1.23.94-.28c.13.4.26.81.38,1.22,0,0,.13.45.2.68v.06s0,.11,0,.12c.16.52.29,1,.44,1.56,0,.06.12.46.18.69v0h0a1,1,0,0,1,0,.11c.14.53.26,1.07.39,1.61,0,.06.11.47.16.71l0,.06a37.29,37.29,0,0,1,.78,5.35c0,.06,0,.47,0,.71h.08c1.36-.32,2.71-.7,4-1.09.06,0,.44-.13.66-.21s.2-.14.22-.17c2.74-3.18,7-3.81,10.94-2.87l.68.19.13,0a11.3,11.3,0,0,1,1.76.74s.43.23.63.37l.12.07A9.61,9.61,0,0,1,127.24,71s.33.33.49.51l.06.09s0,0,0,.05a4.38,4.38,0,0,1,1,2.12,5.23,5.23,0,0,1,0,.73,1.59,1.59,0,0,1,0,.17A3,3,0,0,1,127,76.83a5.29,5.29,0,0,1-.62.18l-.09,0a1.25,1.25,0,0,0-.19,0,4.82,4.82,0,0,1-2.06-.29s-.42-.16-.62-.26c0,0-.08,0-.08,0-.53-.27-1-.54-1.54-.84l-.6-.4-.08,0-.07,0c-.44-.3-.89-.62-1.35-.9l-.63-.37-.08-.05c-.13,0-.26-.22-.41-.14s0,.08,0,.08c-.15.21.82,1.66,1,1.9l.41.59.06.08a28.09,28.09,0,0,0,2.64,3.12s.32.35.49.51l.07.09.09.09c.77.77,1.55,1.54,2.31,2.32L126,83l.07.09.05,0c.37.43.76.83,1.12,1.26,0,0,.31.36.46.55l0,.07.07.09a6.1,6.1,0,0,1,1,1.85C128.89,87,129,87.4,129,87.64ZM79,80.07a1.84,1.84,0,0,0,0-1A.68.68,0,0,1,79,79v-.06a4.82,4.82,0,0,0-.35-.65,2.25,2.25,0,0,0-.88-.62l-.14,0h-.07a1.78,1.78,0,0,0-.57-.07,3.48,3.48,0,0,0-.73.14A2.18,2.18,0,0,0,75.18,81s0,.06.06.09a2,2,0,0,0,.94-.16A16.52,16.52,0,0,0,79,80.07Z"/><path class="cls-1" d="M126,148c1.14,3.9,1.52,9.82.47,13.73-.48,1.78-.91,2.65-2.11,2.07l-.06,0,0,0a11.25,11.25,0,0,1-2.2-2.05l-.42-.58,0-.06,0-.07c-.36-.57-.69-1.15-1-1.75,0-.05-.22-.44-.33-.67h0s0-.09,0-.1c-.29-.6-.54-1.22-.79-1.84,0-.05-.17-.41-.25-.62l0-.07,0-.06-.75-1.88-.24-.63c-.07-.18-.19-.49-.2-.54s-.15-.43-.24-.63a3,3,0,0,0-.34.3C109.77,159,100,165.12,90.33,167.79l-.62.17h-.07l-.12,0c-.67.17-1.33.31-2,.44l-.63.11H86.8l-.15,0a9.81,9.81,0,0,1-2.59.19,3.83,3.83,0,0,1-.65-.1l-.08,0-.11,0a4.46,4.46,0,0,1-2.33-1.93s-.27-.41-.39-.61l0-.08s-.07-.11-.07-.12c-.33-.55-.64-1.12-.94-1.69,0-.06-.23-.44-.33-.66l0-.08a.32.32,0,0,0,0-.07c-.83-1.57-1.59-3.18-2.36-4.78,0-.05-.18-.4-.28-.6,0,0,0-.08,0-.09-.25-.54-.51-1.08-.75-1.63l-.28-.6,0-.09L74.53,154s-.18-.4-.26-.61c0,0,0-.06,0-.07-.24-.55-.47-1.11-.71-1.67,0,0-.17-.41-.25-.62l0,0c-.54-1.2-1-2.43-1.47-3.66,0-.05-.17-.42-.24-.64l0-.12c0-.09-.09-.24-.1-.26a5.87,5.87,0,0,0-.24-.64,2,2,0,0,0-.33.08c-1.35.34-2.68.85-4,1.28l-.63.2c-.61.29-.63.2-.88-.37,0-.15-.2-.4-.21-.44a20,20,0,0,0-.55-2.19l.79-.26a11.06,11.06,0,0,0,.75,1.77s0,.09.09.11a3.12,3.12,0,0,0,.73-.07c1.91-.37,3.76-1,5.63-1.56l.14,0,.63-.18c.91-.27,1.82-.54,2.75-.75l.13,0h0c.19-.06.42,0,.57-.15-.08-.2-.25-.55-.27-.6a2.42,2.42,0,0,1-.11-.25c-.1-.2-.25-.55-.28-.6-.25-.54-.51-1.07-.76-1.61l0-.07,0-.07c-.1-.23-.3-.62-.32-.67-.3-.62-.61-1.23-.91-1.84l0-.07.78-.43c.36.65.67,1.33,1,2,0,0,.22.45.33.67l0,.07,0,.1c.09.2.19.4.28.59a7,7,0,0,0,.61.9,5.24,5.24,0,0,0,.25.62l0,.07s.05.12.06.13c.9,1.66,1.57,3.42,2.36,5.14l.27.61,0,.06,0,.08c1,2,1.88,4,2.9,6l.34.66a.42.42,0,0,0,.07.12c.28.51.55,1,.84,1.54l.36.63,0,.09a6.06,6.06,0,0,0,.91,1.22,2.84,2.84,0,0,0,.56.44l.06,0,.1,0a4.7,4.7,0,0,0,2.68-.55c4.69-2,9-6.26,12.75-9.65,3.18-2.87,6.55-6.54,10.35-8.54.06,0,.45-.21.66-.34a.5.5,0,0,0,0-.13c-.15-.44-.31-.87-.44-1.31,0-.06-.14-.45-.2-.68s-.12-.45-.13-.49c-.65-2.93.26-5,3.51-3.45a6.2,6.2,0,0,1,.65.34l.11.07a19.13,19.13,0,0,1,6,5.91c0,.05.28.4.4.6l0,.08a.17.17,0,0,1,0,.07c.36.6.74,1.19,1.07,1.81,0,.06.22.45.34.66l0,.07.06.13c.25.51.48,1,.7,1.55l.25.63,0,.07a.64.64,0,0,0,0,.07c.2.56.39,1.12.57,1.69,0,0,.13.45.19.68A.41.41,0,0,1,126,148Zm-.77,14c1.23-4,.74-9.66-.3-13.65a1.23,1.23,0,0,1,0-.16v-.06c-.07-.22-.19-.62-.21-.67-.15-.51-.33-1-.5-1.5l0-.09,0-.07c-.07-.21-.23-.58-.25-.63-.22-.52-.44-1-.69-1.55l-.06-.11a6.52,6.52,0,0,0-.33-.66c-.31-.57-.63-1.12-1-1.67l-.07-.12,0-.08c-.13-.2-.37-.54-.4-.6a20,20,0,0,0-5.58-5.68l-.08,0,0,0c-.22-.12-.61-.31-.67-.33a3.53,3.53,0,0,0-1.2-.3h-.12c-1.19.33-.74,1.88-.55,2.76a2.72,2.72,0,0,1,.81,0,5.2,5.2,0,0,1,1.45.68.14.14,0,0,1,0,0c.2.13.53.38.58.42a13.31,13.31,0,0,1,2.72,3l.06.09c.13.2.35.56.38.62a16.2,16.2,0,0,1,.85,1.66.29.29,0,0,1,0,.08c.1.2.24.56.26.62a16.47,16.47,0,0,1,.52,1.73.3.3,0,0,1,0,.12c.06.24.14.67.15.73.31,1.94.42,5.57-1.75,6.53,0,0-.08,0-.11.06.06.21.2.59.22.64.18.52.37,1,.56,1.57a.79.79,0,0,0,0,.13l0,.07.24.64c.23.63.54,1.24.77,1.86l0,.06.34.66c.31.55.66,1.08,1,1.62l.06.1.42.59a5.42,5.42,0,0,0,1.76,1.74l.13,0C125,162.78,125.13,162.17,125.18,162Zm-4.91-11.67a11.2,11.2,0,0,0-.15-4.2.64.64,0,0,1,0-.09v0h0c-.06-.24-.17-.64-.18-.7-.15-.5-.34-1-.53-1.48a.79.79,0,0,0,0-.13h0c-.1-.23-.29-.63-.32-.68-.25-.5-.52-1-.81-1.44l-.06-.09h0l-.41-.59a11.72,11.72,0,0,0-2.63-2.63l-.1-.07h0c-.21-.13-.58-.34-.64-.36a2.87,2.87,0,0,0-.86-.27h-.14a.32.32,0,0,0-.09,0,6.61,6.61,0,0,0,.18.68c.13.44.27.89.41,1.34l0,.08c0,.15.11.3.14.46s-.25.1-.35.18l-.64.37a36.91,36.91,0,0,0-8.68,6.95,85.07,85.07,0,0,1-10.64,9.14c-1.79,1.3-5.52,3.59-7.76,3h-.06l-.11-.05a5,5,0,0,1-.63-.37,6.87,6.87,0,0,1-1.35-1.77l0-.06,0-.08c-.14-.2-.34-.57-.37-.62-.3-.51-.58-1-.85-1.53l0,0,0-.08-.34-.66c-1-2-2-4.05-2.94-6.07l0-.06a2.35,2.35,0,0,0-.89.25c-1.25.45-2.59.79-3.79,1.33a1.92,1.92,0,0,0-.28.11,5.12,5.12,0,0,0,.21.58l0,.07c.09.2.24.57.26.61.22.57.48,1.12.7,1.68l0,.06,0,.07c.1.2.25.56.27.61.23.52.43,1.06.7,1.56l0,.07,0,.06c.1.2.26.55.28.6.23.52.47,1,.72,1.54l.06.11,0,.07c.11.22.31.61.33.66.76,1.52,1.53,3,2.41,4.48,0,0,0,.05,0,.08l0,.08c.13.21.34.58.37.63.33.57.76,1.13,1,1.73l0,.05c.13.2.35.57.38.62a3.53,3.53,0,0,0,1.66,1.34s0,0,.06,0c.21.05.59.11.64.12a11.6,11.6,0,0,0,2.12-.18h.16l.63-.08a16.83,16.83,0,0,0,1.87-.41l.18,0,.62-.17a64.87,64.87,0,0,0,21.53-10.94c2.12-1.65,4.06-3.43,6.13-5.12a1.45,1.45,0,0,1,.24-.2,6.58,6.58,0,0,1,.28.71c.2.51.38,1,.58,1.55a.78.78,0,0,0,0,.12C119.83,152.59,120.24,150.48,120.27,150.33Zm-41.45-2.57s0-.12-.08-.12l-.65.22c-1.31.45-2.66.82-4,1.31-.19.07-.43.07-.28.28s1.3-.29,1.34-.3c1.12-.4,2.31-.72,3.38-1.22C78.74,147.86,78.77,147.87,78.82,147.76Zm-.38-.26c.18-.09.32-.08.14-.21-.21.06-.58.2-.64.22A37.47,37.47,0,0,0,73.8,149s-.08,0-.08.06a3.29,3.29,0,0,0,.72-.22C75.67,148.42,77.29,148,78.44,147.5Zm-.28-.68c.19-.1.3-.1.11-.2l-.65.22-.42.13-.66.22a23,23,0,0,0-3,1c-.06,0-.17,0-.1.13.22.19,1.17-.25,1.25-.28A31.27,31.27,0,0,0,78.16,146.82Z"/><path class="cls-1" d="M115.12,72.51c.49,1.07.47,3.09-.71,3.61,0-.07,0-.2,0-.23,0-.75.48-1.48.38-2.44a5.15,5.15,0,0,0-.15-.72h0c-.13-.38-.45-.73-.43-1.14.44.06.74.51,1,.89Z"/><path class="cls-1" d="M111.25,79.59l-1,.19a2.54,2.54,0,0,0-.13-.56H110l-1.12.24-.63.13h-.06l-.13,0-1.13.23a6.64,6.64,0,0,0-.74.17.62.62,0,0,0,0,.12c-.1.88-.2,1.76-.34,2.63,0,0-.06.42-.1.63h0s0,.1,0,.12a38,38,0,0,1-2.08,7.25c-2.71,6.52-9.07,13.94-16,16L87,107h-.15a9.43,9.43,0,0,1-3.59,0c-.06,0-.48-.08-.72-.15l-.07,0-.06,0a4.71,4.71,0,0,1-2.55-1.45,4.57,4.57,0,0,1-.37-.63l0-.09s0-.12,0-.13c-.57-2,.63-4.13,1.64-5.82l.77.23c-.86,1.54-1.7,3.48-1.18,5.16l0,.06a3.5,3.5,0,0,0,.41.59,3.41,3.41,0,0,0,1.65.86.12.12,0,0,1,.07,0c.22,0,.59.1.65.11a12.1,12.1,0,0,0,3.06-.12l.17,0,.62-.13C92.09,104.44,97.46,99,100,95a37.14,37.14,0,0,0,4.52-11.64s0-.12,0-.17v0h0v0c0-.2.12-.57.13-.62.15-.7.27-1.42.37-2.13a.38.38,0,0,0,0-.12h0l-.72.14Q85,84.45,65.6,88.19a41.46,41.46,0,0,0-4.11.77l-.21.05-.18-.74c1-.26,2.19-.46,3.17-.72,3.24-.85,6.73-1.36,10-2.09,10.33-2.26,20.71-4.32,31-6.61l.11,0,.62-.13,1.75-.38.13,0h0l.62-.14,1.5-.32.11,0a5.84,5.84,0,0,1,.8-.14c0,.25,0,.51.07.76s.08.61.09.67S111.22,79.42,111.25,79.59Z"/><path class="cls-1" d="M103.69,59.43l.12.41-.94.28-.12-.42a.23.23,0,0,0,0-.09h0c-.07-.23-.19-.62-.21-.67L102,57.19l0-.14h0v0h0c-.08-.22-.21-.6-.22-.65-.28-.82-.54-1.63-.83-2.44a.2.2,0,0,1,0-.07c-.08-.21-.21-.59-.23-.65-.24-.71-.5-1.41-.74-2.13l0-.14,0-.07c-.07-.21-.21-.59-.22-.64-.21-.59-.42-1.18-.62-1.77,0,0,0-.08,0-.12-.08-.22-.2-.6-.22-.65-.31-.87-.59-1.75-.89-2.62l0-.14,0-.08c-.08-.22-.2-.6-.22-.65-.19-.6-.39-1.19-.59-1.79a.34.34,0,0,1,0-.08l0-.07c-.07-.23-.19-.62-.21-.67l-.48-1.64a.62.62,0,0,1,0-.14l0-.07c-.06-.23-.17-.63-.19-.69-.17-.63-.33-1.26-.49-1.89l0-.11V37c-.06-.24-.16-.66-.17-.71-.86-3.83-1.33-7.75-1.89-11.63a.1.1,0,0,0,0-.06,2.52,2.52,0,0,0-.39,0l0-.81h.2l.71-.05a2.09,2.09,0,0,1,.5,0,4.61,4.61,0,0,1,.07.5.32.32,0,0,1,0,.08c.66,4,1.14,7.81,2,11.76,0,0,.1.47.16.71a.51.51,0,0,1,0,.09c.15.63.32,1.26.48,1.9,0,.06.12.46.18.7,0,0,0,.12,0,.13.16.56.3,1.11.46,1.67,0,.05.14.45.2.67l0,.08L98,42c.19.61.37,1.22.57,1.82,0,.06.13.45.21.66l0,.08,0,.13c.27.85.56,1.69.84,2.54,0,.05.15.44.22.66l0,.07a.37.37,0,0,1,0,.11l.6,1.78s.16.43.23.65l0,.07a.64.64,0,0,0,0,.07c.25.71.49,1.43.73,2.14,0,.06.15.44.22.66l0,.07,0,.1c.26.82.55,1.63.82,2.44,0,.06.13.45.21.66l0,.1c.19.6.39,1.2.58,1.8,0,.06.14.45.2.67A.54.54,0,0,1,103.69,59.43Z"/><path class="cls-1" d="M92.88,23.76l0,.81-.29,0a73.34,73.34,0,0,1-19.16-1.42l-.14,0h0L72.56,23l-1.63-.37-.07,0h0l-.7-.18L68.42,22l-.1,0h0l-.69-.18-1.66-.47-.08,0h-.06l-.67-.2-1.62-.5-.06,0-.06,0-.67-.21c-.59-.19-1.19-.39-1.77-.61l0,0-.66-.23c-.54-.19-1.09-.41-1.64-.61l-.07,0-.06,0c-.22-.07-.58-.22-.63-.24-.57-.22-1.15-.43-1.71-.67l-.07,0-.62-.26c-.6-.23-1.18-.49-1.77-.73l-.07,0-.6-.27q-2.77-1.2-5.5-2.52l-.12-.06-.08,0-.67-.33c-.55-.28-1.1-.56-1.64-.86l-.1,0-.08-.05-.65-.34-1.54-.84-.1-.05-.08,0L41.77,11c-.78-.43-1.54-.88-2.32-1.32l-.12-.07-.07,0-.63-.37-1.41-.85-.1-.07-.08,0-.62-.39L35,6.9l-.05,0-.08-.05-.6-.4c-2.37-1.56-4.52-3.32-6.83-4.92a1,1,0,0,0-.34-.18l-.18,0a1.54,1.54,0,0,0-.73.41C16.39,9.87,8.42,23.78,6.37,36.35c-.57,3.46-.93,8.39.42,11.66a.2.2,0,0,1,0,.06c.13.2.37.54.41.59a3.13,3.13,0,0,0,1.54,1.09h.06a2.64,2.64,0,0,0,.7,0c2.75-.27,6-5,7.34-7.21l.08-.12c.13-.21.36-.58.38-.63,1.25-2,2.06-4.05,3.13-6.13,0-.09.21-.47.42-.54a1.81,1.81,0,0,1-.1.92,33,33,0,0,1-2.24,5.26,6.18,6.18,0,0,0-.4,1.49.58.58,0,0,1,0,.13c-.05.24-.14.66-.15.72s0,.21-.07.33l-.63-.12c0-.16.07-.35.09-.48a.57.57,0,0,0-.11.16c-1.61,2.5-4.61,7.05-7.9,7.17a4.5,4.5,0,0,1-.69-.06H8.58l-.09,0a4.31,4.31,0,0,1-2-1.53s-.24-.43-.38-.63l0-.1,0-.1c-1.31-3-1-7.77-.62-10.94C6.79,26.46,12.81,13.82,20.3,5.79A40.68,40.68,0,0,1,26,.32,1.89,1.89,0,0,1,26.78,0a1,1,0,0,1,.42,0l.1,0,.08,0a1.77,1.77,0,0,1,.39.22C30.17,2,32.39,3.8,34.85,5.38l.61.39.08.05.08,0c.48.31,1,.61,1.47.91,0,0,.42.24.62.37l.08,0,.12.07,1.42.84.62.37.08,0c.8.44,1.58.94,2.38,1.38.05,0,.42.24.63.37l.06,0c.55.24,1.07.61,1.6.89l.65.36.08,0,.07,0c.57.3,1.14.61,1.73.9.05,0,.43.24.66.34a.23.23,0,0,0,.09,0c1.82.82,3.61,1.74,5.42,2.58l.6.28.07,0,.07,0c.54.25,1.09.51,1.64.74l.61.27.07,0,.07,0,1.6.64.64.24.07,0,.08,0,1.63.61.65.24.06,0,.1,0,1.66.58.66.22.13.05c.53.18,1.07.35,1.61.51l.66.21.06,0,1.74.52.68.19.1,0c.55.16,1.11.3,1.67.45l.7.18h0l.07,0,1.62.39.72.16h.05l.09,0A71.12,71.12,0,0,0,92.88,23.76Z"/><path class="cls-1" d="M88.14,162.72c-.06.13-.28.14-.34.15a15.64,15.64,0,0,0-2.13.49c-.33.11-1.87.95-2,.52-.14-.73,2.41-1.33,2.94-1.42a6,6,0,0,1,.68-.06C87.61,162.39,88.09,162.38,88.14,162.72Z"/><path class="cls-1" d="M85.16,64.21c.39,5.21-4.7,10.23-9.33,11.75,0,0-.25.07-.35.12s.08.2.12.3h0l-.68.06c-.21-.38-1-.08-1.36,0a7.39,7.39,0,0,1-1.88-.08l-.1,0h0a5.22,5.22,0,0,1-.67-.19,6.08,6.08,0,0,1-2.27-1.74l0,0h-.06l-.47.52C64.92,78.33,61.9,81,57.43,82.7c-.66.26-.38.54-.3,1.2,0,0,0,.37.07.55a2.35,2.35,0,0,0,.09.53l.62-.17a7.53,7.53,0,0,1,.85-.2l.07.59-.73.13c-1.41.35-1.14,1-1,2.23.17,2,.44,5.2-2,6a1.43,1.43,0,0,1-1.64-.65h0a6.44,6.44,0,0,1-.28-.59,29,29,0,0,1-.82-4.31s0-.22-.07-.29c-.21.08-.6.19-.65.22a2,2,0,0,0-.93.56.9.9,0,0,1,0,.09,1.75,1.75,0,0,0-.07.78c.06.72.2,1.45.33,2.17l0,.06c0,.21.1.58.11.64a41.66,41.66,0,0,1,.6,4.16s0,.12,0,.18c.07.28.08.55-.29.55a6.73,6.73,0,0,0-.68.32c-1.31.75-2.16,2.47-1.56,3.76l-.69.14A3.68,3.68,0,0,1,50,96.65l.66-.34a.28.28,0,0,0,0-.16c-.11-1.12-.35-2.23-.55-3.33,0-.06-.09-.49-.15-.73a.34.34,0,0,0-.16,0,5.94,5.94,0,0,0-1.38.55,3.22,3.22,0,0,1-.38.62l-.07.11c-1.1,1.69-2.81,4.33-5.19,4a3.81,3.81,0,0,1-.66-.22l-.08,0-.09,0a3.19,3.19,0,0,1-.8-.84l-.34-.65a2,2,0,0,0-.38.11c-5.53,1.85-12.35,4.17-18.2,3l-.73-.16h0l-.11,0a15.24,15.24,0,0,1-1.76-.61l-.66-.34-.07,0h0l0,0a9.35,9.35,0,0,1-2.38-2s-.31-.36-.46-.55l0-.08s-.05-.08-.06-.08a12.05,12.05,0,0,1-.9-1.61s-.19-.4-.26-.6l0-.08a17.16,17.16,0,0,1-.84-5c0-.06,0-.48,0-.7a.82.82,0,0,0-.18,0,15.44,15.44,0,0,1-3.53,0s-.43,0-.65-.1l-.06,0H9.33a8.75,8.75,0,0,1-2-.62l-.65-.35L6.6,85.6l-.08,0A6.11,6.11,0,0,1,5,84.18a5.51,5.51,0,0,1-.4-.6l0-.08s0-.06,0-.07C2,78.76,5,74.16,8.07,70.74a29,29,0,0,0,2.43-2.57c.13-.2-.2-1.2-.18-1.59,0-.07.09-.5.09-.73a2.82,2.82,0,0,1-.08-3.42c.37-.52,1-.85,1.28-1.23s-.06-.85-.16-1.21c0-.06-.11-.47-.17-.7v0h0v0a.25.25,0,0,1,0-.07c-.14-.57-.28-1.13-.43-1.7-.39-1.57-.69-1.46.48-2.64a2,2,0,0,1,.63-.49l.15,0c2-.06,4.37.21,6.44.31.07,0,1.38.25,1.42-.2,0,0,0-.11,0-.11a37.36,37.36,0,0,0,1.63-5.5c0-.17.26-.8.15-1-.17-.08-.24.16-.3.25-.72,1-1.59,2.29-2.92,2.56a1.86,1.86,0,0,1-.78-.06h-.05l-.12,0c-1.53-1-.72-4.77-.41-6.29,0,0,0-.13,0-.24l.63.12c-.31,1.52-.87,4.73.06,5.67l.13.06a1.4,1.4,0,0,0,.85-.21,5.4,5.4,0,0,0,1.83-2l-.06,0h-.05c-.28,0-1.28-.4-.65-.76a2.15,2.15,0,0,1,.86,0c.69.34.93-1.13,1.23-1.56-.24-.28-.86-.61-.22-1,.49-.27.36.33.79-.32,0,0,.08-.23.21-.24.32.21-.12.76.22.95l.57.44c.22.17,2.22,1.75,2.25,1.75s.07.08.1.06A6.49,6.49,0,0,0,25.8,46l0-.07c-.07-.22-.18-.62-.19-.68-.23-.78-.46-1.56-.65-2.35a.31.31,0,0,1,0-.13l0-.06c-.06-.25-.11-.5-.19-.75a3.94,3.94,0,0,0-.71.11,4.1,4.1,0,0,1-1.26,0l-.14,0-.12,0c-1.58-.66-1.37-2-.25-3.91,1.54-2.69,5.44-6.32,8.36-7.45.05,0,.25-.15.36-.09-.09.27-.57.6-.67.67-2.62,2.11-7.34,5.28-8,8.8-.07.41,0,1,.52,1.12a2,2,0,0,0,.69,0C26.43,41.1,31,38,33.4,36.33l1.12-.8.19-.14.5-.37c.85-.64,1.87-2.61,2.67-3.55.21-.25.59-.83.94-.9,0,0,.08,0,.12,0,0,.3-.37.75-.45.87a29.82,29.82,0,0,0-2.86,4.64.45.45,0,0,1-.05.1l-.26.62a10.28,10.28,0,0,0-.87,3.39v.15a6.56,6.56,0,0,0,.12.75c.2.53.51.67,1,.92h.06l.07,0a3.5,3.5,0,0,0,.7,0,5.91,5.91,0,0,0,2.25-1l.09-.06.5-.34c3.48-2.49,5.57-6.46,7.54-10.15a1.29,1.29,0,0,1,.06-.12l.32-.63A9.5,9.5,0,0,1,48.4,27.4s.11-.15.2-.13a2.09,2.09,0,0,1-.14.91,6.69,6.69,0,0,0-.6,2.33.58.58,0,0,1,0,.15c0,.22.07.62.07.68a44.87,44.87,0,0,0,1.29,7.09.55.55,0,0,1,0,.12l.21.67c.17.53.35,1.06.55,1.57,0,0,0,.07,0,.11l0,.06c.08.21.23.57.25.62A14.2,14.2,0,0,0,51.09,43l0,.07c.13.2.38.54.41.59a3.33,3.33,0,0,0,1.32,1.06l.14,0c1.89.06,2.19-2.94,2.41-4.35v-.12c0-.21,0-.57,0-.63a20.93,20.93,0,0,0-.55-5.79s0-.09,0-.13h0v0h0a2.09,2.09,0,0,0-.85-.28c-1.13-.14-1.49.25-2.46.46-1.21.26,0-.8.48-1a6.8,6.8,0,0,1,2.23-.35s.19,0,.27,0c0-.22-.18-.6-.2-.66-.13-.4-.33-.79-.44-1.18a1,1,0,0,1-.07-.19,2.83,2.83,0,0,1,.51.59c.38.53.57,1.47,1.13,1.75a5.39,5.39,0,0,1,2.6,2.78.89.89,0,0,1,.05.1l0,.06.23.65a7.41,7.41,0,0,1,.33,1.8v.11a1.92,1.92,0,0,1-.12.93c-.26-.16-.32-.53-.44-.8h0c-.08-.22-.2-.61-.21-.66a12.29,12.29,0,0,0-.55-1.58l0-.08c-.11-.22-.32-.59-.35-.64a4.62,4.62,0,0,0-1.28-1.36L55.62,34c0,.24.15.64.16.69.39,1.73.32,3.53,1,5.17l.09.22,0,.07c.09.21.23.57.26.62.26.64.54,1.29.83,1.92l.07.13,0,.06c.12.22.31.61.34.66q.6,1.15,1.23,2.28l.06.11.36.64c.28.51.56,1,.86,1.52,0,0,0,0,0,.06a3.45,3.45,0,0,0,.84-.09c.46-.08,3.06-.77,3,.09-.05.63-2.83.56-3.23.78,0,0-.07,0-.09,0a8.17,8.17,0,0,0,.8,1.21c.24,0,.67,0,.73,0s2.81.11,1.51.74a3.46,3.46,0,0,1-1.57.06.22.22,0,0,0-.11,0,5.69,5.69,0,0,0,.42.58A7.47,7.47,0,0,0,65.81,54l.08,0c1.82.37,2.11-2,2.23-3.63A22,22,0,0,0,67.65,45a1.3,1.3,0,0,1,0-.15c-.06-.24-.14-.66-.15-.72-.14-.59-.34-1.16-.52-1.74l0-.09h0v0h0c-.07-.22-.2-.6-.22-.66a22.76,22.76,0,0,1-1.3-4.33s0-.15,0-.2a1.78,1.78,0,0,1,.45.67c.64,1.39,1.2,2.82,1.76,4.25,0,0,0,.05,0,.08.09.21.22.58.23.63.22.58.41,1.15.68,1.71l0,.09,0,.07c.11.23.31.61.33.67a12.08,12.08,0,0,0,1,1.68s0,0,0,0c.12.21.36.56.39.61.6.87,1.37,1.62,1.94,2.44l0,0,.5.51a7.48,7.48,0,0,0,2.83,1.8l.12,0a2.7,2.7,0,0,0,.72,0c1.85-.42,2.68-4.94,2.94-6.57,0-.16,0-.63.11-.75s0-.09,0-.12c0,.24.11.67.11.74.2,2-.4,6-2.54,7.1a2.59,2.59,0,0,1-1.4.27h-.15a6.73,6.73,0,0,1-.66-.21A9.74,9.74,0,0,1,72.27,51s-.06-.07-.1-.07c-.09.21-.22.59-.24.64-1.41,4-2.86,9.62-2.08,13.81,0,.16.25,1.14.76,1.18a1.59,1.59,0,0,0,.75-.42,6.35,6.35,0,0,0,1.25-2s.06-.13.08-.19.23-.57.26-.62a46.21,46.21,0,0,0,1.73-6.76c0-.05,0-.32.13-.4a1.75,1.75,0,0,1,.09.78,20.24,20.24,0,0,1-1.15,7s0,.05,0,.07c0,.25.13.67.15.74a2.3,2.3,0,0,0,1,1.58l.16,0A1.49,1.49,0,0,0,76,65.9a7.72,7.72,0,0,0,1.28-2.38.54.54,0,0,1,0-.12c.07-.21.19-.58.21-.63a17.47,17.47,0,0,0,.75-3.5,1.05,1.05,0,0,1,0-.13c0-.21,0-.57,0-.62.09-1.81-.29-3.48-.27-5.21a.52.52,0,0,1,0-.19c.1.23.25.65.27.71a13.92,13.92,0,0,1,.73,4.75.28.28,0,0,0,0,.08c.25,0,.68,0,.74,0a5.54,5.54,0,0,1,2.51.74l.06,0c.21.13.54.38.59.42A6.25,6.25,0,0,1,85,63.4a.49.49,0,0,1,0,.15C85.1,63.77,85.16,64.15,85.16,64.21ZM76,74.84c4.16-1.42,8.76-6.18,8.13-10.89,0,0,0-.09,0-.15h0c0-.24-.17-.64-.18-.7a5.48,5.48,0,0,0-2-2.69l0,0-.07,0h0c-.21-.13-.61-.3-.67-.33a5.19,5.19,0,0,0-2.07-.27H79a4.9,4.9,0,0,0-.09.66c-.15.94-.43,1.85-.6,2.79a.15.15,0,0,0,0,.07l.78.09s1.5.39,1.51,1.2a.27.27,0,0,1-.4.29h0c-.21-.09-.56-.25-.62-.26a7.44,7.44,0,0,0-1.41-.34H78a7.52,7.52,0,0,0-.28.71c-.14.33-1.2,2.86-2.72,2.44h0a2.21,2.21,0,0,1-1-.69,6.61,6.61,0,0,0-.45.55,7.05,7.05,0,0,0-.7,1.18s0,.06,0,.1l.61-.24a2.63,2.63,0,0,1,3.34,1.48h0v0a3.6,3.6,0,0,1,0,.67c0,.52-.33,2.58-1.11,2.5-.29,0,.09-1.47.1-1.81a7.85,7.85,0,0,0,0-1,1.13,1.13,0,0,1,0-.14h0v0c-.51-1.11-2.14-1-3-.38-.42.2-.83.57-1.3.55-.2-.42.16-.93.26-1.37.08-.21.24-.57.27-.62.26-.58,1.61-2.25,1.61-2.59a5,5,0,0,0-.15-.73.29.29,0,0,0,0-.09c-.12.21-.3.6-.33.66-.52,1-1.27,2.1-2.47,2.13l-.1,0h-.05l-.07,0a2.14,2.14,0,0,1-.64-.48c-1.54-1.75-.93-7.09-.57-9.26a33.75,33.75,0,0,1,2-7.39l0-.09c0-.34-.5-.8-.62-1a19.62,19.62,0,0,1-1.29-1.71.53.53,0,0,1-.07-.1l0-.06c-.09-.14-.18-.29-.28-.43a7.11,7.11,0,0,0,.11.75c.32,2.32.4,8.12-3.35,7.46l-.12,0-.08,0a3.82,3.82,0,0,1-.68-.31,11.25,11.25,0,0,1-3.26-3.5l0-.07c-.17-.49-1.15-.41-1.21-.42l-1.61-.14a.33.33,0,0,0-.14,0c0,.22-.07.63-.07.68-.67,6.27-5.39,11.38-12.06,10.08l-.12,0h0c-.24,0-.64-.16-.7-.18a10.17,10.17,0,0,1-1.78-.71l-.11-.06-.06,0c-.22-.11-.58-.34-.63-.37a8.51,8.51,0,0,1-3.39-4.12s0-.08,0-.11h0v0h0c-.08-.22-.13-.46-.2-.68-.13.19-.34.55-.37.61-.39.63-.11.55.35,1.1a8.94,8.94,0,0,1,1.44,2.44s0,.1,0,.13c-.28-.07-.61-.54-.7-.63-1.26-1.36-4.78-5.48-5.42-1.23a10.44,10.44,0,0,0,0,1.77.26.26,0,0,0,0,.07c0,.23.07.62.07.68.07.48.51,1.81.5,2.13,0,.05,0,.14-.07.14-.24-.15-.38-.7-.43-.82-.19-.5-.33-1-.49-1.51a.2.2,0,0,0,0-.08l-.66.21a7.49,7.49,0,0,1-3.33.14l-.14,0-.06,0a5.79,5.79,0,0,1-.69-.19,6.5,6.5,0,0,1-2-1.13.11.11,0,0,1-.06-.06,5.7,5.7,0,0,1-.52-.48,7.81,7.81,0,0,0-.72-.91s0-.07-.06-.08a4.31,4.31,0,0,0-.47.52,13.69,13.69,0,0,0-2.55,4.83l0,.08,0,.06c-.06.24-.15.66-.16.72a15.54,15.54,0,0,0-.12,4v.08c0,.22.07.61.08.67.07.53.17,1.06.28,1.59a.86.86,0,0,1,0,.13v.06c.07.23.17.64.19.7a14.87,14.87,0,0,0,1.43,3.45s0,.07.06.11l.05.07c.11.22.35.57.38.62.42.63.91,1.18,1.36,1.78l0,0,.07.08c.16.18.45.47.49.51.38.38.78.72,1.18,1.08l.06,0,.08.07.57.43a19.57,19.57,0,0,0,2.46,1.55l.06,0,.66.34c.67.32,1.34.6,2,.86l.11,0,.06,0,.65.23c.53.19,1.08.32,1.62.5l.08,0,.06,0,.7.17a33.75,33.75,0,0,0,15.83.26l.19,0,.62-.17A26,26,0,0,0,67.72,73.5c.31-.43-.1-1.09-.19-1.61a3.14,3.14,0,0,1,.33-2.07s.08-.13.16-.11c.22.21.18.81.19.94a5.54,5.54,0,0,0,1,2.87l.07.11c.16.18.44.47.49.51a4.32,4.32,0,0,0,1.91,1.1l.09,0h0c.22,0,.61.09.66.1a5.42,5.42,0,0,0,1.72-.07s.11,0,.13,0c-.11-.32-.28-.64-.42-1h0v0h0c-.09-.2-.24-.56-.26-.61a7.72,7.72,0,0,1-.67-2s0-.08.08-.09c.29.11.55.63.62.75.29.51.54,1,.81,1.57a.29.29,0,0,1,0,.08c.1.2.26.55.29.6C75.14,75.35,75.22,75.11,76,74.84ZM60.69,50.17s.09,0,.11,0c-.2-.35-.42-.71-.65-1h-.1c-.23,0-.63,0-.69,0a2.61,2.61,0,0,0-.69.06H58.6c0,.28,0,.62,0,.92a7,7,0,0,0,.74,0A8.88,8.88,0,0,0,60.69,50.17Zm-.93-1.76c-.11-.22-.32-.6-.35-.65-.21-.38-.41-.76-.61-1.14l-.06-.12-.05-.07c-.11-.22-.32-.6-.35-.66-.42-.79-.85-1.58-1.23-2.39,0,0,0-.08,0-.12l-.27-.61c-.19-.44-.35-.89-.55-1.33l0,0c0,.25-.11.68-.13.74-.06.34-.39,1.08-.22,1.33.42.6,1.06,1,1.49,1.76a10.83,10.83,0,0,1,1.13,3.25,2.3,2.3,0,0,0,0,.28,3.92,3.92,0,0,0,.72-.12A3.44,3.44,0,0,0,59.76,48.41Zm-2,1.88v-.75c0-1.59-.73-4.29-2.09-5.29,0,0-.13-.12-.2-.16-.12.2-.34.55-.37.61a2.24,2.24,0,0,1-2.27,1h-.07l-.06,0a4,4,0,0,1-.69-.31,5.47,5.47,0,0,1-1.61-1.64l-.08-.11h0l0-.07c-.13-.21-.34-.58-.37-.63-.12-.21-.31-1-.72-1l-.69.06a9.85,9.85,0,0,0-6.85,4.79s0,.07-.07.1c-.13.21-.33.58-.36.64a10.24,10.24,0,0,0-1,7.91.43.43,0,0,1,0,.11l.26.62A8.08,8.08,0,0,0,44,59.62l.06,0c.2.1.55.25.61.27a11.47,11.47,0,0,0,1.64.49l.12,0h.08l.66.09c6.29.62,10.11-4.22,10.52-10.09C57.73,50.43,57.72,50.34,57.74,50.29ZM56.5,85.61s.09-.28,0-.4l-.69.18a10.06,10.06,0,0,0-2.05.57s.09.69.1.78v.07a3.81,3.81,0,0,1,.07.59,3.06,3.06,0,0,1-.56.13,4.71,4.71,0,0,0-.54.12c0,.22.05.61.05.67a11.72,11.72,0,0,0,1,4.12l0,.09c.43.56.94.81,1.81-.28C57.32,90.33,56.1,87.79,56.5,85.61Zm0-.51c.09-.06.06-.08,0-.08l-.69.19a12.21,12.21,0,0,0-2,.51s0,0,0,0a2.67,2.67,0,0,0,.83-.17A11,11,0,0,0,56.45,85.1Zm-.06-.27s.1,0,.08-.11h0l-.7.18a10.25,10.25,0,0,0-1.91.47s-.14,0-.14.08a3.09,3.09,0,0,0,1-.18A11.76,11.76,0,0,0,56.39,84.83Zm0-.49s0-.06,0-.07c-.23.07-.65.16-.7.17L54,84.85l-.14,0c-.06,0-.19,0-.2.1a3.34,3.34,0,0,0,.84-.15c.61-.14,1.27-.25,1.87-.45A.12.12,0,0,0,56.42,84.34Zm-3.46,2a2.66,2.66,0,0,0-.06-.76c0-.37-.1-.74-.13-1.12a.49.49,0,0,0,0-.11,7.07,7.07,0,0,0-.79.15,36.37,36.37,0,0,1-15.46-.64l-.13,0-.08,0-.68-.19c-.58-.16-1.13-.37-1.7-.55l-.06,0-.64-.24c-.76-.3-1.51-.64-2.25-1l-.07,0-.07,0-.66-.34a29.12,29.12,0,0,1-2.56-1.7l-.06-.05c-.19-.14-.5-.41-.55-.45-.67-.59-1.28-.43-2.15-.47s-1.75-.12-2.62-.13h-.12a.37.37,0,0,0-.07.14c-.07.22-.19.61-.21.66a41,41,0,0,0-1.17,4.21s0,.07,0,.1a3.93,3.93,0,0,0,.61-.2L23,82.83l.16-.06c.2-.08.57-.21.62-.24.3-.11.9-.47,1.22-.31,0,0,.09,0,.1.08-.05.28-.48.59-.55.67-.23.24-.44.49-.66.73l0,0-.44.56a6.59,6.59,0,0,0-1.36,3.27v.11a5.31,5.31,0,0,0,.11.77A3,3,0,0,0,23,89.68l.05.06.09.07a6.77,6.77,0,0,0,.6.39,6.58,6.58,0,0,0,1.36.52l.12,0h.06l.64.12c3.74.57,9.28-1.89,12.67-3.46.56-.26,1.1-.56,1.63-.87l.07,0a5.93,5.93,0,0,1,.82-.44,2.78,2.78,0,0,1,0,.91c0,.24,0,.65,0,.71a26.37,26.37,0,0,0-.08,2.67s0,.07,0,.09c.21,0,.56-.17.61-.19,2.71-.87,5.39-1.89,8.14-2.62l.12,0,.63-.41a13.18,13.18,0,0,1,2.38-.84Zm-3.13,5a4.9,4.9,0,0,0-.08-.66,16.18,16.18,0,0,1-.16-2v-.1a3.86,3.86,0,0,0-.68.17c-2.69.79-5.34,1.75-8,2.61l-.11,0-.66.21c-5,1.62-11,3.4-16.35,2.61h-.11c-.24,0-.64-.16-.7-.18a5,5,0,0,1-3.13-2.38.15.15,0,0,0,0-.06c-.1-.2-.25-.56-.27-.61a13.54,13.54,0,0,1-.1-6.78s0-.12,0-.19.13-.57.14-.62a41.3,41.3,0,0,1,1.29-4.76s0-.1.05-.15a5.67,5.67,0,0,0-.68-.06c-1.23-.06-2.47-.16-3.7-.18h-.11c-.08.22-.18.63-.2.68a36.16,36.16,0,0,0-1.27,7,.74.74,0,0,0,0,.18c0,.23,0,.65,0,.71a13.64,13.64,0,0,0,.73,5.26s0,0,0,.06l0,.06a5.78,5.78,0,0,0,.3.71,12,12,0,0,0,.78,1.34l0,.07a5.51,5.51,0,0,0,.44.56,9.32,9.32,0,0,0,2,1.71l.1.07a4.34,4.34,0,0,0,.67.33,11.93,11.93,0,0,0,1.54.59l.11,0,.7.17c6.89,1.35,16-2.15,22.48-4.55l2.25-.86.08,0,.62-.23c.63-.24,1.27-.46,1.88-.72Zm-.71-50.13c-.09-.21-.22-.58-.24-.64q-.29-.84-.54-1.71l0-.06h0v0c-.06-.23-.17-.63-.19-.69a33.39,33.39,0,0,1-.89-6.74.62.62,0,0,0,0-.12l-.35.64c-1.91,3.53-4,7.21-7.28,9.61a.29.29,0,0,0-.11.08,6.61,6.61,0,0,1,.45.55,6.91,6.91,0,0,1,.89,1.73s0,.08,0,.11c.07.23.18.63.19.68a9.89,9.89,0,0,1,.26,1.63v.08a7.26,7.26,0,0,0,.43-.6,10.34,10.34,0,0,1,7.16-4.42C49,41.29,49.11,41.31,49.12,41.22Zm-2.19,52h0l-.63.25c-1.39.53-2.8,1-4.18,1.58a1.19,1.19,0,0,0-.29.12,2.37,2.37,0,0,0,.89.94,2.42,2.42,0,0,0,.69.19c1.48,0,2.71-1.84,3.44-2.93A.4.4,0,0,0,46.93,93.25Zm-6.14-46a1,1,0,0,0,.09-.57c0-.22-.07-.61-.07-.67a9.17,9.17,0,0,0-.41-1.72.59.59,0,0,1,0-.13h0c-.09-.24-.28-.63-.31-.69A5.6,5.6,0,0,0,38.93,42s0,0-.08,0l-.63.35a4.29,4.29,0,0,1-2.59.58l-.14,0h-.05a4.15,4.15,0,0,1-.72-.28,2.39,2.39,0,0,1-1.07-1.69s0-.07,0-.09h0L32.9,41c-3.32,1.06-5.37,4.45-6.45,7.57l0,.1c-.07.22-.19.61-.21.66a9.41,9.41,0,0,0,0,6.09l0,.08,0,.06c.11.23.31.61.34.67a7.19,7.19,0,0,0,1.23,1.52.35.35,0,0,1,.1.09l.08.07c.19.15.53.39.58.42a6.45,6.45,0,0,0,1.61.77l.09,0c.24.07.65.16.71.17a6.31,6.31,0,0,0,2.8-.17l.12,0a5.31,5.31,0,0,0-.07-.66c-.28-2.9,1.42-5,4.13-2.94a1,1,0,0,0,.31.22c.16-.19.39-.55.43-.61.68-1.08.34-1.39.43-2.57A15,15,0,0,1,40.79,47.24Zm-.51,40.32a.41.41,0,0,0,0-.14c-.21.11-.57.34-.62.37-3.58,2.11-8.14,4.29-12.37,4.39A10.23,10.23,0,0,1,25,92l-.13,0-.07,0-.68-.19a8,8,0,0,1-1.85-.91.14.14,0,0,0,0,0c-.19-.13-.49-.42-.54-.46a3.23,3.23,0,0,1-.89-2.58.45.45,0,0,1,0-.08v-.09a4,4,0,0,1,.17-.63,8.73,8.73,0,0,1,1.82-3,.85.85,0,0,0,.11-.16l-.69.3c-.55.24-1.12.47-1.68.69l-.13,0a2.2,2.2,0,0,0-.16.72A10.22,10.22,0,0,0,20.68,91a1.29,1.29,0,0,0,.06.12l0,.07a5.51,5.51,0,0,0,.4.6,4.48,4.48,0,0,0,2.58,1.42l.15,0H24l.64.11c4.6.64,11-1.22,15.41-2.64a.59.59,0,0,0,.2-.08c0-.26,0-.69,0-.76A18.6,18.6,0,0,1,40.28,87.56ZM34.65,36.51s.05-.08,0-.12l-.57.41a52.34,52.34,0,0,1-8,4.72c-.48.22-.24.41-.13.9a.51.51,0,0,0,0,.09c.06.23.16.64.18.7.2.79.41,1.58.65,2.35l0,.12a4.74,4.74,0,0,0,.43-.68,10.38,10.38,0,0,1,6.27-5.09.26.26,0,0,0,.1,0c.05-.21.09-.57.1-.62A13.92,13.92,0,0,1,34.65,36.51Zm-8.9,41.65s.13,0,.18,0-.27-.25-.36-.39a2.68,2.68,0,0,0-.48-.41,25.47,25.47,0,0,0-3.66-.21c-1.19-.08-2.37-.12-3.55-.21a.76.76,0,0,0-.17,0h0c-.22.25-.46.49-.66.76.22,0,.62,0,.68.06l3.69.18a.69.69,0,0,1,.18,0c.24,0,.65,0,.72,0A22.55,22.55,0,0,0,25.75,78.16Zm0-30c.55-.55-.47-.86-1.21-1.33s-1.15-.78-1.74-1.14l-.06,0a4.51,4.51,0,0,0,0,.79c.07.37.24,1,.78,1.05l.67.2,1.44.44Zm-.23.7a.56.56,0,0,0,0-.18c-.23-.07-.65-.16-.71-.17l-1.32-.3-.13,0h0a2.93,2.93,0,0,0-.29,0c-.07.22-.15.64-.17.7a39.84,39.84,0,0,1-1.74,5.89s0,0,0,.05a3.38,3.38,0,0,0,.69.06c.85,0,2-.23,2.27.73a5.62,5.62,0,0,0,.32,1.3s0,.08,0,.11a2.56,2.56,0,0,0,.47-.46c.12-.12.45-.33.28-.57s-.18-.62-.2-.68A11.78,11.78,0,0,1,25.51,48.82ZM24.43,76.93a2.46,2.46,0,0,0,.41,0c-.13-.21-.43-.58-.47-.63a10.54,10.54,0,0,1-.8-1.21l0,0,0-.08c-.21-.28-.9-.16-1.08-.17H21.21a7.11,7.11,0,0,1-.74,0c-.39,0-1.69.13-1.83-.16a24.28,24.28,0,0,1-.85-3.41s0-.08,0-.12a1.39,1.39,0,0,0-.06-.19c-.15.17-.44.45-.49.49-.79.62-.56.42-.32,1.42.11.43.23.87.33,1.3,0,0,0,0,0,.06.07.23.16.64.18.7.13.53.25,1.07.39,1.61l0,.06a2.79,2.79,0,0,0,.78.09Q21.52,76.8,24.43,76.93Zm-.77-19a16.53,16.53,0,0,0-.56-2.51c-.13-.07-2.19-.11-2.5-.12a.59.59,0,0,1-.17,0c-.24,0-.66,0-.72,0l-7.17-.34h-.12c.06.23.16.64.17.69.4,1.6.76,3.22,1.21,4.8a.3.3,0,0,0,0,.11,3.6,3.6,0,0,1,.74.14c.06,0,.45.21.66.33a5.66,5.66,0,0,0-.16-.69c-.28-1.11-.55-2.22-.79-3.34,0,0,0-.06,0-.08a.23.23,0,0,1,.26-.34l.72,0c2.34.14,4.69.21,7,.34.82.05.71.79.89,1.49a.41.41,0,0,0,0,.12C23.33,58.33,23.65,58,23.66,57.92ZM23,74.31s.08,0,.11,0c-.09-.23-.3-.62-.32-.67-.38-.8-.58-1.66-.93-2.46,0-.08,0-.2-.18-.15-.3,0-.6,0-.89,0,0,.24.11.66.12.72.15.82.29,1.63.44,2.45,0,0,0,.07,0,.09h.75A3.17,3.17,0,0,0,23,74.31Zm-.25-15a.41.41,0,0,1,0-.1h0v0h0c-.06-.23-.16-.64-.17-.7-.09-.37-.12-1.06-.49-1.14a35.51,35.51,0,0,0-4.41-.21L14.87,57h-.11c0,.23.15.64.17.7.4,1.59.79,3.18,1.26,4.74a.33.33,0,0,1,0,.12c-.19.77,1,.52,1.82.55a17.86,17.86,0,0,0,3.38,0s0-.43.14-.57h0v0h0c.05-.21.15-.57.17-.63C22,61,22.61,59.94,22.74,59.29Zm-1,11.28s0-.11,0-.13v-.08c-.07-.24-.15-.66-.16-.72-.11-.5-.18-1-.25-1.5,0,0,0-.1,0-.15s-.22,0-.32,0a6,6,0,0,0-.75.05c0,.25.12.69.13.75a7.13,7.13,0,0,0,.44,1.93C20.91,70.83,21.63,70.64,21.69,70.57Zm-.42-6.78a.46.46,0,0,0,0-.14,3.74,3.74,0,0,0-.71,0c-1.43,0-2.87-.12-4.3-.09h-.1c-.25.1.44.85.64,1a7.39,7.39,0,0,0,2.39.11H20c.33,0,1,.11,1.15-.13A2.38,2.38,0,0,0,21.27,63.79Zm-.12,3.67c0-.23,0-.64,0-.7a12.1,12.1,0,0,0,0-1.47s0-.09,0-.11a4.9,4.9,0,0,0-.73,0c-.06,0-.48,0-.73,0v0c0,.24.12.67.13.73a10.71,10.71,0,0,0,.36,1.64,4.86,4.86,0,0,0,1,0A.06.06,0,0,0,21.15,67.46ZM21,74.37a5.74,5.74,0,0,0-.13-.72,9.69,9.69,0,0,0-.67-2.58s-.13,0-.17,0c-.24,0-.66,0-.72,0l-.85,0a.28.28,0,0,0-.11,0c0,.23.15.64.16.7.11.49.42,2.34.76,2.49a10.25,10.25,0,0,0,1.59,0A.36.36,0,0,0,21,74.37Zm-.81-3.69c0-.24-.12-.67-.13-.73a8.14,8.14,0,0,0-.43-2s-.24,0-.3,0c-.24,0-.67,0-.73,0s-.37,0-.55,0a4.3,4.3,0,0,1,.24.64c.15.69-.27,1.33-.08,2,0,0,0,0,0,0a4.71,4.71,0,0,0,.74,0c.12,0,1.09,0,1.12,0A.29.29,0,0,1,20.17,70.68Zm-.74-3.15s.1,0,.12,0c0-.24-.11-.67-.12-.73-.1-.5-.18-1-.25-1.51,0,0,0-.09,0-.13a4.86,4.86,0,0,0-.73,0c-.41,0-.83,0-1.25,0a.27.27,0,0,0-.12,0c0,.09,0,.18,0,.28a2.85,2.85,0,0,1,0,.68,1.61,1.61,0,0,0,.51,1.44s0,0,.05,0a5.47,5.47,0,0,0,.62,0A7,7,0,0,0,19.43,67.53Zm-4.27,4.22c1.48-.47,3-1.75,2.07-3.38l-.07-.09a2.66,2.66,0,0,0-.6-.52,2.77,2.77,0,0,0-1.44-.32h-.18c-.25,0-.67.13-.73.14A3.19,3.19,0,0,0,12.34,69a.93.93,0,0,1-.05.1,3.23,3.23,0,0,0-.23.65,3,3,0,0,0,.43,2.18s0,0,0,0a4,4,0,0,0,.48.53,3.23,3.23,0,0,0,1.67.83s.07,0,.11,0a3.15,3.15,0,0,0-.12-.58h0v0c0-.31-.21-.39-.4-.56C14.39,71.84,15,71.8,15.16,71.75Zm2,4.84c-.05-.24-.15-.65-.17-.71-.11-.47-.23-.94-.34-1.41a.51.51,0,0,0,0-.09h0v0h0c-.05-.23-.16-.65-.17-.7-.12-.51-.22-1-.36-1.52,0,0,0-.09-.06-.1-.24.08-.5.12-.71.2a2.74,2.74,0,0,0,0,.28l0,.07c.06.24.16.65.17.71.29,1.23.51,2.52.89,3.73a2.83,2.83,0,0,0,.08.29A4.69,4.69,0,0,0,17.14,76.59ZM16,66.64c.74.1.36-.64.36-1.08v0h0a2.56,2.56,0,0,0-.38-.75A2.38,2.38,0,0,0,14.2,64h-.12c-.26,0-.7.09-.77.1a2.85,2.85,0,0,0-1.93,1.58.49.49,0,0,1,0,.09c-.08.23-.18.63-.19.69a2.19,2.19,0,0,0,.49,1.81.28.28,0,0,0,.08.06l.45-.5A4.09,4.09,0,0,1,16,66.64Zm-.35,10.47a8.75,8.75,0,0,0-.71-3,16.86,16.86,0,0,1-1.9-.6,4.3,4.3,0,0,1-1.18-1.07l0-.06,0,0a6.31,6.31,0,0,1-.33-.68,4.35,4.35,0,0,1-.13-2.5.34.34,0,0,0,0-.15s0,0,0,0a5.27,5.27,0,0,0-.49.5c-3.46,3.7-8,7.82-5.29,13.33a.88.88,0,0,0,0,.1,5.59,5.59,0,0,0,.4.59A5.5,5.5,0,0,0,7.16,84.6l.08.06.08,0L7.9,85a7.6,7.6,0,0,0,1.62.5l.13,0,.08,0c.22,0,.62.08.67.08a14.84,14.84,0,0,0,3.33-.13.37.37,0,0,0,.13,0,3.78,3.78,0,0,0,.11-.73A72,72,0,0,1,15.62,77.11Zm-.09-13.64a1.37,1.37,0,0,0,0-.8v0h0v0a2.35,2.35,0,0,0-.43-.68,2.4,2.4,0,0,0-1.5-.64h-.16a4.5,4.5,0,0,0-.72.16c-2,.72-2.73,2.24-2,3.6.11-.2.32-.57.35-.61C11.81,63.47,14.1,62.6,15.53,63.47Zm-2.27-2.92a5.73,5.73,0,0,0-.16-.71c-.37-1.51-.72-3-1.09-4.54a.3.3,0,0,0,0-.11c-.14.17-.45.45-.48.5-.25.41.42,2.46.56,3.05,0,0,0,.2.07.3v0h0c0,.24.15.65.17.71a3.19,3.19,0,0,0,.19.81.2.2,0,0,0,0,.12C12.78,60.69,13,60.6,13.26,60.55Z"/><path class="cls-1" d="M84.26,94.83c.07.29-.23.76-.29.88-.41.73-1,1.38-1.43,2.07a.45.45,0,0,1-.05.08c-.12.21-.35.57-.38.62s-.19.32-.29.5l-.77-.23s.27-.4.38-.6c-.06,0-.14.09-.16.1A25.67,25.67,0,0,1,72.89,103l-.62.18H72.2l-.14,0a8.86,8.86,0,0,1-2.61.32,3.75,3.75,0,0,1-.76-.12h-.07l-.14,0a3.55,3.55,0,0,1-1.72-1.28,6.29,6.29,0,0,1-.37-.64l0-.08,0-.08a.44.44,0,0,0,0-.13c-.74-2.14.18-4.31,1.28-6.16l.26-.43.76.08-.1.17c-1,1.75-1.84,4-1,5.95,0,0,0,0,0,.05.12.21.36.55.4.6a2.77,2.77,0,0,0,1.08.67l.07,0,.08,0a6.11,6.11,0,0,0,.64.11,5.92,5.92,0,0,0,2-.34l.18-.05.62-.2a32.18,32.18,0,0,0,8.76-4.69l.11-.08.5-.37a19.44,19.44,0,0,1,2.25-1.66S84.23,94.8,84.26,94.83Z"/><path class="cls-1" d="M74.81,136.8l-.78.43,0,0,0-.06c-.11-.22-.32-.6-.34-.65-.26-.5-.53-1-.79-1.47,0,0,0-.05,0-.07l0-.06c-.24-.39-.43-.82-.7-1.18-.22.1-.6.31-.66.33a27.94,27.94,0,0,1-16.56,2.24c-.11,0-.42-.12-.57.06s-.51.41-.56.44l-1.25,1,0,.05c.14.19.4.5.44.55,1.9,2.3,3.75,4.82,5.73,7a1.24,1.24,0,0,0,.21.25c.17-.14.44-.42.49-.46a19.11,19.11,0,0,1,4.25-3c.47-.24.2-.48.05-1,0-.05-.14-.44-.22-.66h0v0c-.07-.22-.19-.61-.21-.66-.13-.4-.65-1.73-.19-2s1,1.71,1.09,2l.13.43c.08.22.2.61.21.66.2.64.39,1.28.59,1.92a.69.69,0,0,1,0,.08l.22.66.09.26-.79.26c0-.08-.06-.18-.09-.27s-.15-.43-.22-.65h0v0h0c0-.16,0-.22-.19-.19-.7.13-3.16,2.18-3.75,2.73-.31.28-.82.62-.64,1a5.51,5.51,0,0,1,.44.56.33.33,0,0,1,0,.52l-.08.14a13.89,13.89,0,0,1-1.26,1.5c-1.14,1.21-2.22,2.59-4,1.94l-.61-.26-.09,0L54,151l-.07,0c-.48-.27-1-.54-1.43-.83-.05,0-.41-.25-.61-.39l-.05,0-.08-.06c-.82-.58-.64-.74-1.41.09l-.46.51-.07.07c-2,2.21-4,4.37-5.88,6.64-1.43,1.69-4.28,4.66-4.75,6.75l-1-.26c.09-.34.17-.68.26-1,.28-1.07,2.45-3.52,3.23-4.5q3.14-3.94,6.55-7.64a4.34,4.34,0,0,0,.29-.33,6.67,6.67,0,0,0-.53-.47c-1.09-.94-2.18-1.91-3.27-2.86,0,0,0,0-.07,0-.18.16-.47.45-.51.49-4,4-8,7.24-11.13,12-.49.76-1.55,1.66-2.17,2.45a115.87,115.87,0,0,0-6.69,9.7,92.16,92.16,0,0,0-5.33,9.94c-.9,1.87-1.94,3.66-2.88,5.51a.32.32,0,0,0,0,.07,6.7,6.7,0,0,0,.44.66c.46.66.89,1.36,1.35,2l-.79.62c-.72-1.06-1.51-2.08-2.32-3.07,0,0,0,0-.05-.07l-.45-.55c-2.54-3.12-5.16-6.75-8.48-9l-.13-.08-.07-.05-.62-.39c-.28-.17-.58-.34-.88-.49l-.09,0,.6-.87c.33.15.66.31,1,.49,0,0,.42.24.62.38l.09,0a17.57,17.57,0,0,1,2.29,1.84,72.78,72.78,0,0,1,6.22,6.92,6,6,0,0,0,.44.55.28.28,0,0,0,0-.09q1.89-3.71,3.69-7.45c3-6.35,6.91-11.47,11.07-17.08.6-.8,1.65-1.64,2.11-2.39,3.21-5.19,7.78-8.62,12-12.87l.51-.49c.31-.34.68-.64,1-1-.19-.23-.4-.45-.59-.68l-.06-.09,0,0a7.11,7.11,0,0,1-1.16-1.85,2.12,2.12,0,0,1-.16-.81.59.59,0,0,1,.07-.29.6.6,0,0,1,.33-.35l.1-.06a16.94,16.94,0,0,0,4.31-4.46c1.21-1.67.83-1.52,1.73-.66l.07.09.07.07q.57.61,1.11,1.26c0,.05.3.37.46.54,0,0,.07,0,.07,0l.67-.58c.05,0,.37-.3.53-.46-.1-.13,0-.44,0-.51.25-10.43-.28-20.83-1-31.2,0-.06,0-.47-.05-.7h0v0h0s-.12,0-.13,0a4.94,4.94,0,0,1-1.26-.25,5.14,5.14,0,0,1-.67-.32l0,0-.07,0a3.71,3.71,0,0,1-1.33-1.51l.69-.14a2.34,2.34,0,0,0,.93,1l.12.07a6.18,6.18,0,0,0,.65.22,6.53,6.53,0,0,0,1.82-.09s.14-.07.21,0c0,.32.07.65.09,1a6.15,6.15,0,0,1,.06.69,300.25,300.25,0,0,1,1.15,30.89.81.81,0,0,0,0,.21l.74.14c4.86.84,12.1.28,16.38-2.37.13-.08.34-.14.24-.33l0-.07c0-.24-.14-.65-.16-.71-.13-.61-.27-1.22-.42-1.84l0-.11v-.06c-.06-.24-.15-.65-.17-.71-.13-.57-.26-1.15-.4-1.72,0,0,0-.07,0-.11v-.06c-.06-.23-.16-.65-.17-.7l-.39-1.62a.87.87,0,0,1,0-.1l0-.06c-.06-.24-.15-.65-.17-.71-.23-.94-.45-1.87-.69-2.81a1,1,0,0,0,0-.11v-.07c-.06-.23-.16-.64-.18-.7-.13-.53-.26-1.07-.4-1.6a.51.51,0,0,0,0-.09h0v0h0c-.06-.23-.16-.64-.18-.7-.13-.53-.27-1.06-.4-1.6,0,0,0-.09,0-.14h0c-.06-.24-.17-.65-.18-.7-.14-.54-.27-1.07-.41-1.6l0-.11h0v0h0c-.06-.24-.17-.64-.18-.7-.13-.53-.28-1.06-.41-1.59a.87.87,0,0,1,0-.1h0v0h0c-.06-.23-.16-.64-.18-.69l-.41-1.6a.54.54,0,0,0,0-.12h0v0c-.06-.23-.17-.63-.18-.69L65,106.36s0-.08,0-.12h0v0h0c-.06-.23-.17-.63-.19-.69-.13-.53-.28-1-.41-1.58a.62.62,0,0,1,0-.1v0h0c-.07-.23-.17-.64-.19-.69l-.42-1.58a.78.78,0,0,1,0-.14h0v0h0c-.06-.23-.17-.63-.18-.69-.15-.52-.29-1.05-.43-1.58,0,0,0-.09,0-.13h0v0h0c-.07-.23-.18-.64-.19-.69-.09-.34-.37-1.7-.59-1.77-1-.3-1.1.06-1.8-.94-1.31-1.86-2.36-6.66-2.1-8.88a2.44,2.44,0,0,1,.49-1.25.74.74,0,0,0,.09-.12h0l-.07-.59a3.33,3.33,0,0,1,.63,0l.14,0a.48.48,0,0,1,.18.06c.25,0,.41.42.44.44s.47,0,.86-.09l.16.56-1.68.49c-1,.29-.39,3.08-.24,3.91.23,1.23,1.06,5.24,2.34,5.67a.62.62,0,0,0,.46,0,3,3,0,0,0-.13-.72c-.12-.5-.27-1-.39-1.48a.63.63,0,0,0,0-.14h0v0h0c-.06-.23-.17-.63-.19-.69-.15-.56-.29-1.12-.44-1.68a.62.62,0,0,1,0-.1h0v0h0c-.06-.23-.17-.63-.19-.69-.1-.39,0-.73-.4-.82s-1.19-.29-.2-.63c.33-.11.7-.22,1.08-.31l.18.74-.07,0c0,.23.16.62.17.69.06.23.12.45.19.68a.93.93,0,0,0,0,.1c.06.23.17.63.19.69L62.27,93V93c.07.23.18.63.19.69.16.59.33,1.17.49,1.76a.56.56,0,0,0,0,.15v.06a3.06,3.06,0,0,0,.73-.27,35.62,35.62,0,0,0,4-2.13l.18-.1.62-.37c.27-.17,1.07-.76,1.38-.69a.15.15,0,0,1,.11,0,1.84,1.84,0,0,1-.43.78c-.25.37-.48.77-.73,1.14l0,.06-.27.47-.76-.08.1-.17a.6.6,0,0,0-.13.08,36.56,36.56,0,0,1-3.38,2c-1.21.6-1.12.28-.78,1.55,0,0,.13.46.19.69,0,0,0,.08,0,.08.14.56.3,1.12.44,1.68,0,.06.13.46.19.69h0v0a.68.68,0,0,1,0,.15c.14.53.28,1,.43,1.58,0,.06.12.46.18.69h0v0h0l0,.1.42,1.58c0,.06.12.46.18.7h0l0,.1c.14.53.28,1.06.41,1.59,0,.06.13.46.19.69,0,0,0,.07,0,.07.14.57.29,1.13.44,1.69,0,.06.12.46.18.7h0a.15.15,0,0,0,0,.08c.16.55.3,1.11.46,1.66,0,.06.13.46.19.69,0,0,0,.09,0,.09.15.56.31,1.11.47,1.66,0,.06.13.46.19.68v0h0v0a.58.58,0,0,1,0,.13c.14.52.29,1,.44,1.57,0,.06.12.46.18.69h0v0s0,.12,0,.13c.14.53.29,1.06.42,1.59,0,.06.11.46.17.7l0,.06,0,.13c.22.94.46,1.87.69,2.81,0,.06.11.47.17.7l0,.07a.64.64,0,0,0,0,.09c.12.54.25,1.08.38,1.61,0,.06.12.47.17.71a.21.21,0,0,1,0,.06c.15.6.29,1.21.43,1.82,0,.06.11.47.16.71l0,.07a.81.81,0,0,0,0,.11l.42,1.83c0,.06.11.48.16.71v.07s0,.1,0,.11a5.33,5.33,0,0,0,.68,1.45l.36.64s0,.08,0,.08c.28.51.56,1,.82,1.55l.34.66,0,0ZM58.75,148.14a2.43,2.43,0,0,0,.44-.62c-.14-.19-.42-.5-.46-.54-2.51-2.87-4.87-5.89-7.36-8.78l0-.06c-.15-.18-.43-.49-.47-.53-.43-.49-.87-1-1.32-1.43l-.06-.05h0a6.9,6.9,0,0,0-.45.54,23.36,23.36,0,0,1-3.95,4.06s-.07,0-.09.08c.17.16.49.41.54.45.3.24.59.5.89.73l.09.08.09.07.55.46c.38.32.79.62,1.16,1l0,.05.1.07.54.46c.62.51,1.22,1,1.83,1.55a.65.65,0,0,1,.1.09.63.63,0,0,1,.12.11.48.48,0,0,1,.11.09l.54.47c.53.46,1.08.92,1.59,1.41l.09.09.52.48c.21.19,2.05,2.05,2.06,2.06C56.34,150.59,58.39,148.54,58.75,148.14Zm-9.39.59c0,.05.16.21.25.14,0-.26-.44-.44-.6-.67s-.48-.44-.53-.48c-.68-.61-1.34-1.24-2-1.85l-.06-.06c-.16-.13-.3-.3-.47-.42l-.12.09c.09.25.6.62.71.72C47.45,147,48.36,148,49.36,148.73Zm-.26.68s0,0,0-.06a3.09,3.09,0,0,0-.62-.6c-1.06-.89-2.06-1.88-3.16-2.72,0,0,0,0-.06,0h0a5.59,5.59,0,0,0,.51.47c1,.93,2.15,2.08,3.23,2.91C49,149.4,49.07,149.43,49.1,149.41Zm-.46.23c.12.07.17.15.26,0a4.54,4.54,0,0,0-.57-.55c-1-.95-2.07-1.93-3.15-2.85a.1.1,0,0,0-.07-.05h0a1.37,1.37,0,0,0-.2.22,7,7,0,0,0,.52.47A41.28,41.28,0,0,0,48.64,149.64Z"/><path class="cls-1" d="M62.15,58.5a20.23,20.23,0,0,1,.42,6.25c0,.06,0,.42-.07.63l0,.11c0,.06,0,.17,0,.19a11.2,11.2,0,0,1-.21,1.13s-.08.42-.14.62a.62.62,0,0,1,0,.1c-1.35,5.12-5.42,9-10.92,8.9-.06,0-.47,0-.7,0a.41.41,0,0,1-.16,0h-.07A11.79,11.79,0,0,1,49,76.18c-.06,0-.47-.11-.7-.18l-.06,0a.33.33,0,0,1-.14,0c-.24-.09-.49-.15-.72-.25a.35.35,0,0,1-.13,0l-.06,0a16,16,0,0,1-3-1.64,6.21,6.21,0,0,1-.58-.43l-.08-.06-.07-.06a.49.49,0,0,1-.1-.08A13.94,13.94,0,0,1,41.9,72s-.34-.33-.49-.51a.73.73,0,0,1-.14-.16l-.08-.07c-.48-.52-.92-1.09-1.35-1.66,0,0-.28-.38-.41-.58l-.07-.09s0-.08-.06-.08q-.45-.68-.87-1.38s-.25-.42-.37-.64a.39.39,0,0,1-.06-.11l-.06-.1c-.41-.72-1.1-1.52.29-1.45l.72,0h.18c.78,0,1.56,0,2.33,0,.06,0,.47,0,.71,0h.08c1.72-.23,3.43-.37,5.13-.75l.71-.16.16,0a42.09,42.09,0,0,0,5.57-1.81l.62-.25a.45.45,0,0,1,.13-.06,35.75,35.75,0,0,0,3.91-2l.63-.38.09,0c.56-.34,1.12-.71,1.66-1.09l.59-.41a.47.47,0,0,1,.42-.12.54.54,0,0,1,.24.37A.63.63,0,0,1,62.15,58.5Zm-1.21,4.14c1.12-1.13,1.09-1,.88-2.49-.06-.4-.11-.79-.2-1.18a.26.26,0,0,0,0-.1h0l-.6.4a9.64,9.64,0,0,0-1.3.84l0,0c.05.23.17.63.18.69a14,14,0,0,0,.57,2.06s0,.13.06.17A3.9,3.9,0,0,0,60.94,62.64Zm.15,5.92c0-.18.16-.31-.06-.28a.49.49,0,0,1-.17,0h-.62c-.26,0-.53,0-.8.08h-.06l-.72.17a10.51,10.51,0,0,0-1.53.59l-.08,0-.13.07c-.22.12-.58.34-.63.38A11.46,11.46,0,0,0,53.5,72.2l-.08.1-.41.58a10.68,10.68,0,0,0-1.17,2.46.25.25,0,0,1,0,.07l0,.12a1.16,1.16,0,0,0,0,.18,2.74,2.74,0,0,0,.83,0A10.46,10.46,0,0,0,61.09,68.56ZM59.64,63.8c.68-.23.11-1.47,0-1.71-.14-.52-.26-1.06-.42-1.58,0,0,0-.08-.05-.1l-.63.36c-1.13.64-2.3,1.23-3.49,1.76L55,62.6c0,.23.16.63.18.69.09.34.62,2.54.72,2.66s0,.11,0,.13c.21-.08.57-.25.62-.28.47-.23.93-.5,1.38-.77L58,65l.49-.34c.35-.24.68-.47,1-.73l.08-.06h0ZM55.4,66.31a2.65,2.65,0,0,0-.16-.79c-.22-.89-.4-1.82-.7-2.68,0,0,0,0,0,0h0c-.2.08-.56.24-.62.25-1.77.71-3.51,1.13-5.29,1.72l-.07,0c0,.23.17.63.18.69a26.23,26.23,0,0,0,.77,2.61s.89-.16,1-.18l.08,0h.06l.63-.15a30.43,30.43,0,0,0,4-1.34Zm-6.47,1.85a5.35,5.35,0,0,0-.18-.67c-.24-.81-.44-1.64-.67-2.46a.79.79,0,0,0,0-.13h0l-.72.15c-1.59.33-3.19.5-4.8.71h-.06a3.86,3.86,0,0,0,.17.68A6.39,6.39,0,0,0,43.06,68s.15,0,.19,0l.64.12c.49.07,1,.09,1.47.16h.1l.73,0a19,19,0,0,0,2-.08l.14,0,.15,0A3.79,3.79,0,0,0,48.93,68.16Zm-6.52-.31h.07c0-.22-.16-.61-.17-.67-.12-.43-.21-.87-.34-1.29a.16.16,0,0,0,0-.08h-.08l-.71,0c-.12,0-.92,0-1,0s-.09,0-.09,0c0,.23.18.61.19.67s.14.62.41.77l.08,0,.67.21Z"/><path class="cls-1" d="M61,101.12c0,.09-.15.14-.16.15-.66.62-2.73.69-3.59.6,0,0-.43-.06-.64-.11h-.05l-.11,0a3.82,3.82,0,0,1-1.83-1,2.84,2.84,0,0,1-.41-.6c-1.16-2.38,1.41-4.68,2.92-5.5a3.32,3.32,0,0,1,.7-.3s.19,0,.19,0c0,.17,0,.06-.19.24-1.29,1.12-3.24,2.48-3,4.47a2.81,2.81,0,0,0,.19.69l0,.06a.33.33,0,0,0,0,.06,3.43,3.43,0,0,0,.94.92,7,7,0,0,0,.7.31l.06,0a8.2,8.2,0,0,0,3.27.18A2.48,2.48,0,0,1,61,101.12Z"/><path class="cls-1" d="M43.69,53.07a.47.47,0,0,1,0,.17v.15a5,5,0,0,1-.38,1.75,2.32,2.32,0,0,1-.43.62.58.58,0,0,1-.74.08l-.12-.1-.08-.09a3.64,3.64,0,0,1-.64-1.86c0-.07,0-.48,0-.72a.64.64,0,0,0,0-.14A5.71,5.71,0,0,1,41.59,51a2.88,2.88,0,0,1,.37-.63.4.4,0,0,1,.13-.13.72.72,0,0,1,.27-.15.55.55,0,0,1,.54.16.34.34,0,0,1,.12.12l0,.06a4.19,4.19,0,0,1,.59,1.91A6.09,6.09,0,0,1,43.69,53.07Z"/><path class="cls-1" d="M41.38,30.06a.22.22,0,0,1-.06.24.29.29,0,0,1-.27,0h0s0,0,0,0a4.84,4.84,0,0,0-1.12-1,3.17,3.17,0,0,0-.72-.29h-.05l-.12,0c-2.24-.15-3.09,1.81-4.12,3.38-.07.1-.32.56-.58.66-.06-.08,0-.25,0-.29.07-1.63,2-4.25,3.6-4.65a3.44,3.44,0,0,1,.78-.08,2.19,2.19,0,0,1,.72.14l.11,0A4,4,0,0,1,41,29.3,2.24,2.24,0,0,1,41.38,30.06Z"/><path class="cls-1" d="M38.2,163.49l1,.26a81.42,81.42,0,0,1-4.59,14.89c0,.06-.18.42-.28.63,0,0,0,.1,0,.11A51.4,51.4,0,0,1,21.93,196l-.5.42s0,.1,0,.11c.08.26.17.51.25.76,0,.06.12.46.19.69v.06a.26.26,0,0,1,0,.1,7.69,7.69,0,0,1,.23,2.48,4,4,0,0,1-.14.75,1.47,1.47,0,0,1-.06.19,3.4,3.4,0,0,1-2.38,2.19l-.2-.95c.69-.11,1.29-.51,1.07-1.32l0-.06,0-.09c-.08-.22-.2-.6-.22-.65q-.22-.59-.48-1.14l.59-.26c.14.32.3.62.47.93a.75.75,0,0,0,.09.19,4.14,4.14,0,0,0,0-.79c0-.4-.12-.8-.19-1.19,0,0,0-.06,0-.09l0-.07c-.05-.24-.15-.65-.16-.71-.12-.46-.25-.91-.39-1.36a.43.43,0,0,1,0-.11c-.08-.21-.21-.58-.23-.64-.29-.77-.66-1.5-1-2.24l-.06-.11-.05-.08-.35-.65c-.28-.51-.56-1-.88-1.5a.37.37,0,0,0-.07-.1l0-.07-.4-.6.79-.62c.15.22.31.44.47.65l0,0,0,.07c.14.2.36.56.39.61.32.52.63,1,.93,1.58a.43.43,0,0,1,.05.1c.13.21.33.59.36.64.3.55.56,1.12.82,1.68,0,0,0,.09.07.11a5.71,5.71,0,0,0,.49-.48,52.63,52.63,0,0,0,11.34-15.38l.22-.45v0h0l.3-.63A85.52,85.52,0,0,0,38.2,163.49Z"/><path class="cls-1" d="M37.54,49.93c1.1.41.64,2.22.06,3.24a3.06,3.06,0,0,1-.48.62.54.54,0,0,1-.95-.31l0-.06a.51.51,0,0,1,0-.09,4.14,4.14,0,0,1,.6-2.7C36.82,50.49,37.17,50,37.54,49.93Z"/><path class="cls-1" d="M35.93,162.57c.69.51-1,1.9-1.38,2.25,0,0-1.4,1.33-2,.87,0-.15.22-.27.27-.32a12.1,12.1,0,0,0,2.43-2.2c.05-.06.26-.5.53-.59A.82.82,0,0,1,35.93,162.57Z"/><path class="cls-1" d="M20.29,199.31l-.59.26A36.7,36.7,0,0,0,18,196.29s0-.06-.06-.09c-.13-.21-.35-.57-.38-.63l-1.06-1.69,0,0,0-.06-.39-.61-.92-1.47L15,191.6l0,0-.37-.63c-.3-.49-.57-1-.9-1.47l0,0,0-.06-.39-.6c-2.84-4.33-6.48-8.93-10.64-12l-.11-.07c-.3-.19-.59-.42-.91-.59a3.56,3.56,0,0,0-.11.77,18.3,18.3,0,0,0,.61,4.4.75.75,0,0,1,0,.11c0,.23.16.64.17.69.17.66.35,1.31.57,1.95l0,.13.23.66c.2.57.42,1.15.66,1.71a.46.46,0,0,1,0,.09l0,.09c.08.21.25.56.27.61.28.62.59,1.24.9,1.86l0,.07.05.09.36.65c.26.48.55.94.83,1.42a.56.56,0,0,1,0,.08l0,0c.13.2.35.56.39.61.79,1.24,1.73,2.36,2.62,3.52l0,0,.07.09.47.54c.35.39.71.79,1.08,1.17l.09.09.07.09c.16.17.46.46.5.5.69.69,1.4,1.36,2.15,2l.08.06.08.07.56.45c.43.33.87.64,1.31.94l.07.05.64.37a6.3,6.3,0,0,0,1.37.63l.12,0h.05l.63.12a3.12,3.12,0,0,0,.61,0l.2.95h0a3.24,3.24,0,0,1-1,.07s-.44,0-.66-.09h-.05l-.08,0a9.3,9.3,0,0,1-1.74-.63c-.05,0-.45-.21-.66-.34l-.08,0-.06,0a17.37,17.37,0,0,1-1.54-1l-.57-.42-.07,0c-.83-.7-1.66-1.42-2.44-2.19l-.49-.5-.06-.05c-.4-.44-.81-.87-1.2-1.31a6.53,6.53,0,0,1-.47-.53l-.05,0a24,24,0,0,1-2.85-3.78c0-.06-.26-.41-.39-.62l0-.07a.28.28,0,0,0-.05-.08c-.3-.46-.57-.94-.83-1.42,0-.05-.24-.43-.35-.65l-.06-.08s0-.11,0-.12c-.33-.64-.65-1.28-1-1.94,0-.05-.16-.41-.26-.61l0-.09,0-.06c-.27-.59-.49-1.2-.7-1.81,0,0-.16-.43-.23-.65a.5.5,0,0,1,0-.13.51.51,0,0,0,0-.1c-.21-.67-.43-1.34-.6-2,0-.06-.12-.47-.18-.7l0-.09a.49.49,0,0,0,0-.07c-.12-.55-.24-1.11-.33-1.67-.34-2.1-1-5.84,2.34-5a6.6,6.6,0,0,1,.68.19l.1,0c.34.11.68.25,1,.39l-.6.87h0c.17.15.49.41.54.44,2.88,2.37,5.65,6,7.85,9.05.72,1,1.41,2,2.07,3.06l.06.1c.13.2.35.57.38.62.3.49.59,1,.9,1.48l0,.06.39.61,1,1.54s0,.05,0,.07l.39.61c.35.57.71,1.14,1,1.72l0,.07,0,.05c.13.21.34.58.37.63C19.42,197.38,19.83,198.37,20.29,199.31Z"/><path class="cls-1" d="M79.05,138.13c.66,2.62,1.38,6.43,1.12,7s-9,3.13-13.06,3.92l-.17-.83A73.25,73.25,0,0,0,78.74,144c.28-.3-.24-3.83-.71-5.63Z"/><path class="cls-1" d="M67.11,149a8,8,0,0,1-1.79.23c-.71-.07-2.46-4.4-2.14-4.83s3.55-1.54,6.86-3.48c4-2.32,7.73-5.3,8.18-5.29a7.71,7.71,0,0,1,.83,2.5l-1,.24c-.16-.61-.31-1-.43-1.05-.29-.06-3.44,2.62-6.85,4.56a70,70,0,0,1-6.43,2.89c-.2.25,1.21,3.41,1.52,3.48a3.27,3.27,0,0,0,1.1-.08Z"/></g></g></svg>