<svg xmlns="http://www.w3.org/2000/svg" viewBox="0 0 100.01 216"><defs><style>.cls-1{fill:#262424;}.cls-2{fill:#eccda1;}.cls-3{fill:#fff;}.cls-4{fill:#b4d5b0;}.cls-5{fill:#fbf49b;}.cls-6{fill:#c85e5e;}</style></defs><title>event-right-girl</title><g id="Слой_2" data-name="Слой 2"><g id="Character_Art" data-name="Character Art"><path class="cls-1" d="M99.25,211.43a36.88,36.88,0,0,0-5-.79l-.12,0H94c-.22,0-.61-.07-.66-.08-1-.11-2.07-.26-3.11-.33H90l-.67-.07-.79-.07-.15,0h-.16l-.67-.07c-1.41-.12-1.14.37-.34,1.06l.07.06a5.14,5.14,0,0,1-.67-.16l-.69-.17-.09,0-.7-.16c-.71-.16-1.43-.29-2.15-.43l-.1,0-.64-.11c-.52-.08-1-.13-1.55-.17h-.17c-.21,0-.41,0-.62,0s-.2,0-.25.08c.11.27.42.4.64.58l.06,0a7.34,7.34,0,0,0,.71.42c-.22,0-.63-.09-.7-.1-1-.17-2.08-.33-3.12-.44a.27.27,0,0,0-.13,0l-.14,0-.67-.07c-.63-.06-4.11-.35-2.2,1l.1.07c-.25,0-.68-.08-.75-.08l-1.2-.16h-.11l-.11,0-.65-.08c-.52-.07-1-.12-1.56-.16h-.08a1.1,1.1,0,0,0-.18,0c-.23,0-.63,0-.68-.06a8.54,8.54,0,0,0-1.43,0l-.14,0a.21.21,0,0,0-.15.36h0a6.14,6.14,0,0,0,.62.73,4.38,4.38,0,0,1-.76,0c-2.21-.16-4.57-.82-6.76-.87-1.15,0-.28.78.1,1.09,0,0,.06,0,.07.07l-.68-.17c-1-.26-2-.46-3-.66l-.11,0-.72-.15c-.5-.08-1-.17-1.51-.21h-.2a5.32,5.32,0,0,0-.7,0,1.46,1.46,0,0,0-.68.09,3.22,3.22,0,0,0,1.1.86l.06,0,.25.14c-.22,0-.63-.1-.69-.11-1.08-.18-2.16-.35-3.24-.45h-.13l-.14,0-.67-.07c-.66-.06-3.93-.33-2.09,1l.11.08c-.25,0-.68-.08-.74-.09l-.87-.11-.17,0-.65-.09c-.81-.11-1.64-.2-2.45-.25h-.14a.61.61,0,0,0-.19,0c-.23,0-.65,0-.71,0-1.35,0-1.48.1-.56,1.09,0,0,.06.05.07.08a3.24,3.24,0,0,1-.69,0h-.35l-.72,0c-.86,0-1.71,0-2.56,0h-.89c-.76,0-1.54,0-2.3,0a.53.53,0,0,1-.14,0c-.24,0-.65,0-.71,0a5.62,5.62,0,0,0-1.61.24s-.09,0-.08.09a1.94,1.94,0,0,0,.83.38c.42.12.85.22,1.28.32l.13,0,.06,0,.72.14c.72.15,1.45.28,2.17.41a.45.45,0,0,0,.16,0l.63.11c.88.15,1.76.3,2.65.42l.16,0,.11,0,.64.1,2,.25.14,0h.12l.66.09c.44,0,2.61.34,2.89.11,0,0,.06,0,.06-.06a2.46,2.46,0,0,0-.49-.61,11.27,11.27,0,0,0-1.44-1.14s-.06,0-.07-.06a4.44,4.44,0,0,1,.7.12l.18,0,.06,0h.06l.71.16,2.44.51h.19l.09,0,.63.11a11.09,11.09,0,0,0,2.69.24h.1l.09,0a.58.58,0,0,0,.31-1.07,8.35,8.35,0,0,0-1.07-.81c.24,0,.66.11.72.12l3.66.77.13,0,.12,0,.71.15c.77.16,3.95,1.07,4.25.12.11-.37-.59-.79-.65-.87l.09,0,.68.19c.75.2,1.51.39,2.27.55l.12,0h.07a4.93,4.93,0,0,0,.64.09c.06,0,.33.05.46,0,.1-.39-.27-.75-.47-1.07l-.07-.08c0-.07-.15-.14-.13-.19.23,0,.61.06.67.06,1.46.17,2.9.48,4.36.68h.09l.1,0,.65.09c1,.12,3,.43,1.36-1a1.64,1.64,0,0,1-.19-.13,3.84,3.84,0,0,1,.64.1l.06,0,.71.15c.71.15,1.42.31,2.13.45l.15,0h.06c.2.05.57.11.62.12.77.13,3.75.78,4.13,0,.24-.5-.92-1.26-1.31-1.53a4.23,4.23,0,0,1,.7.12c1,.21,2.1.46,3.15.66l.1,0h.07c.23.06.65.14.71.15.68.15,1.36.3,2,.42l.12,0h.06l.62.12a3.52,3.52,0,0,0,1.58.07l.16-.08a.31.31,0,0,0,.16-.12.36.36,0,0,0,.08-.46.32.32,0,0,0-.1-.17c-.08-.2-.47-.36-.49-.38s-.1,0-.12-.07c.23,0,.65.1.71.11.55.09,3.35.66,3.46.1a3.06,3.06,0,0,0-.42-.69c.23,0,.64,0,.7,0,.7,0,1.4.09,2.11.11H94l.72,0c.94,0,4.48.18,5.14-.26,0,0,.17-.08.16-.18A1.68,1.68,0,0,0,99.25,211.43Z"/><path class="cls-2" d="M41.29,104.86c.38.1,1.13,0,1.34.25-.08.17-.49,0-.64,0a4,4,0,0,1-.75-.12.25.25,0,0,1,0-.17h0Z"/><path class="cls-2" d="M42.62,106.08a2.46,2.46,0,0,1-1.43-.19s0,0,0,0C41.65,105.94,42.3,105.87,42.62,106.08Z"/><path class="cls-2" d="M41.81,106.71a6.48,6.48,0,0,1-.65-.08s0-.12,0-.15c.44.1,1.13,0,1.46.25A1.76,1.76,0,0,1,41.81,106.71Z"/><path class="cls-2" d="M41.14,107c.46.11,1.19,0,1.5.26-.3.18-1.14,0-1.52-.11a.34.34,0,0,1,0-.14h0Z"/><path class="cls-2" d="M41.84,107.7a3.16,3.16,0,0,1-.75-.12.51.51,0,0,1,0-.21c.43.11,1.28,0,1.52.29C42.57,107.85,42,107.71,41.84,107.7Z"/><path class="cls-2" d="M56.92,105.94c.08,0,.11.09.07.14a.56.56,0,0,1-.49,0C56.57,106,56.79,106,56.92,105.94Z"/><path class="cls-3" d="M80.54,50.12c.49,2.55-.16,4.82-3.19,5.37a5.27,5.27,0,0,1-.72.09,1.36,1.36,0,0,1,0-.18A7.87,7.87,0,0,0,76.55,54a5.52,5.52,0,0,0-.16-.71v-.07s0-.12,0-.13c-1.21-3.26-3.62-1.2-5.07.61,0,0-.25.33-.4.47a.19.19,0,0,1-.09,0,11.83,11.83,0,0,1-1.28-.85A14.39,14.39,0,0,1,67.7,51.7l-.46-.52,0,0c-.32-.46-.69-.88-1-1.35,0-.05-.25-.4-.37-.61l0-.05a.48.48,0,0,1,0-.11,13.88,13.88,0,0,1-.58-1.38c0-.06-.11-.46-.18-.68v0h0s0-.13,0-.14a6.83,6.83,0,0,1,.59-4.62c0-.06.26-.4.4-.59h0l.11,0c1.55.25,3.1.53,4.65.76.73.11,1.54,1,2.25,1.44l.65.34.12,0,.11.05a7.8,7.8,0,0,0,2.41.67l.17,0a2.22,2.22,0,0,0,1.19-.38c.17,0,.51.42.72.64l.31.37,0,0c.24.43.55.82.8,1.25a1.14,1.14,0,0,0,.1.19c0,.06.21.45.3.68h0v0h0s0,.11,0,.12a14,14,0,0,1,.44,1.53c0,.07.09.48.14.72h0v0Z"/><path class="cls-4" d="M75.08,203.09c0,.61-1.27,1-1.42,1s-.41.1-.61.17l-.13,0a20.91,20.91,0,0,1-3.5-.64l-.63-.11s-.15,0-.16,0c-.51-.27-.9-.75-1.53-1,0,0-.41-.18-.61-.25l-.06,0-.43-.12a7.56,7.56,0,0,0-4-.12l-.6.2,0,0c-.68-.76-.33-1.27.34-1.61a8,8,0,0,1,2.58-.62l.68,0H65a20.23,20.23,0,0,1,5.31.72l.69.18h0l.15,0c.51.14,1,.29,1.5.47,0,0,.41.16.6.25h0l.11,0a4.55,4.55,0,0,1,1.18.8,1.71,1.71,0,0,1,.43.67h0Z"/><path class="cls-2" d="M33,72.17s-.14,0-.16,0a3.84,3.84,0,0,1-.59,0A7.49,7.49,0,0,0,30.3,72c-2,.28-1.49,1-.23,1.72.05,0,.42.23.61.37h0a5.81,5.81,0,0,1,.54.4c.34.31.83.68.59,1.11C30.77,77.55,28,78,26.05,77.35l-.63-.22-.08,0A10.55,10.55,0,0,1,24,76.35l-.57-.41-.06-.06-.08-.06a12.9,12.9,0,0,1-1.13-1.09s-.3-.35-.45-.53l-.07-.09-.08-.1a11.83,11.83,0,0,1-1.11-1.84s-.21-.44-.32-.66l0-.09,0-.06a15.74,15.74,0,0,1-.71-1.63c0-.06-.15-.43-.21-.65a.62.62,0,0,0,0-.14,9.6,9.6,0,0,1-.33-2.87s.05-.45.06-.68c0,0,0-.1,0-.1.38-2.24,1.6-4.21,3.91-4.82l.72-.14h.1a7.5,7.5,0,0,1,2,.06l.69.17.07,0,.12,0a6.21,6.21,0,0,1,1.24.61l.59.39a.55.55,0,0,1,.1.08A9.25,9.25,0,0,1,30.66,64c.08.12.36.7.59.81,0,0,.06,0,.1-.07s0,.06.06.06a11.92,11.92,0,0,0,2.27,2.53,2.77,2.77,0,0,0,.68.31.32.32,0,0,0,.17,0c3.13-.26,2.79-5,2.46-7.42,0-.07-.09-.51-.09-.75a1.57,1.57,0,0,0,2-.21A.24.24,0,0,0,39,59.2l0-.07a.78.78,0,0,0,.05-.12c.86-2.17.3-5.25-.22-7.51l.07,0c.05.14.26.24.7.22a33.74,33.74,0,0,0,5.62-1.14c.05,0,.34-.09.57-.13l.12,0c.06.18.16.5.17.55l.23.63,0,.07s.05.12.06.13a13.54,13.54,0,0,0,.73,1.48s.24.41.37.61l0,.08.05.08a15.31,15.31,0,0,0,6,5.34l.6.27.1,0a15.37,15.37,0,0,0,1.66.55l.7.15h0l.14,0a22.74,22.74,0,0,0,2.94.38c5.27.27,8.68-2.78,7.41-8.25,0-.06-.13-.45-.17-.67l0,0c.74.61,1.34,1.22,2.06,1.79.25.19.5.37.77.55a4.86,4.86,0,0,1,.59.38c0,.05-.07.11-.07.12-.57.78-1.18,1.54-1.72,2.34a2.15,2.15,0,0,0-.32.6c.06,0,.15-.05.18-.06a17.69,17.69,0,0,0,2.32-2.1l.5-.49.07-.08a17.54,17.54,0,0,1,2-1.92c1.31-1,1.18-.34,1.61.56v.08s0,.13,0,.14a6.11,6.11,0,0,1,.2,1.27c0,.06,0,.48,0,.72a1.31,1.31,0,0,0,0,.17,35.35,35.35,0,0,1-.86,4.68,2.16,2.16,0,0,0-.06.82c.11,0,.17-.12.2-.16.64-.6,1.55-3.39,1.74-4.29,0-.06.09-.48.14-.72l.09,0h0a4.83,4.83,0,0,0,4.12-2.15,5.73,5.73,0,0,1,.33-.64c.1,0,.19.12.28.17l.08,0,.1.07a20.71,20.71,0,0,1,5.54,5.54s.26.39.38.59l0,.08,0,.06c.25.49.53.95.76,1.45a6,6,0,0,1,.26.6l0,.07s0,.08,0,.08a15,15,0,0,1,.5,1.47c0,.06.12.46.17.69l0,.06s0,.1,0,.12c1.83,9.11-5.72,16.48-13.29,20.08l-.62.29-.09,0-1,.45a3.47,3.47,0,0,1-.72.28c-.09-.22-.22-.63-.24-.69s-.15-.42-.24-.63l0-.07,0-.1A27.22,27.22,0,0,0,72,81.76l-.35-.64,0-.08a.17.17,0,0,1,0-.07,25,25,0,0,0-1.38-2.18l-.41-.57-.09-.11L69.63,78a7.39,7.39,0,0,0-1.7-1.5c-.05,0-.4-.26-.61-.37l-.1,0c-2.68-1.26-3.75,0-3.2,2.73,0,.06.11.47.17.7l0,.07,0,.09a22.94,22.94,0,0,0,1.14,2.92c0,.05.17.4.27.6l0,.08,0,.06c.35.68.69,1.35,1,2l.35.64,0,.08,0,0c.16.25.3.52.45.77a7.11,7.11,0,0,1,.36.62l-.17,0A33.18,33.18,0,0,1,53,87.65l-.69-.18-.07,0c-.82-.24-1.64-.46-2.44-.76l-.63-.23-.12,0-.35-.15s-.4-.16-.61-.25L48,86l-.06,0c-.75-.34-1.49-.72-2.21-1.12l-.62-.36L45,84.4c-.75-.47-1.48-1-2.21-1.48l-.58-.4-.07-.06-.06,0a30.65,30.65,0,0,1-2.61-2.2c-1-.89-.74-.73-.94-2,0,0-.09-.42-.12-.62v-.07a.63.63,0,0,1,0-.14,10.37,10.37,0,0,0-.62-1.72L37.34,75l0,0a6,6,0,0,0-2.46-2.22l-.6-.26c-.27,0-.3-.19-.33-.35a8.16,8.16,0,0,0-.38-1.83c-.06-.15-.33-.67-.67-.79,0,0,0,.09,0,.09,0,.2.15,1.47.15,1.83A3.34,3.34,0,0,1,33,72.17Zm-4.59-4.35c-2.42-.27-5.71,1.8-3.86,4.49a2.75,2.75,0,0,0,.52.52h0c.14.06.27.17.42.13s0-.31-.06-.46a6.48,6.48,0,0,0-.24-.61c-1.05-2.7,2.43-3.43,4.32-2.53l.25.12a.51.51,0,0,0,.24.07.63.63,0,0,0,.78-.7,2.41,2.41,0,0,0-.22-.76,8.34,8.34,0,0,0-1.07-1.77l-.06-.08-.07-.08c-.15-.18-.42-.47-.47-.52A7.12,7.12,0,0,0,26,63.87l-.07,0c-.21-.05-.59-.1-.64-.11s-.47,0-.71,0-.66.11-.73.13c-1.37.36-3,1.42-2.57,2.92a2.15,2.15,0,0,0,.45-.57A3.89,3.89,0,0,1,25.56,65h.08l.06,0a6.48,6.48,0,0,1,.62.23A7.43,7.43,0,0,1,28.41,67l.07.07a6.75,6.75,0,0,1,.62.89ZM63.9,74c.19,0,.43.16.58.07a1.9,1.9,0,0,0-.21-.59l0,0c-.11-.21-.35-.55-.38-.6a2.34,2.34,0,0,0-2-1h-.07l-.19,0h-.06a4.51,4.51,0,0,0-.7.29c-.75.39-2.34,2.26-2.14,3.15,0,0,0,.11,0,.15a2.9,2.9,0,0,0,.59-.44,5.91,5.91,0,0,1,2.46-1l.12,0H62c.25,0,.68,0,.74,0a7.17,7.17,0,0,1,1,.06Z"/><path class="cls-2" d="M45.67,205a11.76,11.76,0,0,1,5.44-1.58l.67-.06.81-.06a5.77,5.77,0,0,0-.21-.79l0-.12c-1.54-6.43-1.32-13.1-.83-19.64.28-3.71.45-7.53.82-11.23a91.75,91.75,0,0,0,.11-16.07c0-.05,0-.45,0-.67a7.8,7.8,0,0,0,1.05.85l0,0,.08.05.08.05a5,5,0,0,0,1.47.61c.07,0,.46.05.69.05a.69.69,0,0,1,0,.25c.08.84.16,1.68.26,2.52.76,6.83,2.11,13.44,3.3,20.25a61.68,61.68,0,0,1,.53,18.5c0,.05-.05.41-.08.61v.1l0,.09a16.35,16.35,0,0,1-.85,3.81,2.24,2.24,0,0,1-.75.1c-.58,0-1.29,0-1.51.05-2.47.26-4.91,2-2.19,4.11.05,0,.38.28.58.4l.06,0c.3.2.63.34.94.51,0,0,0,.12,0,.12a7.07,7.07,0,0,1-.33,1,4,4,0,0,1-.17.61.54.54,0,0,1-.17,0c-.71,0-1.42-.13-2.12-.22,0,0-.44,0-.65-.09.18-.74-.5-1.07-1-1.24s-.72-.92-1.17-1.3c-.05,0-.37-.28-.57-.41l-.07,0-.05,0a8,8,0,0,0-1.71-.62c-.06,0-.47-.12-.71-.16l-.06,0-.14,0c-.28-.05-.55-.11-.83-.15a4.94,4.94,0,0,1-.7-.13Zm9.75-33c.23.3.47.78.9.73a6,6,0,0,0-.5-1h0l-.35-.63c-.07-.11-.31-.63-.58-.73-.16.35.15.93.24,1.1s.18.34.29.5h0Z"/><path class="cls-5" d="M93.79,98.18c.09.33-.28.58-.48.68-2,1.08-6.65.66-8.93.38l-.65-.09h-.1c-.87-.12-1.75-.29-2.6-.49l-.69-.16-.06,0-.08,0c-.62-.16-1.52-.61-2.16-.35-1.37.56.77,1.31,1.15,1.44l.62.24.08,0,.09,0c1.51.67,3.36,1.55,4.19,3.06a2.88,2.88,0,0,1,.27.72l0,.06c.16,1-1,1.48-1.57,1.65a5.78,5.78,0,0,1-.62.17h0l-.16,0a19.7,19.7,0,0,1-6.27-.22l-.63-.1a.26.26,0,0,1,0-.1c-.09-.52-.17-1-.23-1.57-.16-1.24-.29-2.51-.49-3.74a2.74,2.74,0,0,1-.07-.74l0-.11A8.81,8.81,0,0,0,75,96.92s.08-.42.11-.63c0-.05,0-.14,0-.15a21.55,21.55,0,0,0-.39-6c0-.06-.09-.49-.14-.73a.35.35,0,0,0,0-.06c-.13-.53-.24-1.07-.38-1.6,0,0-.11-.45-.17-.67l.67-.29.61-.25h0a1.57,1.57,0,0,0,0,.16c.12.93.25,1.87.38,2.81A24.3,24.3,0,0,0,76.33,93c.1.2,1.42.2,1.74.22l.31,0,.38,0c0,.06.1,0,.16,0s.1,0,.11,0a44.21,44.21,0,0,1,5.72.91l.7.16.06,0,.1,0,1.64.45.65.21.07,0,.14,0c.85.29,1.69.59,2.51.93l.61.26,0,0a9.7,9.7,0,0,1,2,1.16A2.08,2.08,0,0,1,93.79,98.18Z"/><path class="cls-5" d="M92.72,34c0,.19-.19.39-.25.45-1.53,1.38-5,2-7,2.25l-.61.07-.16,0a4,4,0,0,1-.6,0c-2-.1-4.16-.63-6.16-.85a6,6,0,0,0-.67-.06.56.56,0,0,0-.16,0l-1.29-.06c-.12,0-.61-.08-.82.08,0,0,0,.09,0,.1.21.35,1,.44,1.32.53l.71.16h0l.11,0c1.62.32,3.25.54,4.88.8l0,.26H82c-.67,0-2.66,2.54-3.16,3.13-.7.85-.49,1-1.6.91l-.68-.05a.44.44,0,0,0-.16,0,.52.52,0,0,0-.17,0l-1.12-.12-.66-.07a.26.26,0,0,0-.11,0c-2.65-.29-5.3-.67-7.93-1.16l-.63-.11-.08,0c-.68-.14-1.36-.26-2-.42-.06,0-.46-.1-.69-.17h-.06l-.09,0-2-.51L60.14,39a.41.41,0,0,0-.12,0c-.94-.26-1.88-.53-2.83-.74a2.11,2.11,0,0,0-.92-.11c0,.06.08.11.08.11s2.39,1.24,2.67,1.39l.62.37.07.05c.39.26,1.45,1.13,1.17,1.62-.39.66-3.27.89-4,.93l-.61,0a.56.56,0,0,0-.16,0c-1,0-1.93-.07-2.91-.17,0,0-.43,0-.64-.09,0,0,0-.05,0-.05.16-.49.57-.86.53-1.44-.12-1.57-1.23.38-1.52.74,0,0-.28.34-.42.5a.13.13,0,0,1-.14,0c-.81-.07-1.62-.27-2.42-.41L48,41.54h-.06L45.46,41c-.06,0-.47-.12-.7-.16l-.12,0c-.56-.13-1.11-.28-1.67-.43l-.67-.18-.07,0c-.6-.19-1.21-.37-1.82-.53a5.91,5.91,0,0,1-.68-.17l-.07,0-.09,0-1.79-.55-.64-.22-.07,0-.07,0c-.51-.18-1-.35-1.54-.55-.05,0-.41-.17-.62-.24l-.06,0-.11,0L32.85,37l-.6-.26-.09-.05a3.37,3.37,0,0,1-.84-.38,16.65,16.65,0,0,1,.2-2.76,4.05,4.05,0,0,1,.11-.75l.68.19s.46.12.69.16h.07l.12,0a22.43,22.43,0,0,0,4.09.34c6.12,0,13.49-2.75,13.31-10.06,0-.06,0-.47,0-.69,0,0,.06,0,.06,0,.72.27,1.41.66,2.13.94l.63.23.11,0c.56.2,1.13.37,1.7.52l.7.16H56c4.62,1.19,11.38.15,12.91-5,0-.06.11-.45.19-.66l.07,0c.24.17.46.36.69.54,0,0,.36.29.54.44l.06.05c.4.38.83.73,1.22,1.11.05,0,.34.32.5.49a.38.38,0,0,0,.08.09c.42.45.84.89,1.23,1.36,0,0,.3.35.44.54l0,0,0,.06c.47.61.91,1.23,1.33,1.88l.38.6,0,.08.06.11c.27.47.54.95.77,1.45,0,0,.16.4.26.59l0,.09a.21.21,0,0,1,0,.06,17.29,17.29,0,0,1,.62,1.84c0,.06.12.46.18.68v.07c0,.18.13.51.14.55.14.59,0,1,.64,1,4.44,0,9-.14,13.36.78C92,33.62,92.56,33.71,92.72,34ZM66.55,30.26a2.24,2.24,0,0,0-.27-.8,8.88,8.88,0,0,0-2-2.47l-.1-.07a4.93,4.93,0,0,0-.56-.42,5,5,0,0,0-2.18-.78h-.07a2.17,2.17,0,0,0-.51,0,4.13,4.13,0,0,0-.72.14,2.59,2.59,0,0,0-1.4,2.64h0v0c.05.17.07.4.24.49s.3-.28.4-.44.31-.57.34-.61a2.5,2.5,0,0,1,1.43-1l.18,0h.09a4.31,4.31,0,0,1,.68.06,4.5,4.5,0,0,1,1.41.55l.1.07.06,0,.57.42c.81.63,1.32,1.39,2,2C66.37,30.11,66.47,30.24,66.55,30.26Z"/><path class="cls-5" d="M92.62,40.3s-.06.06-.06.07A7.31,7.31,0,0,1,88.62,42l-.61.09h-.2a36.22,36.22,0,0,1-4.54.09,6.68,6.68,0,0,0-.72,0,.41.41,0,0,0-.16,0,4,4,0,0,1-.77,0,1.21,1.21,0,0,1,.16-.1c.59-.54,2.43-1.25,2.66-2,.49-1.63-2.09.31-2.34.49-.62.45-1.73,1.58-2.44,1.55A5.54,5.54,0,0,1,79,42c0-.07.16-.15.17-.17.56-.7,1.52-1.45,2.17-2.13.19-.19,1.66-1.74.72-1.85l0-.26c.67.1,1.33.2,2,.32l.63.11h.06l.07,0L85,38c.64.12,1.3.25,1.94.39l.7.16.06,0,.09,0c.7.19,1.41.37,2.11.58l.66.22.09,0c.45.15.91.3,1.36.48A2.75,2.75,0,0,1,92.62,40.3Z"/><path class="cls-3" d="M80.26,208.58c0,.76.22,2.19-.7,2.42a68.37,68.37,0,0,1-26.62.78l-.73-.14s0,0,0,0,.17-.78.19-.92.08-.49.13-.73a.42.42,0,0,1,.13,0c.84.11,1.69.21,2.53.3l.67.06H56a83.43,83.43,0,0,0,21.12-.58c.05,0,.42-.07.62-.12l.15,0a5.63,5.63,0,0,0,1.61-.47,1.48,1.48,0,0,0,.68-.79.12.12,0,0,1,.1.08h0v0h0A.31.31,0,0,0,80.26,208.58Z"/><path class="cls-2" d="M76.82,206.56c.65.16,3.73,1.29,1.81,2a2.79,2.79,0,0,1-.73.2.44.44,0,0,1-.07-.08,5.73,5.73,0,0,0-2.3-1.49l.36-.87a5.47,5.47,0,0,1,.55.13Z"/><path class="cls-2" d="M77.12,209a.3.3,0,0,1-.11,0,59.87,59.87,0,0,1-10.7.85c-.06,0-.48,0-.71,0a5.65,5.65,0,0,1,.36-.58.14.14,0,0,1,.09,0c1-.21,2.42-.45,3-1.48a1.93,1.93,0,0,0,.15-.93v-.06c0-.06-.07-.19-.06-.2.11-.36,1.78-1.12,2.21-1.31l.6-.26.44.1.7.16h0l.15,0,1.66.43.66.2c-.06.22-.1.25.21.37l.14,0-.36.87-.38-.13c-.05,0-.44-.14-.67-.19l-.11,0c-.34-.08-.68-.15-1-.2s-.84-.2-1.13.08v.07c0,.23,1.21.52,1.4.57s.46.11.68.18h0l.11,0a8.39,8.39,0,0,1,2.06.89A3.3,3.3,0,0,1,77.12,209Z"/><path class="cls-2" d="M74.14,106.1a44,44,0,0,1,0,10.88c-.49,3.33-2.18,8.72-6.52,8.11-.07,0-.48-.11-.72-.14l-.15,0a10.92,10.92,0,0,1-5-4.23c0-.05-.28-.38-.4-.58a.79.79,0,0,0-.08-.11c-.3-.44-.59-.9-.85-1.36,0,0-.23-.42-.36-.63a.89.89,0,0,0,0-.1A41.37,41.37,0,0,1,57.78,113v0s-.16-.41-.23-.62a.1.1,0,0,1,.07,0,7.19,7.19,0,0,0,.8-.56s.34-.31.49-.47c.08.14.19.42.21.46s.17.4.27.59h0v0a.45.45,0,0,1,.05.1q.34.77.72,1.5l.34.64,0,.06.05.08c.29.53.58,1,.89,1.56l.38.61,0,.06a.92.92,0,0,1,.05.08c1.2,1.79,2.68,3.86,4.72,4.75a5.78,5.78,0,0,0,.64.23h0c1.68.42,2.41-1.52,2.74-2.79,1.33-5.05.15-12.37-.87-17.49,0-.06-.09-.48-.15-.72V101a5,5,0,0,0-.11-.51c-.23-1.1-.18-.9-.9-1.68l-.46-.53,0-.06a9.67,9.67,0,0,1-.77-1.32c0-.06-.17-.41-.25-.62v-.06l0-.09a6.61,6.61,0,0,1-.32-2c0-.09.06-.57-.1-.76-.09,0-.18.13-.2.16a4.37,4.37,0,0,0-.44,2.32,5.52,5.52,0,0,0,.16.71.43.43,0,0,0,0,.11,9,9,0,0,0,.49,1,4.29,4.29,0,0,1,.34.64c-.37.27-1.18-.09-1.24-.12a6.77,6.77,0,0,1-.6-.39l-.07,0-.08-.08a5.36,5.36,0,0,1-1.12-1.47c0-.05-.17-.41-.24-.62l0-.08s0-.15-.05-.16c-.58-2.81,2.81-4.66,5.21-3.87l.62.24,0,0c.28.1.54.4.85.32.11-.35-.24-.64-.45-.88a6.19,6.19,0,0,0-.91-.71s0,0,0,0c.28-.54,1.52-.65,2-.51.06,0,.46.2.67.31l.08,0,.08.06a5.75,5.75,0,0,1,.54.44,2.68,2.68,0,0,0,.59.52.79.79,0,0,0,0-.6l1-.18a19.88,19.88,0,0,1,.46,4.92s0,.41-.06.61v.09s0,.12,0,.13A12.72,12.72,0,0,1,73.42,98c0,.05-.18.41-.26.61a.4.4,0,0,0,0,.32.35.35,0,0,0,0,.06c.26,1.59.51,3.17.72,4.75.07.53.13,1.06.19,1.59,0,.06,0,.45.08.67A.53.53,0,0,0,74.14,106.1ZM72.47,92.42s0,0,0-.07c-.14-.31-.59-.22-.88-.24a2.82,2.82,0,0,0-.78.33,2.66,2.66,0,0,0-.47.63l-.06.08c-.23,0-.62-.17-.68-.17-.88-.17-2.16,1-1.76,1.8.28.58.83-1.17,1.67-1.09a1.51,1.51,0,0,1,.61.26l.12.06a.41.41,0,0,0,.6-.15c.13-.2.32-.57.35-.62C71.61,92.62,72.34,92.61,72.47,92.42Z"/><path class="cls-2" d="M73.48,90.49l-1,.18a3.59,3.59,0,0,0-.19-.63,3.8,3.8,0,0,0-.39-.6.3.3,0,0,0-.09-.1,2.93,2.93,0,0,0-.56-.42c-.74-.42-1,0-1.53-.8l-.39-.6-.06-.11c-.25-.42-.5-.83-.73-1.25l-.34-.64,0-.08,0-.06c-.35-.68-.69-1.36-1-2.06,0,0-.18-.39-.26-.59l0-.11c-.39-.92-.79-1.84-1.16-2.77,0,0-.17-.42-.24-.62-.2-.74-.76-2,.16-2.4a2.13,2.13,0,0,1,1.14.38l.08.05.07,0a14.35,14.35,0,0,1,1.3,1.16l.47.51.08.09,0,.05A22.41,22.41,0,0,1,70.15,81s.24.42.37.62l0,.08a.59.59,0,0,1,0,.08,23.4,23.4,0,0,1,1.14,2.43l.23.63A.34.34,0,0,0,72,85c.17.49.34,1,.48,1.48,0,.06.14.44.2.66l0,.07,0,.08s0,.12,0,.13c.14.53.27,1.06.39,1.58,0,.06.11.47.17.7l0,.06a.43.43,0,0,0,0,.15Z"/><path class="cls-3" d="M70.64,204.75s0,0,0,0a7.52,7.52,0,0,1-1.1.58c-.51.28-.66.66-1.11.26a5.36,5.36,0,0,0-.55-.43c.37-.19.84-.36,1-.77a.38.38,0,0,1,.12,0l.94.17C70,204.62,70.41,204.69,70.64,204.75Z"/><path class="cls-5" d="M68.71,88.74c.05.08-.22.16-.31.21-.59.31-1.21,1.08-1.83,1.12-2.64.12-5.19,2.25-4.91,5.08a7.1,7.1,0,0,0,.14.73V96l0,.09a6.33,6.33,0,0,0,1.36,2.21,6.22,6.22,0,0,0,.48.5l.05,0a3.17,3.17,0,0,0,2.75.92,3,3,0,0,0,.67-.31l0,0a2.26,2.26,0,0,1,.64,1.09c0,.06.09.48.14.72l0,.06s0,.13,0,.14c.1.48.19,1,.28,1.45a4.7,4.7,0,0,1,.11.7s0,0-.07,0l-.76-.23s-.43-.13-.64-.21l-.06,0c-.48-.19-1-.38-1.44-.53-1-.33-2.64-.94-2.05.84,0,.06.14.44.18.67v.07l0,.06v.07c.22,2.33-1.27,3.77-3.28,4.7a6.48,6.48,0,0,1-.61.24,5.89,5.89,0,0,0-.17-.79l0-.11a.33.33,0,0,0,0-.06,3.52,3.52,0,0,0-1-1.29c-.1-.08-.56-.3-.6-.64,0-.08-.06-.23-.07-.25-.15-.47-.28-.44,0-.82a1.07,1.07,0,0,0-.38-1.44h.07c1.08,0,3.4-.52,2.23-2.12a3.93,3.93,0,0,0-.57-.53c1.09,0,2.78-1,2-2.28l0-.07a4.82,4.82,0,0,0-1.81-1.51c-.05,0-.41-.17-.62-.24l-.17,0a18.16,18.16,0,0,0-6.15-.41,4.13,4.13,0,0,1-.72.05,2.19,2.19,0,0,1,0-.26c-.13-1,0-2.26-.06-3.25,0-.06,0-.49,0-.73v-.12c0-1-.1-2-.14-2.94,0-.06,0-.46,0-.69a2.07,2.07,0,0,1,.43.1l.07,0,.1,0a32.94,32.94,0,0,0,16,.06Z"/><path class="cls-4" d="M68.26,207h0c0,1-2,1.26-2.19,1.29l-.62.08h-.09a23.21,23.21,0,0,1-4.33-.14l-.65-.1-.1,0c-.6-.12-1.2-.25-1.8-.41l-.66-.2-.1,0c-.51-.18-1-.37-1.5-.6l-.65-.34-.31-.19c-2.89-2,.38-2.88,2.18-3l.72,0h.11a18.93,18.93,0,0,1,3.44.35l1,.23.68.19h0l.08,0c1.45.49,3.18,1,4.27,2.13a2.18,2.18,0,0,1,.44.66h0v0Z"/><path class="cls-3" d="M68.22,16.72c.58,6.69-6.18,8.11-11.34,7.14l-.71-.14h-.11c-.55-.14-1.1-.28-1.64-.46L53.79,23l-.07,0-.13-.05a23.06,23.06,0,0,1-2.38-1.07l-.64-.34-.07,0-.7-.41-.6-.36c0,.05,0,.15,0,.16a5.38,5.38,0,0,0,.18.69c0,.06.09.49.13.73a1.23,1.23,0,0,0,0,.13,10.86,10.86,0,0,1,.08,1.28c-.1,7.92-9.43,9.56-15.57,8.54l-.73-.14-.07,0-.13,0c-.7-.19-1.41-.39-2.1-.61a4.21,4.21,0,0,0-.65-.19c0,.12,0,.35,0,.38-.73,9.34-1.33,18.7-2,28,0,.07,0,.5-.07.74,0,0-.06,0-.07,0-.32-.17-.62-.38-.95-.53a5.62,5.62,0,0,0-.59-.26l-.07,0-.06,0c-.6-.22-.88,0-.88-.72q0-14.32,0-28.65v-.61a.46.46,0,0,0-.33-.6l-.11-.07a21.78,21.78,0,0,1-6.33-5.61l-.41-.57,0-.08-.06-.08a14.36,14.36,0,0,1-1.51-3c0-.06-.15-.44-.2-.66a.62.62,0,0,0,0-.14,9.22,9.22,0,0,1-.3-3.42c1-8.09,11.36-8.93,17.55-7.24l.68.19.07,0,.14,0c.49.15,1,.32,1.47.49,0,0,.42.16.63.24l.07,0,.13,0a25.34,25.34,0,0,1,2.84,1.34l.63.36h0c.18.1.35.23.54.32,0-.2-.12-.42-.17-.63,0,0,0-.13,0-.14-1.36-5.27,2-8.73,7.1-9,.06,0,.47,0,.71,0h.09a15.58,15.58,0,0,1,3.33.36l.71.15.06,0,.11,0a23.64,23.64,0,0,1,3.46,1.21l.58.28.09,0,.11.06c.68.34,1.34.7,2,1.1l.61.38.07,0L60,5a23.07,23.07,0,0,1,5.79,5.53l.4.59,0,.07.06.11a17,17,0,0,1,.83,1.51s.17.4.27.59l0,.09A14.83,14.83,0,0,1,67.9,15c0,.06.12.46.17.69h0v0h0l0,.14A8.62,8.62,0,0,1,68.22,16.72ZM64.38,16a2.17,2.17,0,0,0,0-.36,2,2,0,0,0,0-.35.61.61,0,0,0,0-.14v0a1.41,1.41,0,0,0-.05-.35,6.19,6.19,0,0,0-.15-.71,10.65,10.65,0,0,0-1.61-3.19s0-.05-.06-.07l0-.06a2.56,2.56,0,0,0-.2-.26l0-.06-.06-.08c-.14-.19-.41-.49-.45-.53a16.68,16.68,0,0,0-2-1.92l-.09-.06-.07-.06-.07,0c-.17-.15-.51-.39-.56-.43a22.61,22.61,0,0,0-2.76-1.65L56,5.59l-.06,0-.59-.27a17.64,17.64,0,0,0-1.79-.67l-.07,0-.66-.2-.09,0A13.45,13.45,0,0,0,49.23,4h-.14a5.8,5.8,0,0,0-.68.06,6.88,6.88,0,0,0-2.69.88l-.08,0a2.16,2.16,0,0,0-.47.34.31.31,0,0,0-.09.07L45,5.44a.55.55,0,0,0-.14.12.74.74,0,0,0-.12.13,4,4,0,0,0-.44.54,4.43,4.43,0,0,0-.76,2.45v.15a2,2,0,0,0,0,.35.66.66,0,0,0,0,.2l0,.13a5.63,5.63,0,0,0,.13.73,7.21,7.21,0,0,0,.86,2.09.14.14,0,0,0,0,.05l.06.11.08.12a6.15,6.15,0,0,0,.38.6,6.54,6.54,0,0,0,.74,1l.05,0a.36.36,0,0,0,.07.1l.47.51a17.45,17.45,0,0,0,1.74,1.59l.06,0,.56.42A18.63,18.63,0,0,0,52.42,19l.08,0,.6.26q.76.29,1.53.51l.33.09.11,0h0l.7.17a13.37,13.37,0,0,0,3.28.25l.14,0h.17c.2,0,.56-.06.61-.07a10.06,10.06,0,0,0,1.23-.31l.14,0a5.41,5.41,0,0,0,.94-.45l.08,0,.07-.06a3.37,3.37,0,0,0,.49-.38,4.33,4.33,0,0,0,1.41-2.82Zm-18.8,8.37A6.83,6.83,0,0,0,45.46,21a.69.69,0,0,1,0-.08c0-.13-.07-.26-.12-.38s-.22-.57-.24-.62-.08-.19-.13-.29l-.1-.21a1.67,1.67,0,0,0-.12-.23c-.12-.21-.33-.58-.35-.63a8.18,8.18,0,0,0-.84-1.24l0,0-.05-.06c-.12-.17-.25-.33-.38-.48L43,16.63a.55.55,0,0,0-.12-.14c-.15-.18-.43-.48-.47-.52-.49-.5-1-1-1.54-1.41a.28.28,0,0,0-.08-.06l-.07-.06-.07,0-.07-.06A6.69,6.69,0,0,0,40,13.9a22.07,22.07,0,0,0-1.94-1.25L38,12.6l-.14-.08-.64-.34a23.44,23.44,0,0,0-3.41-1.39l-.15,0c-.22-.08-.62-.18-.67-.19A15.2,15.2,0,0,0,28.73,10h-.06L28,10q-.61,0-1.23.12h-.06c-.25,0-.65.13-.72.15a12.62,12.62,0,0,0-1.73.6l-.07,0L24,11a.85.85,0,0,0-.19.1,6.66,6.66,0,0,0-.85.52l-.06.05c-.19.14-.49.41-.54.45a7,7,0,0,0-1.19,1.52l0,.07a.56.56,0,0,0-.09.17.76.76,0,0,0-.09.18,6,6,0,0,0-.24.61,5.4,5.4,0,0,0-.27,2.07s0,.06,0,.09a1.32,1.32,0,0,0,0,.28v.14l0,.26a2.5,2.5,0,0,0,.05.29,5.47,5.47,0,0,0,.16.7,12.16,12.16,0,0,0,.45,1.28l0,.06a1.63,1.63,0,0,0,.09.19,1.74,1.74,0,0,0,.1.19c.11.21.32.58.35.63.15.25.31.5.48.74l.08.1,0,.05c.13.19.38.52.42.56A13.47,13.47,0,0,0,24.25,24s0,0,.07.07a1.22,1.22,0,0,0,.17.15c.16.16.48.42.52.46a20.39,20.39,0,0,0,2.22,1.59l.07,0,.12.08.63.36a24.75,24.75,0,0,0,2.32,1.12l.11.05.07,0,.62.24c.55.2,1.12.36,1.69.52l.08,0H33c.23.07.64.16.7.17a15.21,15.21,0,0,0,6.23.16l.12,0,.08,0h.07l.14,0,.62-.17a9.81,9.81,0,0,0,1.47-.59l.16-.09.2-.11h0a5,5,0,0,0,1-.72,1.55,1.55,0,0,0,.23-.21,6.32,6.32,0,0,0,.45-.5,6.44,6.44,0,0,0,.64-1l0-.09a1.26,1.26,0,0,0,.17-.35l.06-.17A5.24,5.24,0,0,0,45.58,24.37Z"/><path class="cls-4" d="M67.73,203.55a2.29,2.29,0,0,1,.52.59,1.17,1.17,0,0,1-1.31.55c-.88-.37-1.72-.76-2.64-1.05l-.66-.2h-.08c-.45-.13-.91-.25-1.37-.36l-.33-.06a2.17,2.17,0,0,1-.44-.11l.06,0a6.28,6.28,0,0,1,1.23-.38l.65-.07h.07a9,9,0,0,1,2.13.2l.28.07.4.12h0l.06,0A4.91,4.91,0,0,1,67.73,203.55Z"/><path class="cls-3" d="M66.81,54.29c.07,5.61-4.8,6.22-9.14,5.31l-.7-.15h0a.39.39,0,0,0-.13,0,15.35,15.35,0,0,1-1.5-.47s-.41-.16-.61-.25l-.06,0-.1-.05a14.91,14.91,0,0,1-5.63-4.7l-.4-.58,0-.05a13.87,13.87,0,0,1-.8-1.41l-.27-.59,0-.06s0,0,0-.06a7.46,7.46,0,0,1-.55-3.84c0-.06.1-.46.17-.69s.29-.28.37-.32A15.1,15.1,0,0,0,51,43.89c.05,0,.35-.31.52-.47h.08l.16,0c.67.09,1.35.15,2,.19.51,0,.79-.11,1,.33a3.56,3.56,0,0,0,.39.59l.11.12,0,0a7.35,7.35,0,0,0,1.44,1.14L57,46l.12.07s0,0,0,0a8.7,8.7,0,0,0,3.1,1.2,4.79,4.79,0,0,0,.63.11h.14a.66.66,0,0,0,.17,0,3.46,3.46,0,0,0,.79,0,1.56,1.56,0,0,0,.92-.53s.08.09.09.09a12,12,0,0,1,1.8,2c0,.05.28.38.4.58a.37.37,0,0,1,.07.1A13,13,0,0,1,66.1,51a6,6,0,0,1,.26.6c0,.05,0,.12,0,.13A8.82,8.82,0,0,1,66.81,54.29Z"/><path class="cls-3" d="M65.12,209.32a.59.59,0,0,1-.09.18c-.19.3-.25.37-.61.37-2.49,0-5-.12-7.46-.29-.05,0-.45,0-.67-.06a5.64,5.64,0,0,1,.53-1.49c.26.07.51.17.77.26h0l.12,0c.58.19,1.16.34,1.74.48l.72.15h.05l.08,0a23.14,23.14,0,0,0,4.07.35Z"/><path class="cls-2" d="M65,41.36a.4.4,0,0,1-.07.16,7.37,7.37,0,0,0-.77,4.92c0,.05.07.41.12.61v0h0a3.48,3.48,0,0,1,.12.49l-.15-.17c-.64-.58-1.2-1.25-1.88-1.81l-.55-.43-.05,0a22.47,22.47,0,0,0-2-1.29l-.65-.33c1.2-.22,3-.76,2.9-2.1a3.05,3.05,0,0,0-.2-.76l.76.17h.06l.15,0c.5.12,1,.22,1.52.33Z"/><path class="cls-3" d="M63,153.24s0,.1,0,.11c-.35.28-1.84.05-2.29,0l-.71-.15H60l-.1,0a13.15,13.15,0,0,1-1.51-.46c-.06,0-.45-.2-.67-.32-.69-.51-.86-.31-1,.52a1.64,1.64,0,0,1,0,.18c0,.25,0,.49-.07.74s-.12,1.31-.76,1.46l-.11,0a2.14,2.14,0,0,1-1-.17c-.06,0-.43-.23-.63-.36l-.1-.08a17.72,17.72,0,0,1-1.9-1.78l-.49-.49a.44.44,0,0,0-.36-.18v-1a37.78,37.78,0,0,0,7.63-.78l.72-.14h0A14.84,14.84,0,0,1,61,151l.57.41.08.06a5.79,5.79,0,0,1,1,1.09C62.71,152.66,62.93,153,63,153.24Z"/><path class="cls-3" d="M60.68,99.31c.16,1.13-1.43,1.31-2.26,1.3a2.06,2.06,0,0,1-.73-.11.17.17,0,0,1,0-.1c0-.12.47-1.77.52-2.06,0-.06.08-.48.15-.7l.07,0h0l.13,0a4.32,4.32,0,0,1,1.53.93,3.12,3.12,0,0,1,.45.53h0S60.68,99.3,60.68,99.31Z"/><path class="cls-4" d="M59.59,148.65a4.72,4.72,0,0,1,.08.75,2.38,2.38,0,0,1-.31.08,34.34,34.34,0,0,1-13.4.28c-.06,0-.47-.09-.71-.15h0l-.23-.06c-.49-.12-.9,0-.93-.55-.15-2.38,0-4.79-.08-7.18-.43-11.64-.09-23.33-.38-35,0,0,0-.47,0-.71.12,0,.24.15.38.15h0l.09,0a3.85,3.85,0,0,0,1.22,0c.22-.05,1.26-.52,1.34-.5s1.17.91,1.53-.17h.17l1.4-.08c.06,0,.48,0,.71,0h.15c1.24,0,2.48-.14,3.71-.23l.32,0,.36,0s0,0,0,0c.39.36.11.88.28,1.31s.72.3,1.07.41c0,0,.42.15.63.24l.09,0a3.77,3.77,0,0,1,1.1.75,2.53,2.53,0,0,1,.42.69l0,.06s0,.08,0,.09a2.81,2.81,0,0,1-1.28,2.51,4.63,4.63,0,0,1-.61.38l-.14.07c-.51.24-1,.18-.94.79,0,.15,0,.32,0,.47C56.47,125,57.84,136.83,59.59,148.65Zm-8.38-35.49c1.83-.4,4-1.78,3.17-4l-.05-.1,0-.07a4.28,4.28,0,0,0-.38-.61,5.52,5.52,0,0,0-1.7-1.37s-.07,0-.11-.06l-.59-.27A5.24,5.24,0,0,0,50,106.4H50c-.29,0-.68,0-.89.21.15.27.73.33.85.37a10.84,10.84,0,0,1,1.74.6l.08,0,.05,0c.22.1.56.34.62.37a3.65,3.65,0,0,1,1.08,1.26.49.49,0,0,0,0,.09,2.54,2.54,0,0,1,.13.73c-.08,1.71-2.64,2.07-3.75,2.65,0,0-.24.1-.26.23C50,113.45,51.13,113.18,51.21,113.16Z"/><path class="cls-3" d="M58.83,101.74c1.1,1-.34,1.42-1.19,1.47l-.62,0a1.24,1.24,0,0,1-.27,0s0-.07,0-.08a9.39,9.39,0,0,1,.51-1.45s.14-.42.24-.62c.4.2.83.35,1.21.59h0Z"/><path class="cls-4" d="M57.53,97.66c0,.08,0,.24,0,.27a30.56,30.56,0,0,1-1.78,5.78,4.29,4.29,0,0,1-.27.71.19.19,0,0,1-.05-.1,2.63,2.63,0,0,1-.35-.76s-.18-.39-.27-.59l0-.06s0-.08,0-.09c-.3-.6-.58-1.22-.89-1.82l-.34-.64s0-.1,0-.1c-.31-.6-.64-1.18-.93-1.78a7.07,7.07,0,0,0-.32-.66c0-.1-.1-.19-.12-.29s.11,0,.12,0a2.87,2.87,0,0,1,.78-.07l.7,0a.26.26,0,0,1,.09,0,20.48,20.48,0,0,1,3.13.19Z"/><path class="cls-3" d="M57.19,104.45c.19.73-.67.52-1,.4,0-.12.13-.33.14-.36s.15-.42.24-.63a1.12,1.12,0,0,1,.24.13A1.38,1.38,0,0,1,57.19,104.45Z"/><path class="cls-3" d="M55.87,6.57a7.57,7.57,0,0,1-.08,2.25s0,.4,0,.61c0,0,0,.1,0,.11-.07.9-.13,1.8-.21,2.7,0,0,0,.41,0,.62a1.44,1.44,0,0,0,0,.18l-.12,1.48c0,.05,0,.41,0,.61s-.06.61-.08.91a.76.76,0,0,0,0,.15s0,.07,0,.08c-.09.65-.11,1.32-.17,2a5.59,5.59,0,0,1-.08.73s0,0-.07,0h0a13.92,13.92,0,0,1-1.37-.48l-.61-.26-.06,0-.13-.06a5,5,0,0,1-1.06-.54c-.33-.29-.15-1.31-.13-1.78,0-.06,0-.48,0-.72a.87.87,0,0,0,0-.23V14.8c0-.61,0-1.21,0-1.82,0-.06,0-.48,0-.72v-.19c0-.72,0-1.44,0-2.16,0-.07,0-.49,0-.73s0-.41,0-.61a1.29,1.29,0,0,0,0-.34V8.05c0-.24,0-.49,0-.73,0-.06,0-.48,0-.72a1.14,1.14,0,0,0,0-.26V5.89a5,5,0,0,1,0-.69l.15,0,.61.13c.06,0,.46.11.68.18l.06,0,.12,0c.55.17,1.09.36,1.62.58l.6.26A.91.91,0,0,0,55.87,6.57Z"/><path class="cls-3" d="M54.71,104.59l-.11,0c-.12,0-.27,0-.3,0s-1,.06-1,.05a2,2,0,0,1-.12-1.31.59.59,0,0,1,.21-.41c.25,0,.43.22.6.39l0,0A4.53,4.53,0,0,1,54.71,104.59Z"/><path class="cls-2" d="M53.29,101.69s.23.42.33.64a.53.53,0,0,0-.77.38c0,.06-.05.39-.1.63,0,0,0,.06,0,.09a4.26,4.26,0,0,0-.89-.91c-.55-.36-1.06-.38-1.42.44,0,.06-.14.48-.23.69a3.55,3.55,0,0,0-.93-1,.84.84,0,0,0-1.2.11c0-.08,0-.21-.05-.23-.12-.38-.22-.78-.31-1.19-.16-.68-.3-1.38-.52-2,0-.06-.15-.42-.19-.64.3.08.23-.22.23-.41v-.14c0-1.63-.09-3.25-.17-4.88a6.83,6.83,0,0,1,0-.69h.07c1,0,2,0,3.07,0a3.7,3.7,0,0,1,.72,0s0,.13,0,.14c.1,1.57,0,3.17,0,4.75,0,.06,0,.48,0,.72-.09.57.08.59.59.61a.37.37,0,0,0,.13,0,3.66,3.66,0,0,1,.8,1.29s.24.43.34.64l0,.06a.8.8,0,0,1,.05.11C53,101.14,53.16,101.41,53.29,101.69Z"/><path class="cls-3" d="M52.71,104.69c0,.06-.12,0-.13,0a5.53,5.53,0,0,1-1.1,0,5.34,5.34,0,0,1-.73,0c0-.59-.14-1.45.45-1.81a.61.61,0,0,1,.32.08h0l.12.08a3.43,3.43,0,0,1,.72.88A5.47,5.47,0,0,1,52.71,104.69Z"/><path class="cls-3" d="M51.37,208.68a.51.51,0,0,1,.49.72.83.83,0,0,0,0,.13c-.05.2-.09.41-.13.61-.18.86,0,1.15-.86,1.5-10.08,4-23.37,4.21-33.92,2.16l-.72-.13-.15,0c-1.57-.37-1.65-.24-1.46-2a2.35,2.35,0,0,1,.19-.81c.1,0,.08.12.11.18v0h0a.62.62,0,0,0,0,.1c.77,1,3.5,1.15,4.71,1.32l.66.08.12,0a88.75,88.75,0,0,0,9.51.58h.71c2.85-.12,5.66-.2,8.5-.48l.66-.08a.76.76,0,0,0,.17,0l.89-.1c2.63-.33,8.55-.77,10.15-3.13A4.2,4.2,0,0,0,51.37,208.68Z"/><path class="cls-3" d="M51.28,151.19v1a.41.41,0,0,0-.3.13l-.18.13a29,29,0,0,1-2.65,2.67,4.72,4.72,0,0,1-.62.37l-.17.06c-1.24.32-1.29-1.24-1.09-2.08,0-.05.13-.45.18-.68s.26-.72.08-1l.13-.89A36,36,0,0,0,51.28,151.19Z"/><path class="cls-2" d="M50.9,92.27v.08c0,.05-.09,0-.12,0-1,.06-2,0-3,0a3.51,3.51,0,0,1-.82,0,.59.59,0,0,1,0-.19h.09c.88,0,1.79,0,2.67,0C50,92.19,50.67,92.11,50.9,92.27Z"/><path class="cls-2" d="M50.83,90.8c0,.12-.09.08-.16.1a22.16,22.16,0,0,1-2.93,0,2.38,2.38,0,0,1-.81-.06s0-.12,0-.15a1.34,1.34,0,0,1,.2,0h2.44S50.66,90.6,50.83,90.8Z"/><path class="cls-2" d="M50.88,91.78c0,.11-.16.06-.21.07a18.69,18.69,0,0,1-2.69,0c-.16,0-.81.09-1-.1a.07.07,0,0,1,0,0,.1.1,0,0,1,.07,0c.94,0,1.88,0,2.82,0C50,91.68,50.68,91.6,50.88,91.78Z"/><path class="cls-3" d="M50.13,104.82a.23.23,0,0,1-.13,0l-1,0c-.06,0-.48,0-.73,0,0-.58-.22-1.48.41-1.8a.36.36,0,0,1,.23,0h0l.09,0a3.1,3.1,0,0,1,.77,1A5.29,5.29,0,0,1,50.13,104.82Z"/><path class="cls-2" d="M49.37,207.06c.71.45,1.35,1.07.53,2-1.6,1.84-6.72,2.3-9.1,2.57-.06,0-.48.06-.72.07l0-.1a8.6,8.6,0,0,0-.27-1.34c0-.05-.13-.42-.22-.63,0,0,.12-.06.13-.07,1.12-.51,2.88-1.33,3.32-2.58a1.86,1.86,0,0,0,.08-.84.37.37,0,0,0,0-.14,1.56,1.56,0,0,0-.11-.26l.87-.1h.06s2.24.29,2.5.34l.7.16h0l.14,0a11.12,11.12,0,0,1,1.37.48,5.67,5.67,0,0,1,.65.33Z"/><path class="cls-2" d="M50,43.2s-.07.08-.07.09a17.32,17.32,0,0,1-3.21,2.29l-.61.36L46,46c-.33.18-.66.36-1,.52a1.84,1.84,0,0,0-.7.37c.18.22.75.09.93.06l.7-.14c0,.15-.08.42-.09.46s-.05.5-.09.73a.55.55,0,0,1-.26-.06c-1.08-.24-2.15-.65-3.22-1l-.68-.19H41.5l-.1,0c-.52-.13-1-.29-1.56-.41l-.69-.16-.06,0c-.59-.12-1.29-.35-1.8,0L37.21,46c-.54-.89-1-2.1-1.49-3.06l-.36-.62,0,0c-.75-1.21-1.52-2.4-2.36-3.55a5.82,5.82,0,0,1-.4-.55l.12,0,1,.43.62.25.07,0,.12,0c.5.2,1,.39,1.52.57l.64.23.12,0c.61.22,1.22.42,1.84.62l.65.21.07,0,.11,0,1.8.54.68.18.06,0,.07,0c.55.16,1.11.29,1.67.42l.69.17.06,0,.1,0c.77.16,1.53.36,2.31.52l.71.15.06,0h.07l.11,0c.45.1.9.17,1.35.25C49.3,43.08,49.72,43.13,50,43.2Z"/><path class="cls-4" d="M47.56,104.37c0,.06,0,.49,0,.74a1.55,1.55,0,0,0,0,.17c-.44,0-1.57-1.51-1.93-1.92l-.48-.51a.33.33,0,0,1-.06-.08c-.56-.66-1.2-1.26-1.82-1.87l-.49-.49-.09-.1-1.55-1.52c-.05,0-.34-.31-.5-.48,0,0,.06,0,.06,0a14.89,14.89,0,0,1,4-.57c.06,0,.48,0,.71,0l.35,0c.4,0,.47.19.61.71,0,0,0,.1,0,.11.31.94.61,1.92.84,2.91A14.59,14.59,0,0,1,47.56,104.37Z"/><path class="cls-2" d="M47.36,156.46a.67.67,0,0,1,0,.16,105,105,0,0,0-1.19,11.31c-.35,9.46.63,18.86-.38,28.33,0,.05-.05.41-.07.61V197a1.05,1.05,0,0,0,0,.13c-.13,1-.28,2-.46,2.95l-.12.61v.1l0,.12c-.2.95-.43,1.89-.68,2.83,0,.05-.11.41-.16.61s-.16.58-.18.63-.16.49-.21.72l-.87.1c-.74-1.44-2.92-1.49-4.34-1.44-.3,0-1.47.28-1.43-.2a.64.64,0,0,0,0-.07c-.05-.24-.1-.48-.14-.72-1.1-6.35-.39-14,1.17-20.26,2.15-8.61,4.39-17,5.75-25.75,0,0,.07-.42.09-.64a.45.45,0,0,0,0-.08l.21-1.62c.09-.68,0-1.18.58-1.52l.64-.33a.53.53,0,0,1,0,.17c-.4,1.3-.68,3.23,1.26,3.23A6.08,6.08,0,0,0,47.36,156.46ZM43.5,173.75c0-.05,1.06-1.3.72-1.71a2.06,2.06,0,0,0-.45.53,15.23,15.23,0,0,0-1.15,1.68s-.09.11,0,.17C43,174.44,43.39,173.9,43.5,173.75Z"/><path class="cls-3" d="M46.65,150.89l-.13.89a2,2,0,0,0-1,.37l-.09,0-.74.43a4.79,4.79,0,0,1-.6.32s0-.13,0-.14a8,8,0,0,1,0-1.7,3.24,3.24,0,0,1,0-.69,1.58,1.58,0,0,1,.21,0,5.73,5.73,0,0,0,.71.16h0l.1,0Q45.9,150.79,46.65,150.89Z"/><path class="cls-5" d="M46.5,96.81c0,.06,0,.45,0,.67,0,0,0-.09-.06-.09-.18-.07.1-.31-.48-.38l-.25,0a15,15,0,0,0-5.24.57l-.62.18-.16.06c-1,.36-4.43,2-2.33,3.19a5.19,5.19,0,0,0,.71.27h0l.12,0a8.39,8.39,0,0,0,1.31.17,3.53,3.53,0,0,1,1.1.09v.14c0,.41-1.16.92-.59,1.83,0,.07.4.33.42.56a.84.84,0,0,0,0,.1c-.06.65-.08,1.31-.12,2,0,0,0,.41,0,.61a.63.63,0,0,0,0,.14c0,.37,0,.42-.29.56-1.15.46-2.28,1-3.44,1.4-3.35,1.27-8.59,2.56-12.15,2.29l-.64-.1h-.07l-.15,0c-2.31-.69-.67-2.48.51-3.36l.56-.42.07,0c.56-.42,1.13-.83,1.65-1.3.08-.07.48-.39.54-.67,0,0-.1-.06-.11-.07a8.16,8.16,0,0,0-2.31.37l-.62.16-.15,0c-2.39.64-4.73,1.42-7.14,2-2.86.68-8.42,1.68-11.15.49-.14-.07-.6-.33-.71-.65l0-.14c.12-1.21,2.6-2.34,3.6-2.8l.59-.27,0,0c.93-.36,1.85-.7,2.78-1,.18-.06,2.81-.93,1.71-1.27-.77-.23-3.46.41-4.4.54l-.62.08a.81.81,0,0,0-.17,0,18.22,18.22,0,0,1-4.89-.18l-.7-.16H2.6l-.06,0c-.24-.09-.48-.17-.71-.28,0,0-.79-.45-.81-.91V101a1.78,1.78,0,0,1,.58-1.13c2.41-2.33,8-3.7,11.19-4.19l.63-.11a6.37,6.37,0,0,0,.63-.1,3.21,3.21,0,0,0-.07-.68c0-.1,0-.28,0-.31-2-14.92-2.68-30-4.94-44.87a3.44,3.44,0,0,1-.06-.68.58.58,0,0,0,0-.19s0-.11,0-.12c-.37-1.64-.51-3.25-.79-4.87-1.42-8.21,1.9-15.82,8-21.29,0,0,.34-.31.52-.45a.25.25,0,0,1,0,.08c.13.2.24.41.37.61l.39.6,0,.08,0,.05a23.18,23.18,0,0,0,6.12,5.81c.05,0,.42.24.6.39v.13c0,6.22.26,12.45.26,18.68,0,3.29.28,6.81.07,10,0,0,.15.41.05.62a4,4,0,0,1-.56,0l-.62,0a.37.37,0,0,0-.18,0l-.09,0a6.54,6.54,0,0,0-5.5,5.41c0,.05-.07.4-.11.61v.09a.89.89,0,0,0,0,.11,10.56,10.56,0,0,0,.19,3.32c0,.06.11.46.18.68l0,.08a.26.26,0,0,0,0,.05,17.45,17.45,0,0,0,.65,1.8s.18.4.27.6l0,.08,0,.1a19.47,19.47,0,0,0,1.32,2.25l.42.56,0,0a13.23,13.23,0,0,0,1.24,1.35s.34.32.52.46,0,.17,0,.2a12.91,12.91,0,0,0-.57,2.5,7.51,7.51,0,0,0,.61,4.19s.22.43.35.64l0,.06,0,.06a7.21,7.21,0,0,0,3.7,2.82c.06,0,.44.15.67.2h.06l.06,0c4.14.92,9.63-1.1,10.93-5.47,0-.06.13-.45.18-.68l.08,0c.72.58,1.38,1.24,2.13,1.81l.55.42.05,0,.08.06c.74.55,1.5,1.06,2.28,1.54,0,0,.41.25.62.36l.09.06.11.07c.27.16,1.39.65,1.47.86a3.33,3.33,0,0,0,0,.7.69.69,0,0,0,0,.2.65.65,0,0,1,0,.14c0,.42,0,.84.08,1.27,0,.06,0,.46,0,.69a.47.47,0,0,0,0,.17v.14C46.2,92.22,46.39,94.51,46.5,96.81Z"/><path class="cls-3" d="M46.17,105.3s-.08,0-.09,0l-1.23.3a2.83,2.83,0,0,1-.71,0c-.51-.25-.35-.92.14-1.43a4.14,4.14,0,0,1,.54-.43s0,0,0,0c.28.3.55.61.81.92A4.58,4.58,0,0,1,46.17,105.3Z"/><path class="cls-2" d="M45.91,50.08l-.1,0c-.12,0-.27,0-.3,0a51.58,51.58,0,0,0-5.54.62c-.64.12-1.06.48-1,.72l-.07,0s0-.1,0-.16-.1-.46-.16-.69-.09-.37-.09-.4a6.26,6.26,0,0,1-.18-.67c.09,0,.27,0,.3,0,2-.07,4,0,6-.08l.71,0C45.91,49.32,45.85,49.82,45.91,50.08Z"/><path class="cls-2" d="M44.13,48.25c.82.13,1.85,0,1.62.83a1.66,1.66,0,0,1-.41,0c-2-.24-4.05-.42-6.07-.57-1.25-.09-1.08.18-1.48-1,0,0-.16-.41-.23-.61a3.16,3.16,0,0,0,.52.22l.71.16.06,0,.1,0c.58.12,1.16.24,1.75.34l.62.11.08,0C42.31,48,43.22,48.1,44.13,48.25Z"/><path class="cls-3" d="M44.2,103.08a.12.12,0,0,1-.08,0,7.85,7.85,0,0,1-2.09.43,5.32,5.32,0,0,1-.7,0l-.15,0c-1.3-.42,0-1.44.61-1.82a2.83,2.83,0,0,1,.68-.3s.08,0,.1,0c.41.35.78.78,1.16,1.17C43.77,102.62,44.05,102.91,44.2,103.08Z"/><path class="cls-2" d="M42.93,149.93c0,1.2.26,4.68-.18,5.63a5.26,5.26,0,0,0-.29.61v0h0v0h0a1.13,1.13,0,0,1-.06.14,10.55,10.55,0,0,1-7.06,5.75l-.61.16h-.06l-.19,0a16.55,16.55,0,0,1-6.31.21l-.71-.15-.11,0a11.15,11.15,0,0,1-1.48-.49l-.59-.28-.09,0a8.06,8.06,0,0,1-1.26-.83,4.12,4.12,0,0,1-.51-.46l-.06-.07a1.44,1.44,0,0,1,0-2.1c.07,0,.13.06.16.08a10.77,10.77,0,0,0,2.36,1.45l.62.24.05,0c.56.2,1.12.38,1.7.53l.7.16H29l.11,0a14.55,14.55,0,0,0,7.09-.31,2.06,2.06,0,0,0,.74-.35.88.88,0,0,0-.43,0,17,17,0,0,1-6.63-.05l-.7-.16h-.11c-.53-.15-1.06-.31-1.57-.51l-.62-.25-.06,0-.13,0a9,9,0,0,1-2.48-1.46c0-.05-.31-.35-.45-.54l0-.09c-.22-.48-.55-1.52.29-1.54a4.54,4.54,0,0,1,.73.13l.07,0,.1,0a10.7,10.7,0,0,1,1.39.71c.05,0,.39.27.6.38l.08,0,.06,0c.52.25,1,.54,1.54.8.05,0,.43.23.66.33l.11,0a11.29,11.29,0,0,0,1.85.73c.06,0,.46.13.7.17H32l.12,0a6.76,6.76,0,0,0,3.54-.3,1.87,1.87,0,0,0,.74-.46.9.9,0,0,0-.39,0,6.63,6.63,0,0,1-3.1,0l-.69-.17-.12,0a14.36,14.36,0,0,1-1.8-.66c-.05,0-.4-.17-.59-.27l-.06,0-.07,0a12.2,12.2,0,0,1-1.4-.82c-.05,0-.38-.28-.58-.41-1-.7-2.43-2.13-1.31-3.31l.09-.07a1.66,1.66,0,0,1,1.08-.27A6,6,0,0,1,28,152h.06l.09,0a11.17,11.17,0,0,1,1.56.65l.64.34.08.05a.48.48,0,0,1,.11.06c.53.31,1.08.58,1.63.85,0,0,.39.19.59.26l.12.05a5.83,5.83,0,0,0,4.41.27c.05,0,.44-.22.65-.34s.41-.24.34-.5a.54.54,0,0,0,0-.11c.06-.65.08-1.32.12-2,0-.06,0-.47,0-.7,0-.08,0-.2,0-.22.7-14.1,1.66-28.23,2.53-42.33,0-.06,0-.46.05-.69a5,5,0,0,1,.58.05c.46,0,.93-.09,1,.38.12,1.33,0,2.7,0,4,.1,7.76,0,15.55.17,23.31C43,140.3,42.76,145.15,42.93,149.93Z"/><path class="cls-4" d="M42.34,206.33c0,.06,0,.15,0,.17-.12,1.08-1.92,1.9-2.81,2.28l-.62.25-.08,0a19.8,19.8,0,0,1-8.76,1.15c-.06,0-.48-.08-.72-.14h0l-.12,0c-1.28-.46-1.59-1-.44-2a5.57,5.57,0,0,1,.57-.41l.09-.06a18.14,18.14,0,0,1,6.38-2.24l.63-.1h.09l1-.11c.06,0,.46,0,.69-.05h.17a7.22,7.22,0,0,1,3.23.45,1.59,1.59,0,0,1,.71.77v0h0Z"/><path class="cls-3" d="M41.78,100.66a.34.34,0,0,1-.16,0,18.1,18.1,0,0,1-2.55,0,4.56,4.56,0,0,1-.72-.14l-.13,0c-1.51-.6.1-1.3.83-1.64l.6-.26h0l0,0a17.09,17.09,0,0,1,1.57,1.5S41.63,100.49,41.78,100.66Z"/><path class="cls-5" d="M40.16,109.44a.45.45,0,0,1,0,.13c0,.45-.06.9-.09,1.35,0,.07,0,1.16-.21,1.31l0,0-.06-.06a.37.37,0,0,1-.07-.1,3,3,0,0,1,.23-2C39.93,110,40.06,109.63,40.16,109.44Z"/><path class="cls-3" d="M39.24,211.06a4.3,4.3,0,0,1,.13.73.12.12,0,0,1-.07,0,66.77,66.77,0,0,1-7.63.41H31c-.14-.34-.3-.68-.46-1a2,2,0,0,1,.35,0,22.52,22.52,0,0,0,7.37-1.09l.64-.21h0a.51.51,0,0,1,0,.12A6.07,6.07,0,0,1,39.24,211.06Z"/><path class="cls-5" d="M37.66,51.08a17.45,17.45,0,0,1,.64,6.77,2.33,2.33,0,0,1-.22.73c-.81.24-1.55-.84-1.74-1.58,0-.06-.11-.46-.17-.69l0-.06a.35.35,0,0,0,0-.07c-.14-.58-.32-1.14-.51-1.7,0,0-.15-.43-.23-.64l0-.06a.45.45,0,0,0,0-.08c-.25-.57-.47-1.16-.74-1.72,0,0-.18-.39-.28-.58l0-.07a.57.57,0,0,1,0-.07c-.25-.51-.53-1-.81-1.52,0-.05-.24-.41-.37-.61a.32.32,0,0,0,0-.07c-.22-.35-.45-.69-.69-1-.06-.08-.34-.52-.61-.62a.07.07,0,0,0,0,.06,4.47,4.47,0,0,0,.5,1.34l.27.59v0h0s0,.08,0,.08c.23.51.45,1,.66,1.55l.26.61a.45.45,0,0,0,0,.08c.24.59.47,1.18.68,1.78l.22.64a.38.38,0,0,0,0,.11c.18.49.33,1,.46,1.5,0,.06.13.45.18.68l0,.06a.64.64,0,0,0,0,.09,33.29,33.29,0,0,1,.91,6.1c0,.23.11,3.6-1.41,3.84a.41.41,0,0,0-.12,0,7.87,7.87,0,0,1-2-2.18S32.2,64,32,63.82L32,63.73l-.09-.1A20,20,0,0,0,30,61.81c-.13-.11-.7-.42-.66-.78,0-.05,0-.14,0-.16.52-7.36.92-14.73,1.66-22.08a4,4,0,0,1,.07-.65h0l0,0,.09.12c1,1.28,1.92,2.6,2.78,4l.37.62,0,.07s0,.07,0,.07a30,30,0,0,1,2.19,4.7,6,6,0,0,1,.21.64c-.07.06-.19,0-.28,0l-.09,0c-.86,0-.84.94,0,1l.08,0h.06c.77.08.66,0,.86.74,0,.06.11.46.18.69V51A.58.58,0,0,1,37.66,51.08Z"/><path class="cls-6" d="M37.56,77.81a7.66,7.66,0,0,1,.19,2.13,4.37,4.37,0,0,1,0,.61v.1a1,1,0,0,1,0,.12c0,.15,0,.29-.07.44a2,2,0,0,1-.12.42c-1.46,3.56-5.67,5.3-9.3,4.79l-.63-.11h-.06l-.13,0a7.14,7.14,0,0,1-3.46-1.83,5.92,5.92,0,0,1-.45-.54l0,0a7,7,0,0,1-.8-4.26,8.8,8.8,0,0,1,.31-1.51,4.12,4.12,0,0,1,.28-.69s.09.05.1.05c.26,0,.5.37.55.56A4.09,4.09,0,0,0,27,81.33c.06,0,.45.13.68.18h.05l.16,0c2.86.41,5.3-.91,5.37-4,0-.06,0-.46,0-.69l0-.08v-.09a4.46,4.46,0,0,0-1.59-2.71,6,6,0,0,0-.58-.41,11.8,11.8,0,0,1-1.21-.68c.17,0,.48,0,.52-.06l.7,0a.37.37,0,0,1,.15,0c.31,0,.63,0,.94,0a6.44,6.44,0,0,1,1.15.2,6.55,6.55,0,0,1,.65.2h0l.1,0a5.76,5.76,0,0,1,2.08,1.61s.29.37.41.57l0,.06,0,.07A7.37,7.37,0,0,1,37.34,77c0,.06.13.45.2.67h0v0h0S37.56,77.8,37.56,77.81Z"/><path class="cls-3" d="M37.31,151.42a.54.54,0,0,1,0,.17c0,.83.13.95-.76.94a2.43,2.43,0,0,1-.72-.13s0-.06,0-.07a7.68,7.68,0,0,1,.81-.55S37.1,151.53,37.31,151.42Z"/><path class="cls-4" d="M35.35,202.4a.83.83,0,0,1,.25,1.33c-.15.25-.35.17-.52.13a8.22,8.22,0,0,0-5.62.61c-.61.3-1.41,1.16-1.8,1.29a27.56,27.56,0,0,1-4,.66l-.7-.17s-.08,0-.08,0c-.8-.26-1.82-.54-1-1.5,1.34-1.63,6.79-2.79,8.86-2.95l.7,0h.13a10.77,10.77,0,0,1,3.1.34,5.77,5.77,0,0,1,.68.3h0Z"/><path class="cls-4" d="M35.23,204.72a.79.79,0,0,1-.25.06,32.12,32.12,0,0,0-5,1.67c-.08,0-.46.3-.7.27-.35-.18-1-.26-.89-.67.31-.92,3.09-1.63,3.94-1.72l.69-.05h.13a6.29,6.29,0,0,1,1.43.18A3,3,0,0,1,35.23,204.72Z"/><path class="cls-3" d="M34.49,27.26c0,.07,0,.5,0,.73a3.06,3.06,0,0,1-.55-.1l-.69-.17a.29.29,0,0,0-.09,0c-.54-.16-1.06-.33-1.58-.52L31,26.93l-.07,0-.06,0c-1-.45-.83-.19-.91-1.31,0,0,0-.45-.05-.68a1.36,1.36,0,0,0,0-.2V24.5c0-.73-.11-1.45-.16-2.18,0-.06,0-.46-.06-.68a.66.66,0,0,0,0-.2v-.12c0-.46-.07-.92-.11-1.38,0-.06,0-.46-.05-.69v-.09c0-.61-.09-1.22-.13-1.83,0-.06,0-.46,0-.69v-.11c0-.46-.07-.92-.1-1.38,0-.05,0-.45-.06-.68a.92.92,0,0,0,0-.17c0-.5-.07-1-.11-1.5,0-.06,0-.45-.05-.68a1.23,1.23,0,0,0,0-.2c0-.21-.05-.42,0-.62h.15a15.9,15.9,0,0,1,3.5.44l.69.17.07,0,.14,0a3.28,3.28,0,0,1,.75.24c.21.13.13,1.38.13,1.71,0,.06,0,.48,0,.72v.14c0,.61,0,1.22,0,1.83,0,.06,0,.48,0,.72v.11c0,.69,0,1.38,0,2.07,0,.06,0,.48,0,.73v.14c0,.48,0,1,0,1.46a6.07,6.07,0,0,0,0,.72v1.17a6.68,6.68,0,0,0,0,.72v.12C34.48,25.47,34.49,26.37,34.49,27.26Z"/><path class="cls-5" d="M32.63,76.93v.17a3.59,3.59,0,0,1-4.05,3.76l-.64-.1h-.07l-.13,0A5,5,0,0,1,25,78.94a2.71,2.71,0,0,1-.36-.73c.1,0,.19.08.29.11l.09,0,.07,0a6.5,6.5,0,0,0,7-1.32c.05,0,.31-.34.47-.51a1.17,1.17,0,0,1,.09.32v0h0Z"/><path class="cls-2" d="M30.17,212.23H30.1a68.73,68.73,0,0,1-8.61-.36,5.58,5.58,0,0,1-.66-.06.16.16,0,0,1,.05-.06A10.22,10.22,0,0,1,25.14,210s.87-.18.95-.52l1.05-.16c.07.74.58,1.15,1.34,1.46.06,0,.43.16.65.22h.05c.44,0,.66.45.71.54A4.28,4.28,0,0,1,30.17,212.23Z"/><path class="cls-3" d="M28.59,207.17a.13.13,0,0,1-.06.05c-.81.68-.64.84-1.42.29,0,0-.39-.27-.59-.39s-.26-.15-.36-.24a.3.3,0,0,1,.16,0,4.4,4.4,0,0,1,.74-.12l.63-.11A3.32,3.32,0,0,0,28.59,207.17Z"/><path class="cls-2" d="M26.48,208c.41.29.75.34.68.83a2.79,2.79,0,0,0,0,.49l-1.05.16c-.08-.13-.32-.16-.4-.16a9.62,9.62,0,0,0-5.17,1.87s-.32.33-.47.5-.13,0-.16,0a12.6,12.6,0,0,1-1.83-.26,3.29,3.29,0,0,1-.78-.19.69.69,0,0,1,.07-.13c.52-1.13,3.57-1.72,4.68-2,.13,0,.7-.08.87-.34,0-.15-.25-.13-.32-.14-1.53-.24-4.79.84-5.71,2.1-.39.53-.59.24-1.05-.08a.44.44,0,0,1,0-.41c.75-1.3,4.92-2.28,6.36-2.62l.7-.17.11,0,1.22-.27.71-.14a10,10,0,0,1,1.15.65l0,0C26.26,207.85,26.45,208,26.48,208Z"/><path class="cls-1" d="M77.91,43.74a4.16,4.16,0,0,0,.7-.57c-.28,0-.56-.05-.84-.07-.1,0-.17.16-.26.23A5.14,5.14,0,0,0,77.91,43.74Zm1.56.69a12.36,12.36,0,0,0,1.72-1s.09,0,.11-.07a7.2,7.2,0,0,0-.77-.07c-.24,0-.47,0-.7,0h-.06c-.22.1-.57.32-.63.35a5.4,5.4,0,0,0-.77.46s-.09,0-.09.07c.18.23.38.47.58.68C79.07,44.69,79.42,44.46,79.47,44.43ZM42.64,107.66c-.24-.3-1.09-.18-1.52-.29a.51.51,0,0,0,0,.21,3.16,3.16,0,0,0,.75.12C42,107.71,42.57,107.85,42.64,107.66Zm-1.48-1a6.48,6.48,0,0,0,.65.08,1.76,1.76,0,0,0,.83,0c-.33-.24-1-.15-1.46-.25C41.13,106.51,41.15,106.58,41.16,106.63Zm3.69-1,1.23-.3s.09,0,.09,0a4.58,4.58,0,0,0-.5-.59c-.26-.31-.53-.62-.81-.92,0,0,0,0,0,0a4.14,4.14,0,0,0-.54.43c-.49.51-.65,1.18-.14,1.43A2.83,2.83,0,0,0,44.85,105.63Zm-2.23.45c-.32-.21-1-.14-1.41-.22,0,0,0,0,0,0A2.46,2.46,0,0,0,42.62,106.08Zm-3.55-5.38a18.1,18.1,0,0,0,2.55,0,.34.34,0,0,0,.16,0c-.15-.17-.45-.45-.49-.49a17.09,17.09,0,0,0-1.57-1.5l0,0h0l-.6.26c-.73.34-2.34,1-.83,1.64l.13,0A4.56,4.56,0,0,0,39.07,100.7Zm.78,11.53c.21-.15.2-1.24.21-1.31,0-.45,0-.9.09-1.35a.45.45,0,0,0,0-.13c-.1.19-.23.55-.25.6a3,3,0,0,0-.23,2,.37.37,0,0,0,.07.1l.06.06Zm1.44-7.37h0a.25.25,0,0,0,0,.17,4,4,0,0,0,.75.12c.15,0,.56.13.64,0C42.42,104.83,41.67,105,41.29,104.86ZM41.13,107h0a.34.34,0,0,0,0,.14c.38.09,1.22.29,1.52.11-.31-.25-1-.15-1.5-.26ZM38.91,210a.51.51,0,0,0,0-.12h0l-.64.21a22.52,22.52,0,0,1-7.37,1.09,2,2,0,0,0-.35,0c.16.33.32.67.46,1h.72a66.77,66.77,0,0,0,7.63-.41.12.12,0,0,0,.07,0,4.3,4.3,0,0,0-.13-.73A6.07,6.07,0,0,0,38.91,210ZM61.81,40.67a3.05,3.05,0,0,1,.2.76c.05,1.34-1.7,1.88-2.9,2.1l.65.33a22.47,22.47,0,0,1,2,1.29l.05,0,.55.43c.68.56,1.24,1.23,1.88,1.81l.15.17a3.48,3.48,0,0,0-.12-.49h0v0c-.05-.2-.11-.56-.12-.61a7.37,7.37,0,0,1,.77-4.92.4.4,0,0,0,.07-.16l-.71-.14c-.51-.11-1-.21-1.52-.33l-.15,0h-.06ZM57.67,59.6c4.34.91,9.21.3,9.14-5.31a8.82,8.82,0,0,0-.41-2.54s0-.08,0-.13a6,6,0,0,0-.26-.6,13,13,0,0,0-.81-1.4.37.37,0,0,0-.07-.1c-.12-.2-.37-.53-.4-.58a12,12,0,0,0-1.8-2s-.05-.07-.09-.09a1.56,1.56,0,0,1-.92.53,3.46,3.46,0,0,1-.79,0,.66.66,0,0,1-.17,0h-.14a4.79,4.79,0,0,1-.63-.11,8.7,8.7,0,0,1-3.1-1.2s0,0,0,0L57,46l-.16-.1a7.35,7.35,0,0,1-1.44-1.14l0,0-.11-.12a3.56,3.56,0,0,1-.39-.59c-.24-.44-.52-.3-1-.33-.68,0-1.36-.1-2-.19l-.16,0h-.08c-.17.16-.47.44-.52.47a15.1,15.1,0,0,1-3.72,2.43c-.08,0-.36.11-.37.32s-.16.63-.17.69a7.46,7.46,0,0,0,.55,3.84s0,0,0,.06l0,.06.27.59a13.87,13.87,0,0,0,.8,1.41l0,.05.4.58a14.91,14.91,0,0,0,5.63,4.7l.1.05.06,0c.2.09.56.24.61.25a15.35,15.35,0,0,0,1.5.47.39.39,0,0,1,.13,0h0ZM67.84,205.2a5.36,5.36,0,0,1,.55.43c.45.4.6,0,1.11-.26a7.52,7.52,0,0,0,1.1-.58s.05,0,0,0c-.23-.06-.65-.13-.71-.14l-.94-.17a.38.38,0,0,0-.12,0C68.68,204.84,68.21,205,67.84,205.2ZM35,204.78a.79.79,0,0,0,.25-.06,3,3,0,0,0-.7-.27,6.29,6.29,0,0,0-1.43-.18H33l-.69.05c-.85.09-3.63.8-3.94,1.72-.15.41.54.49.89.67.24,0,.62-.23.7-.27A32.12,32.12,0,0,1,35,204.78Zm14-99.91,1,0a.23.23,0,0,0,.13,0,5.29,5.29,0,0,0-.3-.67,3.1,3.1,0,0,0-.77-1l-.09,0h0a.36.36,0,0,0-.23,0c-.63.32-.39,1.22-.41,1.8C48.53,104.89,49,104.87,49,104.87Zm1.62,48.89a23,23,0,0,1-2.15,2.15.32.32,0,0,0-.12.23c0,.22-.08.6-.09.65a121.94,121.94,0,0,0-1.05,22.6,110.87,110.87,0,0,1-.32,17.48,1.52,1.52,0,0,0,0,.19c0,.22-.07.6-.08.66-.14,1-.33,2-.51,3.05a1,1,0,0,0,0,.12l0,.06c-.05.23-.14.65-.15.71-.17.72-.34,1.44-.55,2.15a.16.16,0,0,0,0,.11l.6-.29a17.2,17.2,0,0,1,4.92-1s.09,0,.12,0c0-.23-.15-.64-.16-.69-2.71-12.17.8-24.92.8-37.18,0-3.6-.09-7.19-.4-10.77a1.08,1.08,0,0,0-.31-.7h0C50.92,153.39,50.67,153.71,50.63,153.76Zm-.73,55.32c.82-1,.18-1.57-.53-2l-.07,0a5.67,5.67,0,0,0-.65-.33,11.12,11.12,0,0,0-1.37-.48l-.14,0h0l-.7-.16c-.26,0-2.49-.33-2.5-.34h-.06c.05-.23.19-.65.21-.72s.13-.42.18-.63.15-.56.16-.61c.25-.94.48-1.88.68-2.83l0-.12v-.1l.12-.61c.18-1,.33-2,.46-2.95a1.05,1.05,0,0,1,0-.13v-.09c0-.2.06-.56.07-.61,1-9.47,0-18.87.38-28.33a105,105,0,0,1,1.19-11.31.67.67,0,0,0,0-.16,6.08,6.08,0,0,1-.65.07c-1.94,0-1.66-1.93-1.26-3.23a.53.53,0,0,0,0-.17l-.64.33c-.62.34-.49.84-.58,1.52l-.21,1.62a.45.45,0,0,1,0,.08c0,.22-.09.59-.09.64-1.36,8.78-3.6,17.14-5.75,25.75C36.64,189.32,35.93,197,37,203.33c0,.24.09.48.14.72a.64.64,0,0,1,0,.07c0,.48,1.13.21,1.43.2,1.42,0,3.6,0,4.34,1.44a1.56,1.56,0,0,1,.11.26.37.37,0,0,1,0,.14A1.86,1.86,0,0,1,43,207c-.44,1.25-2.2,2.07-3.32,2.58,0,0-.1,0-.13.07.09.21.2.58.22.63a8.6,8.6,0,0,1,.27,1.34l0,.1c.24,0,.66-.06.72-.07C43.18,211.38,48.3,210.92,49.9,209.08Zm9.6-.26c-.58-.14-1.16-.29-1.74-.48l-.12,0h0c-.26-.09-.51-.19-.77-.26a5.64,5.64,0,0,0-.53,1.49c.22,0,.62.06.67.06,2.48.17,5,.29,7.46.29.36,0,.42-.07.61-.37a.59.59,0,0,0,.09-.18l-.7,0a23.14,23.14,0,0,1-4.07-.35l-.08,0h-.05Zm-26-157.13-.26-.61c-.21-.52-.43-1-.66-1.55,0,0,0-.05,0-.08h0v0l-.27-.59a4.47,4.47,0,0,1-.5-1.34.07.07,0,0,1,0-.06c.27.1.55.54.61.62.24.34.47.68.69,1a.32.32,0,0,1,0,.07c.13.2.34.56.37.61.28.5.56,1,.81,1.52a.57.57,0,0,0,0,.07l0,.07c.1.19.25.53.28.58.27.56.49,1.15.74,1.72a.45.45,0,0,1,0,.08l0,.06c.08.21.21.59.23.64.19.56.37,1.12.51,1.7a.35.35,0,0,1,0,.07l0,.06c.06.23.16.63.17.69.19.74.93,1.82,1.74,1.58a2.33,2.33,0,0,0,.22-.73,17.45,17.45,0,0,0-.64-6.77.58.58,0,0,0,0-.1v-.06c-.07-.23-.16-.63-.18-.69-.2-.75-.09-.66-.86-.74h-.06l-.08,0c-.79-.09-.81-1,0-1l.09,0c.09,0,.21,0,.28,0a6,6,0,0,0-.21-.64A30,30,0,0,0,34.47,43s0,0,0-.07l0-.07L34,42.27c-.86-1.37-1.8-2.69-2.78-4l-.09-.12,0,0h0a4,4,0,0,0-.07.65c-.74,7.35-1.14,14.72-1.66,22.08,0,0,0,.11,0,.16,0,.36.53.67.66.78a20,20,0,0,1,1.86,1.82l.09.1.07.09c.16.18.41.49.45.54a7.87,7.87,0,0,0,2,2.18.41.41,0,0,1,.12,0C36.13,66.33,36,63,36,62.73a33.29,33.29,0,0,0-.91-6.1.64.64,0,0,1,0-.09l0-.06c0-.23-.16-.62-.18-.68-.13-.5-.28-1-.46-1.5a.38.38,0,0,1,0-.11l-.22-.64c-.21-.6-.44-1.19-.68-1.78A.45.45,0,0,1,33.46,51.69ZM30,213.12a88.75,88.75,0,0,1-9.51-.58l-.12,0-.66-.08c-1.21-.17-3.94-.32-4.71-1.32a.62.62,0,0,1,0-.1h0v0c0-.06,0-.21-.11-.18a2.35,2.35,0,0,0-.19.81c-.19,1.79-.11,1.66,1.46,2l.15,0,.72.13c10.55,2,23.84,1.87,33.92-2.16.85-.35.68-.64.86-1.5,0-.2.08-.41.13-.61a.83.83,0,0,1,0-.13.51.51,0,0,0-.49-.72,4.2,4.2,0,0,1-.34.64c-1.6,2.36-7.52,2.8-10.15,3.13l-.89.1a.76.76,0,0,1-.17,0l-.66.08c-2.84.28-5.65.36-8.5.48H30Zm5.87-7.79a18.14,18.14,0,0,0-6.38,2.24l-.09.06a5.57,5.57,0,0,0-.57.41c-1.15,1-.84,1.52.44,2l.12,0h0c.24.06.66.13.72.14a19.8,19.8,0,0,0,8.76-1.15l.08,0,.62-.25c.89-.38,2.69-1.2,2.81-2.28,0,0,0-.11,0-.17h0v0a1.59,1.59,0,0,0-.71-.77,7.22,7.22,0,0,0-3.23-.45h-.17c-.23,0-.63,0-.69.05l-1,.11h-.09ZM35.72,43c.53,1,1,2.17,1.49,3.06l.08.21c.51-.39,1.21-.16,1.8,0l.06,0,.69.16c.52.12,1,.28,1.56.41l.1,0h.06l.68.19c1.07.3,2.14.71,3.22,1a.55.55,0,0,0,.26.06c0-.23.08-.66.09-.73s.07-.31.09-.46l-.7.14c-.18,0-.75.16-.93-.06a1.84,1.84,0,0,1,.7-.37c.33-.16.66-.34,1-.52l.1-.07.61-.36a17.32,17.32,0,0,0,3.21-2.29s.07,0,.07-.09c-.23-.07-.65-.12-.72-.14-.45-.08-.9-.15-1.35-.25l-.11,0H47.7l-.06,0-.71-.15c-.78-.16-1.54-.36-2.31-.52l-.1,0-.06,0-.69-.17c-.56-.13-1.12-.26-1.67-.42l-.07,0-.06,0-.68-.18-1.8-.54-.11,0-.07,0-.65-.21c-.62-.2-1.23-.4-1.84-.62l-.12,0-.64-.23c-.51-.18-1-.37-1.52-.57l-.12,0-.07,0-.62-.25-1-.43-.12,0a5.82,5.82,0,0,0,.4.55c.84,1.15,1.61,2.34,2.36,3.55l0,0Zm-5,158.83c-2.07.16-7.52,1.32-8.86,2.95-.8,1,.22,1.24,1,1.5,0,0,.05,0,.08,0l.7.17a27.56,27.56,0,0,0,4-.66c.39-.13,1.19-1,1.8-1.29a8.22,8.22,0,0,1,5.62-.61c.17,0,.37.12.52-.13a.83.83,0,0,0-.25-1.33h0a5.77,5.77,0,0,0-.68-.3,10.77,10.77,0,0,0-3.1-.34H31.4Zm21.88-97s.13,0,.13,0a5.47,5.47,0,0,0-.31-.66,3.43,3.43,0,0,0-.72-.88l-.12-.08h0a.61.61,0,0,0-.32-.08c-.59.36-.44,1.22-.45,1.81a5.34,5.34,0,0,0,.73,0A5.53,5.53,0,0,0,52.58,104.73Zm-16,47.8c.89,0,.73-.11.76-.94a.54.54,0,0,0,0-.17c-.21.11-.56.33-.61.36a7.68,7.68,0,0,0-.81.55s0,0,0,.07A2.43,2.43,0,0,0,36.56,152.53Zm21.81.14a13.15,13.15,0,0,0,1.51.46l.1,0H60l.71.15c.45.09,1.94.32,2.29,0,0,0,0-.09,0-.11-.09-.22-.31-.58-.34-.64a5.79,5.79,0,0,0-1-1.09l-.08-.06L61,151a14.84,14.84,0,0,0-1.34-.76h0l-.72.14a37.78,37.78,0,0,1-7.63.78,36,36,0,0,1-4.63-.3q-.75-.1-1.5-.24l-.1,0h0a5.73,5.73,0,0,1-.71-.16,1.58,1.58,0,0,0-.21,0,3.24,3.24,0,0,0,0,.69,8,8,0,0,0,0,1.7s0,.11,0,.14a4.79,4.79,0,0,0,.6-.32l.74-.43.09,0a2,2,0,0,1,1-.37c.18.32,0,.71-.08,1s-.17.63-.18.68c-.2.84-.15,2.4,1.09,2.08l.17-.06a4.72,4.72,0,0,0,.62-.37,29,29,0,0,0,2.65-2.67l.18-.13a.41.41,0,0,1,.3-.13.44.44,0,0,1,.36.18l.49.49a17.72,17.72,0,0,0,1.9,1.78l.1.08c.2.13.57.33.63.36a2.14,2.14,0,0,0,1,.17l.11,0c.64-.15.74-1.3.76-1.46s.05-.49.07-.74a1.64,1.64,0,0,0,0-.18c.09-.83.26-1,1-.52C57.92,152.47,58.31,152.65,58.37,152.67Zm-17-104.9-.62-.11c-.59-.1-1.17-.22-1.75-.34l-.1,0-.06,0-.71-.16a3.16,3.16,0,0,1-.52-.22c.07.2.21.56.23.61.4,1.16.23.89,1.48,1,2,.15,4,.33,6.07.57a1.66,1.66,0,0,0,.41,0c.23-.81-.8-.7-1.62-.83s-1.82-.28-2.73-.46Zm.47,53.89c-.6.38-1.91,1.4-.61,1.82l.15,0a5.32,5.32,0,0,0,.7,0,7.85,7.85,0,0,0,2.09-.43.12.12,0,0,0,.08,0c-.15-.17-.43-.46-.47-.5-.38-.39-.75-.82-1.16-1.17,0,0-.06-.06-.1,0A2.83,2.83,0,0,0,41.79,101.66ZM52.94,211.78A68.37,68.37,0,0,0,79.56,211c.92-.23.75-1.66.7-2.42a.31.31,0,0,1,0-.11h0v0h0a.12.12,0,0,0-.1-.08,1.48,1.48,0,0,1-.68.79,5.63,5.63,0,0,1-1.61.47l-.15,0c-.2.05-.57.11-.62.12a83.43,83.43,0,0,1-21.12.58h-.1l-.67-.06c-.84-.09-1.69-.19-2.53-.3a.42.42,0,0,0-.13,0c-.05.24-.12.67-.13.73s-.21.84-.19.92,0,0,0,0ZM53.79,23l.63.22c.54.18,1.09.32,1.64.46h.11l.71.14c5.16,1,11.92-.45,11.34-7.14a8.62,8.62,0,0,0-.11-.87l0-.14h0v0h0c0-.23-.16-.63-.17-.69a14.83,14.83,0,0,0-.51-1.46l0-.09c-.1-.19-.25-.55-.27-.59a17,17,0,0,0-.83-1.51l-.06-.11,0-.07-.4-.59A23.07,23.07,0,0,0,60,5L59.88,5l-.07,0-.61-.38c-.64-.4-1.3-.76-2-1.1l-.11-.06-.09,0-.58-.28A23.64,23.64,0,0,0,53,1.86l-.11,0-.06,0-.71-.15a15.58,15.58,0,0,0-3.33-.36h-.09c-.24,0-.65,0-.71,0-5.13.32-8.46,3.78-7.1,9.05,0,0,0,.09,0,.14.05.21.14.43.17.63-.19-.09-.36-.22-.54-.32h0l-.63-.36A25.34,25.34,0,0,0,37,9.11l-.13,0-.07,0c-.21-.08-.58-.21-.63-.24-.48-.17-1-.34-1.47-.49l-.14,0-.07,0-.68-.19c-6.19-1.69-16.56-.85-17.55,7.24a9.22,9.22,0,0,0,.3,3.42.62.62,0,0,1,0,.14c.05.22.18.6.2.66a14.36,14.36,0,0,0,1.51,3l.06.08,0,.08.41.57a21.78,21.78,0,0,0,6.33,5.61l.11.07a.46.46,0,0,1,.33.6v.61q0,14.32,0,28.65c0,.69.28.5.88.72l.06,0,.07,0a5.62,5.62,0,0,1,.59.26c.33.15.63.36.95.53,0,0,0,0,.07,0,0-.24.06-.67.07-.74.7-9.34,1.3-18.7,2-28,0,0,0-.26,0-.38a4.21,4.21,0,0,1,.65.19c.69.22,1.4.42,2.1.61l.13,0,.07,0,.73.14c6.14,1,15.47-.62,15.57-8.54a10.86,10.86,0,0,0-.08-1.28,1.23,1.23,0,0,1,0-.13c0-.24-.12-.67-.13-.73a5.38,5.38,0,0,1-.18-.69s-.06-.11,0-.16l.6.36.7.41.07,0,.64.34a23.06,23.06,0,0,0,2.38,1.07l.13.05ZM24.24,207.23,23,207.5l-.11,0-.7.17c-1.44.34-5.61,1.32-6.36,2.62a.44.44,0,0,0,0,.41c.46.32.66.61,1.05.08.92-1.26,4.18-2.34,5.71-2.1.07,0,.29,0,.32.14-.17.26-.74.31-.87.34-1.11.25-4.16.84-4.68,2a.69.69,0,0,0-.07.13,3.29,3.29,0,0,0,.78.19,12.6,12.6,0,0,0,1.83.26s.12,0,.16,0,.43-.46.47-.5a9.62,9.62,0,0,1,5.17-1.87c.08,0,.32,0,.4.16-.08.34-.94.52-.95.52a10.22,10.22,0,0,0-4.26,1.76.16.16,0,0,0-.05.06,5.58,5.58,0,0,0,.66.06,68.73,68.73,0,0,0,8.61.36h.07a4.28,4.28,0,0,0-.28-.68c-.05-.09-.27-.56-.71-.54h-.05c-.22-.06-.59-.2-.65-.22-.76-.31-1.27-.72-1.34-1.46a2.79,2.79,0,0,1,0-.49c.07-.49-.27-.54-.68-.83,0,0-.22-.15-.33-.22l0,0a10,10,0,0,0-1.15-.65Zm.36-129a2.71,2.71,0,0,0,.36.73,5,5,0,0,0,2.78,1.77l.13,0h.07l.64.1a3.59,3.59,0,0,0,4.05-3.76v-.17h0v0a1.17,1.17,0,0,0-.09-.32c-.16.17-.42.47-.47.51a6.5,6.5,0,0,1-7,1.32l-.07,0-.09,0C24.79,78.29,24.7,78.21,24.6,78.21ZM85.45,36.73c2-.26,5.49-.87,7-2.25.06-.06.27-.26.25-.45s-.76-.41-.92-.44c-4.35-.92-8.92-.78-13.36-.78-.65,0-.5-.37-.64-1,0,0-.09-.37-.14-.55v-.07c-.06-.22-.17-.62-.18-.68a17.29,17.29,0,0,0-.62-1.84.21.21,0,0,0,0-.06l0-.09c-.1-.19-.24-.55-.26-.59-.23-.5-.5-1-.77-1.45l-.06-.11,0-.08-.38-.6c-.42-.65-.86-1.27-1.33-1.88l0-.06,0,0c-.14-.19-.4-.5-.44-.54-.39-.47-.81-.91-1.23-1.36a.38.38,0,0,1-.08-.09c-.16-.17-.45-.45-.5-.49-.39-.38-.82-.73-1.22-1.11l-.06-.05c-.18-.15-.49-.41-.54-.44-.23-.18-.45-.37-.69-.54l-.07,0c-.08.21-.17.6-.19.66-1.53,5.11-8.29,6.15-12.91,5H55.9l-.7-.16c-.57-.15-1.14-.32-1.7-.52l-.11,0-.63-.23c-.72-.28-1.41-.67-2.13-.94,0,0,0,0-.06,0,0,.22,0,.63,0,.69.18,7.31-7.19,10.06-13.31,10.06a22.43,22.43,0,0,1-4.09-.34l-.12,0H33c-.23,0-.64-.15-.69-.16l-.68-.19a4.05,4.05,0,0,0-.11.75,16.65,16.65,0,0,0-.2,2.76,3.37,3.37,0,0,0,.84.38l.09.05.6.26,1.82.76.11,0,.06,0c.21.07.57.22.62.24.51.2,1,.37,1.54.55l.07,0,.07,0,.64.22,1.79.55.09,0,.07,0a5.91,5.91,0,0,0,.68.17c.61.16,1.22.34,1.82.53l.07,0,.67.18c.56.15,1.11.3,1.67.43l.12,0c.23,0,.64.14.7.16l2.43.52H48l.63.11c.8.14,1.61.34,2.42.41a.13.13,0,0,0,.14,0c.14-.16.39-.45.42-.5.29-.36,1.4-2.31,1.52-.74,0,.58-.37,1-.53,1.44,0,0,0,0,0,.05.21,0,.59.08.64.09,1,.1,1.93.14,2.91.17a.56.56,0,0,1,.16,0l.61,0c.77,0,3.65-.27,4-.93.28-.49-.78-1.36-1.17-1.62l-.07-.05L59,39.57c-.28-.15-2.64-1.31-2.67-1.39s-.1,0-.08-.11a2.11,2.11,0,0,1,.92.11c1,.21,1.89.48,2.83.74a.41.41,0,0,1,.12,0l.68.18,2,.51.09,0h.06c.23.07.63.16.69.17.68.16,1.36.28,2,.42l.08,0,.63.11c2.63.49,5.28.87,7.93,1.16a.26.26,0,0,1,.11,0l.66.07,1.12.12a.52.52,0,0,1,.17,0,.44.44,0,0,1,.16,0l.68.05c1.11.09.9-.06,1.6-.91.5-.59,2.49-3.13,3.16-3.13h.1c.94.11-.53,1.66-.72,1.85-.65.68-1.61,1.43-2.17,2.13,0,0-.14.1-.17.17a5.54,5.54,0,0,0,.67.06c.71,0,1.82-1.1,2.44-1.55.25-.18,2.83-2.12,2.34-.49-.23.76-2.07,1.47-2.66,2a1.21,1.21,0,0,0-.16.1,4,4,0,0,0,.77,0,.41.41,0,0,1,.16,0,6.68,6.68,0,0,1,.72,0,36.22,36.22,0,0,0,4.54-.09H88l.61-.09a7.31,7.31,0,0,0,3.94-1.59s0,0,.06-.07a2.75,2.75,0,0,0-.63-.36c-.45-.18-.91-.33-1.36-.48l-.09,0-.66-.22c-.7-.21-1.41-.39-2.11-.58l-.09,0-.06,0-.7-.16c-.64-.14-1.3-.27-1.94-.39l-.14,0-.07,0h-.06l-.63-.11c-.66-.12-1.32-.22-2-.32-1.63-.26-3.26-.48-4.88-.8l-.11,0h0l-.71-.16C76,36.47,75.24,36.38,75,36c0,0-.06-.05,0-.1.21-.16.7-.08.82-.08l1.29.06a.56.56,0,0,1,.16,0,6,6,0,0,1,.67.06c2,.22,4.19.75,6.16.85a4,4,0,0,0,.6,0l.16,0Zm-11,170.17c.23,0,.62.17.67.19l.38.13a5.73,5.73,0,0,1,2.3,1.49.44.44,0,0,0,.07.08,2.79,2.79,0,0,0,.73-.2c1.92-.74-1.16-1.87-1.81-2l-.38-.08a5.47,5.47,0,0,0-.55-.13l-.14,0c-.31-.12-.27-.15-.21-.37l-.66-.2-1.66-.43-.15,0h0l-.7-.16-.44-.1-.6.26c-.43.19-2.1,1-2.21,1.31,0,0,.07.14.06.2v.06a1.93,1.93,0,0,1-.15.93c-.53,1-1.94,1.27-3,1.48a.14.14,0,0,0-.09,0,5.65,5.65,0,0,0-.36.58c.23,0,.65,0,.71,0A59.87,59.87,0,0,0,77,209a.3.3,0,0,0,.11,0,3.3,3.3,0,0,0-.6-.49,8.39,8.39,0,0,0-2.06-.89l-.11,0h0c-.22-.07-.62-.17-.68-.18s-1.43-.34-1.4-.57v-.07c.29-.28.93-.11,1.13-.08s.68.12,1,.2Zm-48.32,0c.1.09.25.14.36.24s.55.35.59.39c.78.55.61.39,1.42-.29a.13.13,0,0,0,.06-.05,3.32,3.32,0,0,1-.9-.56l-.63.11a4.4,4.4,0,0,0-.74.12A.3.3,0,0,0,26.16,206.88ZM27,81.33A4.09,4.09,0,0,1,23.85,78c-.05-.19-.29-.54-.55-.56,0,0-.06-.06-.1-.05a4.12,4.12,0,0,0-.28.69,8.8,8.8,0,0,0-.31,1.51l-.77-.09a12.91,12.91,0,0,1,.57-2.5s.07-.13,0-.2-.48-.42-.52-.46A13.23,13.23,0,0,1,20.69,75l0,0-.42-.56a19.47,19.47,0,0,1-1.32-2.25l0-.1,0-.08c-.09-.2-.24-.55-.27-.6a17.45,17.45,0,0,1-.65-1.8.26.26,0,0,1,0-.05l0-.08c-.07-.22-.17-.62-.18-.68a10.56,10.56,0,0,1-.19-3.32.89.89,0,0,1,0-.11v-.09c0-.21.1-.56.11-.61a6.54,6.54,0,0,1,5.5-5.41l.09,0a.37.37,0,0,1,.18,0l.62,0a4,4,0,0,0,.56,0c.1-.21-.05-.6-.05-.62.21-3.23-.07-6.75-.07-10,0-6.23-.26-12.46-.26-18.68v-.13c-.18-.15-.55-.35-.6-.39a23.18,23.18,0,0,1-6.12-5.81l0-.05,0-.08L17,22.7c-.13-.2-.24-.41-.37-.61a.25.25,0,0,0,0-.08c-.18.14-.48.41-.52.45-6.09,5.47-9.41,13.08-8,21.29.28,1.62.42,3.23.79,4.87,0,0,0,.08,0,.12a.58.58,0,0,1,0,.19,3.44,3.44,0,0,0,.06.68c2.26,14.9,2.92,30,4.94,44.87,0,0,0,.21,0,.31a3.21,3.21,0,0,1,.07.68,6.37,6.37,0,0,1-.63.1l-.63.11C9.55,96.17,4,97.54,1.6,99.87A1.78,1.78,0,0,0,1,101v.08c0,.46.81.91.81.91.23.11.47.19.71.28l.06,0h.06l.7.16a18.22,18.22,0,0,0,4.89.18.81.81,0,0,1,.17,0l.62-.08c.94-.13,3.63-.77,4.4-.54,1.1.34-1.53,1.21-1.71,1.27-.93.33-1.85.67-2.78,1l0,0-.59.27c-1,.46-3.48,1.59-3.6,2.8l0,.14c.11.32.57.58.71.65,2.73,1.19,8.29.19,11.15-.49,2.41-.57,4.75-1.35,7.14-2l.15,0,.62-.16a8.16,8.16,0,0,1,2.31-.37s.09,0,.11.07c-.06.28-.46.6-.54.67-.52.47-1.09.88-1.65,1.3l-.07,0-.56.42c-1.18.88-2.82,2.67-.51,3.36l.15,0h.07l.64.1c3.56.27,8.8-1,12.15-2.29,1.16-.44,2.29-.94,3.44-1.4.34-.14.26-.19.29-.56a.63.63,0,0,1,0-.14c0-.2,0-.56,0-.61,0-.66.06-1.32.12-2a.84.84,0,0,1,0-.1c0-.23-.37-.49-.42-.56-.57-.91.57-1.42.59-1.83v-.14a3.53,3.53,0,0,0-1.1-.09,8.39,8.39,0,0,1-1.31-.17l-.12,0h0a5.19,5.19,0,0,1-.71-.27c-2.1-1.23,1.33-2.83,2.33-3.19l.16-.06.62-.18A15,15,0,0,1,45.75,97l-.06.66-.35,0c-.23,0-.65,0-.71,0a14.89,14.89,0,0,0-4,.57s0,0-.06,0c.16.17.45.44.5.48l1.55,1.52.09.1.49.49c.62.61,1.26,1.21,1.82,1.87a.33.33,0,0,0,.06.08l.48.51c.36.41,1.49,1.92,1.93,1.92a1.55,1.55,0,0,1,0-.17c0-.25,0-.68,0-.74a14.59,14.59,0,0,0-.39-3l.53-.08c.09.41.19.81.31,1.19,0,0,0,.15.05.23a.84.84,0,0,1,1.2-.11,3.55,3.55,0,0,1,.93,1c.09-.21.2-.63.23-.69.36-.82.87-.8,1.42-.44a4.26,4.26,0,0,1,.89.91s0-.06,0-.09l.46,0a2,2,0,0,0,.12,1.31s.88-.05,1-.05.18,0,.3,0l0,.6-.32,0c-1.23.09-2.47.19-3.71.23h-.15c-.23,0-.65,0-.71,0l-1.4.08h-.17c-.36,1.08-1.42.18-1.53.17s-1.12.45-1.34.5a3.85,3.85,0,0,1-1.22,0l-.09,0h0c-.14,0-.26-.11-.38-.15,0,.24,0,.66,0,.71.29,11.65,0,23.34.38,35,.09,2.39-.07,4.8.08,7.18,0,.53.44.43.93.55l.23.06h0c.24.06.65.15.71.15a34.34,34.34,0,0,0,13.4-.28,2.38,2.38,0,0,0,.31-.08,4.72,4.72,0,0,0-.08-.75C57.84,136.83,56.47,125,55.73,113l.82-.05c0,.1,0,.22,0,.32q1.29,17.87,4,35.62c.12.82.53.72,1.18,1.16l.57.41.09.07.07.05a6.88,6.88,0,0,1,1.4,1.55,3.83,3.83,0,0,1,.34.64l0,.08,0,.09c.37,1.94-2.74,1.39-3.87,1.21l-.62-.11h0l-.09,0q-.63-.15-1.26-.33c-.06,0-.44-.15-.66-.2a.2.2,0,0,0,0,.12,3.58,3.58,0,0,1-.51,2.08,3.28,3.28,0,0,1-.58.5.19.19,0,0,0,0,.11c.07.93.16,1.84.26,2.76l-.76.09c-.1-.84-.18-1.68-.26-2.52a.69.69,0,0,0,0-.25c-.23,0-.62,0-.69-.05a5,5,0,0,1-1.47-.61l-.08-.05-.08-.05,0,0a7.8,7.8,0,0,1-1.05-.85c0,.22,0,.62,0,.67a91.75,91.75,0,0,1-.11,16.07c-.37,3.7-.54,7.52-.82,11.23-.49,6.54-.71,13.21.83,19.64l0,.12a5.77,5.77,0,0,1,.21.79l-.81.06-.67.06A11.76,11.76,0,0,0,45.67,205l-.06,0a4.94,4.94,0,0,0,.7.13c.28,0,.55.1.83.15l.14,0,.06,0c.24,0,.65.14.71.16a8,8,0,0,1,1.71.62l.05,0,.07,0c.2.13.52.38.57.41.45.38.66,1.13,1.17,1.3s1.21.5,1,1.24c.21.05.6.08.65.09.7.09,1.41.18,2.12.22a.54.54,0,0,0,.17,0,4,4,0,0,0,.17-.61,7.07,7.07,0,0,0,.33-1s.06-.08,0-.12c-.31-.17-.64-.31-.94-.51l-.06,0c-.2-.12-.53-.36-.58-.4-2.72-2.08-.28-3.85,2.19-4.11.22,0,.93,0,1.51-.05l0,.71h-.09l-.72,0c-1.8.09-5.07,1-2.18,3l.31.19.65.34c.49.23,1,.42,1.5.6l.1,0,.66.2c.6.16,1.2.29,1.8.41l.1,0,.65.1a23.21,23.21,0,0,0,4.33.14h.09l.62-.08c.15,0,2.15-.33,2.19-1.29h0v0h0a2.18,2.18,0,0,0-.44-.66c-1.09-1.16-2.82-1.64-4.27-2.13l-.08,0h0l-.68-.19-1-.23.14-.68.33.06c.46.11.92.23,1.37.36h.08l.66.2c.92.29,1.76.68,2.64,1.05a1.17,1.17,0,0,0,1.31-.55,2.29,2.29,0,0,0-.52-.59,4.91,4.91,0,0,0-1.39-.7l-.06,0h0l-.4-.12.16-.62.43.12.06,0c.2.07.56.22.61.25.63.29,1,.77,1.53,1,0,0,.12,0,.16,0l.63.11a20.91,20.91,0,0,0,3.5.64l.13,0c.2-.07.56-.15.61-.17s1.38-.39,1.42-1v0h0a1.71,1.71,0,0,0-.43-.67,4.55,4.55,0,0,0-1.18-.8l-.11,0h0c-.19-.09-.55-.23-.6-.25-.49-.18-1-.33-1.5-.47l-.15,0h0l-.69-.18a20.23,20.23,0,0,0-5.31-.72h-.08l-.68,0a8,8,0,0,0-2.58.62l-.24-.51c2.83-1.36,6.12-.8,9.11-.14.06,0,.46.1.69.17l.11,0a16.55,16.55,0,0,1,1.69.53s.42.15.61.25c0,0,.05,0,.05,0a4,4,0,0,1,1.84,1.36,2.34,2.34,0,0,1,.3.68V203c.23.74-.88,1.42-.91,1.44l-.58.29s.12,0,.12,0,1.41.43,1.6.5a5.36,5.36,0,0,1,.63.23l.07,0,.12.05a10.51,10.51,0,0,1,2.65,1.4,6.65,6.65,0,0,1,.67.81c.12.07.74.08.71.52h0v0h0c0,.05,0,.13,0,.14.19,1.17.17,3-1.2,3.34A68.48,68.48,0,0,1,54.44,213c-.92-.14-2.92-.75-3.71-.44-10.28,4.11-23.2,4.26-33.95,2.11l-.72-.14h0a.45.45,0,0,1-.16,0c-.34-.07-.68-.13-1-.22-1.27-.34-1.15-1.86-.93-2.94.26-1.35.56-.67,1.05-1.29,1.2-1.55,4.61-2.53,6.48-3,.06,0,.46-.1.68-.17l-.06,0c-2.19-.94-1.34-2.47.3-3.42,3-1.74,9.38-2.94,12.65-1.85a4.48,4.48,0,0,1,.59.26c.06,0,0-.16,0-.2a58.74,58.74,0,0,1,2.11-20.8c2-7.47,4-14.66,5.24-22.31a6.29,6.29,0,0,0,.11-.72,2.86,2.86,0,0,0-.17.29,13.27,13.27,0,0,1-7.3,5.28l-.61.18h-.07l-.12,0a19.68,19.68,0,0,1-7,.27l-.71-.15-.06,0-.08,0a13.24,13.24,0,0,1-1.74-.6l-.59-.27-.07-.05-.08,0a8.44,8.44,0,0,1-1.67-1.16,5.42,5.42,0,0,1-.47-.51l-.08-.08-.08-.11a3.14,3.14,0,0,1-.32-3.53,3,3,0,0,1,.46-.52s0-.11,0-.12c-.4-1.35.18-2.92,1.84-2.72a5.43,5.43,0,0,1,.67.18s0,0,0,0c-.2-.88-.69-1.33-.11-2.32a3.7,3.7,0,0,1,.43-.55l.1-.09.06-.06a3.08,3.08,0,0,1,2.39-.39c.05,0,.46.1.69.17l.08,0,.09,0a12.5,12.5,0,0,1,1.81.78L31,152l.08,0,.12.07c.46.27.93.55,1.42.79l.6.26.08,0,.06,0a6.51,6.51,0,0,0,3.14.43,3.5,3.5,0,0,0,.64-.21,0,0,0,0,0,0,0c-.44,0-.89.05-1.33,0a1.53,1.53,0,0,1-.83-.29.31.31,0,0,1-.11-.16s-.05-.08-.05-.1c-.08-1,1.21-1.62,2-2.06l.62-.35a.33.33,0,0,0,0-.2c.92-11.93,1.53-23.91,2.41-35.84,0-.49.22-.72-.21-.9a2.36,2.36,0,0,1-.6-.26l-.07,0c-1.33-.77-.49-3.13-.35-3.48,0-.06.21-.45.29-.67,0,0-.14.06-.16.06a7,7,0,0,0-.86.35c-3.7,1.46-9.64,3.11-13.61,2.71l-.65-.09h-.06l-.08,0c-2.91-.7-2.4-3-.64-4.7,0,0,.33-.31.51-.46a1.06,1.06,0,0,0-.14,0,64.78,64.78,0,0,1-9.34,2.45c-2.33.34-7.82.9-9.71-.74a1.81,1.81,0,0,1-.45-.77l0-.06a.53.53,0,0,1,0-.17c.05-1.79,2-2.81,3.36-3.53a5.14,5.14,0,0,0,.62-.35H7.49a25,25,0,0,1-4.41-.28,5.94,5.94,0,0,1-.69-.17H2.33l-.09,0A3.68,3.68,0,0,1,.31,102a2.77,2.77,0,0,1-.28-.7H0v0H0s0-.08,0-.08A2.32,2.32,0,0,1,.47,99.6c2.09-2.78,8.16-4.13,11.43-4.69a6.17,6.17,0,0,0,.71-.15.51.51,0,0,0,0-.16c-1.85-15-2.82-30-4.86-45,0,0-.06-.43-.08-.65a.64.64,0,0,1,0-.15c-.25-1.65-.44-3.33-.7-5-1.3-8.11,1.24-14.61,6.65-20.57.69-.76,1.72-1.51,2.32-2.24.26-.32-.11-.86-.25-1.26,0-.06-.14-.44-.2-.66l0-.06c0-.05,0-.12,0-.14A10.5,10.5,0,0,1,15.25,14c1.91-8.18,12.36-8.86,19-7.1l.67.19.1,0q.82.25,1.65.57l.62.24.06,0,.08,0,1.19.53a6.1,6.1,0,0,0,.73.33,3.65,3.65,0,0,1,0-.38C39,3.08,43.39.13,48.37,0c.06,0,.47,0,.71,0h.1a19.92,19.92,0,0,1,3.27.43l.69.17.15,0A21.28,21.28,0,0,1,57,2s.39.17.58.27l.12.07c.75.38,1.48.79,2.2,1.24l.59.4.08.06a23.64,23.64,0,0,1,6.08,6l.39.59,0,.08.06.1a17.66,17.66,0,0,1,.86,1.6l.26.6,0,.07,0,.07a14.18,14.18,0,0,1,.55,1.67c0,.06.11.47.16.7a.55.55,0,0,0,0,.09c.1.6.06,1.22.17,1.81.06.35,1,.94,1.37,1.21,0,0,.37.29.54.45l.08.07s.06.05.06.06c.46.4.9.82,1.34,1.24l.5.49.07.08a.51.51,0,0,1,.08.09c.42.45.82.9,1.21,1.38l.44.54,0,.07a.33.33,0,0,1,.08.11c.47.64.93,1.29,1.35,2,0,.05.26.41.37.62l0,.08.06.1c.27.48.51,1,.75,1.46a6.77,6.77,0,0,1,.31.67l0,.09,0,.05a19.31,19.31,0,0,1,.73,2.1c0,.05.12.45.17.68,0,.05,0,.13,0,.14.11.51,0,.69.5.72,1.76.09,3.52.07,5.28.14,2.18.08,6.47.1,8.37,1.1a1.72,1.72,0,0,1,.66.57l0,.07a1.06,1.06,0,0,1,0,.46c-.46,1.6-4.31,2.66-5.79,3-.07,0-.49.09-.72.16l.66.16H88l.06,0c.75.17,1.49.37,2.22.61l.64.22.07,0a.16.16,0,0,0,.08,0,10.47,10.47,0,0,1,2.07.88,2.52,2.52,0,0,1,.55.43l.1.13a.93.93,0,0,1,.12.6c-.32,1.34-3.93,2.46-5.19,2.68,0,0-.41.07-.62.09l-.09,0h-.15c-1.36.13-2.69.19-4.06.19a1.86,1.86,0,0,0-.85.06l-.12.09s-.16.09-.17.1c-.92.48-1.88.89-2.83,1.31,0,0-.41.17-.61.27a.32.32,0,0,0,0,.07c.25.41.5.79.72,1.2l-.48.26c-.25-.43-.56-.82-.8-1.25l0,0-.31-.37c-.21-.22-.55-.66-.72-.64a2.22,2.22,0,0,1-1.19.38l-.17,0a7.8,7.8,0,0,1-2.41-.67l-.11-.05-.12,0L73,43.77c-.71-.4-1.52-1.33-2.25-1.44-1.55-.23-3.1-.51-4.65-.76l-.11,0h0c-.14.19-.37.53-.4.59A6.83,6.83,0,0,0,65,46.76s0,.09,0,.14h0v0c.07.22.16.62.18.68A13.88,13.88,0,0,0,65.76,49a.48.48,0,0,0,0,.11l0,.05c.12.21.34.56.37.61.31.47.68.89,1,1.35l0,0,.46.52a14.39,14.39,0,0,0,1.79,1.61l-.32.41c-.72-.57-1.32-1.18-2.06-1.79l0,0c0,.22.15.61.17.67,1.27,5.47-2.14,8.52-7.41,8.25a22.74,22.74,0,0,1-2.94-.38l-.14,0h0l-.7-.15a15.37,15.37,0,0,1-1.66-.55l-.1,0-.6-.27a15.31,15.31,0,0,1-6-5.34L47.62,54l0-.08c-.13-.2-.34-.56-.37-.61a13.54,13.54,0,0,1-.73-1.48s0-.09-.06-.13l0-.07L46.16,51c0-.05-.11-.37-.17-.55l-.12,0-.06-.31.1,0c-.06-.26,0-.76-.41-.62l-.71,0c-2,.08-4,0-6,.08,0,0-.21,0-.3,0a6.26,6.26,0,0,0,.18.67s.06.26.09.4.15.64.16.69,0,.11,0,.16c.52,2.26,1.08,5.34.22,7.51a.78.78,0,0,1-.05.12l0,.07a.24.24,0,0,1-.09.11,1.57,1.57,0,0,1-2,.21c0,.24.09.68.09.75.33,2.37.67,7.16-2.46,7.42a.32.32,0,0,1-.17,0,2.77,2.77,0,0,1-.68-.31,11.92,11.92,0,0,1-2.27-2.53s0,0-.06-.06-.06.06-.1.07c-.23-.11-.51-.69-.59-.81a9.25,9.25,0,0,0-2.34-2.33.55.55,0,0,0-.1-.08l-.59-.39a6.21,6.21,0,0,0-1.24-.61l-.12,0-.07,0-.69-.17a7.5,7.5,0,0,0-2-.06h-.1l-.72.14c-2.31.61-3.53,2.58-3.91,4.82,0,0,0,.07,0,.1,0,.23-.06.63-.06.68a9.6,9.6,0,0,0,.33,2.87.62.62,0,0,1,0,.14c.06.22.19.59.21.65A15.74,15.74,0,0,0,20,71.36l0,.06,0,.09c.11.22.29.61.32.66A11.83,11.83,0,0,0,21.54,74l.08.1.07.09c.15.18.42.48.45.53a12.9,12.9,0,0,0,1.13,1.09l.08.06.06.06.57.41a10.55,10.55,0,0,0,1.36.74l.08,0,.63.22c1.91.6,4.72.2,5.8-1.71.24-.43-.25-.8-.59-1.11a5.81,5.81,0,0,0-.54-.4h0c-.19-.14-.56-.34-.61-.37-1.26-.69-1.8-1.44.23-1.72a7.49,7.49,0,0,1,1.92.12l-.06.67c-.31,0-.63,0-.94,0a.37.37,0,0,0-.15,0l-.7,0s-.35,0-.52.06a11.8,11.8,0,0,0,1.21.68,6,6,0,0,1,.58.41,4.46,4.46,0,0,1,1.59,2.71v.09l0,.08c0,.23,0,.63,0,.69-.07,3.13-2.51,4.45-5.37,4l-.16,0h-.05C27.48,81.46,27.09,81.35,27,81.33Zm-3.27,75.53c.14.19.41.49.45.54a9,9,0,0,0,2.48,1.46l.13,0,.06,0,.62.25c.51.2,1,.36,1.57.51h.11l.7.16a17,17,0,0,0,6.63.05.88.88,0,0,1,.43,0,2.06,2.06,0,0,1-.74.35,14.55,14.55,0,0,1-7.09.31l-.11,0H29l-.7-.16c-.58-.15-1.14-.33-1.7-.53l-.05,0-.62-.24a10.77,10.77,0,0,1-2.36-1.45s-.09-.11-.16-.08a1.44,1.44,0,0,0,0,2.1l.06.07a4.12,4.12,0,0,0,.51.46,8.06,8.06,0,0,0,1.26.83l.09,0,.59.28a11.15,11.15,0,0,0,1.48.49l.11,0,.71.15a16.55,16.55,0,0,0,6.31-.21l.19,0h.06l.61-.16a10.55,10.55,0,0,0,7.06-5.75,1.13,1.13,0,0,0,.06-.14h0v0h0v0a5.26,5.26,0,0,1,.29-.61c.44-.95.23-4.43.18-5.63-.17-4.78,0-9.63-.09-14.42-.19-7.76-.07-15.55-.17-23.31,0-1.33.09-2.7,0-4,0-.47-.51-.34-1-.38a5,5,0,0,0-.58-.05c0,.23-.05.63-.05.69-.87,14.1-1.83,28.23-2.53,42.33,0,0,0,.14,0,.22,0,.23,0,.64,0,.7,0,.65-.06,1.32-.12,2a.54.54,0,0,1,0,.11c.07.26-.13.41-.34.5s-.6.31-.65.34a5.83,5.83,0,0,1-4.41-.27l-.12-.05c-.2-.07-.54-.24-.59-.26-.55-.27-1.1-.54-1.63-.85a.48.48,0,0,0-.11-.06l-.08-.05-.64-.34a11.17,11.17,0,0,0-1.56-.65l-.09,0H28a6,6,0,0,0-.63-.11,1.66,1.66,0,0,0-1.08.27l-.09.07c-1.12,1.18.34,2.61,1.31,3.31.2.13.53.38.58.41a12.2,12.2,0,0,0,1.4.82l.07,0,.06,0c.19.1.54.25.59.27a14.36,14.36,0,0,0,1.8.66l.12,0,.69.17a6.63,6.63,0,0,0,3.1,0,.9.9,0,0,1,.39,0,1.87,1.87,0,0,1-.74.46,6.76,6.76,0,0,1-3.54.3l-.12,0H31.9c-.24,0-.64-.15-.7-.17a11.29,11.29,0,0,1-1.85-.73l-.11,0c-.23-.1-.61-.3-.66-.33-.52-.26-1-.55-1.54-.8l-.06,0-.08,0c-.21-.11-.55-.35-.6-.38a10.7,10.7,0,0,0-1.39-.71l-.1,0-.07,0a4.54,4.54,0,0,0-.73-.13c-.84,0-.51,1.06-.29,1.54Z"/><path class="cls-1" d="M70.92,55.55a17.69,17.69,0,0,1-2.32,2.1s-.12.11-.18.06a2.15,2.15,0,0,1,.32-.6c.54-.8,1.15-1.56,1.72-2.34,0,0,.05-.07.07-.12a4.86,4.86,0,0,0-.59-.38c-.27-.18-.52-.36-.77-.55l.32-.41a11.83,11.83,0,0,0,1.28.85.19.19,0,0,0,.09,0c.15-.14.36-.43.4-.47,1.45-1.81,3.86-3.87,5.07-.61,0,0,0,.09,0,.13v.07a5.52,5.52,0,0,1,.16.71,7.87,7.87,0,0,1,.07,1.37,1.36,1.36,0,0,0,0,.18v.73l-.09,0c0,.24-.12.66-.14.72-.19.9-1.1,3.69-1.74,4.29,0,0-.09.2-.2.16a2.16,2.16,0,0,1,.06-.82A35.35,35.35,0,0,0,75.39,56a1.31,1.31,0,0,1,0-.17c0-.24,0-.66,0-.72a6.11,6.11,0,0,0-.2-1.27s0-.1,0-.14v-.08c-.43-.9-.3-1.55-1.61-.56a17.54,17.54,0,0,0-2,1.92l-.07.08Z"/><path class="cls-1" d="M60.22,202.54c.18,0,.42.11.56,0a4.7,4.7,0,0,1-.4-.59A2.5,2.5,0,0,0,60.22,202.54Zm-.8-23.12c-1.19-6.81-2.54-13.42-3.3-20.25l.76-.09c.72,6.43,2.07,12.76,3.33,19.11a57.07,57.07,0,0,1,.93,20c0,.05,0,.41-.09.62,0,.06,0,.17,0,.18,0,.21-.07.41-.11.62a5.68,5.68,0,0,0-.14.81s.1-.11.11-.11c.18-.1.36-.2.54-.28l.24.51c-.67.34-1,.85-.34,1.61l0,0,.6-.2a7.56,7.56,0,0,1,4,.12l-.16.62-.28-.07a9,9,0,0,0-2.13-.2h-.07l-.65.07a6.28,6.28,0,0,0-1.23.38l-.06,0a2.17,2.17,0,0,0,.44.11l-.14.68a18.93,18.93,0,0,0-3.44-.35h0l0-.71a2.24,2.24,0,0,0,.75-.1,16.35,16.35,0,0,0,.85-3.81l0-.09v-.1c0-.2.07-.56.08-.61A61.68,61.68,0,0,0,59.42,179.42Z"/><path class="cls-1" d="M95,97.91c.3.63-.51,1.49-.57,1.54-2.14,1.84-7.47,1.35-10.14,1-.06,0-.44,0-.65-.09h-.08l-.06,0c-.15,0-.23-.1-.07.07a10.44,10.44,0,0,1,2,2.21,4.71,4.71,0,0,1,.27.71l0,.06c.43,1.67-1.28,2.77-2.57,3.19l-.61.16h-.06l-.11,0a20.13,20.13,0,0,1-6.34-.11c-.06,0-.49-.09-.73-.1a.42.42,0,0,0,0,.16,54.82,54.82,0,0,1,0,9.24c-.41,4.21-2.37,11-7.89,10.12a5.09,5.09,0,0,1-.71-.15l-.07,0-.1,0c-2.36-.76-4.15-2.71-5.52-4.68,0,0-.28-.39-.4-.59l0,0s-.06-.1-.06-.11c-.29-.45-.58-.91-.84-1.37l-.36-.64,0-.05s-.05-.11-.06-.11A41,41,0,0,1,57,113.34a0,0,0,0,1,0,0l.75-.29A41.37,41.37,0,0,0,60,117.9a.89.89,0,0,1,0,.1c.13.21.33.58.36.63.26.46.55.92.85,1.36a.79.79,0,0,1,.08.11c.12.2.36.53.4.58a10.92,10.92,0,0,0,5,4.23l.15,0c.24,0,.65.14.72.14,4.34.61,6-4.78,6.52-8.11a44,44,0,0,0,0-10.88.53.53,0,0,1,0-.14c0-.22-.07-.61-.08-.67-.06-.53-.12-1.06-.19-1.59l1-.13c.06.53.14,1.05.23,1.57a.26.26,0,0,0,0,.1l.63.1a19.7,19.7,0,0,0,6.27.22l.16,0h0a5.78,5.78,0,0,0,.62-.17c.53-.17,1.73-.66,1.57-1.65l0-.06a2.88,2.88,0,0,0-.27-.72c-.83-1.51-2.68-2.39-4.19-3.06l-.09,0-.08,0-.62-.24c-.38-.13-2.52-.88-1.15-1.44.64-.26,1.54.19,2.16.35l.08,0,.06,0,.69.16c.85.2,1.73.37,2.6.49h.1l.65.09c2.28.28,6.9.7,8.93-.38.2-.1.57-.35.48-.68a2.08,2.08,0,0,0-.48-.63,9.7,9.7,0,0,0-2-1.16l0,0-.61-.26c-.82-.34-1.66-.64-2.51-.93l-.14,0-.07,0-.65-.21-1.64-.45-.1,0-.06,0-.7-.16A44.21,44.21,0,0,0,79,93.33s-.08,0-.11,0-.13,0-.16,0l-.38,0,.07-1,.56.06.11,0h.15a52.58,52.58,0,0,1,5.73.92l.7.16h.07l.08,0c.59.14,1.17.3,1.75.47l.66.2.07,0c.91.31,1.82.62,2.7,1l.59.26.07,0,.09,0a8.93,8.93,0,0,1,2.78,1.78,3.9,3.9,0,0,1,.39.6Z"/><path class="cls-1" d="M90.55,64.39c1.86,9.31-5.62,17.25-13.31,21.2a6.66,6.66,0,0,0-.6.32.23.23,0,0,1,0,.07c.2,1.66.44,3.32.69,5,.17,1.11-.11,1.08,1,1.21h.1l-.07,1-.31,0c-.32,0-1.64,0-1.74-.22a24.3,24.3,0,0,1-.54-3.52c-.13-.94-.26-1.88-.38-2.81a1.57,1.57,0,0,1,0-.16h0l-.61.25-.67.29c.06.22.16.62.17.67.14.53.25,1.07.38,1.6a.35.35,0,0,1,0,.06c0,.24.13.67.14.73a21.55,21.55,0,0,1,.39,6s0,.1,0,.15c0,.21-.1.58-.11.63A8.81,8.81,0,0,1,74.39,99l0,.11a2.74,2.74,0,0,0,.07.74c.2,1.23.33,2.5.49,3.74l-1,.13c-.21-1.58-.46-3.16-.72-4.75a.35.35,0,0,1,0-.06.4.4,0,0,1,0-.32c.08-.2.24-.56.26-.61a12.72,12.72,0,0,0,.43-1.72s0-.08,0-.13V96c0-.2.05-.56.06-.61a19.88,19.88,0,0,0-.46-4.92l-.12-.63a.43.43,0,0,1,0-.15l0-.06c-.06-.23-.15-.64-.17-.7-.12-.52-.25-1-.39-1.58,0,0,0-.09,0-.13l0-.08,0-.07c-.06-.22-.18-.6-.2-.66-.14-.5-.31-1-.48-1.48a.34.34,0,0,1,0-.08l-.23-.63a23.4,23.4,0,0,0-1.14-2.43.59.59,0,0,0,0-.08l0-.08c-.13-.2-.34-.57-.37-.62a22.41,22.41,0,0,0-1.41-1.91l0-.05L68.61,79l-.47-.51a14.35,14.35,0,0,0-1.3-1.16l-.07,0-.08-.05a2.13,2.13,0,0,0-1.14-.38c-.92.42-.36,1.66-.16,2.4.07.2.22.57.24.62.37.93.77,1.85,1.16,2.77l0,.11c.08.2.24.54.26.59.33.7.67,1.38,1,2.06l0,.06,0,.08.34.64c.23.42.48.83.73,1.25l.06.11.39.6c.51.78.79.38,1.53.8a2.93,2.93,0,0,1,.56.42.3.3,0,0,1,.09.1,3.8,3.8,0,0,1,.39.6,3.59,3.59,0,0,1,.19.63.79.79,0,0,1,0,.6,2.68,2.68,0,0,1-.59-.52,5.75,5.75,0,0,0-.54-.44l-.08-.06-.08,0c-.21-.11-.61-.29-.67-.31-.5-.14-1.74,0-2,.51,0,0,0,0,0,0a6.19,6.19,0,0,1,.91.71c.21.24.56.53.45.88-.31.08-.57-.22-.85-.32l0,0-.62-.24c-2.4-.79-5.79,1.06-5.21,3.87,0,0,0,.11.05.16l0,.08c.07.21.21.57.24.62a5.36,5.36,0,0,0,1.12,1.47l.08.08.07,0a6.77,6.77,0,0,0,.6.39c.06,0,.87.39,1.24.12a4.29,4.29,0,0,0-.34-.64,9,9,0,0,1-.49-1,.43.43,0,0,1,0-.11,5.52,5.52,0,0,1-.16-.71,4.37,4.37,0,0,1,.44-2.32s.11-.16.2-.16c.16.19.09.67.1.76a6.61,6.61,0,0,0,.32,2l0,.09v.06c.08.21.23.56.25.62a9.67,9.67,0,0,0,.77,1.32l0,.06.46.53c.72.78.67.58.9,1.68a5,5,0,0,1,.11.51v.06c.06.24.14.66.15.72,1,5.12,2.2,12.44.87,17.49-.33,1.27-1.06,3.21-2.74,2.79h0a5.78,5.78,0,0,1-.64-.23c-2-.89-3.52-3-4.72-4.75a.92.92,0,0,0-.05-.08l0-.06-.38-.61c-.31-.51-.6-1-.89-1.56l-.05-.08,0-.06-.34-.64q-.37-.73-.72-1.5a.45.45,0,0,0-.05-.1v0h0c-.1-.19-.25-.54-.27-.59s-.13-.32-.21-.46c-.15.16-.45.43-.49.47a7.19,7.19,0,0,1-.8.56.1.1,0,0,0-.07,0c.07.21.21.57.23.62v0l-.75.29a5.35,5.35,0,0,0-.23-.59c-.2,0-.25.12-.25.27l-.82.05c0-.15,0-.32,0-.47,0-.61.43-.55.94-.79l.14-.07a4.63,4.63,0,0,0,.61-.38,2.81,2.81,0,0,0,1.28-2.51s0-.06,0-.09l0-.06a2.53,2.53,0,0,0-.42-.69,3.77,3.77,0,0,0-1.1-.75l-.09,0c-.21-.09-.58-.22-.63-.24-.35-.11-1-.11-1.07-.41s.11-1-.28-1.31c0,0,0,0,0,0l-.36,0,0-.6.11,0a4.53,4.53,0,0,0-.66-1.2l0,0c-.17-.17-.35-.4-.6-.39a.59.59,0,0,0-.21.41l-.46,0c0-.24.09-.57.1-.63a.53.53,0,0,1,.77-.38c-.1-.22-.3-.59-.33-.64-.13-.28-.27-.55-.41-.83a.8.8,0,0,0-.05-.11l0-.06c-.1-.21-.31-.59-.34-.64a3.66,3.66,0,0,0-.8-1.29.37.37,0,0,1-.13,0c-.51,0-.68,0-.59-.61,0-.24,0-.66,0-.72,0-1.58.08-3.18,0-4.75,0,0,0-.09,0-.14a3.7,3.7,0,0,0-.72,0c-1,0-2,0-3.07,0H47a6.83,6.83,0,0,0,0,.69c.08,1.63.14,3.25.17,4.88v.14c0,.19.07.49-.23.41,0,.22.18.58.19.64.22.66.36,1.36.52,2l-.53.08c-.23-1-.53-2-.84-2.91,0,0,0-.07,0-.11-.14-.52-.21-.71-.61-.71l.06-.66L46,97c.58.07.3.31.48.38,0,0,0,.09.06.09,0-.22,0-.61,0-.67-.11-2.3-.3-4.59-.37-6.89v-.14a.47.47,0,0,1,0-.17c0-.23,0-.63,0-.69,0-.43-.06-.85-.08-1.27a.65.65,0,0,0,0-.14.69.69,0,0,1,0-.2,3.33,3.33,0,0,1,0-.7c-.08-.21-1.2-.7-1.47-.86l-.11-.07-.09-.06c-.21-.11-.57-.33-.62-.36-.78-.48-1.54-1-2.28-1.54l-.08-.06-.05,0-.55-.42c-.75-.57-1.41-1.23-2.13-1.81l-.08,0-.87-.13c0-.15,0-.29.07-.44a1,1,0,0,0,0-.12v-.1a4.37,4.37,0,0,0,0-.61,7.66,7.66,0,0,0-.19-2.13s0,0,0-.08h0v0h0c-.07-.22-.18-.61-.2-.67a7.37,7.37,0,0,0-.67-1.42l0-.07,0-.06c-.12-.2-.37-.52-.41-.57a5.76,5.76,0,0,0-2.08-1.61l-.1,0h0a6.55,6.55,0,0,0-.65-.2,6.44,6.44,0,0,0-1.15-.2l.06-.67a3.84,3.84,0,0,0,.59,0s.11,0,.16,0a3.34,3.34,0,0,0,.05-.71c0-.36-.2-1.63-.15-1.83,0,0,0-.07,0-.09.34.12.61.64.67.79a8.16,8.16,0,0,1,.38,1.83c0,.16.06.32.33.35l.6.26A6,6,0,0,1,37.31,75l0,0,.36.63a10.37,10.37,0,0,1,.62,1.72.63.63,0,0,0,0,.14v.07c0,.2.11.57.12.62.2,1.27,0,1.11.94,2A30.65,30.65,0,0,0,42,82.41l.06,0,.07.06.58.4c.73.51,1.46,1,2.21,1.48l.1.07.62.36c.72.4,1.46.78,2.21,1.12L48,86l.1,0c.21.09.56.24.61.25l.35.15.12,0,.63.23c.8.3,1.62.52,2.44.76l.07,0,.69.18a33.18,33.18,0,0,0,14.87-.06l.17,0a7.11,7.11,0,0,0-.36-.62c-.15-.25-.29-.52-.45-.77l0,0,0-.08-.35-.64c-.36-.67-.7-1.34-1-2l0-.06,0-.08c-.1-.2-.25-.55-.27-.6a22.94,22.94,0,0,1-1.14-2.92l0-.09,0-.07c-.06-.23-.16-.64-.17-.7-.55-2.76.52-4,3.2-2.73l.1,0c.21.11.56.34.61.37a7.39,7.39,0,0,1,1.7,1.5l.05.07.09.11.41.57A25,25,0,0,1,71.56,81a.17.17,0,0,0,0,.07l0,.08.35.64a27.22,27.22,0,0,1,1.16,2.52l0,.1,0,.07c.09.21.22.58.24.63s.15.47.24.69a3.47,3.47,0,0,0,.72-.28l1-.45.09,0,.62-.29c7.57-3.6,15.12-11,13.29-20.08,0,0,0-.08,0-.12l0-.06c0-.23-.15-.63-.17-.69a15,15,0,0,0-.5-1.47s0,0,0-.08l0-.07a6,6,0,0,0-.26-.6c-.23-.5-.51-1-.76-1.45l0-.06,0-.08c-.12-.2-.35-.54-.38-.59a20.71,20.71,0,0,0-5.54-5.54l-.1-.07-.08,0c-.09-.05-.18-.12-.28-.17a5.73,5.73,0,0,0-.33.64,4.83,4.83,0,0,1-4.12,2.15h0v-.73a5.27,5.27,0,0,0,.72-.09c3-.55,3.68-2.82,3.19-5.37h0v0h0c0-.24-.13-.65-.14-.72a14,14,0,0,0-.44-1.53s0-.08,0-.12h0v0h0c-.09-.23-.28-.62-.3-.68a1.14,1.14,0,0,1-.1-.19l.48-.26.19.35c0,.05.18.4.26.61a.31.31,0,0,1,0,.09A16.31,16.31,0,0,1,81,49.24s.13.45.18.68h0v0h0l0,.22a10.16,10.16,0,0,0,.29,2.14,4.32,4.32,0,0,1,.6.39l.1.06a22.31,22.31,0,0,1,6,6l.37.61a.14.14,0,0,1,0,.05,14.36,14.36,0,0,1,.89,1.69s.19.4.27.6l0,.07a.21.21,0,0,1,0,.06,16,16,0,0,1,.56,1.65c0,.06.11.47.16.7l0,.06A1.13,1.13,0,0,0,90.55,64.39ZM69.3,118a41.5,41.5,0,0,0-.58-12.72c-.11-.52-.71-.5-1.2-.64l-.87-.25-.08,0-.07,0-.68-.19c-.26-.06-.51-.15-.76-.22a.21.21,0,0,0-.13,0s0,.08,0,.12c0,.22.08.61.08.66.12,2.58-2.91,5.22-5.17,5.91a1.92,1.92,0,0,0-.37.11c.18.47.4.92.61,1.38.1.22.29.61.32.66.24.5.5,1,.75,1.47,0,0,0,.07.06.11.11.21.32.57.35.63.3.51.62,1,.94,1.52a.38.38,0,0,1,0,.08l.41.59c1.12,1.59,2.55,3.37,4.46,4l.11,0C68.83,121.39,69.2,118.63,69.3,118Zm-.9-29c.09,0,.36-.13.31-.21L68,88.9a32.94,32.94,0,0,1-16-.06l-.1,0-.07,0a2.07,2.07,0,0,0-.43-.1c0,.23,0,.63,0,.69,0,1,.12,2,.14,2.94v.12c0,.24,0,.67,0,.73,0,1-.07,2.3.06,3.25a2.19,2.19,0,0,0,0,.26,4.13,4.13,0,0,0,.72-.05,18.16,18.16,0,0,1,6.15.41l.17,0c.21.07.57.22.62.24a4.82,4.82,0,0,1,1.81,1.51l0,.07c.74,1.31-.95,2.3-2,2.28a3.93,3.93,0,0,1,.57.53c1.17,1.6-1.15,2.09-2.23,2.12h-.07a1.07,1.07,0,0,1,.38,1.44c-.26.38-.13.35,0,.82,0,0,0,.17.07.25,0,.34.5.56.6.64a3.52,3.52,0,0,1,1,1.29.33.33,0,0,1,0,.06l0,.11a5.89,5.89,0,0,1,.17.79,6.48,6.48,0,0,0,.61-.24c2-.93,3.5-2.37,3.28-4.7v-.07l0-.06v-.07c0-.23-.17-.61-.18-.67-.59-1.78,1-1.17,2.05-.84.49.15,1,.34,1.44.53l.06,0c.21.08.59.2.64.21l.76.23s.07,0,.07,0a4.7,4.7,0,0,0-.11-.7c-.09-.49-.18-1-.28-1.45,0,0,0-.1,0-.14l0-.06c0-.24-.13-.66-.14-.72a2.26,2.26,0,0,0-.64-1.09l0,0a3,3,0,0,1-.67.31,3.17,3.17,0,0,1-2.75-.92l-.05,0a6.22,6.22,0,0,1-.48-.5A6.33,6.33,0,0,1,61.85,96l0-.09v-.07a7.1,7.1,0,0,1-.14-.73c-.28-2.83,2.27-5,4.91-5.08C67.19,90,67.81,89.26,68.4,89Zm-10,11.66c.83,0,2.42-.17,2.26-1.3,0,0,0-.06,0-.09h0a3.12,3.12,0,0,0-.45-.53,4.32,4.32,0,0,0-1.53-.93l-.13,0h0l-.07,0c-.07.22-.13.64-.15.7-.05.29-.56,1.94-.52,2.06a.17.17,0,0,0,0,.1A2.06,2.06,0,0,0,58.42,100.61Zm-.78,2.6c.85,0,2.29-.48,1.19-1.47l-.06,0h0c-.38-.24-.81-.39-1.21-.59-.1.2-.22.57-.24.62a9.39,9.39,0,0,0-.51,1.45s0,0,0,.08a1.24,1.24,0,0,0,.27,0Zm-.14-5.28s.07-.19,0-.27l-.65-.08a20.48,20.48,0,0,0-3.13-.19.26.26,0,0,0-.09,0l-.7,0a2.87,2.87,0,0,0-.78.07s-.1,0-.12,0,.09.19.12.29a7.07,7.07,0,0,1,.32.66c.29.6.62,1.18.93,1.78,0,0,0,.06,0,.1l.34.64c.31.6.59,1.22.89,1.82,0,0,0,.06,0,.09l0,.06c.09.2.24.54.27.59a2.63,2.63,0,0,0,.35.76.19.19,0,0,0,.05.1,4.29,4.29,0,0,0,.27-.71A30.56,30.56,0,0,0,57.5,97.93Zm-1.34,6.92c.36.12,1.22.33,1-.4a1.38,1.38,0,0,0-.41-.46,1.12,1.12,0,0,0-.24-.13c-.09.21-.22.57-.24.63S56.2,104.73,56.16,104.85Zm.83,1.23s0-.16-.07-.14-.35,0-.42.13A.56.56,0,0,0,57,106.08ZM50.9,92.35v-.08c-.23-.16-.94-.08-1.12-.08-.88,0-1.79-.08-2.67,0H47a.59.59,0,0,0,0,.19,3.51,3.51,0,0,0,.82,0c1,0,2,.06,3,0C50.81,92.39,50.88,92.4,50.9,92.35Zm-.23-1.45c.07,0,.19,0,.16-.1s-1.2-.13-1.22-.13H47.17a1.34,1.34,0,0,0-.2,0c-.06,0,0,.1,0,.15a2.38,2.38,0,0,0,.81.06A22.16,22.16,0,0,0,50.67,90.9Zm0,.95s.21,0,.21-.07c-.2-.18-.84-.1-1-.1-.94,0-1.88,0-2.82,0a.1.1,0,0,0-.07,0,.07.07,0,0,0,0,0c.19.19.84.1,1,.1A18.69,18.69,0,0,0,50.67,91.85Z"/><path class="cls-1" d="M72.48,92.35s0,.06,0,.07c-.13.19-.86.2-1.27.82,0,.05-.22.42-.35.62a.41.41,0,0,1-.6.15L70.13,94a1.51,1.51,0,0,0-.61-.26c-.84-.08-1.39,1.67-1.67,1.09-.4-.82.88-2,1.76-1.8.06,0,.45.13.68.17l.06-.08a2.66,2.66,0,0,1,.47-.63,2.82,2.82,0,0,1,.78-.33C71.89,92.13,72.34,92,72.48,92.35Z"/><path class="cls-1" d="M66.28,29.46a2.24,2.24,0,0,1,.27.8c-.08,0-.18-.15-.21-.17-.72-.63-1.23-1.39-2-2l-.57-.42-.06,0-.1-.07A4.5,4.5,0,0,0,62.16,27a4.31,4.31,0,0,0-.68-.06h-.09l-.18,0a2.5,2.5,0,0,0-1.43,1s-.22.41-.34.61-.19.44-.4.44-.19-.32-.24-.49v0h0a2.59,2.59,0,0,1,1.4-2.64,4.13,4.13,0,0,1,.72-.14,2.17,2.17,0,0,1,.51,0h.07a5,5,0,0,1,2.18.78,4.93,4.93,0,0,1,.56.42l.1.07A8.88,8.88,0,0,1,66.28,29.46Z"/><path class="cls-1" d="M64.48,74.08c-.15.09-.39-.06-.58-.07h-.16a7.17,7.17,0,0,0-1-.06c-.06,0-.49,0-.74,0h-.11l-.12,0a5.91,5.91,0,0,0-2.46,1,2.9,2.9,0,0,1-.59.44s0-.15,0-.15c-.2-.89,1.39-2.76,2.14-3.15a4.51,4.51,0,0,1,.7-.29h.06l.19,0h.07a2.34,2.34,0,0,1,2,1s.27.39.38.6l0,0A1.9,1.9,0,0,1,64.48,74.08Z"/><path class="cls-1" d="M64.4,15.64a2.17,2.17,0,0,1,0,.36v.09A4.33,4.33,0,0,1,63,18.91a3.37,3.37,0,0,1-.49.38l-.07.06-.08,0a5.41,5.41,0,0,1-.94.45l-.14,0a10.06,10.06,0,0,1-1.23.31c-.05,0-.41.06-.61.07h-.17l-.14,0a13.37,13.37,0,0,1-3.28-.25l-.7-.17h0l-.11,0-.33-.09.23-.79s0,0,.07,0a5.59,5.59,0,0,0,.08-.73c.06-.65.08-1.32.17-2,0,0,0-.05,0-.08a.76.76,0,0,1,0-.15c0-.3,0-.61.08-.91s0-.56,0-.61L55.45,13a1.44,1.44,0,0,1,0-.18c0-.21,0-.57,0-.62.08-.9.14-1.8.21-2.7,0,0,0-.08,0-.11,0-.21,0-.56,0-.61a7.57,7.57,0,0,0,.08-2.25.91.91,0,0,1-.29-.14L55,6.17c-.53-.22-1.07-.41-1.62-.58l-.12,0-.06,0c-.22-.07-.62-.17-.68-.18l.24-1,.09,0,.66.2.07,0a17.64,17.64,0,0,1,1.79.67l.59.27.06,0,.13.06A22.61,22.61,0,0,1,58.89,7.3s.39.28.56.43l.07,0,.07.06.09.06a16.68,16.68,0,0,1,2,1.92s.31.34.45.53l.06.08,0,.06a2.56,2.56,0,0,1,.2.26l0,.06s0,.07.06.07a10.65,10.65,0,0,1,1.61,3.19,6.19,6.19,0,0,1,.15.71,1.41,1.41,0,0,1,.05.35v0a.61.61,0,0,1,0,.14A2,2,0,0,1,64.4,15.64Z"/><path class="cls-1" d="M56.32,172.74c-.43,0-.67-.43-.9-.73h0c-.11-.16-.27-.46-.29-.5s-.4-.75-.24-1.1c.27.1.51.62.58.73l.35.63h0A6,6,0,0,1,56.32,172.74Z"/><path class="cls-1" d="M54.86,19l-.23.79q-.77-.23-1.53-.51L52.5,19l-.08,0a18.63,18.63,0,0,1-3.6-2.06l-.56-.42-.06,0a17.45,17.45,0,0,1-1.74-1.59L46,14.34a.36.36,0,0,1-.07-.1l-.05,0a6.54,6.54,0,0,1-.74-1,6.15,6.15,0,0,1-.38-.6l-.08-.12-.06-.11a.14.14,0,0,1,0-.05,7.21,7.21,0,0,1-.86-2.09,5.63,5.63,0,0,1-.13-.73l0-.13a.66.66,0,0,1,0-.2,2,2,0,0,1,0-.35V8.68a4.43,4.43,0,0,1,.76-2.45,4,4,0,0,1,.44-.54.74.74,0,0,1,.12-.13A.55.55,0,0,1,45,5.44l.09-.08a.31.31,0,0,1,.09-.07A2.16,2.16,0,0,1,45.64,5l.08,0A6.88,6.88,0,0,1,48.41,4,5.8,5.8,0,0,1,49.09,4h.14a13.45,13.45,0,0,1,3.51.43l-.24,1-.61-.13-.15,0a5,5,0,0,0,0,.69v.45a1.14,1.14,0,0,1,0,.26c0,.24,0,.66,0,.72,0,.24,0,.49,0,.73v.18a1.29,1.29,0,0,1,0,.34c0,.2,0,.41,0,.61s0,.66,0,.73c0,.72,0,1.44,0,2.16v.19c0,.24,0,.66,0,.72,0,.61,0,1.21,0,1.82v.07a.87.87,0,0,1,0,.23c0,.24,0,.66,0,.72,0,.47-.2,1.49.13,1.78a5,5,0,0,0,1.06.54l.13.06.06,0,.61.26a13.92,13.92,0,0,0,1.37.48Z"/><path class="cls-1" d="M54.38,109.21c.84,2.17-1.34,3.55-3.17,4-.08,0-1.26.29-1.57-.16,0-.13.21-.2.26-.23,1.11-.58,3.67-.94,3.75-2.65a2.54,2.54,0,0,0-.13-.73.49.49,0,0,1,0-.09A3.65,3.65,0,0,0,52.4,108c-.06,0-.4-.27-.62-.37l-.05,0-.08,0a10.84,10.84,0,0,0-1.74-.6c-.12,0-.7-.1-.85-.37.21-.23.6-.2.89-.21H50a5.24,5.24,0,0,1,1.51.33l.59.27s.11,0,.11.06a5.52,5.52,0,0,1,1.7,1.37,4.28,4.28,0,0,1,.38.61l0,.07Z"/><path class="cls-1" d="M45.81,50.12l.06.31c-.23,0-.52.12-.57.13a33.74,33.74,0,0,1-5.62,1.14c-.44,0-.65-.08-.7-.22s.35-.6,1-.72a51.58,51.58,0,0,1,5.54-.62S45.69,50.14,45.81,50.12Z"/><path class="cls-1" d="M45.46,21a6.83,6.83,0,0,1,.12,3.39,5.24,5.24,0,0,1-.19.62l-.06.17a1.26,1.26,0,0,1-.17.35l0,.09a6.44,6.44,0,0,1-.64,1,6.32,6.32,0,0,1-.45.5,1.55,1.55,0,0,1-.23.21,5,5,0,0,1-1,.72h0l-.2.11-.16.09a9.81,9.81,0,0,1-1.47.59l-.62.17-.14,0h-.07l-.08,0-.12,0a15.21,15.21,0,0,1-6.23-.16c-.06,0-.47-.1-.7-.17h-.06l-.08,0c-.57-.16-1.14-.32-1.69-.52L30.55,28l-.07,0-.11-.05a24.75,24.75,0,0,1-2.32-1.12l-.63-.36-.12-.08-.07,0A20.39,20.39,0,0,1,25,24.69s-.36-.3-.52-.46a1.22,1.22,0,0,1-.17-.15s-.07-.06-.07-.07a13.47,13.47,0,0,1-1.53-1.67s-.29-.37-.42-.56l0-.05-.08-.1c-.17-.24-.33-.49-.48-.74,0-.05-.24-.42-.35-.63a1.74,1.74,0,0,1-.1-.19,1.63,1.63,0,0,1-.09-.19l0-.06a12.16,12.16,0,0,1-.45-1.28,5.47,5.47,0,0,1-.16-.7,2.5,2.5,0,0,1-.05-.29l0-.26v-.14a1.32,1.32,0,0,1,0-.28s0-.08,0-.09a5.4,5.4,0,0,1,.27-2.07,6,6,0,0,1,.24-.61.76.76,0,0,1,.09-.18.56.56,0,0,1,.09-.17l0-.07a7,7,0,0,1,1.19-1.52c.05,0,.35-.31.54-.45l.06-.05a6.66,6.66,0,0,1,.85-.52A.85.85,0,0,1,24,11l.18-.09.07,0a12.62,12.62,0,0,1,1.73-.6c.07,0,.47-.11.72-.15h.06q.62-.09,1.23-.12l.72,0h.06a15.2,15.2,0,0,1,4.24.56c.05,0,.45.11.67.19l.15,0a23.44,23.44,0,0,1,3.41,1.39l.64.34.14.08.08.05A22.07,22.07,0,0,1,40,13.9a6.69,6.69,0,0,1,.56.43l.07.06.07,0,.07.06a.28.28,0,0,1,.08.06c.53.45,1,.91,1.54,1.41,0,0,.32.34.47.52a.55.55,0,0,1,.12.14l.08.09c.13.15.26.31.38.48l.05.06,0,0a8.18,8.18,0,0,1,.84,1.24c0,.05.23.42.35.63a1.67,1.67,0,0,1,.12.23l.1.21c.05.1.12.27.13.29s.17.41.24.62.08.25.12.38A.69.69,0,0,0,45.46,21Zm-11,7c0-.23,0-.66,0-.73,0-.89,0-1.79,0-2.69v-.12a6.68,6.68,0,0,1,0-.72V22.56a6.07,6.07,0,0,1,0-.72c0-.49,0-1,0-1.46v-.14c0-.25,0-.67,0-.73,0-.69,0-1.38,0-2.07v-.11c0-.24,0-.66,0-.72,0-.61,0-1.22,0-1.83v-.14c0-.24,0-.66,0-.72,0-.33.08-1.58-.13-1.71a3.28,3.28,0,0,0-.75-.24l-.14,0-.07,0-.69-.17a15.9,15.9,0,0,0-3.5-.44h-.15c0,.2,0,.41,0,.62a1.23,1.23,0,0,1,0,.2c0,.23.05.62.05.68,0,.5.07,1,.11,1.5a.92.92,0,0,1,0,.17c0,.23.05.63.06.68,0,.46.08.92.1,1.38v.11c0,.23,0,.63,0,.69,0,.61.11,1.22.13,1.83v.09c0,.23.05.63.05.69,0,.46.09.92.11,1.38v.12a.66.66,0,0,1,0,.2c0,.22.05.62.06.68,0,.73.12,1.45.16,2.18v.18a1.36,1.36,0,0,1,0,.2c0,.23.05.63.05.68.08,1.12-.05.86.91,1.31l.06,0,.07,0,.61.24c.52.19,1,.36,1.58.52a.29.29,0,0,1,.09,0l.69.17A3.06,3.06,0,0,0,34.48,28Z"/><path class="cls-1" d="M44.22,172c.34.41-.68,1.66-.72,1.71s-.53.69-.93.67c0-.06,0-.15,0-.17a15.23,15.23,0,0,1,1.15-1.68A2.06,2.06,0,0,1,44.22,172Z"/><path class="cls-1" d="M37.6,81.21l.87.13c0,.23-.16.62-.18.68-1.3,4.37-6.79,6.39-10.93,5.47l-.06,0h-.06c-.23,0-.61-.18-.67-.2a7.21,7.21,0,0,1-3.7-2.82l0-.06,0-.06c-.13-.21-.32-.59-.35-.64a7.51,7.51,0,0,1-.61-4.19l.77.09a7,7,0,0,0,.8,4.26l0,0a5.92,5.92,0,0,0,.45.54,7.14,7.14,0,0,0,3.46,1.83l.13,0h.06l.63.11c3.63.51,7.84-1.23,9.3-4.79A2,2,0,0,0,37.6,81.21Z"/><path class="cls-1" d="M30.79,68.87a.63.63,0,0,1-.78.7.51.51,0,0,1-.24-.07l-.25-.12c-1.89-.9-5.37-.17-4.32,2.53a6.48,6.48,0,0,1,.24.61c0,.15.15.33.06.46s-.28-.07-.42-.13h0a2.75,2.75,0,0,1-.52-.52c-1.85-2.69,1.44-4.76,3.86-4.49l.72.11a6.75,6.75,0,0,0-.62-.89L28.41,67a7.43,7.43,0,0,0-2.09-1.73A6.48,6.48,0,0,0,25.7,65l-.06,0h-.08a3.89,3.89,0,0,0-3.8,1.26,2.15,2.15,0,0,1-.45.57c-.47-1.5,1.2-2.56,2.57-2.92.07,0,.49-.1.73-.13s.65,0,.71,0,.43.06.64.11l.07,0a7.12,7.12,0,0,1,2.87,1.79c.05,0,.32.34.47.52l.07.08.06.08a8.34,8.34,0,0,1,1.07,1.77A2.41,2.41,0,0,1,30.79,68.87Z"/></g></g></svg>