<svg xmlns="http://www.w3.org/2000/svg" viewBox="0 0 917 556.83"><defs><style>.cls-1{fill:#ff5100;}.cls-2{fill:#f5872a;}.cls-3,.cls-4,.cls-6,.cls-9{fill:#fff;}.cls-10,.cls-11,.cls-12,.cls-4,.cls-5,.cls-6,.cls-7,.cls-8,.cls-9{stroke:#000;stroke-linejoin:round;}.cls-4,.cls-5,.cls-6{stroke-width:5px;}.cls-10,.cls-11,.cls-12,.cls-5,.cls-6,.cls-7,.cls-8{stroke-linecap:round;}.cls-7{stroke-width:0.5px;}.cls-9{stroke-width:4px;}.cls-10{stroke-width:2px;}.cls-11{stroke-width:0.75px;}.cls-12{stroke-width:0.25px;}</style></defs><title>main-logo-1</title><g id="Слой_2" data-name="Слой 2"><g id="Layer_1" data-name="Layer 1"><path class="cls-1" d="M682.34,67.46a11.95,11.95,0,0,0-12,12V90.33h9.08V79.6a6.34,6.34,0,0,1,.84-3.29,2.2,2.2,0,0,1,4.07,0,6.34,6.34,0,0,1,.85,3.29V90.33h9.07V79.42a11.95,11.95,0,0,0-11.95-12"/><path class="cls-1" d="M899.72,67.46a11.95,11.95,0,0,0-12,12V90.33h9.07V79.6a6.34,6.34,0,0,1,.85-3.29,2.46,2.46,0,0,1,2-1.36,2.49,2.49,0,0,1,2,1.36,6.24,6.24,0,0,1,.84,3.29V90.33h9.08V79.42a12,12,0,0,0-12-12"/><path class="cls-1" d="M752.42,74.16a4.54,4.54,0,1,0-7.82-4.61l-4.1,7.34V72a4.54,4.54,0,1,0-9.08,0V90.33h9.08V83.15l4.78,7.18h10.28L749,80.41Z"/><path class="cls-1" d="M704.06,64.52a5,5,0,1,0-7.14,0L698,65.63c1.86,1.86,2,2.36.22,4.13l-1,1A4.58,4.58,0,0,0,695.9,74V90.33h9.18V74a4.58,4.58,0,0,0-1.35-3.24l-1-1c-1.77-1.77-1.63-2.27.22-4.13Z"/><path class="cls-1" d="M720.31,83.23a2.1,2.1,0,0,1-4.06,0,9,9,0,0,1,0-7.61,2.1,2.1,0,0,1,4.06,0,7.53,7.53,0,0,1,.79,2.68h9.08A11.95,11.95,0,1,0,726,88.53a11.78,11.78,0,0,0,4.15-8H721.1a7.41,7.41,0,0,1-.79,2.68"/><path class="cls-1" d="M765.17,67.45a12,12,0,1,0,8.53,20.34,10.53,10.53,0,0,0,2.62-5.93h-8.09s-1.12,2.82-3.06,2.82a2.48,2.48,0,0,1-2-1.57,7.43,7.43,0,0,1-.74-2.45h14.09s1-5.74-2.89-9.63a11.6,11.6,0,0,0-8.42-3.58m-2.63,9.83a9.49,9.49,0,0,1,.59-1.78,2.55,2.55,0,0,1,2-1.57c.82,0,1.49.58,2.06,1.6a7.89,7.89,0,0,1,.57,1.72Z"/><path class="cls-1" d="M850.09,67.45a12,12,0,1,0,8.53,20.34,10.53,10.53,0,0,0,2.62-5.93h-8.09s-1.12,2.82-3.06,2.82a2.49,2.49,0,0,1-2-1.57,7.2,7.2,0,0,1-.74-2.45h14.08s1-5.74-2.88-9.63a11.58,11.58,0,0,0-8.42-3.58m-2.63,9.83a10.27,10.27,0,0,1,.59-1.78,2.55,2.55,0,0,1,2-1.57c.82,0,1.48.58,2,1.6a7.42,7.42,0,0,1,.58,1.72Z"/><path class="cls-1" d="M782.27,55.87a4.54,4.54,0,0,0-4.54,4.54l0,29.92h9.07V60.4a4.53,4.53,0,0,0-4.54-4.53"/><path class="cls-1" d="M800,67.46a12,12,0,1,0,12,12,12,12,0,0,0-12-12m0,17.34c-1.59,0-2.88-2.41-2.88-5.38S798.44,74,800,74s2.88,2.41,2.88,5.39S801.62,84.8,800,84.8"/><path class="cls-1" d="M874.69,67.46a12,12,0,1,0,12,12,12,12,0,0,0-12-12m0,17.34c-1.59,0-2.88-2.41-2.88-5.38S873.1,74,874.69,74s2.88,2.41,2.88,5.39-1.29,5.38-2.88,5.38"/><path class="cls-1" d="M837,79.42h0v-19a4.54,4.54,0,0,0-9.07,0v7.42a12,12,0,0,0-11.34,20.06h0a12,12,0,0,0,16.9,0h0A11.94,11.94,0,0,0,837,79.43h0M825,84.8c-1.59,0-2.88-2.41-2.88-5.38S823.44,74,825,74s2.88,2.41,2.88,5.39S826.62,84.8,825,84.8"/><path class="cls-1" d="M914.21,88.09h-.73v2.08h-.28V88.09h-.73v-.22h1.74ZM917,90.17h-.28V88.1h0l-.79,2.07h-.18l-.8-2.07h0v2.07h-.28v-2.3h.53l.65,1.69h0l.65-1.69H917Z"/><polygon points="751.16 185.25 642.1 547.93 272.61 546.71 157.36 149.44 132.23 164.01 129.51 130.34 351.37 8.9 783 164.58 778.48 194.75 751.16 185.25"/><path d="M642.07,556.83l-369.49-1.22a8.91,8.91,0,0,1-8.52-6.42h0L152,162.85l-15.29,8.86a8.89,8.89,0,0,1-8.59.18h0a8.88,8.88,0,0,1-4.74-7.16h0l-2.72-33.67a8.86,8.86,0,0,1,4.59-8.52h0L347.1,1.09a8.89,8.89,0,0,1,7.29-.56h0L786,156.21a8.89,8.89,0,0,1,5.78,9.69h0l-4.52,30.17a8.92,8.92,0,0,1-4.19,6.29h0a9,9,0,0,1-7.53.8h0L757,196.71,650.62,550.49a8.89,8.89,0,0,1-8.53,6.34h0ZM160.67,141.18A8.91,8.91,0,0,1,165.9,147h0L279.3,537.83,635.48,539,742.64,182.69a8.92,8.92,0,0,1,4.47-5.36h0a8.92,8.92,0,0,1,7-.48h0l17.18,6,1.85-12.34-421-151.85L138.84,135.37,140,149.24l12.93-7.5a9,9,0,0,1,4.47-1.2h0a9,9,0,0,1,3.31.64Zm587.57,52.48,2.92-8.41-2.92,8.41Z"/><polygon class="cls-2" points="751.16 185.25 642.1 547.93 272.61 546.71 157.36 149.44 132.23 164.01 129.51 130.34 351.37 8.9 783 164.58 778.48 194.75 751.16 185.25"/><path d="M604.38,193.29a11.11,11.11,0,0,0-3.14,1.16,8.38,8.38,0,0,0-3.24,3.37,12.12,12.12,0,0,0-1.15-4.16,9,9,0,0,0-4.2-4.23,8.38,8.38,0,0,0-3.72-.74,15.06,15.06,0,0,0-4.82,1.08l-1.45.55-.39.15h0c-3,.76-6.12,1.45-9.22,2.11-6,1.27-12.11,2.35-18.25,3.38a10.59,10.59,0,0,0-5.55,2.39,10.3,10.3,0,0,0-3,4.4,12.74,12.74,0,0,0-.69,4.43,18.63,18.63,0,0,0,.32,3c.06.31.1.53.12.65v0l.63,7q.63,7,1.27,14.07,1.3,14.26,2.64,28.51c.28,3,.56,5.51.81,8.1-7.53,2.09-18,4.66-25.11,6.34-.3-3.31-.61-6.76-.88-9.76-1.5-16.57-3.22-33-4.8-49.48-.12-1.16-.2-2.08-.2-2.73a5.51,5.51,0,0,1,0-.87,25.7,25.7,0,0,0,.21-3.17,12.73,12.73,0,0,0-1.24-5.38,9,9,0,0,0-4.19-4.23,8.38,8.38,0,0,0-3.72-.74,15,15,0,0,0-4.82,1.08l-1.45.55-.39.15h0c-3,.76-6.12,1.45-9.21,2.1-6,1.28-12.11,2.37-18.25,3.4a10.53,10.53,0,0,0-5.54,2.37,10.32,10.32,0,0,0-3,4.41,13,13,0,0,0-.69,4.44,18.61,18.61,0,0,0,.32,3c.05.31.09.53.11.65v0l.63,7q.63,7,1.27,14.06,1,11.37,2.1,22.72c-1.3-8.6-2.52-16.78-3.6-24.18-.87-6.71-2-15.2-3-22.57-.51-3.69-1-7.1-1.44-9.9s-.79-4.86-1.24-6.67a12.3,12.3,0,0,0-5.43-7.72,10.92,10.92,0,0,0-6.36-1.36,23,23,0,0,0-4.61.9l-1.38.38-.24.06-37.64,2.63a16.56,16.56,0,0,0-7.68,2.17,13.17,13.17,0,0,0-4.87,5.49,11.79,11.79,0,0,0-1.39,2.63,9.52,9.52,0,0,0-.58,2.61c-.15,1.91-.31,3.85-.46,5.78q0,.36-.06.72c-1.48,18.54-3,37.29-4.38,54.39-10.39-20.25-23.21-43.73-24.95-46.8a13.86,13.86,0,0,0-5.16-5.37,11.22,11.22,0,0,0-6.41-1.33c-3.58.31-6.53,1.51-10.28,2.81a6.43,6.43,0,0,0-2,1.16l-1.52.47c-1.46-.8-2.67-1.29-3.41-1.68-4.22-2.18-8.44-4.24-12.59-6.31-3.4-1.67-6.66-3.26-9.71-4.81-1.62-.81-3.42-1.76-5.32-2.75-3.83-2-7.74-4.16-12-6.06a9.9,9.9,0,0,0-4.05-.95,8.79,8.79,0,0,0-7.07,4c-2.09,3.13-2.63,5.82-3.45,8.55a82.57,82.57,0,0,1-2.56,8.27c-.48,1.24-.91,2.65-1.54,4.75-2.95,9.85-9.2,33-14.91,54.19-3-16.48-5.34-29.54-6.24-34-2.33-11.55-4-20-4.39-21.74-.4-2.07-.8-4.09-1.18-6.06a61.75,61.75,0,0,0-1.84-7.65h0v-.05h0a19.82,19.82,0,0,0-1.7-5.48,9.19,9.19,0,0,0-3.41-3.68,7.68,7.68,0,0,0-3.89-1,11.94,11.94,0,0,0-5.13,1.37l-1.45.73-.41.2-.08,0h0c-3,1.06-6.09,2.1-9.11,3.05-4.1,1.34-7.2,3.23-9.7,4-6.31,2.14-13.37,3.55-20.63,6.21a9.8,9.8,0,0,0-4.42,2.93c-2.44-9.4-4.89-18.79-7.29-28.18a24,24,0,0,1-.91-4.55c0-.43,0-1.38-.2-2.84a12.54,12.54,0,0,0-2.15-5.71,7.93,7.93,0,0,0-6.43-3.41,12.28,12.28,0,0,0-6.1,2L250.2,469.49h.18a9.41,9.41,0,0,0,4.05-1.22,13.46,13.46,0,0,0,5.89-7.47c2.7-7.62,11-28.28,14.86-38.74.76-2.1,1.34-3.74,1.76-5.17,4-11,14.71-41.35,18.47-50.49,1.15-2.76,2.27-5.51,3.41-8.32l.05-.12,13.54-36.36c2.13,9.47,4.11,18.49,6,27.6.65,3.09,1.32,6.12,2,9.16,3.32,15.18,7.5,33,9.39,47.7a24.17,24.17,0,0,0,1.44,6,12.94,12.94,0,0,0,4.32,5.67l.14.1a13.29,13.29,0,0,0,8.75,2.08c3.15-.25,5.9-1,6.75-1.09,4.64-.56,9.16-1.28,13.57-1.92l.34,0c.51,0,1.39-.07,2.41-.14a20.33,20.33,0,0,0,5.89-1.14,11.33,11.33,0,0,0,3.78-2.3,11.58,11.58,0,0,0,3.31-5.61l0-.11a16.64,16.64,0,0,0,.43-4.82,29.41,29.41,0,0,0-.64-4.46c-.36-1.68-1.68-9.55-3.27-20.4-.58-3.94-1.2-8.3-1.84-13,4.58,5.88,10.47,13,16.06,20.09,5.28,6.67,10.27,13.26,13.36,18.15a7.45,7.45,0,0,0,1,1.31c3.61,3.72,8,5.31,11.68,5a12.34,12.34,0,0,0,6.56-2.45,12.58,12.58,0,0,0,3.69-5.06c2-4.5,3.69-10.77,5.72-18.9l.12-.54c1.24-6.74,2.7-14.8,4.18-22.72.29,2.44.57,4.86.85,7.22,1.34,11.55,2.44,21.59,2.74,24.3,0,.61,0,1.48,0,2.53l.11,1.28c.22,1.46.44,2.88.6,4.16v.12a27.6,27.6,0,0,0,1.07,4.86l.21.58a14.55,14.55,0,0,0,4.31,6l.3.22a13.3,13.3,0,0,0,8.75,2.08c3.15-.25,5.9-1,6.76-1.09,4.63-.56,9.15-1.28,13.56-1.92l.33,0c.51,0,1.4-.07,2.43-.14a20.67,20.67,0,0,0,5.89-1.14,12.44,12.44,0,0,0,2.27-1.15c.05.3.09.6.14.9,0,.13,0,.4.06.72l-.19.09a1.72,1.72,0,0,0-.8.65.42.42,0,0,0,0,.38c.12.28.5.42,1.06.36h.14c0,.27.09.55.15.87a12.41,12.41,0,0,0,1.52,3.85,8.77,8.77,0,0,0,4.17,3.56,7.16,7.16,0,0,0,1,.32l.17,0a8.26,8.26,0,0,0,1.9.18,11.61,11.61,0,0,0,2.5-.38c10.87-2.61,19.78-5.08,30.42-7.8h0a8.47,8.47,0,0,0,4.3-2.69c2.08-2.2,3.3-6.1,3.16-9.72,0-.68-.06-1.42-.15-2.19-.41-3.62-5-53.12-5.31-57-.08-.88-.15-1.79-.23-2.74,3.49-.84,8.18-1.95,12.86-3s9.44-2.11,12.88-2.8c1.49,12.21,2.29,23.37,3.79,36.52,1.14,10,2.18,20.45,4,30.92a22.91,22.91,0,0,0,.41,3.07,12.35,12.35,0,0,0,1.52,3.86,8.72,8.72,0,0,0,4.17,3.56,7.52,7.52,0,0,0,1.12.34,7.93,7.93,0,0,0,2,.19,11.37,11.37,0,0,0,2.47-.36c10.25-2.47,19.41-4.79,29.57-7.41l.16,0s6.34-2.26,9.84-7.13c3.07-4.28,4.22-13.45,4.21-14.5C620.83,353.08,606.12,192.93,604.38,193.29ZM233.12,380c-.69,2.28-1.61,5.19-2.68,8.49,0-.18,0-.37,0-.55a29.48,29.48,0,0,0-1.2-7.85c-3.75-14.7-7.4-29.06-9.75-38.31-1.59-6.26-2.6-10.24-2.61-10.25q-4.56-18.22-9.12-36.47c-.95-3.8-2-7.72-3-11.67,2.72,7.92,4.68,13.63,4.68,13.65,2.31,6.75,4.28,13.61,6.24,20.37.67,2.4,1.39,4.86,2.12,7.32.86,2.9,12.24,44,15.37,54.9C233.18,379.72,233.16,379.85,233.12,380Z"/><path d="M621.56,371.92c-2.15-20.25-5.47-52.11-5.76-55.29q-1.45-16-2.9-32.12Q611,263.24,609.07,242c-1.5-16.58-3.22-33.06-4.8-49.49-.12-1.16-.2-2.07-.2-2.74a5.43,5.43,0,0,1,0-.86,27.94,27.94,0,0,0,.21-3.18,12.78,12.78,0,0,0-1.23-5.37,9.07,9.07,0,0,0-4.2-4.23,8.38,8.38,0,0,0-3.72-.74,15.06,15.06,0,0,0-4.82,1.08l-1.45.56-.39.14h0c-3.05.76-6.13,1.45-9.22,2.11-6,1.27-12.11,2.36-18.25,3.38a10.59,10.59,0,0,0-5.55,2.39,10.3,10.3,0,0,0-3,4.4,12.74,12.74,0,0,0-.69,4.43,18.79,18.79,0,0,0,.32,3c.06.3.1.52.12.65v0c.21,2.34.42,4.69.63,7q.63,7,1.27,14.07,1.3,14.26,2.64,28.51c.28,3,.56,5.52.81,8.1-7.53,2.09-18,4.66-25.11,6.34-.3-3.31-.61-6.76-.88-9.75-1.5-16.58-3.22-33.06-4.8-49.49-.12-1.16-.2-2.08-.2-2.73a5.51,5.51,0,0,1,0-.87,28.11,28.11,0,0,0,.21-3.17,12.73,12.73,0,0,0-1.24-5.38,9,9,0,0,0-4.19-4.23,8.38,8.38,0,0,0-3.72-.74,15,15,0,0,0-4.82,1.08l-1.45.55L511,187h0c-3.05.76-6.12,1.45-9.21,2.1-6,1.28-12.12,2.37-18.26,3.4a10.54,10.54,0,0,0-5.53,2.37,10.3,10.3,0,0,0-3,4.41,12.76,12.76,0,0,0-.69,4.44,18.61,18.61,0,0,0,.32,3c.05.31.09.53.11.65v0l.63,7c.42,4.68.84,9.38,1.27,14.06Q478,242.74,479.32,257q2.71,28.84,5.58,57.67c1.67,16.55,3.37,33.12,5.25,49.68,1.15,10,2.19,20.47,4,30.94a22.46,22.46,0,0,0,.41,3.06,12.07,12.07,0,0,0,1.52,3.85,8.72,8.72,0,0,0,4.17,3.56,6.1,6.1,0,0,0,1,.32l.17,0a8.26,8.26,0,0,0,1.9.18,11.37,11.37,0,0,0,2.49-.38c10.88-2.61,19.79-5.08,30.43-7.8h0a8.47,8.47,0,0,0,4.3-2.69c2.08-2.2,3.3-6.1,3.15-9.72a21.84,21.84,0,0,0-.14-2.19c-.41-3.61-5-53.12-5.31-57-.08-.88-.15-1.79-.23-2.74,3.49-.84,8.18-1.95,12.86-3s9.44-2.11,12.88-2.8c1.49,12.22,2.29,23.37,3.78,36.52,1.15,10,2.19,20.45,4,30.92a23,23,0,0,0,.41,3.08,12.41,12.41,0,0,0,1.52,3.85,8.67,8.67,0,0,0,4.17,3.56,7.52,7.52,0,0,0,1.12.34,8.45,8.45,0,0,0,2,.2,11.19,11.19,0,0,0,2.47-.37c10.25-2.46,19.41-4.79,29.57-7.4l.16,0a11,11,0,0,0,5.75-3.49,12.17,12.17,0,0,0,2.45-4.8,17.91,17.91,0,0,0,.55-5A33.43,33.43,0,0,0,621.56,371.92Z"/><path class="cls-3" d="M502.71,398.08a1.61,1.61,0,0,1-.29-.09c-1.45-.56-1.25-3-1.5-4.37-1.77-10-2.8-20.24-4-30.37-1.87-16.5-3.57-33-5.23-49.57q-2.89-28.77-5.57-57.59-1.34-14.25-2.64-28.5-.63-7-1.27-14.05l-.63-7c-.15-1.7-1-3.83.42-5.05a4.78,4.78,0,0,1,2.47-.91c6.18-1,12.35-2.14,18.49-3.44,3.17-.67,6.34-1.38,9.5-2.17,1.62-.4,6-2.92,7.18-.67a6.57,6.57,0,0,1,.14,3.45,27.55,27.55,0,0,0,.16,5.52c1.58,16.48,3.31,32.94,4.8,49.42.41,4.55.92,10.11,1.33,14.65.1.87.2,1.74.31,2.61a1.58,1.58,0,0,0,.2.72c.27.41.8.36,1.24.27,6.79-1.48,26.5-6.23,36.1-9.14,1.35-.41.9-2.62.76-4.29-.33-4-.72-7.24-1.1-11.27Q562.29,232,561,217.73q-.65-7-1.27-14-.33-3.51-.63-7c-.15-1.69-1-3.82.41-5a4.75,4.75,0,0,1,2.47-.91c6.18-1,12.35-2.14,18.49-3.44,3.18-.67,6.35-1.38,9.5-2.17,1.63-.4,6-2.92,7.18-.67a6.46,6.46,0,0,1,.14,3.45,28.19,28.19,0,0,0,.16,5.51c1.59,16.49,3.31,33,4.8,49.43q1.92,21.3,3.83,42.57,1.45,16.06,2.9,32.12c.31,3.43,3.63,35.22,5.78,55.54.79,6.09-.91,7-3.3,7.64-10.15,2.61-19.28,4.93-29.48,7.38a4.1,4.1,0,0,1-1.8.16l-.29-.09c-1.44-.56-1.25-3-1.49-4.37-1.78-10-2.81-20.24-4-30.37C572.77,338.86,572,326.51,570,312c-.27-2.06-1.4-3.12-3-2.89-6.18.89-28.56,6.15-34.62,7.7,0,0-1.93-.18-1.37,5.06.19,1.82.32,3.64.49,5.46.35,4,4.86,53.23,5.31,57.22.59,5.17-1.94,5.56-1.94,5.56-10.71,2.74-19.59,5.19-30.37,7.78a4.1,4.1,0,0,1-1.8.16"/><path d="M488.35,343.42a1.06,1.06,0,0,1-1-.23c-.27-.45.15-.9.66-1.2a19.93,19.93,0,0,1,3.49-1.37c3-1,8-2.56,12.1-3.48.2,0,.4-.08.6-.1a1.48,1.48,0,0,1,.95.13c.1.18.1.41-.38.65a31.22,31.22,0,0,1-3.6,1.55c-.52.19-1,.43-1.46.65s-2.47,1.08-2.89,1.25a42,42,0,0,1-7.18,1.89l-.95.2-.39.06"/><path d="M487.35,336.46c-.42,0-.85.06-1.28.07l0-.28.31-.23a1.17,1.17,0,0,1,.16-.11l.1-.07a8.09,8.09,0,0,1,1.47-.74c1.47-.48,2.86-1,4-1.44a92.64,92.64,0,0,1,10.11-3.08,7.08,7.08,0,0,1,.8-.16,1.84,1.84,0,0,1,.76.06.39.39,0,0,1,.28.2c.07.18-.07.37-.4.51a88.42,88.42,0,0,1-9.58,3.6l-.3.09a33.32,33.32,0,0,1-6.46,1.58"/><path d="M489.05,350.79l-.83.07h0v-.3a3.31,3.31,0,0,0,.89-.5,4.41,4.41,0,0,1,.39-.25l.34-.18a18.89,18.89,0,0,1,2.44-1.16c.89-.34,1.76-.69,2.64-1,1.42-.56,2.89-1.14,4.36-1.67A34.83,34.83,0,0,1,507,344l.3,0c.28,0,.47,0,.56.15a.23.23,0,0,1,0,.24c-.06.18-.31.3-.41.35-2.87,1.32-5.75,2.4-8.79,3.54l-4.24,1.61a10.2,10.2,0,0,1-2.18.49l-.68.11c-1.05.2-1.94.31-2.5.37"/><path d="M490.87,355.78c-.6.06-1.2.09-1.76.1l0-.29a6.1,6.1,0,0,0,1.05-.62,4.1,4.1,0,0,1,.46-.31,21.77,21.77,0,0,1,3.4-1.48c2.69-.91,5.45-1.81,8.21-2.68a28.93,28.93,0,0,1,3.19-.85,1.86,1.86,0,0,1,.33,0,1.7,1.7,0,0,1,.51,0c.3.07.58.28.53.55s-.36.46-.67.6c-2.93,1.26-6,2.41-9.08,3.39-1.55.48-3.14.95-4.7,1.36a10.22,10.22,0,0,1-1.49.26"/><path d="M488.4,362.4c-.3,0-.6.05-.91.07v-.29a4.14,4.14,0,0,0,1.05-.59l.47-.29a29.69,29.69,0,0,1,3.63-1.61l2.78-1c1.18-.42,8.18-2.73,10.81-3,.28,0,1.12-.12,1.19.28.11.59-1.11,1-1.77,1.3l-.19.07c-1,.39-2,.78-3,1.15-1.8.66-3.72,1.27-6.06,2l-1.07.32a36.68,36.68,0,0,1-6.92,1.63"/><path d="M489.6,369.1a7.67,7.67,0,0,1-.93.07l.09-.28a3.75,3.75,0,0,0,.41-.26,1.07,1.07,0,0,1,.2-.14c.4-.22.83-.43,1.26-.64l.83-.42a26.22,26.22,0,0,1,4.29-1.63l.88-.28c3.72-1.2,7.56-2.28,11.4-3.2l.27-.05h.25a.57.57,0,0,1,.37.24.51.51,0,0,1,0,.53,1.74,1.74,0,0,1-.74.55,43,43,0,0,1-5,1.89,5.92,5.92,0,0,0-1.31.39,4.58,4.58,0,0,1-.59.24l-2,.66-1.19.42c-.88.31-1.78.62-2.7.85-1.15.29-2.28.53-3.27.7s-1.91.3-2.46.35"/><path d="M492,376.21a2.4,2.4,0,0,1-1-.1l-.63-.22.71-.05c.13-.11.47-.33.79-.55l.85-.53.91-.49.78-.41a27.85,27.85,0,0,1,4.12-1.64l.62-.21c3.25-1.11,6.65-2,9.85-2.79a2.82,2.82,0,0,1,.52-.09c.64-.07.9.12,1,.29l.06.09-.11.08a14.2,14.2,0,0,1-3.22,1.66c-4.57,1.71-9.29,3.28-14,4.68a6.93,6.93,0,0,1-1.21.28"/><path d="M492.5,382c-.36,0-.71.05-1.1.06l0-.29a3.61,3.61,0,0,0,.59-.37l.36-.22c.25-.13.5-.23.75-.34l.33-.14,2.5-1.07c2-.83,3.59-1.46,5.12-2a42.81,42.81,0,0,1,9.2-2.14,5.48,5.48,0,0,1,.57-.05.58.58,0,0,1,.38,0,.28.28,0,0,1,0,.47,1.1,1.1,0,0,1-.41.24c-1.42.52-2.89,1-4.37,1.49l-.57.17a8.89,8.89,0,0,0-1.4.49l-.47.26a6.42,6.42,0,0,1-.83.41,82,82,0,0,1-8.68,2.54l-.79.2a10.38,10.38,0,0,1-1.24.22"/><path d="M487.34,392a1.59,1.59,0,0,1,.23-.39,4.43,4.43,0,0,1,1.26-1c2.06-1.25,7.44-3,10.68-4.06a47,47,0,0,1,9.24-2.15l.51,0a3,3,0,0,1,1.61.16l.11.05,0,.11a1.62,1.62,0,0,1-.91.66c-2.22.87-4.62,1.58-6.94,2.27-1.12.33-2.23.66-3.32,1L495,390.13l-.92.29c-1.14.38-5.31,1.55-6.54,1.75l-.29.05Z"/><path d="M494.31,397.47c-.56.06-.94-.08-1.07-.36a.46.46,0,0,1,0-.38,1.72,1.72,0,0,1,.8-.65,58.94,58.94,0,0,1,7.63-3.06c1.09-.32,2.19-.61,3.28-.84a34.76,34.76,0,0,1,4-.73,13.36,13.36,0,0,1,2-.08.55.55,0,0,1,.32.08.33.33,0,0,1,0,.5,1,1,0,0,1-.43.25c-1.51.59-3.08,1-4.61,1.49-1.13.34-2.3.68-3.43,1.07-.78.27-1.55.57-2.32.85a31.56,31.56,0,0,1-6.07,1.85Z"/><path d="M498.67,378.21v0h0c-.5-2.71-4.5-27.64-9.26-58.06S479.05,253.4,475.19,227c-.87-6.71-2-15.2-3-22.57-.51-3.69-1-7.1-1.44-9.9s-.79-4.86-1.24-6.67a12.3,12.3,0,0,0-5.43-7.72,10.92,10.92,0,0,0-6.36-1.36,23,23,0,0,0-4.61.9l-1.38.38-.24.06-37.64,2.64a16.54,16.54,0,0,0-7.68,2.16,13.17,13.17,0,0,0-4.87,5.49,12,12,0,0,0-1.39,2.63,9.52,9.52,0,0,0-.58,2.61c-.15,1.91-.31,3.85-.46,5.78q0,.36-.06.72c-1.49,18.54-3,37.3-4.38,54.39-10.39-20.25-23.21-43.73-24.95-46.8a13.86,13.86,0,0,0-5.16-5.37,11.39,11.39,0,0,0-6.41-1.33c-3.58.31-6.53,1.51-10.28,2.81a6.43,6.43,0,0,0-2,1.16l-4.29,1.33c-1.86.59-3.61,1.14-5.15,1.6-2.93.86-6.08,1.74-9.33,2.66-4.06,1.17-8.14,2.31-12.28,3.57a23.6,23.6,0,0,0-5.72,2,12,12,0,0,0-4.25,4.11,15.61,15.61,0,0,0-2.19,6.88,23.38,23.38,0,0,0-.06,3.11,51.16,51.16,0,0,0,1,6.85c2,11,4.26,21.85,6.9,32.75,1.05,4.39,2.11,8.77,3.11,13.12,4.28,18.82,7.85,34.63,11.3,50.83.65,3.1,1.32,6.12,2,9.16,3.32,15.18,7.5,33,9.39,47.7a24.17,24.17,0,0,0,1.44,6,12.88,12.88,0,0,0,4.32,5.67l.14.1a13.29,13.29,0,0,0,8.75,2.08c3.14-.25,5.9-1,6.75-1.09,4.64-.56,9.16-1.28,13.57-1.92l.34,0c.51,0,1.39-.07,2.41-.14a20.27,20.27,0,0,0,5.89-1.13,11.25,11.25,0,0,0,7.09-7.92l0-.11a16.64,16.64,0,0,0,.43-4.82,29.82,29.82,0,0,0-.64-4.46c-.36-1.68-1.68-9.54-3.27-20.4-.58-3.94-1.2-8.3-1.84-13,4.58,5.88,10.47,13,16.06,20.09,5.28,6.67,10.27,13.27,13.36,18.15a7.45,7.45,0,0,0,1,1.31c3.61,3.72,8,5.31,11.68,5a12.34,12.34,0,0,0,6.56-2.45,12.78,12.78,0,0,0,3.69-5.06c2-4.5,3.69-10.77,5.72-18.9l.12-.54c1.24-6.73,2.7-14.8,4.18-22.71.29,2.43.57,4.85.85,7.21,1.34,11.55,2.44,21.59,2.74,24.3,0,.61,0,1.49,0,2.54l.11,1.27c.22,1.46.44,2.88.6,4.17v.12a27.71,27.71,0,0,0,1.07,4.85l.21.58a14.55,14.55,0,0,0,4.31,6l.3.22a13.3,13.3,0,0,0,8.75,2.08c3.15-.25,5.9-1,6.76-1.09,4.63-.56,9.15-1.28,13.56-1.92l.33,0c.51,0,1.4-.06,2.43-.14a20.33,20.33,0,0,0,5.89-1.14,11.23,11.23,0,0,0,7.08-7.91l0-.11a16.64,16.64,0,0,0,.43-4.82A28.28,28.28,0,0,0,498.67,378.21Z"/><path class="cls-3" d="M492,380.15c-.74-3.52-15.74-98.12-23.6-151.87-1.75-13.44-4.4-33.94-5.46-38-1.54-6-8.44-2.17-10.92-2l-37.77,2.65c-4.42.31-6.29,1.63-7.28,4.27a3.25,3.25,0,0,0-.8,1.24c-.16,2-.31,4-.47,6l0,.19h0c-2.27,28.34-4.59,57.23-6.46,80-8-18.11-33.17-64.26-35.43-68.21-2.74-4.78-6.42-3.42-14.19-.66l.13.51c-2.22.67-4.43,1.37-6.66,2.06-1.83.57-3.6,1.14-5.22,1.62-3,.88-6.16,1.77-9.42,2.68-4.05,1.17-8.09,2.3-12.14,3.54-2.94.88-6.6,1-7,6-.23,2.48.41,4.93.85,7.38,2,10.87,4.2,21.54,6.78,32.22,1.06,4.4,2.12,8.81,3.14,13.22,4.29,18.85,7.87,34.71,11.33,51,.65,3,1.31,6.06,2,9.1,3.29,15.09,7.53,33.05,9.54,48.52a15.23,15.23,0,0,0,.82,3.7,5.12,5.12,0,0,0,1.74,2.29c3.11,2.16,8.44.27,11.36-.08,4.47-.54,9-1.25,13.42-1.9,2.3-.34,9,.24,10-3.53a11.74,11.74,0,0,0-.29-5.06c-.92-4.42-5.12-30.85-8.74-61.65,2.39,3.24,4.75,6.45,7.1,9.69,1.66,2.29,3.32,4.55,5,6.82,4.53,6.14,12.13,15.28,19.29,24.34,5.35,6.75,10.44,13.45,13.84,18.83,4.13,4.18,8.12,3.36,10.11,1.86,1.6-1.21,3.9-8.84,6.49-19.35,4.2-22.76,10.91-61.06,12.58-57.69,1.85,3.74,8.79,67.91,8.79,67.91s-.07,1.13,0,2.68c.23,1.47.45,3,.63,4.4a18.35,18.35,0,0,0,.68,3.2,6.67,6.67,0,0,0,1.89,2.79c3.11,2.16,8.45.27,11.36-.08,4.48-.54,9-1.25,13.42-1.9,2.3-.34,9,.25,10-3.53a11.74,11.74,0,0,0-.29-5.06"/><path d="M316.47,277.78a1.1,1.1,0,0,1-1,0c-.33-.38,0-.92.47-1.32a22.25,22.25,0,0,1,3.22-2.1c2.79-1.6,7.46-4.23,11.37-6a5.83,5.83,0,0,1,.58-.23,1.54,1.54,0,0,1,.95-.08c.13.16.16.38-.27.72A34.92,34.92,0,0,1,328.5,271a13.69,13.69,0,0,0-1.33,1c-.36.27-2.27,1.59-2.66,1.85a44.61,44.61,0,0,1-6.77,3.4l-.91.4-.36.15"/><path d="M314.42,271.14c-.41.13-.83.25-1.25.34l0-.28.27-.29a.94.94,0,0,1,.13-.14l.09-.09a7.62,7.62,0,0,1,1.34-1c1.37-.79,2.65-1.6,3.72-2.29a101.35,101.35,0,0,1,9.47-5.19,6.6,6.6,0,0,1,.77-.33,1.73,1.73,0,0,1,.75-.11.4.4,0,0,1,.31.14c.1.16,0,.38-.32.59a94.2,94.2,0,0,1-8.87,5.6l-.28.15a35.06,35.06,0,0,1-6.11,2.94"/><path d="M318.28,284.87l-.81.24h0l0-.14v.08l0-.23a3.75,3.75,0,0,0,.8-.69l.34-.33.31-.24a20.76,20.76,0,0,1,2.22-1.67c.82-.52,1.63-1.05,2.43-1.58,1.31-.86,2.67-1.75,4-2.58a36.15,36.15,0,0,1,7.28-3.41l.29-.11q.41-.12.57,0a.21.21,0,0,1,.07.22.86.86,0,0,1-.36.44c-2.61,1.91-5.28,3.59-8.09,5.37l-3.93,2.49a10.7,10.7,0,0,1-2.07,1l-.65.25c-1,.42-1.86.72-2.4.9"/><path d="M320.83,289.39c-.58.19-1.17.34-1.72.47l0-.29a5.42,5.42,0,0,0,.94-.84c.17-.17.32-.32.41-.39a23.32,23.32,0,0,1,3.12-2.19c2.5-1.48,5.08-2.95,7.67-4.4a28.92,28.92,0,0,1,3-1.52,1.75,1.75,0,0,1,.32-.12,1.66,1.66,0,0,1,.5-.09c.31,0,.62.14.61.42s-.29.54-.57.74c-2.69,1.87-5.52,3.65-8.41,5.28-1.46.81-2.94,1.61-4.42,2.35a12,12,0,0,1-1.42.58"/><path d="M319.41,296.43c-.29.1-.58.18-.88.26l0-.29a4.09,4.09,0,0,0,.95-.8l.41-.39a34.8,34.8,0,0,1,3.32-2.36c.86-.53,1.72-1.06,2.59-1.58,1.09-.67,7.63-4.45,10.17-5.28.27-.09,1.08-.36,1.21,0,.2.55-.93,1.26-1.54,1.66l-.18.11c-.87.58-1.81,1.18-2.79,1.78-1.67,1-3.46,2.05-5.66,3.23l-1,.55a39.61,39.61,0,0,1-6.55,3.09"/><path d="M321.61,302.76a7.17,7.17,0,0,1-.9.27l0-.3a3.5,3.5,0,0,0,.37-.34,1,1,0,0,1,.17-.18c.37-.31.75-.61,1.15-.91l.75-.59a28.24,28.24,0,0,1,4-2.51l.83-.47c3.48-2,7.08-3.87,10.72-5.59L339,292a.77.77,0,0,1,.25,0,.51.51,0,0,1,.4.15.53.53,0,0,1,.06.52,2,2,0,0,1-.66.71,45.29,45.29,0,0,1-4.61,2.92,6.18,6.18,0,0,0-1.23.67,6.39,6.39,0,0,1-.55.36l-1.9,1.09-1.11.67c-.82.49-1.65,1-2.52,1.42-1.09.53-2.17,1-3.11,1.39s-1.83.7-2.37.87"/><path d="M325.08,309.23a2.43,2.43,0,0,1-1,.12l-.65-.08.69-.2c.11-.14.41-.43.7-.71s.67-.64.75-.7l.82-.68c.23-.2.46-.39.7-.57a28.35,28.35,0,0,1,3.8-2.5l.58-.33c3-1.8,6.24-3.4,9.26-4.87a3,3,0,0,1,.49-.2c.62-.21.91-.08,1,.07l.08.08-.1.1a15.46,15.46,0,0,1-2.91,2.32c-4.24,2.66-8.64,5.22-13.07,7.61a7.18,7.18,0,0,1-1.15.54"/><path d="M326.43,314.79c-.35.1-.69.2-1.08.29l0-.29a3.67,3.67,0,0,0,.53-.49,3.73,3.73,0,0,1,.32-.3c.22-.17.45-.33.68-.49l.3-.21c.76-.53,1.53-1.07,2.3-1.59,1.8-1.24,3.31-2.21,4.73-3a45.65,45.65,0,0,1,8.72-4.07c.19-.07.37-.13.56-.18a.59.59,0,0,1,.38,0,.28.28,0,0,1,.11.46,1.37,1.37,0,0,1-.37.32c-1.32.81-2.68,1.62-4.06,2.4l-.54.29a8.77,8.77,0,0,0-1.3.78l-.42.36a6.87,6.87,0,0,1-.76.58,89.27,89.27,0,0,1-8.14,4.37l-.75.36c-.39.19-.79.34-1.19.49"/><path d="M322.88,325.76a1.78,1.78,0,0,1,.18-.44,4.66,4.66,0,0,1,1.08-1.24c1.84-1.68,6.85-4.59,9.88-6.29a50.16,50.16,0,0,1,8.77-4.1l.49-.15a3,3,0,0,1,1.61-.18l.12,0,0,.12a1.74,1.74,0,0,1-.8.84c-2,1.34-4.3,2.55-6.48,3.72-1,.57-2.09,1.13-3.11,1.7l-4.46,2.52-.86.49c-1.06.61-5,2.66-6.16,3.12l-.28.11Z"/><path d="M330.57,329.65c-.54.18-.93.12-1.1-.13a.51.51,0,0,1,0-.37,1.93,1.93,0,0,1,.68-.81,62.24,62.24,0,0,1,7.05-4.65c1-.55,2-1.07,3.09-1.53a34.82,34.82,0,0,1,3.86-1.59,15.59,15.59,0,0,1,1.92-.5.51.51,0,0,1,.32,0c.2.07.21.31.11.49a1.33,1.33,0,0,1-.38.34c-1.4.9-2.87,1.68-4.31,2.45-1,.57-2.15,1.16-3.21,1.78l-2.15,1.34a33.08,33.08,0,0,1-5.69,3.12Z"/><path d="M349.57,212.86a13,13,0,0,0-5.19-5.22c-1.59-.9-2.9-1.41-3.69-1.83-4.22-2.18-8.44-4.24-12.6-6.31-3.39-1.66-6.65-3.26-9.7-4.8-1.62-.82-3.42-1.76-5.32-2.76-3.83-2-7.74-4.16-12-6.06a9.74,9.74,0,0,0-4-.94,8.74,8.74,0,0,0-7.07,3.95c-2.1,3.13-2.63,5.82-3.45,8.56a83.21,83.21,0,0,1-2.56,8.26c-.48,1.24-.91,2.65-1.54,4.75-2.95,9.86-9.2,33-14.91,54.2-3-16.49-5.35-29.55-6.24-34-2.33-11.54-4-20-4.39-21.74-.4-2.07-.8-4.09-1.18-6.06a63.6,63.6,0,0,0-1.84-7.65h0v0h0a19.71,19.71,0,0,0-1.7-5.47,9.15,9.15,0,0,0-3.41-3.69,7.68,7.68,0,0,0-3.89-1.05,11.9,11.9,0,0,0-5.13,1.37l-1.45.73-.41.21-.08,0h0c-3,1-6.09,2.09-9.11,3-4.1,1.34-7.2,3.24-9.7,4-6.31,2.14-13.37,3.55-20.63,6.21a9.6,9.6,0,0,0-5.62,4.62,11,11,0,0,0-1.32,5.25,13,13,0,0,0,1,4.9c.19.48.35.83.45,1.06a2.48,2.48,0,0,0,.12.28c.51,1.43,1,3.42,1.81,5.73v0h0v0h0v0l0,.17c.66,1.91,5,14.69,9.61,28l11.3,33c2.31,6.75,4.28,13.61,6.24,20.37.67,2.4,1.39,4.86,2.12,7.32.86,2.9,12.24,44,15.37,54.9,0,.1,0,.23-.08.37-1.46,4.79-3.89,12.3-6.62,20.63-6.81-.43-11.49-.72-12.93-.83-2.58-.17-5.13-.34-7.62-.52s-4.68-.33-7-.33c-.68,0-1.37,0-2.09.06h-.23c-.68,0-1.91-.12-3.42-.13a13.73,13.73,0,0,0-2.7.24,9.32,9.32,0,0,0-6.32,4.55,13.33,13.33,0,0,0-1.63,6.68,27.72,27.72,0,0,0,.22,3.22c0,.38.08.68.1.85v0c-.13,3.59-.3,7.17-.56,10.67,0,.8-.08,1.56-.08,2.3,0,3.77.46,6.72.44,8.81,0,.28,0,.56,0,.84h0c-.34,7.27-1.88,15.4-2.08,24.43,0,.06,0,.26,0,.55a13.75,13.75,0,0,0,.45,3.6,10.07,10.07,0,0,0,2.67,4.64,9,9,0,0,0,6.41,2.53h.05c1.88,0,3.13-.33,3.62-.33,2.26-.14,4.81-.1,7.57-.25l.57,0,37-2.06,1.22-.06,10.3-.58h0a9.41,9.41,0,0,0,4.05-1.22,13.47,13.47,0,0,0,5.89-7.46c2.7-7.63,11-28.29,14.86-38.75.76-2.1,1.34-3.74,1.76-5.17,4-11,14.71-41.34,18.47-50.49,1.15-2.76,2.27-5.51,3.41-8.32l.05-.12,31.71-85.12c4.32-9.81,8.19-19.65,11.89-29.68.6-1.85,2.19-4.77,2.45-9.49,0-.23,0-.49,0-.74A14.2,14.2,0,0,0,349.57,212.86Z"/><path class="cls-3" d="M245.22,369c-1.64,5.37-4.44,14-7.53,23.44-.76,2.74-3,2.34-3,2.34-8.05-.5-13.58-.85-15.27-1l-7.6-.52a73.11,73.11,0,0,0-8.42-.28c-1.72.09-3.95-.31-5.63,0-4.22.82-2.4,5.94-2.47,8.22-.13,3.72-.32,7.46-.58,11.15s.52,7.77.35,11.66c-.4,8.09-1.92,16.17-2.08,24.26a3.75,3.75,0,0,0,.83,2.95c1.53,1.46,3.88.68,5.89.56,2.5-.15,5.06-.12,7.56-.26l37.53-2.09,1.23-.07,10.3-.58s3,0,4.53-4.2c2.83-8,11.14-28.57,14.88-38.82.8-2.18,1.39-3.9,1.68-4.92,3.93-10.68,14.69-41.33,18.67-51,1.15-2.77,2.27-5.5,3.4-8.29l31.75-85.25c4.28-9.68,8.12-19.44,11.8-29.43.82-2.24,1.85-4.46,1.94-6.89.23-4.86-3.68-5.87-6.72-7.41-4.18-2.16-8.37-4.21-12.55-6.3-3.37-1.64-6.64-3.25-9.74-4.81-1.67-.84-3.49-1.8-5.39-2.79-3.9-2-7.7-4.14-11.7-5.91-5.83-2.65-5.46,6.08-9.36,16.05-2.19,5.61-15.9,57.22-23.27,84.42-5-28-9.75-54.41-11.05-60.85-2.33-11.56-4-19.88-4.4-21.83s-.8-4-1.18-6a52.83,52.83,0,0,0-1.56-6.58c-.44-1.3-.58-3.14-1.21-4.33-1.59-3-5.43,0-7.33.72-3.11,1.09-6.24,2.14-9.35,3.12s-6.31,2.89-9.56,4c-6.78,2.28-13.78,3.69-20.52,6.17a3.77,3.77,0,0,0-2.25,1.58c-.89,1.64.26,3.21.78,4.72.66,1.88,1.17,3.86,1.82,5.75,0,0,4.73,13.79,9.7,28.29l11.3,33c2.4,7,4.41,14,6.36,20.76.68,2.39,1.39,4.82,2.11,7.25.93,3.17,12.46,44.79,15.47,55.24C245.37,364.17,246.16,365.38,245.22,369Z"/><path d="M194.26,416.6a9.91,9.91,0,0,1,.11,1.09l-.24-.08a4.21,4.21,0,0,0-.24-.47,1.19,1.19,0,0,1-.13-.24c-.22-.46-.42-.95-.63-1.45-.13-.31-.26-.64-.4-.95a38.08,38.08,0,0,1-1.64-5l-.29-1c-1.25-4.33-2.4-8.8-3.42-13.29a2.84,2.84,0,0,0-.06-.31,1.5,1.5,0,0,1,0-.3.64.64,0,0,1,.17-.45.34.34,0,0,1,.45,0,2.07,2.07,0,0,1,.51.85c.75,1.84,1.33,3.84,1.9,5.78a8.39,8.39,0,0,0,.42,1.52c.09.25.17.48.24.7l.68,2.36c.14.47.29.92.43,1.39.31,1,.64,2.07.89,3.14.32,1.35.59,2.67.79,3.83s.38,2.24.46,2.89"/><path d="M200.08,413.28a3.83,3.83,0,0,1,0,1.23l-.14.75-.09-.83c-.1-.15-.31-.53-.51-.91s-.46-.87-.5-1c-.16-.36-.32-.71-.47-1.06s-.27-.59-.4-.88a41.19,41.19,0,0,1-1.64-4.78l-.21-.72c-1.14-3.78-2.1-7.75-3-11.49,0-.18-.08-.39-.11-.6-.1-.75.05-1.07.18-1.21l.08-.08.08.12a20.73,20.73,0,0,1,1.6,3.7c1.72,5.31,3.34,10.8,4.82,16.3a13,13,0,0,1,.31,1.42"/><path d="M204.89,412.35c.05.42.09.84.12,1.3h-.25a5.33,5.33,0,0,0-.34-.68c-.09-.17-.17-.31-.21-.41q-.18-.42-.33-.87l-.15-.37c-.35-1-.71-1.92-1.06-2.89-.82-2.28-1.45-4.17-2-5.94a68.2,68.2,0,0,1-2.38-10.75c0-.23-.05-.45-.08-.68a.88.88,0,0,1,0-.45c.07-.24.27-.23.39-.07a1.71,1.71,0,0,1,.23.47c.52,1.64,1,3.35,1.52,5.07q.09.31.18.66a13.6,13.6,0,0,0,.5,1.63c.08.19.17.37.25.54a7.94,7.94,0,0,1,.4,1c1.05,3.19,1.88,6.71,2.69,10.11l.21.92a13.93,13.93,0,0,1,.27,1.46"/><path d="M223.8,408.64c0,.42.08.84.12,1.3h-.25a4.75,4.75,0,0,0-.34-.68c-.1-.17-.17-.31-.22-.41-.12-.28-.22-.57-.32-.87l-.15-.37-1.06-2.89c-.82-2.28-1.45-4.17-2-5.94A67.09,67.09,0,0,1,217.22,388c0-.23-.06-.45-.08-.68a1,1,0,0,1,0-.46.21.21,0,0,1,.39-.07,1.41,1.41,0,0,1,.23.48c.53,1.64,1,3.35,1.53,5.07.06.21.11.43.18.66a11.09,11.09,0,0,0,.5,1.63c.08.19.16.37.25.54a8.49,8.49,0,0,1,.4.95c1.05,3.2,1.88,6.72,2.69,10.11l.21.93a13.93,13.93,0,0,1,.27,1.46"/><path d="M213.66,417.82a1.43,1.43,0,0,1-.35-.25,5.34,5.34,0,0,1-.91-1.42c-1.19-2.37-3-8.61-4.09-12.39a75.07,75.07,0,0,1-2.4-10.81l-.06-.59a5,5,0,0,1,0-1.92l0-.14.09.05a1.88,1.88,0,0,1,.61,1c.88,2.56,1.63,5.36,2.35,8.07.35,1.3.7,2.59,1.06,3.86l1.57,5.55c.11.36.21.71.31,1.08.39,1.32,1.64,6.18,1.89,7.62l.06.35Z"/><path d="M217.83,409.23c.08.66,0,1.11-.24,1.28a.29.29,0,0,1-.32,0,2,2,0,0,1-.6-.9,86.51,86.51,0,0,1-3-8.84c-.35-1.27-.66-2.55-.92-3.83-.33-1.55-.67-3.14-.87-4.73a21.3,21.3,0,0,1-.19-2.32.89.89,0,0,1,0-.38c.08-.23.29-.21.43-.07a1.46,1.46,0,0,1,.23.49c.59,1.75,1.07,3.58,1.55,5.36.35,1.31.71,2.68,1.11,4,.28.91.58,1.81.87,2.7a49.48,49.48,0,0,1,1.94,7.06Z"/><path d="M229.25,369l-9.77-38.35c-1.59-6.28-2.59-10.21-2.61-10.29q-4.56-18.22-9.12-36.46c-4-16.1-9-34.17-13-50.29-4.68-18.71-9.63-37.33-14.42-56a32.33,32.33,0,0,1-1.18-6.35c-.08-1.38,0-2.91-.78-4-1.7-2.32-6.38,1.71-8.19,2.59q-5.28,2.56-10.61,4.91c-6.88,3.06-13.83,5.89-20.79,8.65a6,6,0,0,0-2.71,1.68c-1.44,1.78-.05,4,.43,5.95.66,2.65,1.33,5.31,2,8q2,8,4,15.94,4.06,16.19,8.16,32.33c5.53,21.79,12.07,45.52,17.75,67.26q4.08,15.63,8.24,31.25l-20,10.18-.56.28c-1.15-4.13-2.3-8.25-3.34-12.43q-4.56-18.23-9.13-36.45-6-24.17-12.07-48.34c-4.68-18.71-9.64-37.33-14.43-56a32.33,32.33,0,0,1-1.18-6.35c-.07-1.38,0-2.91-.78-4-1.7-2.32-6.38,1.71-8.19,2.59q-5.26,2.56-10.61,4.91c-6.88,3.06-13.83,5.89-20.79,8.65a6,6,0,0,0-2.7,1.68c-1.45,1.78,0,4,.42,5.94.66,2.66,1.33,5.32,2,8l4,15.94q4.06,16.19,8.16,32.33,8.3,32.69,16.79,65.3,5.13,19.62,10.39,39.18c-8.66,4.35-19.58,8.61-21.14,9.31-.49.22-1.1.42-1.48,0a1.75,1.75,0,0,1-.36-.78c-1.54-5.49-3.1-10.94-4.49-16.48q-4.55-18.22-9.12-36.46-6-24.17-12.08-48.34c-4.68-18.7-9.63-37.33-14.42-56a32.33,32.33,0,0,1-1.18-6.35c-.08-1.38,0-2.91-.78-4-1.7-2.32-6.38,1.72-8.19,2.59-3.51,1.72-7.06,3.34-10.61,4.92-6.88,3.05-13.83,5.88-20.79,8.64A6.08,6.08,0,0,0,7.17,236c-1.44,1.78,0,4,.43,6,.66,2.66,1.33,5.32,2,8q2,8,4,15.94,4.06,16.19,8.16,32.34,8.3,32.68,16.79,65.29c4.89,18.73,9.82,37.44,14.95,56.07,3.15,11.44,6.18,23,10,34.17.54,1.57.75,4.41,2.52,4.69a2.06,2.06,0,0,0,.35,0,5,5,0,0,0,2.06-.63c6.61-3.15,34.1-15.75,61.35-29.43,18.11-9.1,42.18-21.22,61.2-30.75,13.35-6.69,26.08-13,37.12-18.53C228.11,379.12,231.82,378.21,229.25,369Z"/><path d="M65.16,466.11a7.88,7.88,0,0,1-4.61-2.59h0a11.56,11.56,0,0,1-2.1-3.5h0a25.89,25.89,0,0,1-1-3.34h0l0-.06h0c-4-11.54-7.05-23.29-10.18-34.63h0c-5.14-18.69-10.09-37.44-15-56.18h0q-8.52-32.64-16.8-65.35h0Q11.4,284.3,7.32,268.1h0q-2-8-4-16h0c-.66-2.66-1.33-5.33-2-8h0l-.1-.31h0c-.09-.26-.22-.63-.38-1.13h0A15.27,15.27,0,0,1,0,237.86H0a11.51,11.51,0,0,1,2.45-7.19h0A11.77,11.77,0,0,1,7.81,227h0c6.93-2.75,13.8-5.55,20.57-8.56h0c3.5-1.55,7-3.14,10.4-4.81h0l.12-.07h0c.14-.08.34-.22.59-.38h0c.5-.32,1.16-.75,1.92-1.21h0A13.07,13.07,0,0,1,48,209.73h0a7.89,7.89,0,0,1,6.43,3.4h0a12.62,12.62,0,0,1,2.15,5.71h0c.18,1.47.16,2.41.2,2.84h0a24.51,24.51,0,0,0,.9,4.56h0c4.78,18.64,9.74,37.28,14.44,56.07h0q6,24.19,12.08,48.33h0q4.57,18.24,9.12,36.46h0c.85,3.38,1.77,6.75,2.72,10.16h0L99.09,376h0c2.27-1,4.82-2.07,7.37-3.23h0q-4.33-16.17-8.57-32.39h0Q89.37,307.72,81.09,275h0Q77,258.85,72.92,242.65h0l-4-16h0c-.66-2.66-1.33-5.33-2-8h0a2.49,2.49,0,0,0-.1-.31h0c-.08-.25-.22-.63-.38-1.12h0a15.05,15.05,0,0,1-.85-4.86h0a11.54,11.54,0,0,1,2.44-7.2h0a12,12,0,0,1,5.36-3.68h0C80.34,198.8,87.21,196,94,193h0c3.5-1.55,7-3.14,10.4-4.81h0l.14-.09h0l.59-.37h0c.5-.32,1.16-.76,1.92-1.21h0a13.1,13.1,0,0,1,6.57-2.23h0a7.93,7.93,0,0,1,6.43,3.41h0a12.58,12.58,0,0,1,2.15,5.71h0c.18,1.46.16,2.41.2,2.84h0a24,24,0,0,0,.91,4.55h0c4.78,18.64,9.73,37.28,14.44,56.08h0q6,24.18,12.07,48.33h0q4.58,18.23,9.13,36.46h0c.34,1.39.71,2.78,1.08,4.18h0l8.59-4.37h0q-3.27-12.29-6.48-24.6h0c-5.65-21.66-12.2-45.4-17.76-67.32h0q-4.09-16.16-8.17-32.35h0c-1.33-5.31-2.67-10.64-4-15.95h0c-.67-2.66-1.33-5.33-2-8h0l-.1-.31h0c-.09-.25-.22-.62-.38-1.12h0a15.05,15.05,0,0,1-.85-4.86h0a11.48,11.48,0,0,1,2.44-7.2h0a12,12,0,0,1,5.36-3.68h0c6.93-2.75,13.8-5.55,20.57-8.55h0c3.5-1.55,7-3.14,10.39-4.81h0l.13-.07h0l.59-.38h0c.5-.32,1.16-.76,1.92-1.21h0a13.13,13.13,0,0,1,6.57-2.23h0a7.93,7.93,0,0,1,6.43,3.41h0a12.58,12.58,0,0,1,2.15,5.71h0c.18,1.46.16,2.41.2,2.84h0a24.45,24.45,0,0,0,.9,4.55h0c4.78,18.64,9.74,37.28,14.44,56.08h0c4,16,9,34,13,50.28h0q4.58,18.24,9.12,36.47h0s1,4,2.61,10.25h0c2.35,9.25,6,23.61,9.75,38.31h0a29.89,29.89,0,0,1,1.2,7.85h0a14.46,14.46,0,0,1-2.86,9.16h0a8.86,8.86,0,0,1-3.48,2.66h0c-11,5.45-23.59,11.75-36.82,18.38h0c-19,9.53-43.08,21.65-61.2,30.75h0C105,449.26,77.38,461.91,70.89,465h0a10.16,10.16,0,0,1-4.51,1.21h-.06a7.77,7.77,0,0,1-1.16-.1ZM15.85,247.74q2,8,4,15.94h0Q23.89,279.83,28,296h0q8.3,32.67,16.77,65.24h0c4.89,18.71,9.81,37.38,14.93,55.95h0c3,10.95,5.86,21.79,9.32,32.05h0c9.84-4.6,34.13-15.85,58.23-28h0c18.11-9.09,42.18-21.21,61.21-30.75h0c12.5-6.26,24.45-12.23,35-17.47h0c-.09-.44-.21-1-.38-1.59h0l6.2-2.44,6.24-2.24L229.26,369l-6.2,2.44-.05-.19c-3.76-14.73-7.42-29.1-9.78-38.37h0c-1.6-6.29-2.58-10.17-2.62-10.32h0q-4.56-18.22-9.12-36.46h0c-4-15.95-9-34-13-50.29h0c-4.65-18.62-9.6-37.23-14.41-56h0c-.23-.93-.51-2-.76-3.16h0l-.66.35h0c-3.6,1.76-7.21,3.41-10.8,5h0c-6.26,2.78-12.54,5.37-18.84,7.88h0q.86,3.45,1.73,6.93h0q2,8,4,15.93h0q4.05,16.17,8.16,32.31h0c5.49,21.67,12,45.38,17.72,67.19h0q4.08,15.63,8.24,31.21h0c1,3.79-.58,7.89-3.65,9.45h0l-20,10.19h0l-.54.28h0a5.64,5.64,0,0,1-5.25-.06h0a7.42,7.42,0,0,1-3.52-4.62h0c-1.16-4.14-2.33-8.34-3.41-12.67h0q-4.56-18.22-9.13-36.45h0q-6-24.17-12.07-48.34h0c-4.66-18.62-9.61-37.23-14.42-56h0c-.23-.93-.51-2-.76-3.15h0l-.66.35h0c-3.59,1.76-7.2,3.41-10.8,5h0c-6.26,2.77-12.54,5.36-18.84,7.87h0c.58,2.3,1.15,4.61,1.73,6.93h0l4,15.93h0q4.05,16.17,8.16,32.31h0q8.28,32.67,16.77,65.24h0q5.11,19.58,10.37,39.12h0c1,3.8-.57,7.92-3.67,9.48h0c-4.54,2.28-9.52,4.46-13.59,6.18h0c-4,1.7-7.35,3-7.82,3.25h0a7.6,7.6,0,0,1-3.18.74h0a6.75,6.75,0,0,1-4.94-2.22h0a9.44,9.44,0,0,1-2.2-4.09h0c-1.53-5.47-3.11-11-4.55-16.72h0q-4.56-18.22-9.12-36.46h0q-6-24.17-12.08-48.34h0c-4.66-18.62-9.6-37.23-14.41-56h0c-.23-.93-.51-2-.76-3.16h0l-.66.36h0c-3.6,1.75-7.21,3.4-10.8,5h0c-6.26,2.78-12.54,5.36-18.84,7.87h0q.86,3.45,1.73,6.93Zm88.52-59.56h0Z"/><path class="cls-3" d="M229.25,369l-9.77-38.35c-1.59-6.28-2.59-10.21-2.61-10.29q-4.56-18.22-9.12-36.46c-4-16.1-9-34.17-13-50.29-4.68-18.71-9.63-37.33-14.42-56a32.33,32.33,0,0,1-1.18-6.35c-.08-1.38,0-2.91-.78-4-1.7-2.32-6.38,1.71-8.19,2.59q-5.28,2.56-10.61,4.91c-6.88,3.06-13.83,5.89-20.79,8.65a6,6,0,0,0-2.71,1.68c-1.44,1.78-.05,4,.43,5.95.66,2.65,1.33,5.31,2,8q2,8,4,15.94,4.06,16.19,8.16,32.33c5.53,21.79,12.07,45.52,17.75,67.26q4.08,15.63,8.24,31.25l-20,10.18-.56.28c-1.15-4.13-2.3-8.25-3.34-12.43q-4.56-18.23-9.13-36.45-6-24.17-12.07-48.34c-4.68-18.71-9.64-37.33-14.43-56a32.33,32.33,0,0,1-1.18-6.35c-.07-1.38,0-2.91-.78-4-1.7-2.32-6.38,1.71-8.19,2.59q-5.26,2.56-10.61,4.91c-6.88,3.06-13.83,5.89-20.79,8.65a6,6,0,0,0-2.7,1.68c-1.45,1.78,0,4,.42,5.94.66,2.66,1.33,5.32,2,8l4,15.94q4.06,16.19,8.16,32.33,8.3,32.69,16.79,65.3,5.13,19.62,10.39,39.18c-8.66,4.35-19.58,8.61-21.14,9.31-.49.22-1.1.42-1.48,0a1.75,1.75,0,0,1-.36-.78c-1.54-5.49-3.1-10.94-4.49-16.48q-4.55-18.22-9.12-36.46-6-24.17-12.08-48.34c-4.68-18.7-9.63-37.33-14.42-56a32.33,32.33,0,0,1-1.18-6.35c-.08-1.38,0-2.91-.78-4-1.7-2.32-6.38,1.72-8.19,2.59-3.51,1.72-7.06,3.34-10.61,4.92-6.88,3.05-13.83,5.88-20.79,8.64A6.08,6.08,0,0,0,7.17,236c-1.44,1.78,0,4,.43,6,.66,2.66,1.33,5.32,2,8q2,8,4,15.94,4.06,16.19,8.16,32.34,8.3,32.68,16.79,65.29c4.89,18.73,9.82,37.44,14.95,56.07,3.15,11.44,6.18,23,10,34.17.54,1.57.75,4.41,2.52,4.69a2.06,2.06,0,0,0,.35,0,5,5,0,0,0,2.06-.63c6.61-3.15,34.1-15.75,61.35-29.43,18.11-9.1,42.18-21.22,61.2-30.75,13.35-6.69,26.08-13,37.12-18.53C228.11,379.12,231.82,378.21,229.25,369Z"/><path d="M386.32,101q-9.36,2.13-13.46,12.5-4,10.14-1.07,23t11,20.14q8.25,7.5,17.6,5.38T414,149.62q4-10.1,1-23t-11.09-20.21Q395.61,98.9,386.32,101ZM403,140.2q-1.92,5.34-6.2,6.32-4.56,1-8.44-2.73a21.72,21.72,0,0,1-4.67-21q1.88-5.38,6.15-6.35,4.49-1,8.41,2.86a19.71,19.71,0,0,1,5.19,9.9A19.34,19.34,0,0,1,403,140.2ZM357.56,87.55a2.18,2.18,0,0,0-2.16-.62c-2.94.83-10.38,2.9-12.36,3.24-1.74-.47-1.91,1.53-1.91,2.86,0,0-2.49,19.23-4.7,32.2l-1.7,9.45c-8.13-12.56-19.11-28.66-20.53-31.24l-1.2-2.18c-.29-2.26-.78-2.14-2.44-1.69l-.32.09-.6.15a101.92,101.92,0,0,1-11.19,2.39c-2,.28-2.92.37-3.13,3.11a2.44,2.44,0,0,0,.95,2.4,4.15,4.15,0,0,1,1.68,2.58c2.49,10.57,10.95,46.2,13.83,59.24a46.6,46.6,0,0,1,1.33,11,4,4,0,0,0,1.34,2.35.89.89,0,0,0,.9.25l3.6-.73a.5.5,0,0,0,.13,0l7.82-2.21c2.29-.77,2.69-2,1.05-6.63-.63-1.81-1.92-7.72-3.31-14.42l-2.59-12.87,8.41,13.38,0,0c3.05,4.72,6.07,9.23,8.44,12.48l4.2.78a2.94,2.94,0,0,0,2.89-1.39l.56-.83a6.32,6.32,0,0,0,1-3.88,60.08,60.08,0,0,1,.51-11.85q.38-2.88,1.08-6.29c.58-2.72,1.23-6.35,1.93-10.43l2.17,11.91c1.55,8,3.21,15.57,4.41,19.25a1.68,1.68,0,0,0,2.06,1.26l11.79-3.19a3.33,3.33,0,0,0,2.15-2.56l.21-1a6.59,6.59,0,0,0-.41-4.08,67.38,67.38,0,0,1-4.88-17.64c-2-13.08-9.34-46.06-9.84-50l-.36-2.88a3.29,3.29,0,0,0-.84-1.77Z"/><path d="M434.18,121.44c-.67,3.43-1.78,8.56-3.32,15.35s-2.64,11.9-3.31,15.3c-.19.93-.07,1.43.32,1.49q1.89.3,5.75.68t5.75.68c.44.07.77-.44,1-1.55.63-3.17,1.43-7.93,2.43-14.27s1.8-11.09,2.42-14.22c.46-2.34.82-3.48,1.1-3.44S434.18,121.44,434.18,121.44Z"/><path d="M459.93,132.43q-2.83-9.56-4.1-14.38-1.31-5.08-3.66-15.28t-3.66-15.23c-.17-.64-.65-.88-1.47-.7a35.49,35.49,0,0,1-4.54.63,23.67,23.67,0,0,1-2.61,0,12.13,12.13,0,0,0-2.57.15c-.25.06-.5.65-.76,1.76,0,0,6.59,28.47,6.77,28.25a1.57,1.57,0,0,1,.5.91q1.34,5.13,3.81,15.43t3.81,15.43c.27,1,.68,1.49,1.25,1.36l10.77-2.39c.6-.13.78-.66.54-1.57Q462.78,142,459.93,132.43Z"/><path d="M420.18,96.54q-5.6,7-3.74,15.16a17.05,17.05,0,0,0,9.88,12A24.69,24.69,0,0,0,438.78,126c.9-.1,1.36-.51,1.08-2.1a56.86,56.86,0,0,0-2-7.74,1.71,1.71,0,0,0-1.57-.81,13.17,13.17,0,0,1-3-.83q-4.17-1.8-5-5.53a7.92,7.92,0,0,1,1.91-7.27,11.8,11.8,0,0,1,2.49-2.11,1.51,1.51,0,0,0,.92-2c-.29-.85-1.45-7.12-1.85-8a1,1,0,0,0-1.13-.56,2.16,2.16,0,0,0-.36.1A24.81,24.81,0,0,0,420.18,96.54Z"/><path d="M433.94,88.26a16.14,16.14,0,0,0-2.27.51,2.81,2.81,0,0,1-1,.21l1.81,9.22.76,1a3.74,3.74,0,0,1,1.32-.64c.74-.18,3.22-.56,3.22-.56l.83,0-1.82-9.49Z"/><path d="M437,115.4s2,.08,2.9.09a9.32,9.32,0,0,0,2.64-.79l2.27,6.83.95,2.69a23.66,23.66,0,0,1-7,1.74C435.81,126,437,115.4,437,115.4Z"/><path class="cls-4" d="M800.11,167.58C781,177.8,757.71,194.52,755.21,240s20.24,72.48,20,75.38c-.18,2.42-29.38,60.06-39.1,79.18a5.76,5.76,0,0,0,3.13,8.11l52,16.82a5.33,5.33,0,0,0,6.47-3.05l28.32-76.11c2.17-.57,4.24,16.26,4.24,16.26l-4.43,54.09a5.53,5.53,0,0,0,4.93,6.08l51.33,3.86a5.55,5.55,0,0,0,5.79-5.28l18.47-245.7a5.54,5.54,0,0,0-5-6.09C882,162.34,816.36,158.89,800.11,167.58Zm28.41,98.08c-.31,4.12-4.53,6.6-7.94,4.63-15.73-9.11-15-23.71-10.59-38.79a27,27,0,0,1,14.37-16.9c3.72-1.86,7.91,1.24,7.58,5.57Z"/><path class="cls-5" d="M644.15,195.06s-8.7,2.49-10.34,7-25.87,177.17-25.87,177.17,2.85,21.2,8.73,22.71,41.66,3.59,44.29,1,8.37-14.36,8.37-14.36l-37.85-53.35Z"/><path class="cls-5" d="M701.91,197.59s-8.42,3.31-9.62,8-8.7,178.84-8.7,178.84,6.11,23.39,8.18,18.66,11-64.71,11-64.71Z"/><path d="M771.51,218.05A1.77,1.77,0,0,0,771,218c-3.06-.19-7.33.82-10.32,1.4-.55.1-1.1.23-1.65.35,0,.25.1.49.14.73a2.08,2.08,0,0,1-.17,1.19.06.06,0,0,0,0,0l1.09,0a12.34,12.34,0,0,0,2.55-.42c2.57-.45,6.56-1.19,8.8-2.46.15-.09.33-.2.34-.37s-.12-.28-.27-.36"/><path d="M774.69,274.69a1.28,1.28,0,0,0-.51-.09c-3.07-.19-9.22.93-12.21,1.5-.55.11-1.1.23-1.64.36,0,.24.09.48.13.72a2.1,2.1,0,0,1-.17,1.19l0,.05q.54,0,1.08,0A12.53,12.53,0,0,0,764,278c2.56-.46,8.43-1.29,10.68-2.58.15-.08.32-.2.33-.36s-.11-.28-.27-.35"/><path d="M777.19,282.13a1.44,1.44,0,0,0-.51-.08c-3.07-.19-9.84.76-12.83,1.34-.56.1-1.1.23-1.65.35,0,.25.1.48.13.73a2.07,2.07,0,0,1-.16,1.18s0,0,0,.05c.37,0,.73,0,1.09,0a15,15,0,0,0,2.56-.42c2.57-.45,9.06-1.14,11.3-2.4.16-.09.33-.2.34-.37a.39.39,0,0,0-.27-.36"/><path d="M775,203.05a1.5,1.5,0,0,0-.52-.1c-2.07-.12-7,.68-10.13,1.11a1,1,0,0,1,.5.68q.15.6.27,1.2a.9.9,0,0,1,0,.23c3-.44,8.14-1.46,9.79-2.4.16-.09.33-.21.35-.36a.4.4,0,0,0-.28-.36"/><path d="M776.18,196.73a1.42,1.42,0,0,0-.52-.09,56.65,56.65,0,0,0-9,.71,1.12,1.12,0,0,1,.51.68c.09.39.18.79.26,1.2a.78.78,0,0,1,0,.21c3-.43,7-1,8.63-2,.16-.09.33-.21.34-.37a.39.39,0,0,0-.27-.36"/><path d="M773.78,210.41a.85.85,0,0,0-.39-.07,25.33,25.33,0,0,0-2.89,0c-.66,0-3.42.9-4.06,1-1.49.22-3,.27-4.52.39l-.62.08a3,3,0,0,1,.15.48c.09.59.21,1.18.32,1.77,1-.13,2.06-.39,3.05-.58,1.06-.37,4.42-1.09,5.47-1.53a32.22,32.22,0,0,1,3.33-1,.52.52,0,0,0,.33-.21c0-.11-.05-.23-.17-.29"/><path d="M769.46,226.87a3.06,3.06,0,0,0-1.75-.19,42,42,0,0,0-5.13.77c-1.55.3-4.55.75-6,1.22.18.56.26,1.5.41,2.07,2-.37,5.54-1.26,7.54-1.65.67-.14,1.35-.3,2-.4s-.42.08.11-.06a23.4,23.4,0,0,0,2.8-1.13c.2-.07.43-.19.39-.38s-.19-.21-.35-.25"/><path d="M768.9,234c-4.89-.23-6.69.28-11.27,1.54,0,0-1.72-.1-1.73-.09-.1.7,0,1.54-.21,2.23a46.26,46.26,0,0,0,5.13-.41c1-.2,2.09-.48,3.12-.77l3.09-.85c1.51-.42.25-.39,1.76-.8.42-.12.9-.28,1-.64a2,2,0,0,0-.92-.21"/><path d="M770.35,242.07c-.11-.22-.4-.28-.65-.3a30.45,30.45,0,0,0-8.61.59c-1.24.21-2.46.47-3.6.75-.65.17-1.27.33-1.86.51-.18.68-.35,1.36-.51,2.06,1.06-.24,2.12-.48,3.22-.63,2.22-.31,4.41-.55,6.62-.75s2.27-1.27,4.53-1.49a1.46,1.46,0,0,0,.62-.16.47.47,0,0,0,.26-.52.11.11,0,0,0,0-.06"/><path d="M772.22,250a2.5,2.5,0,0,0-1.66-.35,34.12,34.12,0,0,0-5.16.27c-2.9.4-5.75,1-8.6,1.63-.15.65-.28,1.31-.43,2,.33,0,.67-.08,1-.14,1.34-.21,2.68-.53,4-.69.47,0,.9.05,1.37,0a5.4,5.4,0,0,0,1.74-.52,9.34,9.34,0,0,1,1.66-.4l5.8-1.38c.16,0,.35-.11.35-.25a.45.45,0,0,0-.12-.16"/><path d="M773,257.61a13.9,13.9,0,0,0-5,.07c-1.85.24-8.14,1.34-10,1.61a4.09,4.09,0,0,1-.74,2.26l5-.92c3.71-.77,7.11-1.64,10.81-2.41.17,0,.38-.1.41-.25s-.25-.32-.5-.36"/><path d="M758.57,269.82c16.74-2.2,16.22-3.34,16.25-3.3-.38-.52-1.24-.55-2-.51-2.63.15-11.09,1.19-13.85,1.53a4.36,4.36,0,0,1-.44,2.28"/><path class="cls-6" d="M727.68,185.23c-1.89-1.23-15.94.83-18.55,1.22a3.91,3.91,0,0,1-.84.05c-5.44-.17-61.13-1.92-61.41-.16s-31.11,196.28-27.1,198,47.07,5.81,49.54,4.33c1.92-1.15,2.35-22.85,2.44-32.31a4.71,4.71,0,0,1,4.39-4.65l15.91-1.07a4.72,4.72,0,0,1,5,4.62c.19,10.16.86,32.54,3,33.77,2.81,1.6,46.58-2.24,48.12-3.19,1.34-.83-15.75-146.15-20.19-185.37C727.38,194.59,729.76,186.59,727.68,185.23Zm-37,102.4-11.32-.34a4.71,4.71,0,0,1-4.53-5.35l6.43-46a4.72,4.72,0,0,1,4.65-4.06h1.81a4.7,4.7,0,0,1,4.71,4.39l3.09,46.37A4.72,4.72,0,0,1,690.68,287.63Z"/><path d="M621.49,316.81a1.09,1.09,0,0,1-.94-.31c-.23-.46.22-.88.74-1.14a20.81,20.81,0,0,1,3.59-1.13c3-.76,8.14-2,12.31-2.6a4.2,4.2,0,0,1,.61-.06,1.52,1.52,0,0,1,.93.19c.1.19.07.41-.42.62a30.54,30.54,0,0,1-3.7,1.3,14.62,14.62,0,0,0-1.5.54c-.41.17-2.54.9-3,1a41.89,41.89,0,0,1-7.3,1.38l-1,.13-.38,0"/><path d="M621,309.79c-.42,0-.85,0-1.28,0l0-.28.33-.21.16-.1.11-.05a6.87,6.87,0,0,1,1.52-.64c1.5-.37,2.91-.8,4.09-1.16A94.24,94.24,0,0,1,636.26,305a5.43,5.43,0,0,1,.81-.1,1.72,1.72,0,0,1,.75.11.42.42,0,0,1,.27.22c.06.18-.1.37-.44.49a91.65,91.65,0,0,1-9.8,2.91l-.31.07a34.2,34.2,0,0,1-6.56,1.11"/><path d="M621.66,324.2l-.83,0h0v-.29a4,4,0,0,0,.93-.44c.16-.1.32-.18.4-.22l.35-.16a20,20,0,0,1,2.52-1l2.7-.85c1.46-.46,3-.94,4.47-1.35a35,35,0,0,1,7.79-1.25h.3c.28,0,.47,0,.55.18a.26.26,0,0,1,0,.24.88.88,0,0,1-.45.32c-2.95,1.11-5.9,2-9,2.91l-4.35,1.3a10.71,10.71,0,0,1-2.2.35l-.69.06c-1.07.12-2,.16-2.52.18"/><path d="M623.12,329.31c-.59,0-1.2,0-1.76,0l0-.29a6.15,6.15,0,0,0,1.09-.55,4.74,4.74,0,0,1,.48-.27,21.22,21.22,0,0,1,3.5-1.23c2.74-.73,5.56-1.43,8.38-2.1a28.27,28.27,0,0,1,3.24-.62,1.83,1.83,0,0,1,.33,0,1.57,1.57,0,0,1,.51.05c.3.09.56.31.49.59s-.39.43-.71.54c-3,1.05-6.14,2-9.3,2.74-1.58.37-3.19.73-4.78,1a11.35,11.35,0,0,1-1.51.15"/><path d="M620.19,335.74c-.3,0-.6,0-.91,0l0-.3a3.84,3.84,0,0,0,1.09-.5c.2-.12.38-.21.48-.26a29.67,29.67,0,0,1,3.74-1.35c.94-.28,1.9-.54,2.85-.81,1.2-.33,8.35-2.14,11-2.23.27,0,1.11,0,1.16.37.06.59-1.18,1-1.86,1.17l-.19.06c-1,.31-2,.63-3.1.93-1.84.52-3.8,1-6.19,1.53l-1.08.24a36.59,36.59,0,0,1-7,1.14"/><path d="M620.91,342.51a7.08,7.08,0,0,1-.93,0l.1-.27a3.74,3.74,0,0,0,.43-.23.93.93,0,0,1,.22-.13c.41-.19.85-.37,1.3-.55l.86-.36a27.23,27.23,0,0,1,4.39-1.32l.9-.21c3.8-.94,7.7-1.74,11.59-2.39a2.23,2.23,0,0,0,.27,0,1,1,0,0,1,.26,0,.49.49,0,0,1,.29.79,1.85,1.85,0,0,1-.79.5,43.31,43.31,0,0,1-5.1,1.53,5.39,5.39,0,0,0-1.34.3,6,6,0,0,1-.61.19l-2.07.52-1.23.33c-.9.24-1.82.5-2.74.66-1.18.21-2.32.37-3.32.47s-1.93.16-2.48.17"/><path d="M622.82,349.77a2.43,2.43,0,0,1-1-.17l-.61-.27h.71c.14-.1.49-.29.83-.48l.88-.48.95-.42.8-.36a28.64,28.64,0,0,1,4.23-1.34l.63-.16c3.32-.88,6.78-1.52,10-2.09a2.85,2.85,0,0,1,.52-.06c.64,0,.89.19,1,.37l.06.1-.12.07a14.73,14.73,0,0,1-3.32,1.43c-4.69,1.37-9.5,2.61-14.32,3.67a7.55,7.55,0,0,1-1.23.19"/><path d="M622.89,355.54c-.35,0-.71,0-1.1,0l0-.29a3.36,3.36,0,0,0,.62-.32l.37-.2.78-.28.33-.12,2.57-.89c2-.69,3.69-1.2,5.25-1.6a42.59,42.59,0,0,1,9.32-1.48,5.72,5.72,0,0,1,.58,0,.62.62,0,0,1,.38.08.29.29,0,0,1,0,.47,1.32,1.32,0,0,1-.43.21c-1.45.41-3,.81-4.45,1.17l-.58.13a8,8,0,0,0-1.44.39c-.17.07-.33.15-.48.23a7.69,7.69,0,0,1-.86.35,84.54,84.54,0,0,1-8.84,1.92l-.8.14a10.55,10.55,0,0,1-1.26.13"/><path d="M617,365.18a1.74,1.74,0,0,1,.27-.37,4.29,4.29,0,0,1,1.32-.9c2.15-1.11,7.63-2.51,10.94-3.29a46.55,46.55,0,0,1,9.37-1.49h.51a3.09,3.09,0,0,1,1.6.28l.11.06,0,.1a1.6,1.6,0,0,1-1,.59c-2.27.72-4.72,1.26-7.09,1.77-1.13.26-2.27.5-3.37.77l-4.87,1.18-.94.23c-1.16.29-5.41,1.17-6.65,1.28l-.29,0Z"/><path d="M623.6,371.14c-.57,0-.94-.14-1-.44a.45.45,0,0,1,.05-.37,1.63,1.63,0,0,1,.84-.59,58.17,58.17,0,0,1,7.83-2.51c1.1-.25,2.22-.45,3.33-.61a34.93,34.93,0,0,1,4.07-.45,14,14,0,0,1,2,.07.49.49,0,0,1,.31.1.33.33,0,0,1,0,.5,1,1,0,0,1-.45.22c-1.55.48-3.14.82-4.7,1.16-1.15.26-2.34.51-3.5.82-.79.21-1.59.46-2.38.68a30.65,30.65,0,0,1-6.18,1.42Z"/><path d="M761.07,345.09c-.2-.07-.32-.16-.36-.28s.24-.36.51-.39a10.42,10.42,0,0,1,1.76.08c1.46.15,3.9.42,5.84.81l.28.07a.77.77,0,0,1,.38.23c0,.1,0,.2-.29.21a14,14,0,0,1-1.83,0,6.25,6.25,0,0,0-.75,0c-.21,0-1.27,0-1.48,0a19.89,19.89,0,0,1-3.43-.55l-.45-.1-.18-.05"/><path d="M764.15,340.26c-.24-.08-.49-.17-.73-.27l.08-.15.23,0,.12,0h.07a4.73,4.73,0,0,1,1,0c.93.09,1.82.14,2.57.18a58.56,58.56,0,0,1,6.35.78,3.72,3.72,0,0,1,.48.11.89.89,0,0,1,.41.22.24.24,0,0,1,.1.18c0,.11-.13.18-.35.18a53.77,53.77,0,0,1-6.18-.36l-.19,0a20.11,20.11,0,0,1-4-.72"/><path d="M758.32,350.36a4.44,4.44,0,0,1-.43-.15h0l0-.07,0,0,.05-.12a1.78,1.78,0,0,0,.57-.06l.25,0,.21,0a12.36,12.36,0,0,1,1.5,0L762,350c.85,0,1.72.07,2.59.14a18.8,18.8,0,0,1,4.29.81l.16.05c.14,0,.23.12.25.2a.13.13,0,0,1,0,.13.48.48,0,0,1-.29.08c-1.74,0-3.44-.07-5.24-.18l-2.51-.14a5.89,5.89,0,0,1-1.21-.23l-.37-.1c-.58-.14-1-.28-1.35-.38"/><path d="M764.92,355.7l.79.29-.06.12a2.93,2.93,0,0,0-.58.08l-.26,0a9.54,9.54,0,0,1-1.77,0c-1.35-.11-2.74-.24-4.11-.38-.48-.06-1-.11-1.56-.23l-.15-.05a.9.9,0,0,1-.22-.1c-.12-.09-.2-.23-.13-.34s.25-.14.41-.14c1.52,0,3.08.08,4.62.24.77.08,1.55.18,2.32.29a5.44,5.44,0,0,1,.7.17"/><path d="M753.3,360.56l-.55-.2.08-.17a2.39,2.39,0,0,0,.76-.06,2.06,2.06,0,0,1,.35-.05,19.18,19.18,0,0,1,2.51,0l1.87.14a49.78,49.78,0,0,1,7,1c.16.05.68.21.61.47s-.91.31-1.35.29h-.13c-.65,0-1.34-.06-2-.12-1.21-.08-2.48-.21-4-.41l-.7-.09a24.07,24.07,0,0,1-4.42-.83"/><path d="M750.27,366.37a5.19,5.19,0,0,1-.67-.24l.14-.18a1.9,1.9,0,0,0,.37-.05l.19,0c.35,0,.71-.05,1.08-.06l.71,0a19.8,19.8,0,0,1,3.51.2l.71.07c3,.32,6,.75,9,1.3l.21.05a.68.68,0,0,1,.17.09.41.41,0,0,1,.19.28.4.4,0,0,1-.18.36,1.36,1.36,0,0,1-.7.16,32.72,32.72,0,0,1-4.08-.23,4.42,4.42,0,0,0-1-.13l-.49,0-1.63-.17-1-.08c-.72-.06-1.44-.11-2.16-.23-.9-.16-1.76-.35-2.51-.53s-1.43-.39-1.83-.52"/><path d="M748.5,373.18a2.29,2.29,0,0,1-.82-.46l-.43-.42.6.22c.15,0,.51-.1.86-.16l.89-.13.94-.06.79-.06a24.7,24.7,0,0,1,4,.15l.59.06c3.1.27,6.24.79,9.18,1.3a2.85,2.85,0,0,1,.46.12c.55.17.7.43.73.61v.1l-.12,0a13.64,13.64,0,0,1-3.27.19c-4.41-.27-8.89-.7-13.31-1.28a6.74,6.74,0,0,1-1.11-.21"/><path d="M747.46,379.29a9.84,9.84,0,0,1-.93-.36l.12-.23a3.48,3.48,0,0,0,.63-.08l.37-.06h1.07l2.46,0c1.94,0,3.51.12,5,.25a39.17,39.17,0,0,1,8.4,1.61l.49.16a.69.69,0,0,1,.3.18.27.27,0,0,1-.14.41,1.33,1.33,0,0,1-.43,0c-1.36-.09-2.76-.21-4.16-.37l-.53-.07a7.73,7.73,0,0,0-1.34-.11l-.48.05a7.58,7.58,0,0,1-.84,0,75.42,75.42,0,0,1-8.11-1.08l-.73-.13a8.17,8.17,0,0,1-1.11-.27"/><path d="M741.13,385.78a1.83,1.83,0,0,1,.34-.23,3.86,3.86,0,0,1,1.4-.36c2.17-.28,7.27.21,10.33.56a42.57,42.57,0,0,1,8.44,1.62l.43.15a2.71,2.71,0,0,1,1.28.72l.07.08-.07.08a1.49,1.49,0,0,1-1,.21c-2.15-.09-4.4-.39-6.58-.67l-3.11-.39-4.5-.49-.88-.1c-1.07-.11-5-.66-6-.95l-.26-.07Z"/><path d="M740.47,393.24c-.48-.16-.74-.41-.74-.69a.44.44,0,0,1,.15-.31,1.53,1.53,0,0,1,.9-.24,51.78,51.78,0,0,1,7.44.27c1,.13,2,.3,3,.51a29.05,29.05,0,0,1,3.6.87,11.48,11.48,0,0,1,1.66.66.46.46,0,0,1,.23.18c.12.16,0,.34-.16.43a1,1,0,0,1-.44,0c-1.47-.06-2.93-.26-4.36-.45-1.06-.14-2.15-.29-3.23-.38-.74-.06-1.49-.1-2.24-.15a28.92,28.92,0,0,1-5.69-.69Z"/><path class="cls-7" d="M349.59,446.08c0,3.73,9.61,82.7,9.61,82.7a3.08,3.08,0,0,0,3.38,2.74l39.49-3.93c1.7-.17,8.18-2.33,8-4l-5.47-1.63-1.94-19.49a3.1,3.1,0,0,0-3.35-2.77l-16.05,1.47a3.09,3.09,0,0,1-3.37-2.92l-.12-2.32a3.1,3.1,0,0,1,2.85-3.24l10.8-1.94c1.74-.13,9.43-1,9.24-2.72l-8.58-12.91a3.1,3.1,0,0,0-3.34-2.74l-9.46.83a3.09,3.09,0,0,1-3.33-2.69l-.26-2c-.21-1.73,1-4.77,2.76-4.94l14.13-1.13c1.7-.17,6.54-1.55,6.37-3.24l-4.61-20.23a3.09,3.09,0,0,0-3.38-2.77l-38.11-.95S349.59,442.35,349.59,446.08Z"/><path class="cls-8" d="M569.92,432.46c-6.52,5.36-12.72,14.82-9.86,31.6S574,488.7,574.13,489.77c.13.85-5.64,22-8.06,30.86a3.25,3.25,0,0,0,2.88,4.11l19.16,1.47c1.62.13,6.81-3.09,7.16-4.67l-1.15-9.61c.39-1.76,3.4-16.94,3.4-16.94s2.73,15.36,3,17.16l1,6.85a3.25,3.25,0,0,0,3.7,2.74l17.9-2.67c1.78-.26,7.45-3.19,7.19-5l-17.66-87.49a3.24,3.24,0,0,0-3.74-2.73C600.19,425.3,575.21,428.11,569.92,432.46ZM595,464.66c.39,2.62-7.16,5.11-9.52,3.9-4.72-2.44-5.38-7.18-5-12.3a9.71,9.71,0,0,1,2-5.31c1.76-2.28,8.31-3.38,8.73-.53Z"/><path class="cls-9" d="M575.42,428.58c-6.53,5.36-14.11,13.45-11.24,30.22s13.91,24.64,14.07,25.72c.13.85-5.65,22-8.07,30.85a3.26,3.26,0,0,0,2.89,4.11L592.23,521a3.27,3.27,0,0,0,3.43-2.55l2.58-11.74c.38-1.75,3.4-16.94,3.4-16.94s2.73,15.37,3,17.16l1,6.85a3.25,3.25,0,0,0,3.7,2.74l17.9-2.66a3.25,3.25,0,0,0,2.74-3.7l-13.21-88.77a3.26,3.26,0,0,0-3.75-2.73C604.31,420.05,580.7,424.23,575.42,428.58Zm21.94,31.34c.39,2.63-5.37,4.59-7.73,3.38-4.72-2.43-5.39-7.18-5-12.3a9.58,9.58,0,0,1,2-5.3c1.76-2.29,7.76-1.8,8.19,1.05Z"/><path class="cls-10" d="M561.73,484.08a22.86,22.86,0,0,0-1.62-5.95,29.62,29.62,0,0,0-2.6-4.2,13.48,13.48,0,0,0-6.92-4.9c-.68-.19-1.39-.28-2.07-.49-1-.31-2-.9-3-1.25a11.23,11.23,0,0,0-2.7-.35,16.54,16.54,0,0,1-2.12-.55,31.91,31.91,0,0,0-5.41-.69,77.44,77.44,0,0,1-10.5-1.41c-.86-.16-1.73-.32-2.59-.43l-.2.17q.33-8.47.73-17c.26-5.33.35-10.74,1.08-16,.08-.6.12-1.33-.29-1.67a1.24,1.24,0,0,0-1-.15,34.18,34.18,0,0,1-7.15-.15c-1.65-.16-2.07.14-3.73.07-1.13,0-6-1-6.53.32s-.28,3.22-.32,4.49c0,.77,0,1.64-.1,2.78-.09,1.81-.05,3.64,0,5.57,0,1,.05,2.08.05,3.14,0,5.4-1,66.12-1,81.16,6.15.21,21.63.72,22.59.64s2.09-.17,3.18-.16c2.9,0,5.11,0,7.16,0l2.1,0a30.78,30.78,0,0,0,6.92-.42c6.45-1.38,13.13-9.41,15.59-20.63.22-1,.42-2.05.59-3.08A56.78,56.78,0,0,0,561.73,484.08Zm-22.06,13.35c-.91,8-4.64,8.09-7.64,8.15-1.93,0-3.85-.2-5.77-.32a4.63,4.63,0,0,1-4.48-4.31l.75-11.58c.23-3.6,2.11-3.75,2.11-3.75,1.86.09,1.29.06,3.15.18s3.63.24,5.43.5c3.72.52,7.25,1,6.55,10C539.75,496.72,539.71,497.08,539.67,497.43Z"/><path class="cls-9" d="M568.55,477.24a22.46,22.46,0,0,0-1.67-5.95,29,29,0,0,0-2.67-4.2,13.93,13.93,0,0,0-7.09-4.92c-.7-.19-1.43-.28-2.13-.49-1-.31-2.06-.9-3.11-1.25a11.31,11.31,0,0,0-2.77-.35,19.79,19.79,0,0,1-2.17-.56,33.45,33.45,0,0,0-5.54-.7,81.48,81.48,0,0,1-10.76-1.42c-.88-.17-1.76-.33-2.65-.44l-.21.17q.35-8.47.73-17c.25-5.33.34-10.74,1.08-16,.08-.6.12-1.33-.3-1.67a1.29,1.29,0,0,0-1-.15,35.22,35.22,0,0,1-7.33-.17c-1.69-.15-2.12.14-3.81.07-1.16,0-6.15-1-6.69.31s-.29,3.22-.33,4.49c0,.77,0,1.64-.1,2.78-.08,1.81,0,3.64,0,5.57,0,1,.05,2.08.06,3.14,0,5.41-1,66.13-.93,81.17,6.3.22,22.15.75,23.14.68s2.14-.17,3.25-.16c3,0,5.24,0,7.34,0l2.15,0a32.33,32.33,0,0,0,7.09-.4c6.6-1.38,13.43-9.4,15.93-20.62.23-1,.43-2,.6-3.08A55.48,55.48,0,0,0,568.55,477.24ZM546,490.56c-.92,8-4.74,8.08-7.81,8.14-2,0-3.95-.21-5.92-.33a4.68,4.68,0,0,1-4.59-4.32l.75-11.58c.23-3.59,2.16-3.74,2.16-3.74,1.9.09,1.32,0,3.22.18s3.72.25,5.56.51c3.82.53,7.43,1,6.73,10.05C546.05,489.85,546,490.21,546,490.56Z"/><path d="M500.18,518.9l-4.26.78,3.32-.65.94-.15c-.37-2.25-5.32-40.17-7.77-61.59-.25-2.64-.57-6.11-.88-9.12a64.1,64.1,0,0,0-.95-7,6.31,6.31,0,0,0-3.17-4,7.69,7.69,0,0,0-3.55-.82,16.1,16.1,0,0,0-2.54.2l-.75.11h0l-20.24-.24a11.59,11.59,0,0,0-4.33.63,7.2,7.2,0,0,0-3.08,2.25,5.84,5.84,0,0,0-1,1.2l-.42.7-.15.79c-.14.75-.28,1.52-.42,2.29l-.23,1,0,.09c-1.19,6.41-2.39,12.86-3.51,18.87-4.73-8.12-10.13-16.86-10.94-18.12a7.68,7.68,0,0,0-6.5-3.49,28.33,28.33,0,0,0-5.67.79l-4.6.92v.06l-1.62.26c-1.59.25-3.3.49-5.06.75-2.21.33-4.42.65-6.68,1a15.85,15.85,0,0,0-3.19.63,6.72,6.72,0,0,0-4.41,5.05,8.15,8.15,0,0,0-.15,1.52,16.15,16.15,0,0,0,.35,3.06c.74,4.52,1.59,9,2.67,13.51.42,1.8.85,3.6,1.24,5.37,1.7,7.71,3.1,14.18,4.43,20.8.25,1.28.51,2.52.77,3.77,1.3,6.23,3,13.5,3.49,19.34a9.15,9.15,0,0,0,.7,2.94,6.63,6.63,0,0,0,2.52,2.9,9.29,9.29,0,0,0,4.91,1.26c1.73,0,3.24-.21,3.64-.2,2.52-.06,5-.19,7.33-.29h.17l1.28,0a13.81,13.81,0,0,0,3.25-.26,7.18,7.18,0,0,0,2.26-.85,5.78,5.78,0,0,0,2.37-2.65,6.58,6.58,0,0,0,.52-2.54,9.36,9.36,0,0,0-.23-2.12c-.15-.79-.73-4.94-1.36-10.75,2,2.18,4.27,4.6,6.45,7a98.54,98.54,0,0,1,6.48,7.67l.29.4.38.33a9.9,9.9,0,0,0,6.42,2.58,8.59,8.59,0,0,0,3.76-.8A6.57,6.57,0,0,0,465,521.9a42.9,42.9,0,0,0,3.79-7.66l.07-.18.05-.14,1.78-5.44c.3,4.11.53,7.6.61,8.77,0,.26-.06.59-.08,1l0,.4,0,.38c.07.6.14,1.16.18,1.66A9.94,9.94,0,0,0,472,523l.06.17.08.18a7.18,7.18,0,0,0,2.47,3l.1.07.08,0a9.3,9.3,0,0,0,4.84,1.21c1.73,0,3.24-.21,3.65-.2,2.51-.06,4.95-.2,7.32-.29h.17l1.28,0a14.4,14.4,0,0,0,3.26-.25,7.4,7.4,0,0,0,2.24-.86,5.82,5.82,0,0,0,2.38-2.64,6.64,6.64,0,0,0,.52-2.55A9.77,9.77,0,0,0,500.18,518.9Z"/><path d="M507.47,505.2l-4.26.77,3.31-.64,1-.15c-.38-2.25-5.33-40.18-7.78-61.6-.24-2.64-.56-6.1-.88-9.11a67.27,67.27,0,0,0-.94-7,6.34,6.34,0,0,0-3.17-4,7.72,7.72,0,0,0-3.55-.82,17.56,17.56,0,0,0-2.55.2l-.74.11,0,0-20.24-.25a11.54,11.54,0,0,0-4.32.63,7.16,7.16,0,0,0-3.08,2.26,5.89,5.89,0,0,0-1,1.2l-.42.7-.15.79c-.13.75-.27,1.52-.42,2.29l-.22,1,0,.09c-1.19,6.4-2.39,12.86-3.51,18.87-4.74-8.12-10.14-16.87-10.94-18.12a7.66,7.66,0,0,0-6.51-3.49,29,29,0,0,0-5.66.78l-4.6.93v.05l-1.62.27c-1.59.25-3.3.49-5.07.74-2.2.34-4.41.65-6.67,1a15.29,15.29,0,0,0-3.2.63,6.73,6.73,0,0,0-4.4,5.05,9,9,0,0,0-.16,1.51,15.8,15.8,0,0,0,.36,3.06c.74,4.53,1.59,9,2.67,13.52.42,1.8.85,3.59,1.24,5.37,1.7,7.7,3.1,14.18,4.43,20.8.25,1.28.51,2.52.77,3.76,1.3,6.24,3,13.51,3.49,19.35a8.88,8.88,0,0,0,.7,2.94,6.67,6.67,0,0,0,2.51,2.9,9.34,9.34,0,0,0,4.92,1.26c1.73,0,3.24-.21,3.64-.2,2.51-.07,5-.2,7.33-.3H438l1.28,0a15,15,0,0,0,3.25-.26,7.44,7.44,0,0,0,2.26-.85,5.78,5.78,0,0,0,2.37-2.65,6.79,6.79,0,0,0,.52-2.55,10.7,10.7,0,0,0-.23-2.11c-.16-.79-.73-4.94-1.36-10.75,2,2.18,4.26,4.6,6.45,7a98.65,98.65,0,0,1,6.48,7.66l.29.41.37.33a9.88,9.88,0,0,0,6.43,2.57,8.41,8.41,0,0,0,3.75-.79,6.58,6.58,0,0,0,2.49-2.22,42.55,42.55,0,0,0,3.79-7.66l.08-.17,0-.14,1.78-5.44c.3,4.11.54,7.6.61,8.77,0,.25-.05.58-.07,1l0,.39.05.39c.07.6.14,1.16.19,1.66a10.46,10.46,0,0,0,.49,2.38l.06.17.08.18a7.24,7.24,0,0,0,2.47,3l.1.07.09,0a9.18,9.18,0,0,0,4.84,1.22c1.72,0,3.23-.21,3.64-.2,2.51-.07,4.95-.2,7.32-.3H498l1.28,0a15.06,15.06,0,0,0,3.26-.26,7.49,7.49,0,0,0,2.25-.85,5.85,5.85,0,0,0,2.37-2.64,6.89,6.89,0,0,0,.53-2.56A10.47,10.47,0,0,0,507.47,505.2Z"/><path class="cls-3" d="M503.09,506c-.28-1.45-5.31-40-7.81-61.91-.52-5.47-1.29-13.8-1.72-15.48-.64-2.46-4.43-1.17-5.77-1.18l-20.24-.25c-2.38,0-3.41.44-4,1.47a1.3,1.3,0,0,0-.46.47l-.45,2.38s0,0,0,.07h0c-2.1,11.32-4.26,22.85-6,31.93-3.73-7.56-15.68-27-16.77-28.66-1.31-2-3.31-1.6-7.55-.76l.05.21-3.62.6-2.84.47c-1.62.25-3.34.5-5.11.75-2.2.33-4.4.65-6.6,1-1.59.25-3.55.18-3.94,2.15a8.48,8.48,0,0,0,.22,3c.73,4.45,1.56,8.81,2.61,13.2.42,1.81.85,3.62,1.26,5.43,1.69,7.73,3.1,14.23,4.44,20.9.25,1.25.51,2.48.77,3.73,1.28,6.18,3,13.55,3.56,19.84a5.15,5.15,0,0,0,.32,1.52,2.23,2.23,0,0,0,.86,1c1.6,1,4.5.4,6.07.36,2.41-.06,4.82-.19,7.22-.29,1.24-.06,4.81.41,5.45-1.08a3.54,3.54,0,0,0,0-2c-.35-1.81-1.76-12.59-2.72-25.1l3.49,4.14c.81,1,1.62,1.95,2.45,2.91,2.22,2.64,6,6.58,9.53,10.47a103.33,103.33,0,0,1,6.8,8.05,4.89,4.89,0,0,0,5.33,1.1c.9-.43,2.36-3.42,4.08-7.56,3-9,7.74-24.18,8.53-22.77.87,1.57,2.55,27.62,2.55,27.62s-.07.45-.1,1.08.15,1.21.2,1.79a5.74,5.74,0,0,0,.26,1.31,2.78,2.78,0,0,0,.92,1.19c1.6,1,4.5.4,6.07.36,2.4-.06,4.82-.19,7.22-.29,1.24-.06,4.81.41,5.45-1.08a3.54,3.54,0,0,0,0-2"/><path d="M412.66,451.77a.61.61,0,0,1-.58-.23.78.78,0,0,1,.4-.93,9.86,9.86,0,0,1,2.16-.95,51.5,51.5,0,0,1,6.44-1.75,2.32,2.32,0,0,1,.38-.06.83.83,0,0,1,.58.15c.07.15.06.33-.23.5a17.7,17.7,0,0,1-2.23,1.09,8.34,8.34,0,0,0-.9.44,5.81,5.81,0,0,1-.74.4,19.91,19.91,0,0,1-4.44,1.19l-.59.12-.25,0"/><path d="M411.73,446.93a7.12,7.12,0,0,1-.8,0v-.23l.2-.18a.57.57,0,0,1,.09-.08l.06,0a3.24,3.24,0,0,1,.92-.53c.9-.32,1.75-.68,2.47-1a47.46,47.46,0,0,1,6.26-2,2.65,2.65,0,0,1,.49-.09.86.86,0,0,1,.47.08.29.29,0,0,1,.17.18c.05.15-.05.29-.24.4a46.46,46.46,0,0,1-5.93,2.44l-.18.06a15.31,15.31,0,0,1-4,1"/><path d="M412.72,457.09l-.51,0h0v-.24a2.64,2.64,0,0,0,.55-.36,1.89,1.89,0,0,1,.24-.19l.2-.13a10.58,10.58,0,0,1,1.52-.82l1.63-.71c.87-.39,1.78-.8,2.69-1.14a16.3,16.3,0,0,1,4.76-1.09H424a.34.34,0,0,1,.34.13.24.24,0,0,1,0,.2.53.53,0,0,1-.26.27c-1.77.92-3.55,1.66-5.43,2.44L416,456.55a5.13,5.13,0,0,1-1.35.3l-.42.06c-.66.1-1.2.16-1.55.18"/><path d="M413.85,461.2c-.36,0-.72,0-1.08,0V461a2.85,2.85,0,0,0,.66-.45,2.64,2.64,0,0,1,.27-.22,10.37,10.37,0,0,1,2.1-1c1.67-.62,3.38-1.22,5.09-1.79a14.81,14.81,0,0,1,2-.54l.2,0a.8.8,0,0,1,.32,0,.47.47,0,0,1,.34.46.63.63,0,0,1-.43.44,45.62,45.62,0,0,1-5.61,2.31c-1,.33-1.94.62-2.91.89a5.89,5.89,0,0,1-.93.14"/><path d="M413.45,465.83h-.55v-.24a2.51,2.51,0,0,0,.66-.42,1.85,1.85,0,0,1,.28-.22,16.24,16.24,0,0,1,2.24-1.13l1.72-.67a38.37,38.37,0,0,1,6.69-1.92c.18,0,.7,0,.73.28.08.48-.67.79-1.08,1l-.12.06c-.58.26-1.22.52-1.87.79-1.11.42-2.3.84-3.75,1.29l-.66.21a17.4,17.4,0,0,1-4.29,1"/><path d="M414.42,471.36a2.75,2.75,0,0,1-.58,0l.06-.22s.18-.14.26-.2l.12-.1c.25-.15.51-.31.78-.45l.51-.3a13.35,13.35,0,0,1,2.66-1.12l.53-.17a72.67,72.67,0,0,1,7.05-2l.17,0h.15a.32.32,0,0,1,.23.22.46.46,0,0,1,0,.41,1,1,0,0,1-.46.41,19.68,19.68,0,0,1-3.08,1.29,2.83,2.83,0,0,0-.81.26,1.6,1.6,0,0,1-.37.15l-1.26.46c-.25.08-.49.18-.73.27a14.23,14.23,0,0,1-1.67.56c-.72.18-1.42.32-2,.41a14.24,14.24,0,0,1-1.53.18"/><path d="M415.52,477.2a1.17,1.17,0,0,1-.64-.13l-.39-.21h.44c.08-.08.29-.24.49-.4l.52-.39.57-.35.47-.29a13.92,13.92,0,0,1,2.55-1.13l.39-.14a56,56,0,0,1,6.1-1.8l.32-.05c.39,0,.55.14.62.29l0,.08-.07.06a8,8,0,0,1-2,1.19c-2.84,1.15-5.75,2.2-8.68,3.11a3.43,3.43,0,0,1-.75.17"/><path d="M416.56,482.45h-.69l0-.24a1.58,1.58,0,0,0,.36-.27l.22-.15a5.21,5.21,0,0,1,.47-.24l.2-.09,1.54-.76c1.23-.58,2.23-1,3.17-1.34a20.26,20.26,0,0,1,5.69-1.3h.35a.35.35,0,0,1,.25.06.29.29,0,0,1,0,.38.69.69,0,0,1-.26.17c-.87.35-1.78.69-2.7,1a2.42,2.42,0,0,1-.35.11,4.34,4.34,0,0,0-.87.33l-.28.18a3.35,3.35,0,0,1-.52.3,39.22,39.22,0,0,1-5.37,1.64l-.49.12a4.81,4.81,0,0,1-.76.12"/><path d="M416.32,488a1.09,1.09,0,0,1,.14-.31,2.62,2.62,0,0,1,.78-.74,16.69,16.69,0,0,1,4.75-2.28,21.38,21.38,0,0,1,5.71-1.3l.32,0a1.68,1.68,0,0,1,1,.2l.07.05,0,.09a.93.93,0,0,1-.56.49,39.62,39.62,0,0,1-4.29,1.51c-.7.21-1.39.42-2.06.65l-2.94,1-.57.19a11.13,11.13,0,0,1-2.19.61l-.19,0Z"/><path d="M417.75,494.22c-.35,0-.59-.11-.66-.36a.44.44,0,0,1,0-.3c.09-.25.38-.41.49-.49a29.32,29.32,0,0,1,4.72-2.09c.67-.21,1.36-.39,2-.53a16.37,16.37,0,0,1,2.49-.41,8.08,8.08,0,0,1,1.22,0,.34.34,0,0,1,.19.08.32.32,0,0,1,0,.41.52.52,0,0,1-.27.18,25.88,25.88,0,0,1-2.84,1c-.71.21-1.43.44-2.12.7q-.74.27-1.44.57a14.39,14.39,0,0,1-3.75,1.2Z"/><path d="M420,500.47a3.13,3.13,0,0,1-.61,0,.27.27,0,0,1-.19-.12.23.23,0,0,1,0-.23l.05-.08a6.37,6.37,0,0,1,2.39-1.87,19.44,19.44,0,0,1,7.29-2.2l.5,0a.65.65,0,0,1,.47.17.29.29,0,0,1,.07.24c0,.17-.23.25-.31.31l-7,3a14.81,14.81,0,0,1-1.51.6,4.77,4.77,0,0,1-1.18.27"/><polygon class="cls-9" points="354.48 435.06 364.42 526.39 410.03 521.85 409.5 516.5 407.25 493.96 384.95 496 384.52 487.46 400.8 486.21 398.64 466.66 383.21 468.01 382.19 459.9 403.65 457.77 400.93 430.43 355.94 434.92 354.48 435.06"/><path class="cls-11" d="M344.89,504c-1.54-2.1-4.22-.75-5.9,1.24-1.36,1.61-7.41,3.16-10,3.08-6.18-.17-13.19-14.82-13.31-23.11s3.27-12,6.85-12.61,13.26-.4,13.26-.4,4.36-2.57,4.44-4.58c.29,0-2.82-20.78-3.11-20.74-1.36.19-.43-2.69-1.51-3.53-3-2.32-9.83-6.08-20.41-2.75-14.6,4.59-25.06,14-23.79,38.46s17.81,54.68,27.29,59,26.69-1.23,31.21-3.56,5.6-5,6.94-6.84c1.07-1.41.08-3.95-1-5.38Z"/><path class="cls-9" d="M352,496.27c-1.54-2.1-4.22-.76-5.89,1.23-1.36,1.61-7.42,3.16-10,3.09-6.17-.18-13.19-14.83-13.3-23.12s3.27-12,6.84-12.61,13.27-.4,13.27-.4.64-18.4,1.32-25.31a4,4,0,0,0-1.5-3.54c-3-2.32-9.84-6.07-20.42-2.74-14.6,4.59-25.06,14-23.78,38.45s17.8,54.68,27.28,59,26.69-1.23,31.21-3.57,5.6-5,6.95-6.83c1.06-1.42.07-4-1-5.39Z"/><path d="M360,492.2h-.48V492a2,2,0,0,0,.56-.41,1.55,1.55,0,0,1,.24-.2,13.16,13.16,0,0,1,1.92-1.07l1.47-.64a29.12,29.12,0,0,1,5.74-1.81c.15,0,.59,0,.62.27s-.57.76-.92.92l-.1.06c-.5.25-1,.5-1.6.75-.95.4-2,.79-3.22,1.22l-.56.2a13.38,13.38,0,0,1-3.67.93"/><path d="M361.73,496.41a2.62,2.62,0,0,1-.49,0l0-.21a2.22,2.22,0,0,0,.23-.19l.09-.1.67-.43.44-.28a10.19,10.19,0,0,1,2.27-1.06l.46-.17a54.28,54.28,0,0,1,6-1.92l.15,0h.13a.32.32,0,0,1,.2.21.5.5,0,0,1,0,.4.89.89,0,0,1-.39.4,16.12,16.12,0,0,1-2.64,1.22,1.92,1.92,0,0,0-.69.25,1.2,1.2,0,0,1-.32.13l-1.08.44c-.21.07-.42.17-.62.25a8.84,8.84,0,0,1-1.43.53,14,14,0,0,1-1.74.39,11.58,11.58,0,0,1-1.31.16"/><path d="M363.36,502.06a.9.9,0,0,1-.55-.12l-.33-.21h.37a4.63,4.63,0,0,1,.42-.38c.2-.18.4-.34.45-.38l.48-.33.41-.28a11.35,11.35,0,0,1,2.18-1.08l.33-.13a45.83,45.83,0,0,1,5.22-1.69l.28,0a.51.51,0,0,1,.54.28l0,.08-.06.06a6.41,6.41,0,0,1-1.69,1.13c-2.43,1.1-4.93,2.09-7.43,3a2.68,2.68,0,0,1-.65.15"/><path d="M364.29,507.13h-.59v-.23c.05,0,.23-.17.31-.25a1.3,1.3,0,0,1,.19-.15,4,4,0,0,1,.4-.22l.17-.1,1.32-.72a27.9,27.9,0,0,1,2.71-1.27,15.76,15.76,0,0,1,4.88-1.22h.3a.25.25,0,0,1,.23.42.42.42,0,0,1-.22.16c-.74.34-1.52.66-2.31.94a2.09,2.09,0,0,1-.3.11,3.22,3.22,0,0,0-.74.31,2.2,2.2,0,0,0-.25.17,2.79,2.79,0,0,1-.44.29,30.29,30.29,0,0,1-4.6,1.54l-.42.12a2.84,2.84,0,0,1-.65.1"/><path d="M364.12,512.53a1,1,0,0,1,.12-.3,2.25,2.25,0,0,1,.66-.71,13.74,13.74,0,0,1,4.07-2.17,16.64,16.64,0,0,1,4.89-1.21l.27,0a1.26,1.26,0,0,1,.86.2l.07.05,0,.09a.83.83,0,0,1-.48.46,30.3,30.3,0,0,1-3.67,1.43c-.6.2-1.19.4-1.76.61l-2.53,1-.49.19a9.39,9.39,0,0,1-1.87.57l-.16,0Z"/><path d="M365.39,518.5a.51.51,0,0,1-.58-.35.57.57,0,0,1,0-.29,1,1,0,0,1,.42-.47,23.67,23.67,0,0,1,4-2,18.09,18.09,0,0,1,1.74-.5,14.11,14.11,0,0,1,2.14-.38,5.88,5.88,0,0,1,1,0,.29.29,0,0,1,.17.08.33.33,0,0,1,0,.39.45.45,0,0,1-.22.18,22.22,22.22,0,0,1-2.44.94c-.6.19-1.22.4-1.82.65-.41.17-.82.36-1.23.55a11.08,11.08,0,0,1-3.21,1.13Z"/><path d="M367.34,524.54a2.32,2.32,0,0,1-.53,0,.29.29,0,0,1-.16-.11.25.25,0,0,1,0-.23l0-.08a5.59,5.59,0,0,1,2-1.78,15.1,15.1,0,0,1,6.25-2.08l.42,0a.58.58,0,0,1,.42.17.3.3,0,0,1,.06.23c0,.17-.2.24-.27.29l-6,2.83a12.33,12.33,0,0,1-1.29.57,3.83,3.83,0,0,1-1,.25"/><path class="cls-12" d="M516.74,513.28c.16.05.55.16.59.19l-.09.11a1.62,1.62,0,0,0-.3,0h-.15c-.29,0-.6,0-.9,0h-.59a21.81,21.81,0,0,1-2.95-.29l-.6-.08c-2.53-.35-5.12-.78-7.68-1.28l-.18,0a.52.52,0,0,1-.15-.07.41.41,0,0,1-.2-.19.19.19,0,0,1,.1-.23,1.11,1.11,0,0,1,.56-.07c1.12,0,2.3.19,3.44.33a5,5,0,0,0,.88.14l.41,0,1.39.18.82.1c.6.07,1.21.14,1.83.26s1.52.3,2.17.46,1.25.32,1.6.43"/><path class="cls-12" d="M516.36,509.5a2.17,2.17,0,0,1,.63.29l.36.25-.46-.15-.58.06-.62,0h-1.2a22.21,22.21,0,0,1-2.86-.24l-.42-.06c-2.22-.27-4.5-.69-6.64-1.09l-.34-.08c-.42-.12-.55-.27-.59-.37l0-.06h.08a11,11,0,0,1,2.29,0c3.15.32,6.36.74,9.56,1.23a6.92,6.92,0,0,1,.81.17"/><path class="cls-12" d="M517,506.79l.7.24-.06.12a2.38,2.38,0,0,0-.43,0h-.26a4.71,4.71,0,0,1-.53,0h-.23l-1.74-.11c-1.37-.1-2.5-.2-3.53-.34a38.77,38.77,0,0,1-6.13-1.23l-.37-.11a.61.61,0,0,1-.23-.11c-.11-.1-.06-.2.05-.22a.76.76,0,0,1,.3,0c1,.1,2,.22,3,.37l.38.06a8.57,8.57,0,0,0,1,.11h.34a4,4,0,0,1,.59,0c1.9.19,3.91.56,5.86.92l.53.1a8.15,8.15,0,0,1,.82.2"/><path class="cls-12" d="M519.39,496.13l.7.24-.06.12a2.38,2.38,0,0,0-.43,0h-.26a4.71,4.71,0,0,1-.53,0h-.22l-1.75-.11c-1.37-.1-2.49-.2-3.53-.34a38.77,38.77,0,0,1-6.13-1.23l-.37-.11a.64.64,0,0,1-.23-.12.11.11,0,0,1,.05-.21.76.76,0,0,1,.3,0c1,.1,2,.22,3,.37l.39.06a8.31,8.31,0,0,0,1,.11h.33c.19,0,.38,0,.59,0,1.9.18,3.92.56,5.86.92l.53.1a7.54,7.54,0,0,1,.82.2"/><path class="cls-12" d="M521.83,503.5a1.3,1.3,0,0,1-.21.12,3.38,3.38,0,0,1-1,.15,58.53,58.53,0,0,1-7.36-.72,43.25,43.25,0,0,1-6.16-1.24l-.32-.1a2.91,2.91,0,0,1-1-.46l-.07-.05.05,0a1.11,1.11,0,0,1,.68-.08c1.53.14,3.16.39,4.73.64l2.24.33,3.24.46.63.09c.78.1,3.59.56,4.39.77l.19,0Z"/><path class="cls-12" d="M518.33,499.36c.36.11.57.26.61.42a.2.2,0,0,1-.07.17,1.11,1.11,0,0,1-.61.1,46.63,46.63,0,0,1-5.29-.45c-.73-.11-1.47-.24-2.19-.4-.89-.18-1.79-.37-2.66-.63a13.05,13.05,0,0,1-1.25-.43.73.73,0,0,1-.18-.11c-.1-.1-.05-.2.06-.24a.82.82,0,0,1,.31,0c1,.1,2.1.27,3.13.43.76.12,1.56.24,2.33.34l1.6.17a27.21,27.21,0,0,1,4.11.61Z"/><path d="M569.12,453.59a.87.87,0,0,0-.22.05,21.23,21.23,0,0,0-4,2.21l-.62.41.17.28a.88.88,0,0,1,.11.51l0,0c.14-.06.29-.13.44-.18a5.46,5.46,0,0,0,1-.58,13.89,13.89,0,0,0,3.25-2.4c0-.07.1-.14.08-.21s-.09-.1-.17-.11"/><path d="M579.38,476.51a.57.57,0,0,0-.22,0,29.12,29.12,0,0,0-4.81,2.55l-.63.41c.06.09.12.18.17.27a.94.94,0,0,1,.12.52l0,0c.14-.06.29-.13.44-.18a5.46,5.46,0,0,0,1-.58,20.05,20.05,0,0,0,4-2.75c0-.06.1-.13.08-.2s-.09-.1-.17-.1"/><path d="M581.59,479.19a.85.85,0,0,0-.22,0,32,32,0,0,0-5.09,2.58c-.22.13-.42.28-.63.41.05.1.12.19.17.28a.92.92,0,0,1,.12.52,0,0,0,0,1,0,0l.44-.19a6.61,6.61,0,0,0,1-.57c1-.6,3.56-1.9,4.29-2.78a.26.26,0,0,0,.08-.21.17.17,0,0,0-.17-.1"/><path d="M568.2,446.84a.59.59,0,0,0-.23,0,36,36,0,0,0-4,2.06.48.48,0,0,1,.31.2l.3.46a.25.25,0,0,1,0,.09,18.28,18.28,0,0,0,3.67-2.54c.05-.06.11-.14.09-.21a.18.18,0,0,0-.17-.1"/><path d="M567.69,444a.93.93,0,0,0-.23,0,25.61,25.61,0,0,0-3.6,1.72.47.47,0,0,1,.32.2l.3.45a.36.36,0,0,1,0,.09,14.57,14.57,0,0,0,3.25-2.19c.05-.06.11-.13.09-.2a.17.17,0,0,0-.17-.11"/><path d="M568.86,450.08a.38.38,0,0,0-.18,0,10.66,10.66,0,0,0-1.19.44c-.27.13-1.27.92-1.53,1.06-.58.33-1.2.59-1.8.88l-.25.13a2.09,2.09,0,0,1,.14.17c.13.23.28.46.42.69.4-.22.79-.49,1.17-.72s1.65-1.15,2-1.5.81-.64,1.22-.95c0,0,.1-.09.1-.14a.1.1,0,0,0-.11-.09"/><path d="M569.67,457.56a1.32,1.32,0,0,0-.75.2,18.68,18.68,0,0,0-2,1.13c-.6.37-1.77,1-2.31,1.46.17.2.34.58.5.79.77-.47,2.09-1.4,2.85-1.87.26-.17.51-.34.78-.49s-.16.1,0,0a9.42,9.42,0,0,0,1-.91c.07-.06.15-.15.1-.22s-.11-.06-.18-.05"/><path d="M570.56,460.6a12.8,12.8,0,0,0-4.41,2.41l-.73.24c.07.31.22.64.26,1a21.59,21.59,0,0,0,2.06-1c.4-.25.79-.53,1.17-.81l1.14-.84c.56-.41,0-.2.6-.61.16-.12.33-.26.32-.43a1,1,0,0,0-.41.06"/><path d="M572.44,463.71c-.08-.08-.21,0-.32,0a13.14,13.14,0,0,0-3.47,1.6c-.47.28-.94.58-1.36.88-.25.17-.48.33-.69.5,0,.31.07.62.11.94.4-.27.8-.54,1.23-.78.87-.47,1.74-.92,2.62-1.35s.74-.88,1.64-1.33a.63.63,0,0,0,.23-.17.21.21,0,0,0,0-.25s0,0,0,0"/><path d="M574.46,466.69a1.1,1.1,0,0,0-.74.12,15.64,15.64,0,0,0-2.09.93c-1.13.62-2.22,1.32-3.3,2,0,.29.09.58.14.88l.39-.22c.53-.29,1-.64,1.56-.92.19-.09.38-.12.57-.2a2.4,2.4,0,0,0,.64-.5,5.27,5.27,0,0,1,.62-.43l2.19-1.48s.12-.1.1-.16l-.08-.05"/><path d="M576,469.71a6.31,6.31,0,0,0-2.06.82c-.73.39-3.16,1.84-3.88,2.25a1.79,1.79,0,0,1,.05,1.05l1.94-1.18c1.41-.9,2.68-1.8,4.08-2.7.07,0,.15-.1.14-.17s-.16-.09-.27-.07"/><path d="M572,477c6.57-3.55,6.18-3.94,6.2-3.93-.24-.16-.6,0-.89.1-1.07.47-4.4,2.24-5.49,2.82a1.89,1.89,0,0,1,.18,1"/></g></g></svg>