<svg xmlns="http://www.w3.org/2000/svg" viewBox="0 0 185.19 112.36"><defs><style>.cls-1{fill:#dd8635;}.cls-2{fill:#fff;}.cls-3{fill:none;}</style></defs><title>intro-logo</title><g id="Слой_2" data-name="Слой 2"><g id="NON-BRANDED_LOGOS" data-name="NON-BRANDED LOGOS"><polygon points="151.57 37.38 129.56 110.56 55.01 110.31 31.75 30.16 26.68 33.09 26.13 26.3 70.9 1.79 157.99 33.21 157.08 39.3 151.57 37.38"/><path d="M129.56,112.36,55,112.11a1.79,1.79,0,0,1-1.72-1.29h0l-22.61-78-3.09,1.79a1.78,1.78,0,0,1-1.73,0h0a1.78,1.78,0,0,1-1-1.44h0l-.55-6.8a1.8,1.8,0,0,1,.93-1.71h0L70,.22A1.76,1.76,0,0,1,71.51.11h0L158.6,31.52a1.79,1.79,0,0,1,1.17,2h0l-.91,6.08a1.78,1.78,0,0,1-.85,1.27h0a1.77,1.77,0,0,1-1.52.16h0l-3.74-1.3-21.47,71.39a1.79,1.79,0,0,1-1.72,1.28ZM32.42,28.49a1.8,1.8,0,0,1,1.06,1.16h0l22.88,78.87,71.87.24,21.62-71.9a1.82,1.82,0,0,1,.9-1.08h0a1.82,1.82,0,0,1,1.41-.1h0l3.47,1.21L156,34.4,71.05,3.76,28,27.32l.22,2.79,2.61-1.51a1.81,1.81,0,0,1,.9-.24h0a1.7,1.7,0,0,1,.67.13ZM151,39.08l.59-1.7-.59,1.7Z"/><polygon class="cls-1" points="151.57 37.38 129.56 110.56 55.01 110.31 31.75 30.16 26.68 33.09 26.13 26.3 70.9 1.79 157.99 33.21 157.08 39.3 151.57 37.38"/><path d="M142,54.58c-.4-.07-.68-.09-.86-.14s-.67-.26-1.27-.43a3.78,3.78,0,0,0-1-.11h-.42s-.26-.07-.75-.16a14.87,14.87,0,0,0-2.11-.16h-.76a35.6,35.6,0,0,1-3.88-.3h-.07c-.05-1.9-.08-3.79-.12-5.69,0-1.36-.07-2.7-.07-4,0-.87,0-1.73.08-2.56,0-.1,0-.2,0-.31a2.76,2.76,0,0,0-.1-.78,1.85,1.85,0,0,0-.66-1,1.45,1.45,0,0,0-.86-.28,2.5,2.5,0,0,0-.41,0,9.39,9.39,0,0,1-1.72.13l-1,0h-.16a4.36,4.36,0,0,0-.85.08,4.67,4.67,0,0,1-.6.06h0c-.15,0-.75-.05-1.33-.05A5.21,5.21,0,0,0,122,39a2.28,2.28,0,0,0-.63.24,1.64,1.64,0,0,0-.65.68,2.51,2.51,0,0,0-.24-.84,1.81,1.81,0,0,0-.85-.86,1.77,1.77,0,0,0-.75-.15,3.24,3.24,0,0,0-1,.22l-.29.11-.08,0h0c-.62.16-1.24.3-1.86.43-1.22.26-2.45.48-3.69.68a2.09,2.09,0,0,0-1.12.49,2,2,0,0,0-.59.88,2.3,2.3,0,0,0-.14.9,3.16,3.16,0,0,0,.06.6c0,.06,0,.11,0,.13h0L110.3,44c.09.94.17,1.89.26,2.83q.25,2.88.53,5.76c.06.61.12,1.11.17,1.63-1.52.42-3.63.94-5.07,1.28-.06-.67-.13-1.36-.18-2-.3-3.34-.65-6.67-1-10,0-.24,0-.42,0-.55a.92.92,0,0,1,0-.18c0-.07,0-.27,0-.64a2.47,2.47,0,0,0-.25-1.08,1.81,1.81,0,0,0-.85-.86,1.77,1.77,0,0,0-.75-.15,3.17,3.17,0,0,0-1,.22l-.29.11-.08,0h0c-.61.16-1.23.3-1.86.43-1.21.26-2.44.48-3.68.68A2.17,2.17,0,0,0,95.2,42a2.07,2.07,0,0,0-.6.89,2.3,2.3,0,0,0-.14.9,3.16,3.16,0,0,0,.06.6c0,.06,0,.11,0,.13h0L94.67,46c.09.94.17,1.89.26,2.83l.42,4.59c-.26-1.74-.51-3.39-.72-4.88s-.4-3.07-.61-4.56c-.1-.74-.2-1.43-.29-2s-.16-1-.25-1.35A2.5,2.5,0,0,0,92.38,39a2.18,2.18,0,0,0-1.28-.27,5.29,5.29,0,0,0-.93.18l-.28.08h0l-7.59.53A3.33,3.33,0,0,0,80.7,40a2.64,2.64,0,0,0-1,1.11,2.07,2.07,0,0,0-.28.53,1.52,1.52,0,0,0-.12.52l-.09,1.17s0,.1,0,.15c-.3,3.74-.6,7.52-.88,11-2.1-4.09-4.68-8.82-5-9.44a2.86,2.86,0,0,0-1-1.09,2.46,2.46,0,0,0-1.3-.27,8.8,8.8,0,0,0-2.07.57,1.14,1.14,0,0,0-.41.24l-.3.09c-.3-.16-.54-.26-.69-.34-.85-.44-1.71-.85-2.54-1.27l-2-1-1.08-.56c-.77-.4-1.56-.84-2.43-1.22a1.86,1.86,0,0,0-.81-.19,1.77,1.77,0,0,0-1.43.8,5.43,5.43,0,0,0-.69,1.72c-.16.55-.31,1.12-.52,1.67a10.06,10.06,0,0,0-.31,1c-.6,2-1.86,6.65-3,10.94-.6-3.33-1.08-6-1.26-6.86-.47-2.33-.82-4-.89-4.39s-.16-.83-.23-1.22A12.4,12.4,0,0,0,50,42.08h0a4.49,4.49,0,0,0-.34-1.1,1.92,1.92,0,0,0-.69-.75,1.59,1.59,0,0,0-.79-.21,2.36,2.36,0,0,0-1,.28l-.29.15-.09,0h0c-.61.21-1.22.42-1.83.61-.83.27-1.46.65-2,.82-1.28.43-2.7.71-4.16,1.25a2,2,0,0,0-.9.59l-1.47-5.69a5.16,5.16,0,0,1-.18-.91c0-.09,0-.28,0-.58a2.53,2.53,0,0,0-.44-1.15,1.6,1.6,0,0,0-1.29-.69,2.43,2.43,0,0,0-1.23.4L50.49,94.73h0a1.93,1.93,0,0,0,.82-.24A2.81,2.81,0,0,0,52.53,93c.54-1.54,2.22-5.71,3-7.82.15-.42.27-.75.35-1,.81-2.22,3-8.35,3.73-10.19l.69-1.68v0L63,64.89c.43,1.91.83,3.73,1.22,5.57.13.62.26,1.23.4,1.85.67,3.06,1.51,6.65,1.9,9.62a4.85,4.85,0,0,0,.29,1.22,2.57,2.57,0,0,0,.87,1.14l0,0a2.66,2.66,0,0,0,1.77.42,13,13,0,0,0,1.36-.22c.94-.11,1.85-.26,2.74-.38h.07l.49,0a4,4,0,0,0,1.18-.23,2.2,2.2,0,0,0,.77-.46,2.34,2.34,0,0,0,.66-1.13v0a3.46,3.46,0,0,0,.09-1,5.56,5.56,0,0,0-.13-.9c-.07-.34-.34-1.93-.66-4.12-.12-.79-.24-1.67-.37-2.62.92,1.19,2.11,2.63,3.24,4.06s2.07,2.67,2.69,3.66a1.4,1.4,0,0,0,.21.26,3,3,0,0,0,2.36,1,2.55,2.55,0,0,0,1.32-.49,2.66,2.66,0,0,0,.75-1,26,26,0,0,0,1.15-3.82l0-.11c.25-1.35.54-3,.84-4.58.06.49.11,1,.17,1.46.27,2.33.49,4.35.55,4.9v.51l0,.26c0,.29.09.58.12.84v0a4.57,4.57,0,0,0,.21,1l0,.12a3,3,0,0,0,.87,1.22l.06,0a2.65,2.65,0,0,0,1.77.42,13.54,13.54,0,0,0,1.36-.22c.94-.11,1.85-.26,2.74-.38h.07l.49,0A4,4,0,0,0,98,82.5a2.19,2.19,0,0,0,.46-.23l0,.18s0,.08,0,.15h0a.35.35,0,0,0-.16.14.09.09,0,0,0,0,.07c0,.06.1.09.21.08h0l0,.18a2.73,2.73,0,0,0,.31.77,1.74,1.74,0,0,0,.84.72l.21.07h0a1.71,1.71,0,0,0,.38,0,2.51,2.51,0,0,0,.5-.07c2.2-.53,4-1,6.14-1.58h0a1.73,1.73,0,0,0,.87-.54,2.89,2.89,0,0,0,.64-2l0-.44c-.09-.73-1-10.72-1.07-11.51,0-.17,0-.36-.05-.55l2.59-.61,2.6-.56c.3,2.46.46,4.71.77,7.37.23,2,.44,4.13.81,6.24,0,.07,0,.29.08.62a2.62,2.62,0,0,0,.31.77,1.74,1.74,0,0,0,.84.72,1,1,0,0,0,.23.07,1.5,1.5,0,0,0,.4,0,2.51,2.51,0,0,0,.5-.07c2.06-.5,3.91-1,6-1.5h.06l0,.41.09,1.4,1.19,0,5.55-.18,2.64-.1.88,0,.51,0c.43-.06.84-.12,1.23-.14l3-.18.5,0,7.61-25.3s0,0,0,0A6.87,6.87,0,0,0,142,54.58ZM47,76.67c-.14.46-.33,1-.54,1.72v-.11a6,6,0,0,0-.24-1.59c-.76-3-1.49-5.86-2-7.73-.32-1.26-.52-2.06-.52-2.07q-.93-3.68-1.84-7.35c-.2-.77-.4-1.56-.61-2.36l1,2.75c.46,1.37.86,2.75,1.26,4.12.13.48.28,1,.42,1.47s2.47,8.88,3.11,11.08C47.05,76.62,47.05,76.65,47,76.67Zm89.71-8.54a4.44,4.44,0,0,1-.25,1.44c-.17.4-.26.46-.49.58a3.18,3.18,0,0,1-1.08.2,9.12,9.12,0,0,1-.92,0H132.6c-.57,0-.59-.17-.68-.26a.49.49,0,0,1-.06-.13V65.16h.85c.77,0,1.5,0,2.2,0a2.59,2.59,0,0,1,1.43.32.94.94,0,0,1,.24.45,5.44,5.44,0,0,1,.18,1.61v.17c0,.12,0,.25,0,.37l1.25.08Z"/><path d="M154.09,37.75a1.91,1.91,0,0,0-1.28-.4h-.1a5.83,5.83,0,0,0-.89.12l2.78,1A1.91,1.91,0,0,0,154.09,37.75Z"/><path d="M149.51,37.73l-3.71.39a1.58,1.58,0,0,0-.58.16l0,0h0a1.85,1.85,0,0,0-.87,1.06,2.76,2.76,0,0,0-.14,1,5.43,5.43,0,0,0,.06.55A149.08,149.08,0,0,1,146,55.75l5.49-18.23-1.89.2Z"/><path d="M75.88,21.83A3.17,3.17,0,0,0,73.65,24a6.51,6.51,0,0,0-.06,3.92,6.48,6.48,0,0,0,2,3.38A3.16,3.16,0,0,0,80.84,30a6.43,6.43,0,0,0,0-3.92,6.47,6.47,0,0,0-2-3.39A3.19,3.19,0,0,0,75.88,21.83Zm3.05,6.59a1.43,1.43,0,0,1-2.48.68,3.34,3.34,0,0,1-.92-1.66,3.28,3.28,0,0,1,0-1.89A1.41,1.41,0,0,1,78,24.88,3.42,3.42,0,0,1,79,26.54,3.33,3.33,0,0,1,78.93,28.42Zm10-1.9c-.34-1.05-.6-1.84-.75-2.38s-.4-1.4-.69-2.52-.52-2-.68-2.52a.18.18,0,0,0-.25-.11,5.3,5.3,0,0,1-.76.12,2.5,2.5,0,0,1-.43,0,1.6,1.6,0,0,0-.43,0s-.08.11-.12.3L84,23.68c-.07.38-.19.94-.35,1.68,0,.17-.09.26-.15.28s-.12-.17-.23-.55-.36-1.29-.62-2.33-.47-1.82-.62-2.33c0-.18-.12-.27-.19-.25l-.94.2c-.43.08-.74.15-1,.2s-.07.1,0,.25c.16.56.42,1.39.78,2.5s.62,1.94.79,2.5l1.41,4.82c0,.13.11.18.21.16a2.36,2.36,0,0,1,.38-.08c.16,0,.29-.06.37-.09a2.9,2.9,0,0,0,.4-.13l.39-.13c.06,0,.11-.11.15-.29q.17-.81.75-3.57c.11-.52.27-1.28.5-2.28a.21.21,0,0,1,0-.11.27.27,0,0,1,.09.15c.16.57.4,1.42.71,2.56s.55,2,.71,2.55c0,.17.12.24.22.22l1.78-.45c.1,0,.13-.12.08-.27Q89.44,28.11,88.91,26.52Zm-18-6.84a.37.37,0,0,0-.37-.1c-.49.16-1.75.55-2.09.62s-.31.27-.31.5c0,0-.32,3.29-.63,5.51l-.25,1.61c-1.44-2.09-3.4-4.78-3.65-5.21l-.22-.37c-.06-.38-.14-.36-.42-.27h-.06l-.1,0a17.87,17.87,0,0,1-1.89.47c-.34.05-.5.07-.52.54a.43.43,0,0,0,.18.41.7.7,0,0,1,.29.43c.48,1.78,2.1,7.81,2.66,10a8.59,8.59,0,0,1,.29,1.87.66.66,0,0,0,.23.39.17.17,0,0,0,.16,0l.61-.14h0l1.32-.42c.39-.14.45-.35.15-1.13-.12-.3-.37-1.31-.64-2.44l-.51-2.18,1.5,2.24h0c.54.78,1.08,1.54,1.5,2.08l.72.11a.51.51,0,0,0,.49-.25l.09-.15a1.06,1.06,0,0,0,.15-.66,9.91,9.91,0,0,1,0-2q0-.49.15-1.08c.09-.47.18-1.09.28-1.79l.43,2c.3,1.35.62,2.64.84,3.26a.3.3,0,0,0,.36.2l2-.6a.56.56,0,0,0,.36-.45l0-.17a1.2,1.2,0,0,0-.09-.7,11.27,11.27,0,0,1-.92-3c-.41-2.22-1.83-7.8-1.93-8.46L71.07,20a.54.54,0,0,0-.15-.3ZM80.7,19a2.91,2.91,0,0,0,4.51-1.16,4.06,4.06,0,0,0,.3-2.09c0-.15-.09-.22-.35-.17a9.09,9.09,0,0,0-1.28.37.27.27,0,0,0-.13.26,2.23,2.23,0,0,1-.12.51,1.32,1.32,0,0,1-2.12.58,2,2,0,0,1-.37-.4.25.25,0,0,0-.33-.15c-.14.06-1.18.28-1.33.35s-.07.25-.07.25A4.07,4.07,0,0,0,80.7,19Z"/><path d="M101.08,95a9.32,9.32,0,0,0-.63-3.27c-.08-.18-.15-.35-.23-.52a6.12,6.12,0,0,0-1.09-1.69,6.73,6.73,0,0,0-1.92-1.57,9.12,9.12,0,0,0-7.35-.3,7.49,7.49,0,0,0-1.6.66,15.14,15.14,0,0,0-1.71,1.27,9.63,9.63,0,0,0-2.79,4.86,11.48,11.48,0,0,0,.21,5.79,7.3,7.3,0,0,0,.61,1.57c1.11,2.07,3.4,3.25,5.67,3.86a3.74,3.74,0,0,0,.74.15,4.1,4.1,0,0,0,.7,0,10.85,10.85,0,0,0,8-4.9c.13-.2.25-.41.36-.62s.23-.45.33-.68.23-.56.33-.85a10.26,10.26,0,0,0,.41-3.74M92.6,96.67a2.19,2.19,0,0,1-1.21-1.3,3,3,0,0,1-.17-.93,3.69,3.69,0,0,1,.07-.88,1.79,1.79,0,0,1,.2-.59,2.12,2.12,0,0,1,.68-.62,2,2,0,0,1,1.26-.41,2.33,2.33,0,0,1,1.74.67,2.79,2.79,0,0,1,.74,1.83,2.43,2.43,0,0,1-3.31,2.23"/><path d="M118.91,103.61l-.86.15.67-.13.19,0c-.08-.45-1.08-8.1-1.57-12.43,0-.53-.12-1.23-.18-1.84a12.92,12.92,0,0,0-.19-1.4,1.26,1.26,0,0,0-.64-.81,1.55,1.55,0,0,0-.72-.17,3.29,3.29,0,0,0-.51,0L115,87h0l-4.09,0a2.38,2.38,0,0,0-.87.12,1.51,1.51,0,0,0-.62.46,1.12,1.12,0,0,0-.19.24l-.09.14,0,.16c0,.15-.06.31-.08.46l0,.2v0c-.23,1.29-.48,2.6-.7,3.81-1-1.64-2-3.4-2.21-3.66a1.55,1.55,0,0,0-1.31-.7,5.89,5.89,0,0,0-1.15.16l-.93.18v0l-.33,0-1,.15-1.35.2a3.23,3.23,0,0,0-.64.13,1.36,1.36,0,0,0-.89,1,1.63,1.63,0,0,0,0,.31,2.88,2.88,0,0,0,.07.61c.15.92.32,1.82.54,2.73.08.36.17.73.25,1.08.34,1.56.62,2.87.89,4.2.05.26.1.51.16.76.26,1.26.59,2.73.7,3.9a2.05,2.05,0,0,0,.14.6,1.32,1.32,0,0,0,.51.58,1.85,1.85,0,0,0,1,.26c.35,0,.66,0,.74,0l1.47-.06h.3a3.27,3.27,0,0,0,.65,0,1.45,1.45,0,0,0,.46-.17,1.17,1.17,0,0,0,.48-.54,1.34,1.34,0,0,0,.1-.51,2.69,2.69,0,0,0,0-.43c0-.16-.15-1-.28-2.17l1.3,1.41a20.23,20.23,0,0,1,1.31,1.55l.06.08.08.07a2,2,0,0,0,1.29.52,1.81,1.81,0,0,0,.76-.16,1.33,1.33,0,0,0,.5-.45,9.13,9.13,0,0,0,.77-1.54v-.07l.36-1.1c.06.83.11,1.54.12,1.77,0,0,0,.12,0,.2v.16c0,.12,0,.23,0,.33a1.71,1.71,0,0,0,.1.48v0l0,0a1.42,1.42,0,0,0,.5.62h0a1.84,1.84,0,0,0,1,.24,7.1,7.1,0,0,0,.74,0c.5,0,1,0,1.47-.06h.3a3.27,3.27,0,0,0,.65,0,1.5,1.5,0,0,0,.46-.18,1.2,1.2,0,0,0,.48-.53,1.38,1.38,0,0,0,.1-.51A2.4,2.4,0,0,0,118.91,103.61Z"/><path d="M85.37,107.46l-.71-3.83,0-.12,0-.14c-.14-.69-.28-1.44-.43-2.23l-.09-.47a1.85,1.85,0,0,1,0-.23,1.18,1.18,0,0,1,0-.2l-.17-.86-.82.14c-.45-2.44-.9-4.91-1.17-6.7-.06-.43-.12-.81-.16-1.15v0h0c-.09-.67-.22-1.55-.33-2.22l0-.33a3.08,3.08,0,0,0-1-2.15,2.36,2.36,0,0,0-1.65-.51c-.18,0-.35,0-.49.06-.68.13-7.61,1.42-9,1.64a3.51,3.51,0,0,0-1.65.58,1.47,1.47,0,0,0-.48.69A1.64,1.64,0,0,0,67,90c0,.07,0,.14,0,.21l.1.84h.09c0,.1,0,.18,0,.24l.11.7h.07c.18.7.38,1.36.52,2,.25,1.09.45,2.19.65,3.3,0,.16,0,.32.08.48v0a.32.32,0,0,1,0,.08,5.48,5.48,0,0,1,.1.83,2.18,2.18,0,0,1-.52,1.84,1.72,1.72,0,0,1-1,.39l-.12,0h-.06a1.67,1.67,0,0,0-1,.52,1.5,1.5,0,0,0-.34,1.1c0,.1,0,.2,0,.31V103c.1.37.19.73.29,1.09h0v.06c.07.25.13.5.2.75l.06.24,0,.14.08.3h0a30.14,30.14,0,0,1,.75,3.26,1.69,1.69,0,0,0,.17.59A1.3,1.3,0,0,0,68,110a1.91,1.91,0,0,0,1,.2c.33,0,.62-.07.69-.07l1.47-.14,0-.07V110h.35a2.88,2.88,0,0,0,.63-.1,1.26,1.26,0,0,0,.85-.74,1.4,1.4,0,0,0,.07-.54,2,2,0,0,0-.06-.4c0-.06-.24-1.07-.54-2.51l6.63-.59h.05c.07.42.13.8.19,1.13v0h0c.22,1.09.35,1.74.35,1.75a2.63,2.63,0,0,0,.21.54,1.72,1.72,0,0,0,.93.83l.14.06h.39c.32,0,.61-.07.69-.08l1.47-.13v0h.34a2.79,2.79,0,0,0,.64-.09,1.22,1.22,0,0,0,.92-1.28A1.62,1.62,0,0,0,85.37,107.46Zm-11.05-9A20.14,20.14,0,0,0,74.05,96c-.14-.79-.29-1.58-.44-2.37l.22,0,2-.32.38-.06v0c.13.68.32,1.69.52,2.86.25,1.43.49,2.85.69,4.09l-3.12.24c0-.59,0-1.18,0-1.78A.61.61,0,0,0,74.32,98.48Zm10.18,9.19h0l.63-.16.21-.05Z"/><path d="M120.38,100.84l-.86.16.67-.13.19,0c-.08-.46-1.08-8.11-1.57-12.43,0-.53-.12-1.23-.18-1.84a13.18,13.18,0,0,0-.19-1.41,1.32,1.32,0,0,0-.64-.81,1.52,1.52,0,0,0-.72-.16,2.39,2.39,0,0,0-.51,0l-.15,0h0l-4.09,0a2.39,2.39,0,0,0-.87.13,1.41,1.41,0,0,0-.62.45,1.5,1.5,0,0,0-.19.25l-.09.14,0,.16c0,.15,0,.3-.08.46l0,.2v0c-.24,1.29-.49,2.59-.71,3.8-1-1.63-2-3.4-2.21-3.65a1.56,1.56,0,0,0-1.31-.71,5.89,5.89,0,0,0-1.15.16l-.93.19h0l-.33,0-1,.15-1.35.21a3.23,3.23,0,0,0-.64.13,1.36,1.36,0,0,0-.89,1,1.53,1.53,0,0,0,0,.3,3,3,0,0,0,.07.62c.15.91.32,1.81.54,2.73.08.36.17.72.25,1.08.34,1.55.62,2.86.89,4.2.05.25.1.5.16.76a38.7,38.7,0,0,1,.7,3.9,1.94,1.94,0,0,0,.14.59,1.3,1.3,0,0,0,.51.59,1.94,1.94,0,0,0,1,.25c.35,0,.66,0,.74,0,.5,0,1,0,1.47-.06h.3a2.24,2.24,0,0,0,.65-.05,1.45,1.45,0,0,0,.46-.17,1.2,1.2,0,0,0,.48-.53,1.39,1.39,0,0,0,.1-.52,2.66,2.66,0,0,0,0-.42c0-.16-.15-1-.28-2.17.4.44.86.92,1.3,1.41a17,17,0,0,1,1.31,1.55l.06.08.08.06a2,2,0,0,0,1.29.52,1.55,1.55,0,0,0,.76-.16,1.32,1.32,0,0,0,.5-.44,9.69,9.69,0,0,0,.77-1.55v-.06l.36-1.1c.06.83.11,1.53.12,1.77,0,0,0,.12,0,.19v.16c0,.12,0,.24,0,.34a1.86,1.86,0,0,0,.1.48v0l0,0a1.4,1.4,0,0,0,.5.61l0,0h0a1.86,1.86,0,0,0,1,.25c.35,0,.65,0,.74,0,.5,0,1,0,1.47-.06h.29a2.7,2.7,0,0,0,.66,0,1.65,1.65,0,0,0,.46-.17,1.24,1.24,0,0,0,.47-.53,1.31,1.31,0,0,0,.11-.52A2.4,2.4,0,0,0,120.38,100.84Z"/><path class="cls-2" d="M119.49,101c0-.29-1.07-8.07-1.57-12.49-.11-1.1-.26-2.78-.35-3.12-.13-.5-.89-.24-1.16-.24l-4.09-.05c-.48,0-.69.09-.81.3a.2.2,0,0,0-.09.09l-.09.48h0c-.42,2.28-.86,4.61-1.2,6.44-.75-1.52-3.17-5.45-3.38-5.78s-.67-.33-1.53-.16v.05l-.73.12-.57.09-1,.15c-.45.07-.89.13-1.33.21s-.72,0-.8.43a1.74,1.74,0,0,0,0,.6c.15.9.32,1.78.53,2.67.09.36.17.73.25,1.09.35,1.56.63,2.87.9,4.22,0,.25.1.5.16.75a39.17,39.17,0,0,1,.72,4,1,1,0,0,0,.06.3.48.48,0,0,0,.17.2,2.46,2.46,0,0,0,1.23.07l1.46-.06c.25,0,1,.09,1.09-.21a.75.75,0,0,0,0-.42c-.08-.36-.36-2.53-.55-5.06l.7.84.49.58c.45.53,1.21,1.33,1.93,2.11.53.59,1,1.17,1.37,1.63a1,1,0,0,0,1.08.22,4.48,4.48,0,0,0,.82-1.52c.6-1.82,1.56-4.88,1.72-4.6s.51,5.58.51,5.58,0,.09,0,.21,0,.25,0,.36a1.18,1.18,0,0,0,.06.27.61.61,0,0,0,.18.24c.32.2.91.08,1.23.07l1.45-.06c.25,0,1,.08,1.1-.21a.67.67,0,0,0,0-.42"/><path d="M101.25,90.06c-.06,0-.1,0-.12,0a.15.15,0,0,1,.08-.18,1.72,1.72,0,0,1,.44-.19,8.76,8.76,0,0,1,1.3-.36H103a.21.21,0,0,1,.12,0s0,.07,0,.1a3.13,3.13,0,0,1-.45.22l-.18.09-.15.08a4.32,4.32,0,0,1-.89.24l-.12,0h0"/><path d="M101.06,89.08h-.16v0l0,0h0a.87.87,0,0,1,.18-.11,3.46,3.46,0,0,0,.5-.2,9.82,9.82,0,0,1,1.27-.4l.1,0a.15.15,0,0,1,.09,0l0,0s0,.06-.05.08a10.47,10.47,0,0,1-1.2.5h0a2.75,2.75,0,0,1-.8.19"/><path d="M101.26,91.13h-.11v0l.11-.07,0,0,0,0a1.73,1.73,0,0,1,.3-.16l.33-.15.54-.23a3.85,3.85,0,0,1,1-.22h0s.06,0,.07,0a0,0,0,0,1,0,0s0,0,0,0c-.35.19-.71.34-1.09.5l-.53.21a1.34,1.34,0,0,1-.27.07h-.09l-.31,0"/><path d="M101.49,92a1.61,1.61,0,0,1-.22,0v0a.44.44,0,0,0,.13-.09l.06,0a3.29,3.29,0,0,1,.42-.21l1-.36.4-.11h.1a.1.1,0,0,1,.07.09s0,.07-.09.09a8.67,8.67,0,0,1-1.13.47l-.58.17a.58.58,0,0,1-.19,0"/><path d="M101.41,92.9h-.12v-.05a.41.41,0,0,0,.14-.08l0,0a3.15,3.15,0,0,1,.46-.22l.34-.14a7.41,7.41,0,0,1,1.35-.39s.14,0,.15.06-.14.16-.22.19h0l-.38.16c-.22.09-.46.17-.76.26l-.13,0a3.7,3.7,0,0,1-.86.2"/><path d="M101.6,94h-.11v0l0,0,0,0,.16-.09.1-.06a2.83,2.83,0,0,1,.54-.23l.11,0a13.6,13.6,0,0,1,1.42-.41H104a.07.07,0,0,1,0,0,.11.11,0,0,1,0,.08.23.23,0,0,1-.09.08,3.8,3.8,0,0,1-.63.26l-.16,0a.11.11,0,0,1-.07,0l-.26.1-.15,0a1.83,1.83,0,0,1-.33.11l-.41.09-.31,0"/><path d="M101.82,95.19a.27.27,0,0,1-.13,0l-.07,0h.08l.1-.08.11-.08.11-.07.1-.06a4,4,0,0,1,.51-.23l.08,0a12.23,12.23,0,0,1,1.23-.37H104c.07,0,.11,0,.12.06v0h0a1.63,1.63,0,0,1-.4.24c-.58.23-1.16.44-1.75.63a.76.76,0,0,1-.16,0"/><path d="M102,96.25h-.13v0l.07,0,0,0,.09-.05,0,0,.31-.15c.25-.12.45-.2.64-.27a3.9,3.9,0,0,1,1.15-.26h.07a.06.06,0,0,1,.05,0s0,.05,0,.07a.1.1,0,0,1-.05,0l-.54.2-.07,0a.56.56,0,0,0-.18.07l-.06,0a.33.33,0,0,1-.1.06,6.74,6.74,0,0,1-1.08.33l-.1,0-.16,0"/><path d="M102,97.38a.14.14,0,0,1,0-.06.46.46,0,0,1,.16-.15,3.18,3.18,0,0,1,1-.46,4,4,0,0,1,1.15-.26h.07a.36.36,0,0,1,.2,0h0v0a.2.2,0,0,1-.12.1,7.93,7.93,0,0,1-.86.3l-.42.13-.59.21-.12,0a2.2,2.2,0,0,1-.44.12h0Z"/><path d="M102.27,98.63a.13.13,0,0,1-.13-.08v-.06s.08-.08.1-.1a6.23,6.23,0,0,1,1-.42,3.48,3.48,0,0,1,.41-.1,3,3,0,0,1,.51-.09h.24a0,0,0,0,1,0,0s0,.06,0,.08a.09.09,0,0,1-.06,0,3,3,0,0,1-.57.2c-.14,0-.29.09-.43.15l-.29.11a2.81,2.81,0,0,1-.76.24Z"/><path d="M102.72,99.89h-.12l0,0a0,0,0,0,1,0,0v0a1.25,1.25,0,0,1,.48-.37,4,4,0,0,1,1.47-.45h.1a.17.17,0,0,1,.1,0,0,0,0,0,1,0,0s0,0-.06.06l-1.41.6a1.88,1.88,0,0,1-.3.12l-.24.06"/><path d="M101.91,92.53a9.69,9.69,0,0,0-1.14-3.91,7.4,7.4,0,0,0-2.58-2.74,3.77,3.77,0,0,0-1.79-.62,4.73,4.73,0,0,1-.79-.14,6.16,6.16,0,0,0-1.1-.18h-.2a11.56,11.56,0,0,0-1.51.12l-.77.09a8.65,8.65,0,0,0-4.7,2.49,9.28,9.28,0,0,0-2.65,4.54,10.75,10.75,0,0,0-.27,2.27,11.5,11.5,0,0,0,.47,3.41,7.44,7.44,0,0,0,.62,1.58c1.3,2.39,3.83,3.41,5.65,3.91a5.51,5.51,0,0,0,.81.16h.24l.53,0a10.63,10.63,0,0,0,7.85-4.83c.13-.21.25-.42.36-.62s.22-.44.32-.67.24-.58.33-.84a7.71,7.71,0,0,0,.38-2.44C102,93.58,102,93.06,101.91,92.53Zm-6-2.1a2.68,2.68,0,0,1,.74,1.79v0A2.21,2.21,0,0,1,96,93.84a2.42,2.42,0,0,1-1.69.69,2.59,2.59,0,0,1-.81-.16,2.06,2.06,0,0,1-1.09-1.21,3,3,0,0,1-.17-1,1.09,1.09,0,0,1,0-.18,5.45,5.45,0,0,1,.08-.77,1.53,1.53,0,0,1,.16-.5,2,2,0,0,1,.64-.54,1.75,1.75,0,0,1,1.16-.4h0A2.14,2.14,0,0,1,96,90.43Z"/><path class="cls-2" d="M92.21,102.61H92a3.36,3.36,0,0,1-.66-.13c-1.72-.46-4-1.44-5.09-3.46a7.41,7.41,0,0,1-.55-1.41,10.44,10.44,0,0,1-.19-5.22,8.45,8.45,0,0,1,2.4-4.1A7.81,7.81,0,0,1,92.1,86c.28,0,.55-.06.82-.1a9.17,9.17,0,0,1,1.38-.11h.17a5.83,5.83,0,0,1,.93.16,5.1,5.1,0,0,0,.95.16,2.85,2.85,0,0,1,1.37.49A6.59,6.59,0,0,1,100,89.05a10.45,10.45,0,0,1,.75,7.2c-.08.23-.17.47-.3.76s-.19.41-.29.61-.21.37-.33.56a9.71,9.71,0,0,1-7.16,4.41l-.45,0m2.1-13.69a2.68,2.68,0,0,0-1.67.55,2.84,2.84,0,0,0-.91.82,2.7,2.7,0,0,0-.27.8,5.74,5.74,0,0,0-.09,1.15,3.78,3.78,0,0,0,.23,1.23,2.92,2.92,0,0,0,1.61,1.74,3.21,3.21,0,0,0,3.45-.73,3.12,3.12,0,0,0,.94-2.24,3.52,3.52,0,0,0-1-2.41,3,3,0,0,0-2.31-.91"/><path d="M84.86,91.74h-.11v0h0v0a.33.33,0,0,0,.11-.08l0,0,0,0a3.07,3.07,0,0,1,.31-.17l.33-.14.54-.23a3.37,3.37,0,0,1,1-.22h0a.08.08,0,0,1,.07,0s0,0,0,0,0,0,0,0a10.66,10.66,0,0,1-1.09.49l-.53.22a.94.94,0,0,1-.27.06l-.09,0-.31,0"/><path d="M85.09,92.57a1.61,1.61,0,0,1-.22,0v0a.61.61,0,0,0,.13-.09l.06,0a1.65,1.65,0,0,1,.42-.21c.34-.13.68-.25,1-.36a2.11,2.11,0,0,1,.4-.11h0a.07.07,0,0,1,.06,0,.09.09,0,0,1,.07.09.16.16,0,0,1-.09.09,8.62,8.62,0,0,1-1.13.46,5.76,5.76,0,0,1-.59.18.48.48,0,0,1-.18,0"/><path d="M85,93.51h-.12v-.05s.1-.06.14-.09l0,0a3.28,3.28,0,0,1,.46-.23l.34-.13a7.41,7.41,0,0,1,1.35-.39s.14,0,.15.06-.14.15-.22.19h0l-.38.16c-.22.09-.46.17-.76.26l-.13,0a3.73,3.73,0,0,1-.86.21"/><path d="M85.2,94.62h-.12l0,0,.05,0,0,0,.16-.09a.53.53,0,0,1,.1-.06,2.58,2.58,0,0,1,.54-.23l.11,0c.46-.16.94-.29,1.42-.41h.06a.07.07,0,0,1,0,0,.14.14,0,0,1,0,.09.23.23,0,0,1-.09.08,3.8,3.8,0,0,1-.63.26.49.49,0,0,0-.16,0,.13.13,0,0,1-.08,0l-.25.1-.15,0-.33.11-.41.09-.31,0"/><path d="M85.42,95.8a.28.28,0,0,1-.13,0l-.07,0h.08l.1-.08.11-.08.11-.07.1-.06a2.94,2.94,0,0,1,.51-.23l.08,0a12.12,12.12,0,0,1,1.23-.36h.07c.07,0,.11,0,.12.06v0h0a1.47,1.47,0,0,1-.4.24c-.57.23-1.16.44-1.75.63a.57.57,0,0,1-.15,0"/><path d="M85.63,96.86h-.14v0l.07,0,0,0,.1,0,0,0,.31-.15c.25-.12.45-.21.64-.28A4.17,4.17,0,0,1,87.85,96H88a.06.06,0,0,1,0,.08.05.05,0,0,1,0,0,5,5,0,0,1-.54.2l-.07,0a.55.55,0,0,0-.18.06l-.06,0-.1.06a7.66,7.66,0,0,1-1.09.33l-.09,0a.45.45,0,0,1-.16,0"/><path d="M85.58,98l0-.07a.77.77,0,0,1,.16-.15,3.44,3.44,0,0,1,1-.45,4.42,4.42,0,0,1,1.15-.27h.06a.38.38,0,0,1,.21,0h0v0a.2.2,0,0,1-.12.1,8.75,8.75,0,0,1-.86.3l-.42.13-.59.2-.12,0a3.19,3.19,0,0,1-.44.13h0Z"/><path d="M85.87,99.23c-.07,0-.12,0-.13-.07a.06.06,0,0,1,0-.06s.08-.08.1-.1a6.23,6.23,0,0,1,1-.42l.41-.11a4.5,4.5,0,0,1,.51-.08H88a.08.08,0,0,1,0,.09.05.05,0,0,1,0,0,4.3,4.3,0,0,1-.57.2l-.43.14-.29.12a2.81,2.81,0,0,1-.76.24Z"/><path d="M86.32,100.5H86.2s0,0,0,0,0,0,0,0v0a1.3,1.3,0,0,1,.48-.38,4,4,0,0,1,1.47-.44h.1a.13.13,0,0,1,.1,0,.07.07,0,0,1,0,0s0,0-.06.06l-1.41.6c-.1,0-.2.09-.3.12l-.24.06"/><path class="cls-3" d="M77.6,90.31h0l-.15-.9-1.29.19-2,.33L73,90.11c0,.28.1.55.16.82l.45,2.45a19.46,19.46,0,0,1,.26,2.42,17.78,17.78,0,0,1,0,2.73s0,.08,0,.12l5.16-.4c-.24-1.44-.55-3.24-.86-5.06C77.91,92,77.73,91,77.6,90.31Z"/><path d="M85.84,104.73c0-.17-.34-1.78-.71-3.83v-.12l0-.14c-.13-.69-.28-1.44-.43-2.23l-.09-.47c0-.08,0-.15,0-.23s0-.13,0-.2l-.17-.86-.81.14c-.46-2.44-.91-4.91-1.18-6.7-.06-.43-.11-.81-.16-1.15v0h0c-.1-.67-.23-1.54-.34-2.22l0-.33a3.11,3.11,0,0,0-1-2.15,2.4,2.4,0,0,0-1.66-.51,3.2,3.2,0,0,0-.49.07c-.67.12-7.61,1.41-9,1.63A3.51,3.51,0,0,0,68,86a1.52,1.52,0,0,0-.48.7,1.74,1.74,0,0,0-.07.65c0,.07,0,.14,0,.21l.1.84h.09a.79.79,0,0,1,0,.24l.11.69h.07c.19.7.39,1.36.53,2,.24,1.09.45,2.19.64,3.3,0,.16.06.32.08.48v0a.33.33,0,0,0,0,.08c0,.31.08.59.1.83a2.17,2.17,0,0,1-.53,1.84,1.82,1.82,0,0,1-1,.4h-.18a1.68,1.68,0,0,0-1,.52,1.47,1.47,0,0,0-.35,1.1c0,.1,0,.2,0,.31v.09c.09.36.19.72.28,1.08h0v.06c.07.25.14.5.2.75l.06.24a1,1,0,0,0,0,.14l.07.3h0a30.54,30.54,0,0,1,.74,3.26,2,2,0,0,0,.17.59,1.36,1.36,0,0,0,.54.55,1.82,1.82,0,0,0,1,.2c.33,0,.62-.07.69-.07l1.48-.14v0H72a3,3,0,0,0,.64-.1,1.26,1.26,0,0,0,.84-.74,1.44,1.44,0,0,0,.08-.54,1.84,1.84,0,0,0-.07-.4c0-.06-.23-1.07-.53-2.51l6.63-.59h0c.07.42.14.8.19,1.13v0h0c.21,1.09.35,1.75.35,1.75a1.91,1.91,0,0,0,.2.54,1.72,1.72,0,0,0,.93.83l.14.06h.39c.33,0,.61-.07.69-.08.51,0,1-.09,1.47-.13l0-.07v.07h0l.34,0a2.79,2.79,0,0,0,.64-.09,1.22,1.22,0,0,0,.84-.74,1.26,1.26,0,0,0,.08-.54A2.67,2.67,0,0,0,85.84,104.73Zm-11-9a24.71,24.71,0,0,0-.27-2.53l-.45-2.37.22,0,2-.33.39-.06v0c.13.68.31,1.69.51,2.86.25,1.43.49,2.85.7,4.09l-3.13.24a17.42,17.42,0,0,0,0-1.77ZM85,104.94h0l.63-.16.21,0Z"/><path class="cls-2" d="M85,104.94c0-.13-.34-1.83-.75-4h0a.29.29,0,0,0,0-.09c-.13-.69-.28-1.44-.43-2.23l-.09-.47c0-.08,0-.15,0-.23a1.18,1.18,0,0,1,0-.2c-.25,0-.53.09-.82.13-.52-2.71-1-5.56-1.34-7.59-.07-.43-.12-.82-.17-1.17v0c-.12-.8-.28-1.91-.4-2.58h0c-.22-2-1.39-1.94-2.07-1.81s-7.6,1.41-9.06,1.64-1.49.58-1.43,1.15h0c0,.34.18.71.23,1h0c.21.88.49,1.75.68,2.64.25,1.1.46,2.22.66,3.34,0,.16,0,.33.08.49s0,.07,0,.1c.63,3.48-1.36,4-2.17,4.12h-.14c-.55.09-.67.34-.59.9l.3,1.11v0c.07.26.14.51.2.76l.06.23a.83.83,0,0,0,0,.15h0a35.11,35.11,0,0,1,.85,3.66,1,1,0,0,0,.08.3.42.42,0,0,0,.18.19,2.44,2.44,0,0,0,1.23,0c.48,0,1-.09,1.45-.13.25,0,1,0,1.09-.28a.72.72,0,0,0,0-.41c0-.12-.34-1.57-.75-3.53l8.46-.74h0c.13.76.24,1.42.33,2,.21,1.09.35,1.74.35,1.74a1,1,0,0,0,.57.72,6.49,6.49,0,0,0,.84-.08l1.45-.14c.25,0,1,0,1.08-.27A.64.64,0,0,0,85,104.94ZM73.82,98.65s0-.08,0-.12a17.78,17.78,0,0,0,0-2.73,19.46,19.46,0,0,0-.26-2.42l-.45-2.45c-.06-.27-.11-.54-.16-.82l1.13-.18,2-.33,1.29-.19.15.9h0c.13.69.31,1.7.52,2.88.31,1.82.62,3.62.86,5.06Z"/><path d="M119.86,104.14h-.19v.52h-.11v-.52h-.19v-.09h.49Zm.44.36.17-.45h.17v.61h-.11v-.5h0l-.18.5h-.08l-.19-.5h0v.5H120v-.61h.17Z"/><path d="M176.47,90.23h0c-.53,0-1-.12-1.5-.19s-.85-.13-1.24-.17l-.37,0h-.16a1.68,1.68,0,0,1-1.12-.56,2.59,2.59,0,0,1-.6-1.85v-.11c.47-4.6,1.1-10.82,1.19-11.68.2-2.13.37-4.25.52-6.32,0-.14.05-.83.13-1.93l-.83,1.76c-.24.5-.47,1-.71,1.52-.13.28-.84,2-1.94,4.64-.45,1.11-1,2.36-1.53,3.71-.7,1.71-1.47,3.57-2.25,5.46a5.27,5.27,0,0,1-.22.49,3,3,0,0,1-.85,1,1.88,1.88,0,0,1-1.22.36,1.58,1.58,0,0,1-.42-.09c-1.22-.26-3.33-.73-5.19-1.15l-1.12-.25a1.85,1.85,0,0,1-1-.65,3.17,3.17,0,0,1-.63-2.25c0-.11,0-.23,0-.36.54-4.68,1.18-10.25,1.27-11.07.23-2.11.43-4.24.6-6.33,0-.07.13-1.31.34-3.37.51-5.11,1.57-15.76,2.36-23.84v0a2.27,2.27,0,0,1,1.05-1.75,1.71,1.71,0,0,1,1-.23h0l.21,0,.06,0,.6.17.69.19,4.19,1.2.06,0a1.53,1.53,0,0,1,.57.29l0,0a1.92,1.92,0,0,1,.57.86,2.29,2.29,0,0,1,.11.87,3,3,0,0,1-.17.79c-.07.51-.12.93-.15,1.32-.29,3.06-.61,6.33-1,9.62-.07.57-.16,1.13-.24,1.7.5-1.29,1-2.69,1.54-4l1.36-3.49.55-1.39c.74-1.85,1.43-3.6,1.93-5.32a3.62,3.62,0,0,1,.22-.61c-.55,0-1.09-.13-1.63-.23-.29,0-.58-.12-.88-.19A11.42,11.42,0,0,1,166.54,35a5.89,5.89,0,0,1-2.32-3.31,7.88,7.88,0,0,1-.13-2v-.14c0-.17,0-.33,0-.47,0-.52,0-1.07,0-1.79a3.89,3.89,0,0,0,0-.58v-.51c0-.17,0-.38,0-.64a1.71,1.71,0,0,1,.46-1.15,1.21,1.21,0,0,1,1-.41l6,.51a1.46,1.46,0,0,1,1.2,1.05,1.94,1.94,0,0,1-.17,1.55l0,.29c0,.19,0,.36,0,.51a2.44,2.44,0,0,0,0,.26v.1h0a3.06,3.06,0,0,0,.89.23l.24,0,.2,0h0a3,3,0,0,0,.93,0q0-.07,0-.18c.06-.33.09-.7.13-1.12V27c0-.22,0-.22,0-.35v-.19a1.8,1.8,0,0,1,.39-1.1,1.27,1.27,0,0,1,1.1-.49l5.61.48a1.33,1.33,0,0,1,1,.67,1.94,1.94,0,0,1,.23,1.36,12.74,12.74,0,0,0-.32,2v.09a8.47,8.47,0,0,1-.25,1.63,2.71,2.71,0,0,1-.12.39,3.25,3.25,0,0,1-.2,1c-.14.32-.24.53-.3.64l0,0v0c0,.08-.05.21-.11.43a4.75,4.75,0,0,1-1.94,2.5,8.82,8.82,0,0,1-1.31.7l-.5.18.35.06c.85.16,1.65.35,2.39.53l.41.07.62.11a9.78,9.78,0,0,1,1.44.36,1.7,1.7,0,0,1,.83.45,1.94,1.94,0,0,1,.34.36,2,2,0,0,1,.4,1.23v.19a3.59,3.59,0,0,1-.16.83h0l-.18,1.35c-.15,1.12-.3,2.18-.38,3.22-.25,3.07-.53,6.34-.91,9.6-.16,1.42-.37,2.83-.58,4.19-.26,1.75-.51,3.41-.67,5.06-.07.78-.13,1.55-.18,2.29-.32,5-.95,10.08-1.57,15-.16,1.26-.31,2.53-.47,3.79,0,.27-.06.54-.1.81l-.06.5s0,.08,0,.15,0,.34-.06.55a3.92,3.92,0,0,1-.38,1.34,2.3,2.3,0,0,1-.88,1,2.2,2.2,0,0,1-1,.28h-.05a7.74,7.74,0,0,1-1.06,0Z"/><path d="M184.92,40.19v0a1.75,1.75,0,0,0-.33-1,1.79,1.79,0,0,0-.3-.31,1.48,1.48,0,0,0-.73-.4,8.51,8.51,0,0,0-1.43-.35c-.48-.09-.95-.16-1-.19-.78-.18-1.56-.37-2.38-.52s-1.38-.26-2-.43l.24,0a6.93,6.93,0,0,0,1.86-.42,8.82,8.82,0,0,0,1.28-.68,4.49,4.49,0,0,0,1.81-2.32c.09-.32.11-.47.12-.46s.14-.23.32-.69a2.92,2.92,0,0,0,.19-.95c0-.07.07-.19.12-.4a8.51,8.51,0,0,0,.24-1.55v-.1a14.44,14.44,0,0,1,.33-2.05,1.59,1.59,0,0,0-.18-1.09,1.13,1.13,0,0,0-.82-.54l-5.61-.47a1,1,0,0,0-.88.39,1.4,1.4,0,0,0-.31.89c0,.4,0,.23-.05.67s-.08.85-.14,1.2-.06.33-.07.38h0a2.77,2.77,0,0,1-1.2.08l-.2,0-.26,0a3.82,3.82,0,0,1-1-.25,1.36,1.36,0,0,1-.2-.12s0-.14,0-.3,0-.18,0-.28,0-.55.08-.91a1.51,1.51,0,0,0,.18-1.3,1.16,1.16,0,0,0-1-.84l-6-.51a1,1,0,0,0-.82.32,1.49,1.49,0,0,0-.37.93c0,.25,0,.47,0,.64v.22a1.83,1.83,0,0,0,0,.24c0,.25,0,.45,0,.62,0,.71,0,1.26,0,1.78,0,.15,0,.31,0,.48a8.12,8.12,0,0,0,.12,2.07,5.58,5.58,0,0,0,2.2,3.12,11.14,11.14,0,0,0,4.08,1.87c.28.07.57.13.86.18a15.89,15.89,0,0,0,1.8.25l.32,0a2.12,2.12,0,0,0-.2.28,3.24,3.24,0,0,0-.29.72c-.62,2.19-1.58,4.44-2.49,6.75-.8,2.05-2.69,7-3.83,9.84.23-1.41.46-2.83.65-4.27.41-3.22.72-6.42,1-9.6,0-.46.1-.92.16-1.39a2.26,2.26,0,0,0,.16-.71,2,2,0,0,0-.09-.73,1.61,1.61,0,0,0-.47-.71l0,0a1.51,1.51,0,0,0-.54-.27l-4.2-1.2-1.28-.36,0,0a1.55,1.55,0,0,0-.18,0,1.52,1.52,0,0,0-.91.2,2,2,0,0,0-.87,1.49v0c-1.09,11.19-2.67,27-2.69,27.21q-.27,3.18-.61,6.34c-.09.82-.73,6.43-1.26,11.09h0c0,.11,0,.22,0,.33a2.85,2.85,0,0,0,.55,2,1.74,1.74,0,0,0,.85.56c2.15.48,4.86,1.09,6.32,1.4a1.76,1.76,0,0,0,.37.08,1.57,1.57,0,0,0,1.06-.31,2.69,2.69,0,0,0,.76-.91,3.51,3.51,0,0,0,.21-.47c1.4-3.37,2.74-6.64,3.79-9.17s1.8-4.34,1.94-4.65c.24-.51.47-1,.71-1.52l1.45-3.09c-.14,2-.22,3.26-.24,3.44-.14,2.11-.32,4.22-.52,6.33-.08.85-.7,6.91-1.18,11.67v.11a2.24,2.24,0,0,0,.51,1.59,1.41,1.41,0,0,0,.95.48h.15l.35,0c.85.07,1.76.28,2.77.37.33,0,.68,0,1,0a1.91,1.91,0,0,0,1-.25,1.94,1.94,0,0,0,.76-.83,3.83,3.83,0,0,0,.35-1.22c0-.33,0-.61.07-.7.05-.43.1-.87.16-1.31.75-6.21,1.64-12.46,2-18.74.05-.77.11-1.54.19-2.31.29-3,.88-6.09,1.25-9.25s.64-6.42.9-9.59c.12-1.47.36-3,.57-4.58v0a3,3,0,0,0,.15-.77C184.91,40.28,184.92,40.23,184.92,40.19Z"/><path class="cls-2" d="M183.81,40.18c0-.11-.08-.2-.21-.29a.36.36,0,0,0-.24-.14h0a17.53,17.53,0,0,0-2.45-.55c-.77-.18-1.54-.36-2.32-.51a16.25,16.25,0,0,1-3.31-.86.66.66,0,0,0-.48-.06c-.25.09-.37.4-.45.66-.66,2.31-1.64,4.6-2.53,6.88s-3.4,8.76-4.36,11.17c-.14.36-1.16,2.87-2.63,6.53,0-.41.08-.82.11-1.23.06-.79.13-1.57.22-2.36.34-3.1,1-6.2,1.37-9.29s.72-6.37,1-9.55c.05-.54.12-1.09.19-1.64.12-.25.2-.54,0-.68a.7.7,0,0,0-.2-.08c-1.39-.41-2.79-.8-4.19-1.2l-1.28-.36s-.57-.13-.65.56c-1.1,11.17-2.68,27-2.7,27.19-.17,2.12-.38,4.24-.61,6.37-.09.83-.73,6.46-1.27,11.13-.16,1.22.49,1.38.49,1.38,2.17.48,4.93,1.11,6.37,1.41.72.3,1.12-.87,1.12-.87,2.8-6.78,5.41-13.14,5.77-13.91.23-.51.47-1,.71-1.53.7-1.49,1.46-3.1,2.44-5.21.36-.79.76-1.55,1.14-2.28.11-.23.23-.45.34-.66-.34,5-.61,8.91-.63,9.26q-.22,3.18-.53,6.36c-.08.86-.69,6.92-1.18,11.68,0,.78.5.7.5.7,1.4.06,2.71.47,4.12.42a1,1,0,0,0,.5-.11c.52-.3.51-1.28.57-1.76s.11-.87.16-1.3c.76-6.23,1.64-12.45,2-18.66.05-.78.11-1.57.19-2.36.3-3.09.89-6.19,1.25-9.28s.64-6.37.9-9.54c.12-1.54.37-3.1.57-4.65a1.11,1.11,0,0,0,0-.19A1.75,1.75,0,0,0,183.81,40.18Zm-18.29-12.9c0,.71,0,1.25,0,1.75,0,.17,0,.34,0,.51a6.45,6.45,0,0,0,.09,1.7c.34,1.59,2.45,3.31,5.42,4l.82.17a16.4,16.4,0,0,0,5,.18,6.55,6.55,0,0,0,1.59-.34,7.86,7.86,0,0,0,1.12-.59,3.18,3.18,0,0,0,1.32-1.64c0-.17.08-.34.13-.5s.25-.49.34-.73a2.53,2.53,0,0,0,.11-.66,3.28,3.28,0,0,1,.15-.51,7.53,7.53,0,0,0,.2-1.32,15.25,15.25,0,0,1,.36-2.33l-5.61-.48h0c0,.45,0,.31-.06.77s-.07.88-.15,1.32c-.15.91-.29,1.76-2.68,1.5l-.29,0c-2.12-.3-2.13-1.22-2.14-1.95,0-.47.07-.94.1-1.41a1.21,1.21,0,0,1,.24-.63l-6.05-.51c0,.5,0,.85,0,.92Q165.52,26.88,165.52,27.28Z"/><path d="M159,78.53a.4.4,0,0,0-.11,0,15.81,15.81,0,0,0-2.52.65c-.1,0-.3-.09-.4-.05a1.21,1.21,0,0,0,.05.14.45.45,0,0,1,0,.23h0c.07,0,.23.14.31.13a2.77,2.77,0,0,0,.49-.15,10.63,10.63,0,0,0,2.19-.82s.06,0,.05-.08,0,0-.06-.06"/><path d="M160.38,68.69a1.75,1.75,0,0,0-.56.06,8.44,8.44,0,0,0-1,.31,11.43,11.43,0,0,0-1.16.42c0,.1.09.28.14.39.39-.13,1.07-.41,1.45-.55l.4-.14c.1,0-.09,0,0,0,.26-.11.5-.22.74-.35,0,0,.08-.06.06-.09s0,0-.07,0"/><path d="M160.31,66.72a1.81,1.81,0,0,0-.56.06c-.43.11-.58.17-1,.31s-.88.28-1.17.42c.06.1.1.28.15.39.39-.13,1.06-.42,1.45-.55l.39-.14c.11,0-.08,0,0,0l.73-.35s.08-.06.07-.09,0,0-.08,0"/><path d="M160.22,64.83a1.33,1.33,0,0,0-.56.06,8.25,8.25,0,0,0-1,.3c-.3.11-.89.29-1.17.42,0,.11.1.29.14.4l1.46-.56.39-.13c.1,0-.08,0,0,0a7,7,0,0,0,.73-.35s.08,0,.07-.08a.09.09,0,0,0-.08,0"/><path d="M160.39,70.48a6.54,6.54,0,0,0-2.35.7l-.35,0a3.24,3.24,0,0,1,0,.44c.25,0,.78-.16,1-.24a5.36,5.36,0,0,0,.6-.24l.59-.26c.29-.13.19-.15.48-.28.08,0,.18-.08.19-.15a.31.31,0,0,0-.19,0"/><path d="M160.36,72.25s-.09,0-.14,0a8.65,8.65,0,0,0-1.94.44c-.24.08-.48.16-.7.25l-.35.16c0,.14,0,.28,0,.42a6.5,6.5,0,0,1,.62-.22c.44-.13.86-.24,1.3-.35s.66-.38,1.1-.49a.26.26,0,0,0,.12,0,.12.12,0,0,0,0-.11h0"/><path d="M160.33,73.68a.56.56,0,0,0-.34,0,11.66,11.66,0,0,0-1.33.3c-.57.17-1.12.37-1.67.58l0,.4.2-.06.79-.26c.09,0,.18,0,.27,0a.92.92,0,0,0,.33-.16l.32-.13,1.43-.54s.06,0,.06-.06l0,0"/><path d="M160.22,75.28a4.55,4.55,0,0,0-1.3.3c-.37.1-2.17.73-2.53.84a.86.86,0,0,1-.08.47l1.56-.56c.71-.27,1.66-.67,2.38-.94,0,0,.07,0,.07-.06s-.06,0-.1,0"/><path d="M155.77,78.41a14.24,14.24,0,0,0,4-1.55.48.48,0,0,0-.41,0c-.52.11-3.07,1-3.61,1.13a1,1,0,0,1,0,.46"/><path d="M151,79.75h0a2.27,2.27,0,0,1-1.71-.66,2.47,2.47,0,0,1-.6-1l-.06-.18v-.29c-.31-6.31-.64-13-1-20.2-.05-1.11-.14-2.22-.24-3.39l0-.44c-.44-5.23-.91-10.36-1.84-15.44a2.48,2.48,0,0,1-.06-.54,2.71,2.71,0,0,1,.13-.95,2,2,0,0,1,.87-1.07h0a1.58,1.58,0,0,1,.58-.16l3.71-.39.12,0,1.94-.2.19,0a5.56,5.56,0,0,1,.95-.14h.1a1.88,1.88,0,0,1,1.28.41,2,2,0,0,1,.64,1.08v0h0v0a9.25,9.25,0,0,1,.16,1.59,4.06,4.06,0,0,0,0,.54q.12,1.14.24,2.25l.28,2.69.19,1.79v0c.1,1,.2,1.94.26,3,0,.34,0,.67,0,1s0,.55,0,.81l0,.59,0,.59c0,.74.05,1.61.08,2.46,0,.12.07.86.1,1.92s0,2,0,2.94c0,.56,0,1.23,0,2,0,.94.08,1.84.13,2.42s.09,1,.09,1.06V64c.06,1.28.13,2.34.23,3.33s.15,2,.18,3c0,.28,0,.56,0,.85s0,.54,0,.76a3.93,3.93,0,0,0,0,.47v.1c0,.13,0,.26,0,.4,0,.3.06.65.07,1s0,.45,0,.65c0,.44-.07.82-.11,1.12a4,4,0,0,0-.07.75l0,.34h0a2.22,2.22,0,0,1-.72,1.53,2.54,2.54,0,0,1-.85.49,4.26,4.26,0,0,1-1.23.24h0a4.74,4.74,0,0,0-.53.06c-.31,0-.7.09-1,.1h0c-.11,0-.42.09-.81.19s-.7.18-1.16.28a2.9,2.9,0,0,1-.56.08Z"/><path d="M157.79,70.33c0-1-.09-2-.19-3s-.18-2.23-.23-3.35v-.09s0-.41-.09-1.07-.1-1.53-.13-2.44c0-.7,0-1.41,0-2,0-1.07,0-2.08,0-2.91,0-1-.09-1.72-.1-1.91,0-.82-.06-1.64-.09-2.47l0-1.18c0-.26,0-.54,0-.81s0-.66,0-1c-.06-1-.16-2-.26-3l-.48-4.47c-.08-.75-.15-1.5-.24-2.24a16.08,16.08,0,0,0-.18-2.12,1.61,1.61,0,0,0-.53-.94A1.76,1.76,0,0,0,154,35c-.52,0-1,.17-1.12.17l-1.94.2-3.82.4h0a1.5,1.5,0,0,0-.51.14l0,0a1.55,1.55,0,0,0-.72.88,2.15,2.15,0,0,0-.11.81,2.31,2.31,0,0,0,.05.49c.93,5.07,1.41,10.25,1.84,15.48.11,1.3.22,2.58.28,3.84q.54,10.75,1,20.2v.19L149,78a2,2,0,0,0,2,1.43h0a3,3,0,0,0,.51-.07c1.15-.26,1.85-.48,2.05-.47.56,0,1.32-.17,1.56-.17a4.21,4.21,0,0,0,1.17-.22,2.34,2.34,0,0,0,.77-.45,1.9,1.9,0,0,0,.61-1.46v0h0l-1,.09h-.06l1.07.25-1.09-.26h0l1.11-.09h0a.13.13,0,0,1,0,0c0-.39.13-1,.19-1.92,0-.21,0-.42,0-.62,0-.54-.07-1-.1-1.41,0,0,0-.08,0-.11,0-.28,0-.7,0-1.25C157.8,70.88,157.79,70.6,157.79,70.33Z"/><path class="cls-2" d="M156.59,76.62a19.48,19.48,0,0,1,.18-2.15,14,14,0,0,0-.1-1.83c0-.48,0-1,0-1.46,0-1.23-.07-2.46-.19-3.68s-.19-2.29-.24-3.43A49.49,49.49,0,0,1,156,58.3a40.38,40.38,0,0,0-.08-4.66c-.05-1.23-.08-2.46-.12-3.7q0-.88-.06-1.77c-.05-1-.15-1.93-.25-2.9l-.48-4.47-.24-2.24a18.27,18.27,0,0,0-.15-2,.38.38,0,0,0-.09-.18c-.34-.28-1.22,0-1.61,0l-1.94.2-3.82.4a.53.53,0,0,0-.18,0c-.22.11-.2.45-.16.7.95,5.16,1.43,10.39,1.87,15.63.1,1.3.22,2.59.28,3.89q.53,10.76,1,20.2s.24.77,1.34.53a19.58,19.58,0,0,1,2.21-.5c.46,0,1.2-.15,1.57-.17s1.5-.18,1.47-.77"/><path d="M149.31,58.92h0a10.58,10.58,0,0,0-1-2.9,13.05,13.05,0,0,0-1.35-1.88,6.9,6.9,0,0,0-3.67-2.25c-.39-.08-.68-.09-.85-.14s-.68-.26-1.27-.43a3.82,3.82,0,0,0-1-.11h-.42s-.27-.08-.75-.16a14.9,14.9,0,0,0-2.12-.16h-.75a35.41,35.41,0,0,1-3.88-.3h-.07c0-1.9-.09-3.8-.12-5.69,0-1.36-.07-2.7-.07-4,0-.88,0-1.73.08-2.57a2.91,2.91,0,0,0,0-.31,2.69,2.69,0,0,0-.1-.77,1.83,1.83,0,0,0-.66-1,1.43,1.43,0,0,0-.87-.29,3.46,3.46,0,0,0-.4.05,9.46,9.46,0,0,1-1.72.13l-1,0h-.16a5.54,5.54,0,0,0-.85.07,3.47,3.47,0,0,1-.6.06h0c-.14,0-.74,0-1.32,0a5.21,5.21,0,0,0-1.1.09,2.38,2.38,0,0,0-.64.23,1.76,1.76,0,0,0-.77,1,4,4,0,0,0-.18,1.22c0,.58.07,1.08.07,1.28s0,.67,0,1.14c0,.84.08,1.64.16,2.45,0,.42.07.85.1,1.27.08,1.07.42,8,.79,15.44s.77,15.34,1,18.52l.09,1.4,1.18,0c1.29,0,3.56-.11,5.56-.18l2.63-.09.89,0,.51,0c.43-.06.83-.12,1.23-.14l3-.19.86,0a13.73,13.73,0,0,0,3.12-.41,8.34,8.34,0,0,0,4.38-3.53,16.31,16.31,0,0,0,2.51-6.69c.07-.46.13-.93.18-1.4.08-.83.11-1.67.12-2.51A25.09,25.09,0,0,0,149.31,58.92Zm-10.06,6.6L138,65.44a4.74,4.74,0,0,1-.25,1.44.89.89,0,0,1-.49.58,3.51,3.51,0,0,1-1.08.2c-.3,0-.6,0-.93,0h-1.4c-.57,0-.59-.18-.68-.27a.38.38,0,0,1-.06-.13V62.46H134c.76,0,1.5,0,2.2.06a2.57,2.57,0,0,1,1.42.32.87.87,0,0,1,.25.45A5.81,5.81,0,0,1,138,64.9v.16c0,.12,0,.25,0,.37Z"/><path class="cls-2" d="M148.12,59.34a9.58,9.58,0,0,0-.85-2.44,11.33,11.33,0,0,0-1.2-1.69,5.63,5.63,0,0,0-3-1.86c-.29-.06-.59-.08-.88-.15s-.87-.32-1.31-.44a4.77,4.77,0,0,0-1.13-.07,7.12,7.12,0,0,1-.9-.17,13.49,13.49,0,0,0-2.29-.15,32.71,32.71,0,0,1-4.42-.3c-.37,0-.73-.09-1.1-.11l-.08.08q-.09-3.55-.15-7.11c0-2.24-.14-4.5,0-6.72,0-.26,0-.56-.17-.69a.49.49,0,0,0-.41,0,14.34,14.34,0,0,1-3,.13c-.69,0-.86.11-1.55.13-.48,0-2.54-.24-2.72.31a6,6,0,0,0,0,1.89c0,.32,0,.69,0,1.16,0,.76.08,1.53.16,2.33,0,.43.07.87.1,1.31.16,2.26,1.36,27.68,1.77,34,2.58-.08,9.07-.29,9.47-.35s.87-.13,1.32-.15l3-.18.88,0a13.28,13.28,0,0,0,2.88-.36c2.66-.76,5.23-4.3,6-9.05.06-.43.12-.87.16-1.31A24.18,24.18,0,0,0,148.12,59.34Zm-8.87,6.18c-.16,3.38-1.72,3.51-3,3.62-.81.06-1.62,0-2.42,0a1.94,1.94,0,0,1-2-1.68V62.61c0-1.5.78-1.62.78-1.62H134c.76,0,1.52,0,2.28.06,1.58.12,3.06.23,3,4C139.26,65.22,139.26,65.38,139.25,65.52Z"/><path d="M122.75,65.77c-.09,0-.16,0-.19,0s0-.19.13-.25a4.59,4.59,0,0,1,.7-.27c.61-.2,1.62-.52,2.45-.7l.12,0a.29.29,0,0,1,.19,0s0,.08-.08.13a5.83,5.83,0,0,1-.72.32,1.36,1.36,0,0,0-.3.13l-.58.25a8.57,8.57,0,0,1-1.45.38l-.19,0h-.08"/><path d="M122.55,64.37h-.26v0l.07,0,0,0,0,0a2.64,2.64,0,0,1,.29-.15c.3-.09.58-.2.81-.29a20.83,20.83,0,0,1,2-.62,1,1,0,0,1,.17,0,.37.37,0,0,1,.15,0,.09.09,0,0,1,.06,0s0,.08-.09.11a19.31,19.31,0,0,1-1.93.72l-.06,0a7.06,7.06,0,0,1-1.3.32"/><path d="M122.89,67.26h-.17v-.06a.47.47,0,0,0,.18-.1l.08,0,.07,0a3.71,3.71,0,0,1,.49-.24l.53-.21.88-.33a6.77,6.77,0,0,1,1.55-.37h.06q.09,0,.12,0a0,0,0,0,1,0,0s-.06.07-.08.08c-.58.26-1.16.48-1.77.71l-.86.32a1.75,1.75,0,0,1-.44.1l-.14,0c-.21,0-.39.06-.5.07"/><path d="M123.26,68.27l-.36,0v-.06l.21-.13.09-.06a4.12,4.12,0,0,1,.69-.3l1.65-.54a5.59,5.59,0,0,1,.65-.17h.17c.06,0,.11.06.1.11s-.07.1-.13.13c-.59.25-1.21.48-1.83.68l-1,.27a1.33,1.33,0,0,1-.3.06"/><path d="M122.76,69.6l-.18,0v-.06a.78.78,0,0,0,.21-.12l.09-.06a5,5,0,0,1,.74-.32l.56-.21a15.59,15.59,0,0,1,2.18-.6s.22,0,.24,0-.23.21-.36.27h0c-.19.08-.39.16-.61.23s-.75.26-1.22.4l-.22.06a7.22,7.22,0,0,1-1.39.33"/><path d="M123,71l-.19,0,0-.06.08,0s0,0,0,0l.26-.13.17-.08a4.94,4.94,0,0,1,.86-.33l.18-.06c.75-.24,1.52-.46,2.3-.64h.1a.11.11,0,0,1,.08,0,.08.08,0,0,1,0,.1.36.36,0,0,1-.15.12c-.32.15-.67.26-1,.38a.92.92,0,0,0-.27.08l-.12,0-.41.14-.24.08a5.6,5.6,0,0,1-.54.17c-.24.06-.46.11-.66.14s-.39.06-.5.07"/><path d="M123.49,72.39a.47.47,0,0,1-.21,0l-.13-.05h.15l.16-.11a.94.94,0,0,1,.17-.1l.18-.1.16-.09a6.83,6.83,0,0,1,.83-.33l.13,0c.65-.22,1.34-.4,2-.56l.11,0c.13,0,.18,0,.2.06v0h0a2.87,2.87,0,0,1-.65.34c-.92.34-1.87.66-2.83.94a1.4,1.4,0,0,1-.24.06"/><path d="M123.59,73.55h-.23V73.5a.52.52,0,0,0,.12-.07l.07-.05.15-.06.07,0,.5-.22c.4-.17.73-.29,1-.4a8.9,8.9,0,0,1,1.86-.43h.19a.06.06,0,0,1,0,.1l-.08,0c-.29.11-.58.21-.88.3l-.12,0a1.57,1.57,0,0,0-.28.1l-.09.05-.17.08a15.23,15.23,0,0,1-1.75.51l-.16,0a1.23,1.23,0,0,1-.25,0"/><path d="M122.54,75.57l0-.08a1.22,1.22,0,0,1,.25-.2,13.87,13.87,0,0,1,2.16-.81,9.47,9.47,0,0,1,1.87-.44h.1a.58.58,0,0,1,.32,0h0v0a.34.34,0,0,1-.19.13c-.44.18-.93.32-1.4.46l-.67.2-1,.31-.19.06c-.22.07-1.07.31-1.31.35h-.06Z"/><path d="M124,76.68c-.11,0-.19,0-.21-.07a.11.11,0,0,1,0-.08.32.32,0,0,1,.16-.13,11.52,11.52,0,0,1,1.54-.62l.66-.17a7.4,7.4,0,0,1,.82-.15,2.6,2.6,0,0,1,.39,0h.07a.08.08,0,0,1,0,.11l-.08.05q-.47.16-.93.3c-.23.06-.47.13-.7.21l-.46.17a6.49,6.49,0,0,1-1.23.38Z"/><path d="M125.42,75.05c-.44-4.09-1.11-10.52-1.16-11.16-.2-2.16-.39-4.32-.59-6.48-.26-2.86-.52-5.73-.77-8.59-.31-3.35-.65-6.67-1-10,0-.23,0-.41,0-.55v-.17a3.75,3.75,0,0,0,0-.64,2.7,2.7,0,0,0-.25-1.09,1.79,1.79,0,0,0-.85-.85,1.65,1.65,0,0,0-.75-.15,2.9,2.9,0,0,0-1,.22l-.29.11-.08,0h0l-1.86.43c-1.21.25-2.44.47-3.68.68a2.1,2.1,0,0,0-1.12.48,2,2,0,0,0-.6.89,2.69,2.69,0,0,0-.14.89,4.3,4.3,0,0,0,.07.61c0,.06,0,.11,0,.13h0c0,.47.09.94.13,1.41.08.95.17,1.9.26,2.84q.25,2.88.53,5.75l.16,1.64c-1.52.42-3.63.94-5.07,1.28-.06-.67-.12-1.37-.17-2-.3-3.35-.65-6.67-1-10,0-.23,0-.41,0-.55V40.1a3.87,3.87,0,0,0,0-.64,2.7,2.7,0,0,0-.25-1.09,1.83,1.83,0,0,0-.85-.85,1.65,1.65,0,0,0-.75-.15,2.9,2.9,0,0,0-1,.22l-.29.11-.08,0h0q-.92.23-1.86.42c-1.21.26-2.44.48-3.68.69a2.1,2.1,0,0,0-1.12.48,2,2,0,0,0-.6.89,2.69,2.69,0,0,0-.14.89,4.3,4.3,0,0,0,.07.61,1.05,1.05,0,0,1,0,.13h0c0,.48.09.95.13,1.42.08,1,.17,1.9.26,2.84q.25,2.88.53,5.75.54,5.82,1.12,11.64c.34,3.34.68,6.68,1.06,10,.23,2,.44,4.12.82,6.24a3.24,3.24,0,0,0,.08.62,2.46,2.46,0,0,0,.31.77,1.74,1.74,0,0,0,.84.72l.21.07h0a1.82,1.82,0,0,0,.38,0,2.44,2.44,0,0,0,.51-.08c2.19-.52,4-1,6.14-1.57h0a1.73,1.73,0,0,0,.87-.54,2.87,2.87,0,0,0,.63-2,3.61,3.61,0,0,0,0-.44c-.08-.73-1-10.72-1.07-11.5,0-.18,0-.36-.05-.55l2.6-.61c.94-.21,1.9-.42,2.6-.56.3,2.46.46,4.71.76,7.37.23,2,.44,4.12.82,6.23a3.24,3.24,0,0,0,.08.62,2.41,2.41,0,0,0,.31.78,1.7,1.7,0,0,0,.84.72,1.06,1.06,0,0,0,.22.07,1.76,1.76,0,0,0,.9,0c2.07-.49,3.92-1,6-1.49h0a2.22,2.22,0,0,0,1.16-.7,2.43,2.43,0,0,0,.5-1,4,4,0,0,0,.11-1C125.46,75.51,125.45,75.28,125.42,75.05Z"/><path class="cls-2" d="M101.44,80.32h-.06c-.29-.12-.25-.6-.3-.89-.36-2-.57-4.08-.8-6.12-.38-3.33-.72-6.67-1.06-10q-.59-5.8-1.12-11.62l-.54-5.75c-.08-.94-.17-1.89-.25-2.83,0-.47-.09-1-.13-1.42s-.21-.77.09-1a1,1,0,0,1,.49-.18c1.25-.21,2.5-.43,3.73-.7.65-.13,1.28-.27,1.92-.43.33-.08,1.22-.59,1.45-.14a1.37,1.37,0,0,1,0,.7,5.89,5.89,0,0,0,0,1.11c.32,3.33.67,6.65,1,10,.08.92.19,2,.27,3l.06.53a.33.33,0,0,0,0,.14c.06.08.16.07.25.06,1.37-.3,5.35-1.26,7.28-1.85.28-.08.19-.53.16-.86-.07-.82-.15-1.47-.22-2.28q-.27-2.86-.53-5.75c-.09-.94-.18-1.89-.26-2.83,0-.47-.09-1-.13-1.42s-.2-.77.09-1a1,1,0,0,1,.49-.18c1.25-.21,2.5-.43,3.74-.69.64-.14,1.28-.28,1.91-.44.33-.08,1.22-.59,1.45-.14a1.37,1.37,0,0,1,0,.7,5.89,5.89,0,0,0,0,1.11c.32,3.33.67,6.65,1,10,.26,2.87.51,5.73.77,8.59.2,2.16.39,4.33.59,6.49.06.69.73,7.1,1.16,11.2.16,1.23-.18,1.41-.66,1.54-2,.53-3.89,1-5.95,1.49a.74.74,0,0,1-.36,0H117c-.29-.12-.25-.6-.3-.89-.36-2-.57-4.08-.8-6.12-.34-2.94-.5-5.43-.89-8.35-.06-.41-.28-.63-.61-.58-1.25.18-5.76,1.24-7,1.55,0,0-.39,0-.28,1,0,.37.06.74.1,1.1.07.81,1,10.74,1.07,11.55.12,1-.39,1.12-.39,1.12-2.16.55-4,1-6.13,1.57a.75.75,0,0,1-.36,0"/><path d="M98.54,69.3c-.09,0-.16,0-.19,0s0-.18.13-.24a4.65,4.65,0,0,1,.7-.28c.61-.2,1.62-.52,2.45-.7l.12,0a.37.37,0,0,1,.19,0s0,.09-.08.13a5.83,5.83,0,0,1-.72.32,2.08,2.08,0,0,0-.3.13l-.58.25a8.57,8.57,0,0,1-1.45.38l-.19,0-.08,0"/><path d="M98.34,67.89h-.26v-.05l.07,0,0,0h0a1.05,1.05,0,0,1,.3-.15l.8-.3c.66-.25,1.37-.44,2-.62l.17,0h.15a.1.1,0,0,1,.06,0s0,.07-.09.1a17,17,0,0,1-1.93.72l-.06,0a6.34,6.34,0,0,1-1.3.32"/><path d="M98.68,70.78l-.17,0h0v0h0v0a.51.51,0,0,0,.18-.11l.08,0,.07,0a3.71,3.71,0,0,1,.49-.24l.53-.2c.29-.12.59-.24.88-.34a7.27,7.27,0,0,1,1.55-.36h.06q.09,0,.12,0a0,0,0,0,1,0,0s-.06.06-.08.07c-.58.26-1.16.48-1.77.71l-.86.33a3.48,3.48,0,0,1-.44.1l-.14,0c-.21,0-.39.06-.5.07"/><path d="M99.05,71.79l-.36,0v-.06a1.1,1.1,0,0,0,.21-.13l.09-.06a5.07,5.07,0,0,1,.69-.29l1.65-.55a5.59,5.59,0,0,1,.65-.17h.17c.06,0,.11,0,.1.11s-.07.09-.13.12c-.59.25-1.21.48-1.83.68l-1,.28-.3.05"/><path d="M98.55,73.13h-.18v-.06a.58.58,0,0,0,.21-.12l.09-.06a6.37,6.37,0,0,1,.74-.32l.56-.2a14.21,14.21,0,0,1,2.18-.61s.22,0,.24.06-.22.21-.36.26h0c-.19.08-.39.16-.61.23s-.75.26-1.22.4l-.22.07a9.08,9.08,0,0,1-1.39.33"/><path d="M98.79,74.48a1.42,1.42,0,0,1-.19,0l0-.06.08-.05s0,0,0,0l.26-.13.17-.08a4.94,4.94,0,0,1,.86-.33l.18-.06c.75-.24,1.52-.46,2.3-.64h.1a.11.11,0,0,1,.08.05.09.09,0,0,1,0,.11.35.35,0,0,1-.15.11,9.32,9.32,0,0,1-1,.38.92.92,0,0,0-.27.08l-.12,0-.41.13-.24.08c-.18.06-.36.13-.54.18l-.66.14-.5.07"/><path d="M99.28,75.91a.47.47,0,0,1-.21,0l-.12,0h.14a.61.61,0,0,1,.16-.11l.17-.11.18-.1.16-.08a4.63,4.63,0,0,1,.83-.33l.13,0c.65-.22,1.34-.4,2-.56l.11,0c.13,0,.18,0,.2.06v0l0,0a2.84,2.84,0,0,1-.65.33c-.92.35-1.87.66-2.83,1l-.24,0"/><path d="M99.38,77.07h-.23V77a.52.52,0,0,0,.12-.07s0,0,.07,0l.15-.07.07,0,.5-.22c.4-.16.73-.29,1-.39a9,9,0,0,1,1.86-.44h.19a.06.06,0,0,1,0,.1l-.08,0-.88.3-.12,0-.28.1-.09,0-.17.08a17.59,17.59,0,0,1-1.75.52l-.16,0-.25,0"/><path d="M98.33,79.1a.22.22,0,0,1,0-.08,1,1,0,0,1,.25-.2,12.89,12.89,0,0,1,2.16-.82,9.47,9.47,0,0,1,1.87-.44h.1a.58.58,0,0,1,.32,0h0v0c0,.07-.11.1-.19.13-.44.18-.93.32-1.4.46l-.67.2-1,.31-.19.06c-.22.07-1.07.31-1.31.35h-.06Z"/><path d="M99.74,80.2c-.11,0-.19,0-.21-.07a.11.11,0,0,1,0-.08.38.38,0,0,1,.16-.13,13,13,0,0,1,1.54-.62l.66-.17a7.39,7.39,0,0,1,.82-.14,2.68,2.68,0,0,1,.39,0,.1.1,0,0,1,.07,0,.07.07,0,0,1,0,.1l-.08,0c-.31.12-.62.21-.93.3l-.7.21-.46.18a6.47,6.47,0,0,1-1.23.37Z"/><path d="M100.62,76.31h0c-.1-.55-.91-5.58-1.87-11.72s-2.09-13.46-2.87-18.78c-.17-1.36-.39-3.07-.6-4.56-.1-.74-.2-1.43-.29-2s-.16-1-.25-1.34a2.5,2.5,0,0,0-1.1-1.56,2.18,2.18,0,0,0-1.28-.27,4.25,4.25,0,0,0-.93.18l-.28.07-.05,0-7.59.53a3.32,3.32,0,0,0-1.55.43,2.73,2.73,0,0,0-1,1.11,2.69,2.69,0,0,0-.28.53,1.93,1.93,0,0,0-.11.53c0,.39-.07.78-.1,1.17,0,.05,0,.09,0,.14-.3,3.74-.6,7.53-.88,11-2.1-4.09-4.69-8.83-5-9.45a2.77,2.77,0,0,0-1-1.08A2.24,2.24,0,0,0,72.22,41a8.53,8.53,0,0,0-2.08.57,1.34,1.34,0,0,0-.4.23l-.87.27-1,.32c-.59.18-1.22.36-1.88.54l-2.48.72a4.7,4.7,0,0,0-1.15.41,2.35,2.35,0,0,0-.86.82A3.24,3.24,0,0,0,61,46.24a4.46,4.46,0,0,0,0,.63,8,8,0,0,0,.21,1.38c.41,2.23.86,4.41,1.39,6.61l.63,2.65c.86,3.8,1.58,7,2.28,10.26.13.62.26,1.23.4,1.84.67,3.07,1.51,6.66,1.89,9.63a4.85,4.85,0,0,0,.29,1.22A2.73,2.73,0,0,0,69,81.6l0,0a2.71,2.71,0,0,0,1.77.42c.63-.05,1.19-.21,1.36-.22.94-.11,1.85-.26,2.74-.39h.07l.48,0a4.32,4.32,0,0,0,1.19-.23,2.31,2.31,0,0,0,.76-.47A2.23,2.23,0,0,0,78,79.57v0a3.09,3.09,0,0,0,.08-1,5.38,5.38,0,0,0-.13-.9c-.07-.34-.33-1.93-.65-4.12-.12-.79-.25-1.67-.38-2.62.93,1.19,2.12,2.63,3.25,4s2.07,2.68,2.69,3.67a1.71,1.71,0,0,0,.21.26,3,3,0,0,0,2.36,1,2.33,2.33,0,0,0,2.06-1.52A24.14,24.14,0,0,0,88.7,74.6l0-.11c.25-1.36.55-3,.85-4.58.05.49.11,1,.17,1.45.27,2.33.49,4.36.55,4.91,0,.12,0,.3,0,.51l0,.26c0,.29.09.58.12.84v0a5.61,5.61,0,0,0,.22,1l0,.12a2.93,2.93,0,0,0,.87,1.22l.06,0a2.68,2.68,0,0,0,1.76.42c.64-.05,1.2-.21,1.37-.22.93-.11,1.85-.26,2.74-.39h.06L98,80a4.32,4.32,0,0,0,1.19-.23,2.31,2.31,0,0,0,.76-.47,2.35,2.35,0,0,0,.67-1.13v0a3.13,3.13,0,0,0,.09-1A5.72,5.72,0,0,0,100.62,76.31Z"/><path class="cls-2" d="M99.27,76.71c-.14-.71-3.17-19.8-4.76-30.65-.35-2.71-.89-6.85-1.1-7.67-.31-1.2-1.7-.44-2.2-.4l-7.62.53c-.9.06-1.27.33-1.47.86a.67.67,0,0,0-.16.25c0,.4-.07.8-.1,1.2v0h0c-.46,5.72-.93,11.55-1.31,16.14-1.62-3.65-6.69-13-7.14-13.76-.56-1-1.3-.69-2.87-.14l0,.11-1.34.41L68.17,44l-1.9.54c-.82.24-1.63.46-2.45.71-.59.18-1.33.21-1.42,1.21a5.42,5.42,0,0,0,.17,1.49c.41,2.19.85,4.34,1.37,6.5.21.89.43,1.78.63,2.67.87,3.8,1.59,7,2.29,10.28.13.62.26,1.23.4,1.84.66,3,1.52,6.67,1.92,9.79a3,3,0,0,0,.17.75,1,1,0,0,0,.35.46c.63.43,1.7,0,2.29,0,.91-.11,1.81-.25,2.71-.38.46-.07,1.82,0,2-.71a2.35,2.35,0,0,0-.06-1c-.19-.9-1-6.23-1.76-12.44l1.43,2,1,1.38c.92,1.24,2.45,3.08,3.9,4.91,1.08,1.36,2.1,2.71,2.79,3.8a1.5,1.5,0,0,0,2,.37c.32-.24.79-1.78,1.31-3.9.85-4.59,2.2-12.32,2.54-11.64s1.77,13.7,1.77,13.7,0,.23,0,.54.09.6.13.89a3.58,3.58,0,0,0,.14.65,1.33,1.33,0,0,0,.38.56c.63.43,1.7,0,2.29,0,.9-.11,1.81-.25,2.71-.38.46-.07,1.82,0,2-.71a2.21,2.21,0,0,0-.06-1"/><path d="M63.86,56.05c-.09,0-.16,0-.2,0s0-.18.09-.26a4.57,4.57,0,0,1,.65-.43c.57-.32,1.51-.85,2.3-1.21l.12,0a.31.31,0,0,1,.19,0s0,.07-.06.14a6.65,6.65,0,0,1-.67.47l-.26.19-.54.37a9.75,9.75,0,0,1-1.37.69l-.18.08-.07,0"/><path d="M63.44,54.71l-.25.07v-.06l.05-.06,0,0,0,0a1.39,1.39,0,0,1,.27-.21l.75-.46a18.74,18.74,0,0,1,1.91-1.05l.15-.07a.44.44,0,0,1,.15,0s.06,0,.07,0,0,.08-.07.12a20.67,20.67,0,0,1-1.79,1.13l0,0a7,7,0,0,1-1.24.59"/><path d="M64.22,57.48l-.16.05h0v-.06a.64.64,0,0,0,.16-.14l.07-.06.06-.05c.15-.12.29-.23.45-.34l.49-.32L66.1,56a7.12,7.12,0,0,1,1.47-.69l.05,0a.12.12,0,0,1,.12,0s0,0,0,0,0,.08-.07.09c-.53.38-1.06.72-1.63,1.08l-.8.51a3,3,0,0,1-.41.19l-.13,0-.49.18"/><path d="M64.74,58.39l-.35.1v-.06a.93.93,0,0,0,.19-.17l.09-.08a3.76,3.76,0,0,1,.63-.44c.5-.3,1-.6,1.54-.89.19-.1.39-.22.61-.31l.06,0,.1,0c.07,0,.13,0,.13.09s-.06.11-.12.15c-.54.37-1.11.73-1.7,1.06-.29.17-.59.33-.89.48l-.28.11"/><path d="M64.45,59.81l-.18.06v-.06a1.15,1.15,0,0,0,.2-.16.29.29,0,0,1,.08-.08,6.09,6.09,0,0,1,.67-.48l.52-.32a18.05,18.05,0,0,1,2-1.06c.06,0,.22-.08.25,0s-.19.26-.31.34l0,0-.56.36c-.34.2-.7.41-1.14.65l-.21.11a8,8,0,0,1-1.32.62"/><path d="M64.89,61.09a.49.49,0,0,1-.18,0v0l.07-.07,0,0,.23-.18.15-.12a5.16,5.16,0,0,1,.8-.51l.17-.09c.7-.4,1.43-.78,2.16-1.13l0,0h0a.12.12,0,0,1,.09,0,.12.12,0,0,1,0,.1.47.47,0,0,1-.13.15c-.3.22-.62.4-.94.59a.8.8,0,0,0-.24.13l-.11.07-.39.22-.22.14c-.17.1-.34.2-.51.28l-.63.29-.48.17"/><path d="M65.59,62.4a.47.47,0,0,1-.2,0l-.13,0,.13,0,.15-.14.15-.14.16-.14.14-.11a6.85,6.85,0,0,1,.77-.51l.12-.06c.61-.37,1.26-.69,1.87-1l.1,0c.12,0,.18,0,.21,0h0l0,0a2.71,2.71,0,0,1-.59.47c-.85.54-1.74,1.06-2.63,1.54a1.33,1.33,0,0,1-.24.11"/><path d="M65.87,63.52l-.22.06v-.06l.11-.1.07-.06.13-.1.06,0,.47-.32c.36-.25.67-.45,1-.62a9.65,9.65,0,0,1,1.76-.82l.11,0a.11.11,0,0,1,.08,0,.05.05,0,0,1,0,.09.19.19,0,0,1-.07.06l-.82.49-.11.06a1.4,1.4,0,0,0-.26.16l-.09.07-.15.12c-.51.32-1.09.6-1.64.88l-.15.07-.24.1"/><path d="M65.15,65.73a.36.36,0,0,1,0-.09,1.21,1.21,0,0,1,.21-.25,16.25,16.25,0,0,1,2-1.27,10.22,10.22,0,0,1,1.77-.82l.1,0a.51.51,0,0,1,.32,0h0v0a.37.37,0,0,1-.16.17c-.41.27-.87.51-1.31.75l-.63.34-.9.51-.17.1c-.21.12-1,.54-1.24.63l-.06,0Z"/><path d="M66.7,66.52c-.11,0-.19,0-.22,0a.17.17,0,0,1,0-.07.35.35,0,0,1,.14-.17A14,14,0,0,1,68,65.31l.63-.31c.25-.11.51-.23.77-.32l.39-.1a.1.1,0,0,1,.07,0s0,.06,0,.09a.13.13,0,0,1-.08.07c-.28.18-.58.34-.87.5s-.43.23-.64.36-.3.18-.44.27a6.73,6.73,0,0,1-1.15.63Z"/><path d="M70.54,43a2.6,2.6,0,0,0-1.05-1.05c-.32-.18-.59-.29-.75-.37-.85-.44-1.7-.86-2.54-1.28l-2-1-1.07-.56c-.77-.4-1.56-.84-2.43-1.22a1.91,1.91,0,0,0-.82-.19,1.75,1.75,0,0,0-1.42.79,5.87,5.87,0,0,0-.7,1.73c-.15.55-.3,1.12-.51,1.67-.1.25-.19.53-.32,1-.59,2-1.85,6.65-3,10.93-.6-3.32-1.08-6-1.26-6.86-.47-2.33-.82-4-.89-4.38s-.16-.83-.24-1.23a11.74,11.74,0,0,0-.37-1.54h0a4.28,4.28,0,0,0-.35-1.11,1.83,1.83,0,0,0-.69-.74,1.55,1.55,0,0,0-.78-.21,2.41,2.41,0,0,0-1,.28l-.29.14-.08,0h0c-.61.22-1.23.42-1.84.62-.82.27-1.45.65-1.95.81-1.28.43-2.7.72-4.17,1.25a2,2,0,0,0-1.13.94,2.29,2.29,0,0,0-.27,1.06,2.62,2.62,0,0,0,.21,1l.09.21a.15.15,0,0,1,0,.06c.11.28.21.68.37,1.15h0l0,0,1.93,5.66c1.11,3.24,2.28,6.64,2.28,6.65.47,1.36.87,2.75,1.26,4.11.14.48.28,1,.43,1.48s2.47,8.87,3.1,11.08c0,0,0,0,0,.07-.3,1-.79,2.48-1.34,4.16L44.35,78l-1.54-.11c-.47,0-.94-.07-1.41-.07l-.42,0h0c-.14,0-.39,0-.69,0a2.87,2.87,0,0,0-.55,0,1.84,1.84,0,0,0-1.27.92,2.66,2.66,0,0,0-.33,1.34,5,5,0,0,0,0,.66c0,.07,0,.13,0,.17h0c0,.72-.06,1.45-.12,2.15,0,.16,0,.32,0,.47,0,.76.09,1.35.09,1.77,0,.06,0,.12,0,.17h0c-.07,1.47-.38,3.11-.42,4.93v.11a2.89,2.89,0,0,0,.09.73,2,2,0,0,0,.54.94,1.82,1.82,0,0,0,1.29.51h0c.38,0,.64-.07.73-.07.46,0,1,0,1.53,0H42l7.45-.41.25,0L51.78,92h0a1.82,1.82,0,0,0,.81-.25,2.66,2.66,0,0,0,1.19-1.5c.55-1.54,2.23-5.71,3-7.82.16-.43.27-.76.36-1,.81-2.21,3-8.34,3.73-10.18l.68-1.68v0L68,52.36c.87-2,1.65-4,2.4-6a6.11,6.11,0,0,0,.5-1.92V44.3A2.89,2.89,0,0,0,70.54,43Z"/><path class="cls-2" d="M49.48,74.45c-.33,1.08-.9,2.83-1.52,4.73a.55.55,0,0,1-.61.47l-3.08-.2-1.53-.1c-.62,0-1.19-.08-1.7-.06a8.66,8.66,0,0,0-1.14,0c-.85.17-.48,1.2-.49,1.66q0,1.13-.12,2.25c-.06.77.1,1.57.07,2.35-.08,1.63-.39,3.26-.42,4.9a.74.74,0,0,0,.17.59c.31.3.78.14,1.18.11s1,0,1.53,0l7.57-.42h.25l2.08-.12s.61,0,.91-.85c.57-1.61,2.25-5.76,3-7.83.16-.44.28-.79.34-1,.79-2.15,3-8.33,3.76-10.29l.69-1.67,6.41-17.21c.86-2,1.63-3.92,2.38-5.93a4.89,4.89,0,0,0,.39-1.39c0-1-.75-1.19-1.36-1.5-.84-.44-1.69-.85-2.53-1.27l-2-1-1.08-.57c-.79-.4-1.56-.83-2.36-1.19-1.18-.53-1.11,1.23-1.89,3.24-.44,1.13-3.21,11.55-4.7,17-1-5.66-2-11-2.23-12.28-.47-2.34-.81-4-.89-4.41s-.16-.81-.23-1.22a11.65,11.65,0,0,0-.32-1.32,7.53,7.53,0,0,0-.24-.88c-.32-.6-1.1,0-1.48.15l-1.89.63c-.65.2-1.27.58-1.93.81-1.37.45-2.78.74-4.14,1.24a.73.73,0,0,0-.45.32c-.18.33,0,.65.16.95s.23.78.36,1.16c0,0,1,2.78,2,5.71l2.28,6.65c.48,1.42.89,2.83,1.28,4.19.14.49.28,1,.43,1.47s2.51,9,3.12,11.14C49.51,73.48,49.67,73.73,49.48,74.45Z"/><path d="M39.2,84.06c0,.06,0,.2,0,.22l0,0a.9.9,0,0,0-.05-.09l0,0a2.55,2.55,0,0,1-.13-.29c0-.06,0-.13-.08-.19a6.29,6.29,0,0,1-.33-1l-.06-.2c-.25-.88-.49-1.78-.69-2.68,0,0,0,0,0-.07v-.06a.12.12,0,0,1,0-.09.08.08,0,0,1,.09,0,.36.36,0,0,1,.11.17c.15.37.26.78.38,1.17a1.47,1.47,0,0,0,.08.3,1.21,1.21,0,0,1,0,.14l.14.48.09.28.18.63c.06.28.11.54.16.78s.07.45.09.58"/><path d="M40.37,83.39a1,1,0,0,1,0,.25l0,.15,0-.17-.1-.18-.1-.19c0-.08-.07-.15-.1-.22a1.42,1.42,0,0,0-.08-.18,8.31,8.31,0,0,1-.33-1l0-.15c-.23-.76-.42-1.56-.6-2.31a.5.5,0,0,1,0-.12c0-.16,0-.22,0-.25l0,0v0a4,4,0,0,1,.33.75c.34,1.07.67,2.17,1,3.28a2.47,2.47,0,0,1,.06.29"/><path d="M41.34,83.2l0,.27h0l-.07-.13,0-.09-.06-.17,0-.08c-.07-.19-.14-.38-.22-.58-.16-.46-.29-.84-.39-1.2A12.63,12.63,0,0,1,40,79a.59.59,0,0,1,0-.13.33.33,0,0,1,0-.1,0,0,0,0,1,.08,0,.31.31,0,0,1,.05.1c.1.33.21.67.31,1l0,.13a2.58,2.58,0,0,0,.1.33.54.54,0,0,1,0,.11,1.08,1.08,0,0,1,.08.19c.22.65.38,1.36.55,2l0,.19a2.93,2.93,0,0,1,.05.29"/><path d="M45.16,82.45a2.28,2.28,0,0,1,0,.27h0a.61.61,0,0,0-.07-.14l0-.08L45,82.32l0-.08-.21-.58c-.17-.46-.29-.84-.4-1.2a13.65,13.65,0,0,1-.48-2.17s0-.09,0-.13a.31.31,0,0,1,0-.09s0,0,.08,0a.42.42,0,0,1,0,.1c.11.33.21.67.31,1a.65.65,0,0,0,0,.13,2.58,2.58,0,0,0,.1.33.37.37,0,0,0,0,.11c0,.06.05.12.08.19.21.65.38,1.36.54,2l0,.19c0,.1,0,.19.06.29"/><path d="M43.11,84.31l-.07,0a1,1,0,0,1-.18-.29,21.48,21.48,0,0,1-.83-2.5,14.85,14.85,0,0,1-.48-2.18v-.12a1,1,0,0,1,0-.39v0h0a.47.47,0,0,1,.12.21c.18.52.33,1.09.48,1.63q.11.41.21.78l.32,1.12.06.22c.08.27.33,1.25.38,1.54v.07Z"/><path d="M44,82.57c0,.14,0,.23-.05.26s0,0-.06,0-.1-.13-.12-.18a17.7,17.7,0,0,1-.62-1.78q-.1-.39-.18-.78c-.07-.31-.14-.63-.18-1,0-.16,0-.32,0-.47a.2.2,0,0,1,0-.07.05.05,0,0,1,.09,0,.47.47,0,0,1,.05.1c.12.35.21.72.31,1.08s.14.54.22.81l.18.54A10.72,10.72,0,0,1,44,82.54Z"/><path d="M46.26,74.46c-.76-3-1.5-5.87-2-7.74-.32-1.27-.53-2.06-.53-2.08-.61-2.45-1.23-4.9-1.84-7.35-.81-3.25-1.82-6.9-2.63-10.15-.95-3.78-1.94-7.53-2.91-11.3a6.28,6.28,0,0,1-.24-1.28,1.41,1.41,0,0,0-.16-.8c-.34-.47-1.28.34-1.65.52-.71.34-1.42.67-2.14,1C30.8,35.89,29.4,36.46,28,37a1.24,1.24,0,0,0-.54.34c-.29.36,0,.81.09,1.2.13.54.26,1.08.4,1.61.26,1.08.53,2.15.8,3.22l1.65,6.52c1.11,4.4,2.43,9.19,3.58,13.58q.83,3.15,1.66,6.3l-4,2-.11.06c-.23-.83-.47-1.66-.68-2.51Q29.89,65.71,29,62q-1.22-4.87-2.44-9.75c-.94-3.78-1.94-7.54-2.91-11.31a6.87,6.87,0,0,1-.23-1.28,1.6,1.6,0,0,0-.16-.8c-.34-.47-1.29.35-1.65.52-.71.35-1.43.68-2.14,1-1.39.62-2.79,1.19-4.2,1.75a1.27,1.27,0,0,0-.55.34c-.29.36,0,.81.09,1.2s.27,1.07.4,1.61L16,48.52c.54,2.17,1.09,4.35,1.64,6.52Q19.3,61.64,21,68.22c.69,2.63,1.39,5.27,2.1,7.9-1.75.88-3.95,1.74-4.27,1.88-.1,0-.22.08-.3,0a.39.39,0,0,1-.07-.16c-.31-1.1-.62-2.2-.9-3.32-.62-2.45-1.23-4.91-1.84-7.36q-1.23-4.87-2.44-9.75c-.95-3.78-1.95-7.53-2.91-11.31a6,6,0,0,1-.24-1.28A1.54,1.54,0,0,0,10,44c-.34-.46-1.29.35-1.65.53-.71.34-1.42.67-2.14,1Q4.1,46.46,2,47.28a1.24,1.24,0,0,0-.54.34c-.29.36,0,.81.08,1.2s.27,1.08.41,1.61c.26,1.08.53,2.15.8,3.22l1.65,6.52q1.67,6.6,3.38,13.18,1.48,5.67,3,11.31c.64,2.31,1.25,4.65,2,6.9.1.31.15.89.5.94h.08a1,1,0,0,0,.41-.13c1.33-.63,6.88-3.18,12.38-5.94l12.35-6.2C41.23,78.89,43.8,77.6,46,76.5,46,76.5,46.78,76.31,46.26,74.46Z"/><path d="M13.15,94.05a1.6,1.6,0,0,1-.93-.52h0a2.35,2.35,0,0,1-.43-.71h0a4,4,0,0,1-.19-.67h0v0h0c-.8-2.32-1.42-4.7-2.05-7h0c-1-3.77-2-7.56-3-11.34h0Q4.8,67.22,3.13,60.62h0C2.57,58.45,2,56.27,1.48,54.1h0L.67,50.88h0C.54,50.34.4,49.8.27,49.27h0a.23.23,0,0,0,0-.07h0L.17,49h0A3.43,3.43,0,0,1,0,48H0a2.37,2.37,0,0,1,.49-1.45h0a2.42,2.42,0,0,1,1.09-.74h0c1.39-.55,2.78-1.12,4.15-1.73h0c.7-.31,1.4-.63,2.09-1h0L8,43H8l.39-.24h0a2.61,2.61,0,0,1,1.32-.45h0A1.59,1.59,0,0,1,11,43h0a2.39,2.39,0,0,1,.43,1.15h0a3.91,3.91,0,0,1,0,.57h0a5.51,5.51,0,0,0,.19.92h0c1,3.76,2,7.52,2.91,11.31h0q1.21,4.89,2.44,9.76h0c.61,2.45,1.23,4.9,1.84,7.35h0c.17.68.35,1.37.55,2.05h0l.61-.26h0c.46-.19,1-.41,1.49-.65h0q-.87-3.25-1.73-6.53h0Q18,62.1,16.36,55.49h0L14.71,49h0c-.26-1.07-.53-2.14-.8-3.22h0c-.14-.53-.27-1.07-.4-1.61h0a.14.14,0,0,1,0-.06h0s-.05-.13-.08-.23h0a3,3,0,0,1-.17-1h0a2.31,2.31,0,0,1,.49-1.45h0a2.47,2.47,0,0,1,1.08-.74h0c1.4-.56,2.79-1.12,4.15-1.73h0c.71-.31,1.41-.63,2.1-1h0l0,0h0l.12-.07h0l.39-.25h0a2.66,2.66,0,0,1,1.32-.45h0a1.62,1.62,0,0,1,1.3.69h0A2.57,2.57,0,0,1,24.65,39h0c0,.3,0,.49,0,.58h0a5.23,5.23,0,0,0,.18.92h0c1,3.76,2,7.52,2.92,11.31h0q1.22,4.88,2.44,9.75h0c.61,2.45,1.22,4.91,1.84,7.36h0l.21.84h0L34,68.9h0c-.44-1.65-.88-3.31-1.31-5h0c-1.14-4.37-2.46-9.16-3.58-13.59h0l-1.65-6.52h0l-.81-3.22h0c-.13-.54-.27-1.08-.4-1.61h0a.23.23,0,0,0,0-.07h0l-.08-.22h0a3.35,3.35,0,0,1-.17-1h0a2.35,2.35,0,0,1,.5-1.46h0a2.36,2.36,0,0,1,1.08-.74h0c1.4-.55,2.78-1.12,4.15-1.72h0l2.09-1h0l.12-.08h0l.39-.24h0a2.7,2.7,0,0,1,1.32-.45h0a1.59,1.59,0,0,1,1.3.69h0a2.53,2.53,0,0,1,.44,1.15h0c0,.29,0,.48,0,.57h0a4.43,4.43,0,0,0,.18.92h0c1,3.76,2,7.52,2.91,11.32h0c.81,3.22,1.81,6.86,2.63,10.14h0q.93,3.69,1.84,7.36h0s.21.81.53,2.07h0c.47,1.86,1.21,4.76,2,7.73h0a5.9,5.9,0,0,1,.24,1.58h0a2.92,2.92,0,0,1-.58,1.85h0a1.77,1.77,0,0,1-.7.54h0l-7.43,3.71h0L26.7,87.88h0c-5.52,2.77-11.09,5.32-12.4,6h0a2,2,0,0,1-.9.24h0a1,1,0,0,1-.23,0ZM3.2,50c.27,1.07.53,2.14.8,3.21H4l1.65,6.52h0Q7.32,66.32,9,72.89H9c1,3.77,2,7.54,3,11.29h0c.61,2.2,1.19,4.39,1.89,6.46h0c2-.93,6.88-3.2,11.74-5.64h0L38,78.8h0l7.06-3.53h0c0-.09-.05-.19-.08-.32h0l1.25-.49L47.52,74l-1.26.45L45,75v0c-.76-3-1.5-5.87-2-7.74h0c-.33-1.27-.53-2-.53-2.08h0c-.62-2.45-1.23-4.91-1.84-7.36h0c-.81-3.22-1.81-6.86-2.63-10.15h0c-.94-3.75-1.94-7.51-2.91-11.29h0c0-.19-.11-.4-.16-.64h0l-.13.07h0c-.73.36-1.45.69-2.18,1h0c-1.26.56-2.53,1.09-3.8,1.59h0c.12.47.23.93.35,1.4h0c.27,1.07.53,2.14.8,3.21h0l1.65,6.52h0c1.11,4.38,2.43,9.16,3.58,13.56h0q.83,3.15,1.66,6.3h0a1.69,1.69,0,0,1-.74,1.91h0l-4,2h0l-.11.06h0a1.14,1.14,0,0,1-1.06,0h0a1.47,1.47,0,0,1-.71-.94h0q-.36-1.25-.69-2.55h0c-.61-2.45-1.23-4.91-1.84-7.36h0q-1.21-4.87-2.44-9.75h0c-.94-3.76-1.94-7.51-2.91-11.3h0c0-.18-.1-.4-.15-.63h0l-.13.07h0c-.73.35-1.46.69-2.18,1h0c-1.27.56-2.53,1.08-3.8,1.59h0c.11.46.23.93.35,1.4h0c.26,1.07.53,2.14.8,3.21h0l1.65,6.52h0q1.66,6.58,3.38,13.16h0q1,4,2.09,7.9h0a1.65,1.65,0,0,1-.74,1.91h0c-.91.46-1.92.9-2.74,1.25h0l-1.58.65h0a1.46,1.46,0,0,1-.64.15h0a1.34,1.34,0,0,1-1-.45h0a1.91,1.91,0,0,1-.44-.82h0c-.31-1.11-.63-2.22-.92-3.38h0q-.92-3.67-1.84-7.35h0Q13.25,62.74,12,57.85h0c-.94-3.75-1.93-7.51-2.9-11.29h0c0-.19-.11-.4-.16-.64H9L8.83,46h0c-.73.36-1.45.69-2.18,1h0c-1.26.56-2.53,1.08-3.8,1.59h0c.11.46.23.93.35,1.4ZM21.06,38Z"/><path class="cls-2" d="M46.26,74.46c-.76-3-1.5-5.87-2-7.74-.32-1.27-.53-2.06-.53-2.08-.61-2.45-1.23-4.9-1.84-7.35-.81-3.25-1.82-6.9-2.63-10.15-.95-3.78-1.94-7.53-2.91-11.3a6.28,6.28,0,0,1-.24-1.28,1.41,1.41,0,0,0-.16-.8c-.34-.47-1.28.34-1.65.52-.71.34-1.42.67-2.14,1C30.8,35.89,29.4,36.46,28,37a1.24,1.24,0,0,0-.54.34c-.29.36,0,.81.09,1.2.13.54.26,1.08.4,1.61.26,1.08.53,2.15.8,3.22l1.65,6.52c1.11,4.4,2.43,9.19,3.58,13.58q.83,3.15,1.66,6.3l-4,2-.11.06c-.23-.83-.47-1.66-.68-2.51Q29.89,65.71,29,62q-1.22-4.87-2.44-9.75c-.94-3.78-1.94-7.54-2.91-11.31a6.87,6.87,0,0,1-.23-1.28,1.6,1.6,0,0,0-.16-.8c-.34-.47-1.29.35-1.65.52-.71.35-1.43.68-2.14,1-1.39.62-2.79,1.19-4.2,1.75a1.27,1.27,0,0,0-.55.34c-.29.36,0,.81.09,1.2s.27,1.07.4,1.61L16,48.52c.54,2.17,1.09,4.35,1.64,6.52Q19.3,61.64,21,68.22c.69,2.63,1.39,5.27,2.1,7.9-1.75.88-3.95,1.74-4.27,1.88-.1,0-.22.08-.3,0a.39.39,0,0,1-.07-.16c-.31-1.1-.62-2.2-.9-3.32-.62-2.45-1.23-4.91-1.84-7.36q-1.23-4.87-2.44-9.75c-.95-3.78-1.95-7.53-2.91-11.31a6,6,0,0,1-.24-1.28A1.54,1.54,0,0,0,10,44c-.34-.46-1.29.35-1.65.53-.71.34-1.42.67-2.14,1Q4.1,46.46,2,47.28a1.24,1.24,0,0,0-.54.34c-.29.36,0,.81.08,1.2s.27,1.08.41,1.61c.26,1.08.53,2.15.8,3.22l1.65,6.52q1.67,6.6,3.38,13.18,1.48,5.67,3,11.31c.64,2.31,1.25,4.65,2,6.9.1.31.15.89.5.94h.08a1,1,0,0,0,.41-.13c1.33-.63,6.88-3.18,12.38-5.94l12.35-6.2C41.23,78.89,43.8,77.6,46,76.5,46,76.5,46.78,76.31,46.26,74.46Z"/><path d="M150.77,59.24a.17.17,0,0,0-.1,0,9.54,9.54,0,0,0-2,.59l-.32.12a1.21,1.21,0,0,1,0,.14.36.36,0,0,1,0,.25h0l.21,0a2.66,2.66,0,0,0,.5-.16,6.55,6.55,0,0,0,1.68-.76s.06,0,.06-.09,0,0-.07-.06"/><path d="M151.41,70h-.1a13.29,13.29,0,0,0-2.39.68l-.32.12a.58.58,0,0,1,.05.14.39.39,0,0,1,0,.24h0l.21,0a2.24,2.24,0,0,0,.5-.16,9,9,0,0,0,2-.84s.06-.05.06-.08,0,0-.07-.06"/><path d="M151.14,72.07H151a13.75,13.75,0,0,0-2.52.66l-.31.12c0,.05,0,.09,0,.14a.4.4,0,0,1,0,.24h0l.22,0A2.16,2.16,0,0,0,149,73a10.63,10.63,0,0,0,2.19-.82s0,0,0-.09,0,0-.06-.06"/><path d="M149.67,56.59h-.1a16.28,16.28,0,0,0-2,.53.23.23,0,0,1,.12.12l.09.23a.09.09,0,0,1,0,.05,8.45,8.45,0,0,0,1.88-.78s.06-.05.06-.08a.12.12,0,0,0-.07-.07"/><path d="M148.31,55.36h-.1a11.69,11.69,0,0,0-1.77.41.23.23,0,0,1,.12.12l.09.23a.08.08,0,0,1,0,0,6.28,6.28,0,0,0,1.66-.66s.06,0,.06-.08,0-.05-.07-.06"/><path d="M150.33,58h-.08a3.72,3.72,0,0,0-.57.08c-.13,0-.66.28-.78.32-.29.09-.59.15-.89.22l-.12,0a.39.39,0,0,1,0,.09l.12.34c.2-.06.4-.14.59-.21s.85-.35,1-.47.43-.21.64-.31a.15.15,0,0,0,.06-.05s0,0,0,0"/><path d="M151.09,60.57a.63.63,0,0,0-.36,0c-.43.11-.58.17-1,.31s-.88.29-1.16.43c.05.11.09.29.14.4.39-.13,1.07-.42,1.45-.56l.4-.14c.1,0-.09,0,0,0a4,4,0,0,0,.52-.32s.08,0,.07-.08,0,0-.08,0"/><path d="M151.45,62a6,6,0,0,0-2.2.65l-.34,0c0,.14,0,.31,0,.45a8.72,8.72,0,0,0,1-.24,6.32,6.32,0,0,0,.6-.25l.59-.26c.29-.13,0-.09.33-.21.08,0,.17-.09.18-.16a.39.39,0,0,0-.19,0"/><path d="M152,63.53a.12.12,0,0,0-.14,0,5.82,5.82,0,0,0-1.7.38c-.24.08-.48.16-.7.25l-.35.16c0,.14,0,.29,0,.43a6.5,6.5,0,0,1,.62-.22c.44-.13.86-.25,1.3-.36s.41-.32.86-.43a.31.31,0,0,0,.12-.05.09.09,0,0,0,0-.11h0"/><path d="M152,65a.49.49,0,0,0-.34,0,7.1,7.1,0,0,0-1,.21c-.57.17-1.12.38-1.67.59,0,.13,0,.27,0,.4a1.39,1.39,0,0,0,.19-.06l.79-.26c.09,0,.18,0,.27,0a1.33,1.33,0,0,0,.34-.16,1.69,1.69,0,0,1,.31-.13l1.12-.45S152,65,152,65s0,0,0,0"/><path d="M152,66.5a2.91,2.91,0,0,0-1,.16l-1.94.63a.84.84,0,0,1-.08.47l1-.33c.71-.27,1.37-.55,2.08-.81,0,0,.07,0,.08-.07s-.07,0-.12,0"/><path d="M148.82,69.39c3.27-1,3.13-1.17,3.14-1.16s-.26-.07-.41,0c-.52.11-2.17.57-2.71.73a.93.93,0,0,1,0,.47"/></g></g></svg>