<svg xmlns="http://www.w3.org/2000/svg" viewBox="0 0 389.04 359.6"><defs><style>.cls-1{fill:#89c6cc;}</style></defs><title>upload-icon</title><g id="Слой_2" data-name="Слой 2"><g id="Layer_1" data-name="Layer 1"><path class="cls-1" d="M316.4,93.92A112.69,112.69,0,0,0,107.6,56.48a64.55,64.55,0,0,0-11.84-1.12A61.76,61.76,0,0,0,34.08,117a67.42,67.42,0,0,0,1.28,12.8A85.83,85.83,0,0,0,0,199a91.76,91.76,0,0,0,23.28,60.72c15.44,17.44,35.84,27.76,57.6,29h69.44a10.8,10.8,0,0,0,0-21.6H81.84C49.12,265.12,21.6,234,21.6,199a64.12,64.12,0,0,1,31.76-55.2,10.89,10.89,0,0,0,4.72-13.12,39.19,39.19,0,0,1-2.4-13.76A40.15,40.15,0,0,1,95.76,76.8a39.39,39.39,0,0,1,13.68,2.4A10.85,10.85,0,0,0,123,73.68a91.08,91.08,0,0,1,173,30,10.79,10.79,0,0,0,9,9.6c35.6,6.08,62.48,39,62.48,76.48,0,39.76-31.28,74.32-69.84,77.28h-59a10.8,10.8,0,0,0,0,21.6H298.8A95.71,95.71,0,0,0,363,257,99.63,99.63,0,0,0,389,189.76C389,144.88,358.32,105,316.4,93.92Z"/><path class="cls-1" d="M259.36,209.28a10.77,10.77,0,0,0,0-15.28l-57.2-57.2a10.93,10.93,0,0,0-7.6-3.2,10.59,10.59,0,0,0-7.6,3.2L129.76,194a10.84,10.84,0,0,0,7.6,18.48,10.54,10.54,0,0,0,7.6-3.2l38.8-38.8V348.8a10.8,10.8,0,0,0,21.6,0V170.48l38.8,38.8a10.67,10.67,0,0,0,15.2,0Z"/></g></g></svg>